<svg xmlns="http://www.w3.org/2000/svg" width="40" height="40" viewBox="0 0 40 40" fill="none">
  <rect width="40" height="40" rx="9.04348" fill="#1D1D1F"/>
  <path d="M12.9506 10.7102L19.9956 6.60938L27.0406 10.7102L24.4505 12.2252L19.9956 9.63929L15.5406 12.2252L12.9506 10.7102ZM27.0406 15.8819L24.4505 14.367L19.9956 16.9529L15.5406 14.367L12.9506 15.8819V18.9119L17.4055 21.4977V26.6695L19.9956 28.1844L22.5857 26.6695V21.4977L27.0406 18.9119V15.8819ZM27.0406 24.0836V21.0537L24.4505 22.5686V25.5986L27.0406 24.0836ZM28.8796 25.1545L24.4247 27.7404V30.7703L31.4697 26.6695V18.4678L28.8796 19.9828V25.1545ZM26.2895 13.2961L28.8796 14.811V17.8409L31.4697 16.326V13.2961L28.8796 11.7811L26.2895 13.2961ZM17.4055 28.8374V31.8673L19.9956 33.3823L22.5857 31.8673V28.8374L19.9956 30.3524L17.4055 28.8374ZM12.9506 24.0836L15.5406 25.5986V22.5686L12.9506 21.0537V24.0836ZM17.4055 13.2961L19.9956 14.811L22.5857 13.2961L19.9956 11.7811L17.4055 13.2961ZM11.1116 14.811L13.7017 13.2961L11.1116 11.7811L8.52148 13.2961V16.326L11.1116 17.8409V14.811ZM11.1116 19.9828L8.52148 18.4678V26.6695L15.5665 30.7703V27.7404L11.1116 25.1545V19.9828Z" fill="#F0B90B"/>
</svg>