<svg width="40" height="40" viewBox="0 0 40 40" fill="none" xmlns="http://www.w3.org/2000/svg">
<rect width="40" height="40" rx="8" fill="#1D1D1F" fill-opacity="0.89"/>
<path d="M30.5 11.25H9.5C9.26794 11.25 9.04538 11.3422 8.88128 11.5063C8.71719 11.6704 8.625 11.8929 8.625 12.125V27C8.625 27.4641 8.80937 27.9092 9.13756 28.2374C9.46575 28.5656 9.91087 28.75 10.375 28.75H29.625C30.0891 28.75 30.5342 28.5656 30.8624 28.2374C31.1906 27.9092 31.375 27.4641 31.375 27V12.125C31.375 11.8929 31.2828 11.6704 31.1187 11.5063C30.9546 11.3422 30.7321 11.25 30.5 11.25ZM29.625 27H10.375V14.1156L19.4094 22.3953C19.5707 22.5429 19.7814 22.6247 20 22.6247C20.2186 22.6247 20.4293 22.5429 20.5906 22.3953L29.625 14.1156V27Z" fill="white"/>
</svg>
