<svg xmlns="http://www.w3.org/2000/svg" width="40" height="40" viewBox="0 0 40 40" fill="none">
  <g clip-path="url(#clip0_237_42005)">
    <path d="M40 0H0V40H40V0Z" fill="#1D1D1F"/>
    <path d="M14.2836 15.8516H6.35621C6.30732 15.8516 6.26043 15.871 6.22587 15.9056C6.19128 15.9401 6.17188 15.987 6.17188 16.0359V23.9633C6.17188 24.0122 6.19128 24.0591 6.22587 24.0936C6.26043 24.1282 6.30732 24.1476 6.35621 24.1476H14.2836C14.3325 24.1476 14.3794 24.1282 14.4139 24.0936C14.4485 24.0591 14.4679 24.0122 14.4679 23.9633V16.0359C14.4679 15.987 14.4485 15.9401 14.4139 15.9056C14.3794 15.871 14.3325 15.8516 14.2836 15.8516ZM11.7026 21.1979C11.7026 21.2468 11.6832 21.2937 11.6486 21.3283C11.614 21.3629 11.5671 21.3823 11.5182 21.3823H9.12158C9.07269 21.3823 9.0258 21.3629 8.99121 21.3283C8.95665 21.2937 8.93725 21.2468 8.93725 21.1979V18.8013C8.93725 18.7524 8.95665 18.7055 8.99121 18.6709C9.0258 18.6363 9.07269 18.6169 9.12158 18.6169H11.5182C11.5671 18.6169 11.614 18.6363 11.6486 18.6709C11.6832 18.7055 11.7026 18.7524 11.7026 18.8013V21.1979Z" fill="white"/>
    <path d="M30.8798 18.6172H28.4832C28.3814 18.6172 28.2988 18.6997 28.2988 18.8015V21.1982C28.2988 21.3 28.3814 21.3826 28.4832 21.3826H30.8798C30.9816 21.3826 31.0642 21.3 31.0642 21.1982V18.8015C31.0642 18.6997 30.9816 18.6172 30.8798 18.6172Z" fill="white"/>
    <path d="M28.1142 15.8516H25.7176C25.6158 15.8516 25.5332 15.9341 25.5332 16.0359V18.4326C25.5332 18.5344 25.6158 18.6169 25.7176 18.6169H28.1142C28.2161 18.6169 28.2986 18.5344 28.2986 18.4326V16.0359C28.2986 15.9341 28.2161 15.8516 28.1142 15.8516Z" fill="white"/>
    <path d="M33.6455 15.8516H31.2488C31.147 15.8516 31.0645 15.9341 31.0645 16.0359V18.4326C31.0645 18.5344 31.147 18.6169 31.2488 18.6169H33.6455C33.7473 18.6169 33.8298 18.5344 33.8298 18.4326V16.0359C33.8298 15.9341 33.7473 15.8516 33.6455 15.8516Z" fill="white"/>
    <path d="M28.1142 21.3818H25.7176C25.6158 21.3818 25.5332 21.4644 25.5332 21.5662V23.9628C25.5332 24.0647 25.6158 24.1472 25.7176 24.1472H28.1142C28.2161 24.1472 28.2986 24.0647 28.2986 23.9628V21.5662C28.2986 21.4644 28.2161 21.3818 28.1142 21.3818Z" fill="white"/>
    <path d="M33.6455 21.3818H31.2488C31.147 21.3818 31.0645 21.4644 31.0645 21.5662V23.9628C31.0645 24.0647 31.147 24.1472 31.2488 24.1472H33.6455C33.7473 24.1472 33.8298 24.0647 33.8298 23.9628V21.5662C33.8298 21.4644 33.7473 21.3818 33.6455 21.3818Z" fill="white"/>
    <path d="M23.9619 15.8516H21.5652C21.4634 15.8516 21.3809 15.9341 21.3809 16.0359V18.4326C21.3809 18.5344 21.4634 18.6169 21.5652 18.6169H23.9619C24.0637 18.6169 24.1462 18.5344 24.1462 18.4326V16.0359C24.1462 15.9341 24.0637 15.8516 23.9619 15.8516Z" fill="white"/>
    <path d="M23.9619 21.3818H21.5652C21.4634 21.3818 21.3809 21.4644 21.3809 21.5662V23.9628C21.3809 24.0647 21.4634 24.1472 21.5652 24.1472H23.9619C24.0637 24.1472 24.1462 24.0647 24.1462 23.9628V21.5662C24.1462 21.4644 24.0637 21.3818 23.9619 21.3818Z" fill="white"/>
    <path d="M21.3823 18.7992C21.3823 18.7503 21.3629 18.7034 21.3283 18.6689C21.2937 18.6343 21.2468 18.6149 21.1979 18.6149H18.6169V16.0359C18.6169 15.987 18.5975 15.9401 18.5629 15.9056C18.5283 15.871 18.4815 15.8516 18.4326 15.8516H16.0359C15.987 15.8516 15.9401 15.871 15.9056 15.9056C15.871 15.9401 15.8516 15.987 15.8516 16.0359V23.9592C15.8516 24.008 15.871 24.0549 15.9056 24.0895C15.9401 24.1241 15.987 24.1435 16.0359 24.1435H18.4326C18.4815 24.1435 18.5283 24.1241 18.5629 24.0895C18.5975 24.0549 18.6169 24.008 18.6169 23.9592V21.3802H21.1979C21.2468 21.3802 21.2937 21.3608 21.3283 21.3262C21.3629 21.2916 21.3823 21.2447 21.3823 21.1959V18.7992Z" fill="white"/>
  </g>
  <defs>
    <clipPath id="clip0_237_42005">
      <rect width="40" height="40" rx="8" fill="white"/>
    </clipPath>
  </defs>
</svg>