<svg width="32" height="32" viewBox="0 0 32 32" fill="none" xmlns="http://www.w3.org/2000/svg">
<rect width="32" height="32" rx="6" fill="#AB9FF2"/>
<path d="M6.83991 25.9551C9.90256 25.9551 12.2041 23.2956 13.5777 21.1941C13.4107 21.6591 13.3178 22.124 13.3178 22.5703C13.3178 23.7978 14.0232 24.6718 15.4153 24.6718C17.3272 24.6718 19.3689 22.998 20.4269 21.1941C20.3526 21.4545 20.3155 21.6963 20.3155 21.9194C20.3155 22.7749 20.7981 23.3142 21.7819 23.3142C24.8817 23.3142 28 17.828 28 13.0298C28 9.29178 26.1067 6 21.355 6C13.0023 6 4 16.1914 4 22.7749C4 25.3599 5.39209 25.9551 6.83991 25.9551ZM18.4779 12.6207C18.4779 11.6908 18.9977 11.0399 19.7587 11.0399C20.5011 11.0399 21.0209 11.6908 21.0209 12.6207C21.0209 13.5506 20.5011 14.22 19.7587 14.22C18.9977 14.22 18.4779 13.5506 18.4779 12.6207ZM22.4502 12.6207C22.4502 11.6908 22.9698 11.0399 23.7309 11.0399C24.4733 11.0399 24.9931 11.6908 24.9931 12.6207C24.9931 13.5506 24.4733 14.22 23.7309 14.22C22.9698 14.22 22.4502 13.5506 22.4502 12.6207Z" fill="#FFFDF8"/>
</svg>
