<svg width="40" height="40" viewBox="0 0 40 40" fill="none" xmlns="http://www.w3.org/2000/svg">
<rect width="40" height="40" rx="10" fill="#F5F5F7"/>
<path d="M27.9166 15.2605C27.8536 15.3295 27.7749 15.3831 27.6884 15.4138C27.6018 15.4521 27.5074 15.4674 27.4129 15.4674H9.5881C8.95853 15.4674 8.63587 14.7011 9.07658 14.2414L12.0041 11.2146C12.0671 11.1456 12.1458 11.092 12.2402 11.0536C12.3268 11.0153 12.4212 11 12.5156 11H30.4113C31.0487 11 31.3635 11.7739 30.915 12.2337L27.9166 15.2605ZM27.9166 28.7931C27.7828 28.9234 27.6018 29 27.4129 29H9.5881C8.95853 29 8.63587 28.249 9.07658 27.8046L12.0041 24.8467C12.0671 24.7778 12.1536 24.7241 12.2402 24.6935C12.3268 24.6552 12.4212 24.6398 12.5156 24.6398H30.4113C31.0487 24.6398 31.3635 25.3985 30.915 25.8429L27.9166 28.7931ZM27.9166 18.0268C27.7828 17.8966 27.6018 17.8199 27.4129 17.8199H9.5881C8.95853 17.8199 8.63587 18.5709 9.07658 19.0153L12.0041 21.9732C12.0671 22.0421 12.1536 22.0958 12.2402 22.1264C12.3268 22.1648 12.4212 22.1801 12.5156 22.1801H30.4113C31.0487 22.1801 31.3635 21.4215 30.915 20.977L27.9166 18.0268Z" fill="#1D1D1F"/>
</svg>
