<svg width="32" height="32" viewBox="0 0 32 32" fill="none" xmlns="http://www.w3.org/2000/svg">
<rect width="32" height="32" rx="6" fill="#3B99FC"/>
<path d="M8.91514 11.8739C12.8274 8.04204 19.1726 8.04204 23.0849 11.8739L23.5553 12.332C23.7534 12.5239 23.7534 12.8334 23.5553 13.0253L21.9458 14.6038C21.8468 14.6967 21.692 14.6967 21.593 14.6038L20.943 13.9662C18.2131 11.292 13.7869 11.292 11.057 13.9662L10.3637 14.6472C10.2646 14.74 10.1099 14.74 10.0108 14.6472L8.39515 13.0748C8.19706 12.8829 8.19706 12.5734 8.39515 12.3815L8.91514 11.8739ZM26.4153 15.1362L27.8514 16.5414C28.0495 16.7333 28.0495 17.0428 27.8514 17.2347L21.3825 23.5674C21.1844 23.7594 20.8687 23.7594 20.6768 23.5674L16.0898 19.0733C16.0402 19.0237 15.9598 19.0237 15.9102 19.0733L11.3232 23.5674C11.1251 23.7594 10.8094 23.7594 10.6175 23.5674L4.14857 17.2347C3.95048 17.0428 3.95048 16.7333 4.14857 16.5414L5.58473 15.1362C5.78282 14.9443 6.09853 14.9443 6.29043 15.1362L10.8775 19.6304C10.927 19.6799 11.0075 19.6799 11.057 19.6304L15.6441 15.1362C15.8421 14.9443 16.1579 14.9443 16.3498 15.1362L20.9368 19.6304C20.9863 19.6799 21.0668 19.6799 21.1163 19.6304L25.7034 15.1362C25.9015 14.9443 26.2172 14.9443 26.4153 15.1362Z" fill="white"/>
</svg>
