<svg xmlns="http://www.w3.org/2000/svg" width="38" height="38" viewBox="0 0 38 38" fill="none">
<g clip-path="url(#clip0_2378_1870)">
<path fill-rule="evenodd" clip-rule="evenodd" d="M24.5897 35.2622C31.3375 32.9413 36.1863 26.5381 36.1863 19.0024C36.1863 9.50834 28.4899 1.8119 18.9958 1.8119C9.50181 1.8119 1.80537 9.50834 1.80537 19.0024C1.80537 26.5103 6.61856 32.8941 13.3276 35.2364L11.5391 36.4833C4.75226 33.5846 -0.00415039 26.8489 -0.00415039 19.0024C-0.00415039 8.50897 8.50244 0.00238037 18.9958 0.00238037C29.4893 0.00238037 37.9958 8.50897 37.9958 19.0024C37.9958 26.8756 33.2071 33.6303 26.3834 36.5127L24.5897 35.2622Z" fill="white"/>
<mask id="mask0_2378_1870" style="mask-type:alpha" maskUnits="userSpaceOnUse" x="-1" y="0" width="39" height="39">
<circle cx="18.9954" cy="19.0024" r="19" fill="#D9D9D9"/>
</mask>
<g mask="url(#mask0_2378_1870)">
<path d="M18.9397 34.126L25.7254 38.8567L18.9397 43.5874L12.154 38.8567L18.9397 34.126Z" fill="white"/>
<circle cx="18.9466" cy="13.911" r="4.27252" fill="white"/>
<path fill-rule="evenodd" clip-rule="evenodd" d="M27.3907 28.1506C27.3909 28.1506 27.3911 28.1504 27.3911 28.1502C27.3911 23.4309 23.5654 19.6051 18.8461 19.6051C14.1268 19.6051 10.301 23.4309 10.301 28.1502C10.301 28.1504 10.3012 28.1506 10.3014 28.1506H27.3907Z" fill="white"/>
</g>
</g>
<defs>
<clipPath id="clip0_2378_1870">
<rect width="38" height="38" fill="white"/>
</clipPath>
</defs>
</svg>