<svg xmlns="http://www.w3.org/2000/svg" width="17" height="16" viewBox="0 0 17 16" fill="none">
  <path d="M8.10938 15C11.9754 15 15.1094 11.866 15.1094 8C15.1094 4.134 11.9754 1 8.10938 1C4.24338 1 1.10938 4.134 1.10938 8C1.10938 11.866 4.24338 15 8.10938 15Z" fill="#23202C"/>
  <path d="M8.10938 15C11.9754 15 15.1094 11.866 15.1094 8C15.1094 4.134 11.9754 1 8.10938 1C4.24338 1 1.10938 4.134 1.10938 8C1.10938 11.866 4.24338 15 8.10938 15Z" fill="white" fill-opacity="0.4"/>
  <path fill-rule="evenodd" clip-rule="evenodd" d="M8.81024 5.00078C8.81024 4.61418 8.49684 4.30078 8.11024 4.30078C7.72364 4.30078 7.41024 4.61418 7.41024 5.00078V7.30019H5.11016C4.72356 7.30019 4.41016 7.61359 4.41016 8.00019C4.41016 8.38679 4.72356 8.70019 5.11016 8.70019H7.41024V11.0008C7.41024 11.3874 7.72364 11.7008 8.11024 11.7008C8.49684 11.7008 8.81024 11.3874 8.81024 11.0008V8.70019H11.1102C11.4968 8.70019 11.8102 8.38679 11.8102 8.00019C11.8102 7.61359 11.4968 7.30019 11.1102 7.30019H8.81024V5.00078Z" fill="#23202C"/>
</svg>