<svg xmlns="http://www.w3.org/2000/svg" width="10" height="11" viewBox="0 0 10 11" fill="none">
  <g clip-path="url(#clip0_2607_1321)">
    <path d="M5.35355 10.2286C5.15829 10.4238 4.84171 10.4238 4.64645 10.2286L1.46447 7.04657C1.2692 6.85131 1.2692 6.53473 1.46447 6.33947C1.65973 6.1442 1.97631 6.1442 2.17157 6.33947L5 9.16789L7.82843 6.33947C8.02369 6.1442 8.34027 6.1442 8.53553 6.33947C8.7308 6.53473 8.7308 6.85131 8.53553 7.04657L5.35355 10.2286ZM5.5 0.375L5.5 9.875L4.5 9.875L4.5 0.375L5.5 0.375Z" fill="#FF1313"/>
  </g>
  <defs>
    <clipPath id="clip0_2607_1321">
      <rect width="10" height="10" fill="white" transform="matrix(1 0 0 -1 0 10.875)"/>
    </clipPath>
  </defs>
</svg>