<svg width="89" height="89" viewBox="0 0 89 89" fill="none" xmlns="http://www.w3.org/2000/svg">
<g filter="url(#filter0_b_12959_6493)">
<circle cx="44.5369" cy="44.0174" r="43.0174" fill="currentColor"/>
<circle cx="44.5369" cy="44.0174" r="43.5174" stroke="white" stroke-opacity="0.1"/>
</g>
<g filter="url(#filter1_i_12959_6493)">
<circle cx="44.5395" cy="44.0201" r="42.0551" fill="#333333" fill-opacity="0.56"/>
</g>
<path fill-rule="evenodd" clip-rule="evenodd" d="M39.5521 27.9896C41.0538 22.6287 39.4005 17.4689 39.4005 17.4689C39.4005 17.4689 35.2523 21.0203 33.7505 26.3811C32.2507 31.7419 33.9021 36.9019 33.9021 36.9019C33.9021 36.9019 37.9846 33.3504 39.5521 27.9896ZM31.5674 31.4573C32.8817 36.8181 31.0489 41.9781 31.0489 41.9781C31.0489 41.9781 27.0243 38.4266 25.71 33.0657C24.3977 27.7049 26.2285 22.545 26.2285 22.545C26.2285 22.545 30.2551 26.0965 31.5674 31.4573ZM32.894 49.8101C32.894 49.8101 31.9148 44.516 28.0956 40.5625C24.2106 36.6759 18.9355 35.6038 18.9355 35.6038C18.9355 35.6038 19.9148 40.8975 23.7319 44.8512C27.619 48.7378 32.894 49.8101 32.894 49.8101ZM38.6773 55.6828C38.6773 55.6828 35.1971 51.5951 29.8602 50.1878C24.5253 48.7806 19.334 50.5229 19.334 50.5229C19.334 50.5229 22.8141 54.6105 28.1511 56.0178C33.4879 57.4251 38.6773 55.6828 38.6773 55.6828ZM50.2422 55.677C50.2422 55.677 53.864 51.5893 59.2507 50.182C64.6374 48.7077 69.7649 50.5171 69.7649 50.5171C69.7649 50.5171 66.1412 54.6047 60.7565 56.012C55.3716 57.419 50.2422 55.677 50.2422 55.677ZM70.5918 35.6036C70.5918 35.6036 65.2788 36.6758 61.2582 40.5624C57.2355 44.5159 56.1387 49.8099 56.1387 49.8099C56.1387 49.8099 61.4497 48.7377 65.4722 44.851C69.4271 40.8974 70.5918 35.6036 70.5918 35.6036ZM63.7033 22.545C63.7033 22.545 65.3566 27.7049 63.8548 33.0657C62.2873 38.4266 58.2048 41.9781 58.2048 41.9781C58.2048 41.9781 56.5535 36.8181 58.0533 31.4573C59.555 26.0965 63.7033 22.545 63.7033 22.545ZM55.5391 36.9019C55.5391 36.9019 57.372 31.7419 56.0577 26.3811C54.7454 21.0203 50.7187 17.4689 50.7187 17.4689C50.7187 17.4689 48.888 22.6287 50.2002 27.9896C51.5145 33.3504 55.5391 36.9019 55.5391 36.9019ZM44.5528 57.7696C46.3019 57.3677 50.133 56.6977 54.0679 57.7696C59.4048 59.1769 63.0205 63.1976 63.0205 63.1976C63.0205 63.1976 57.8292 64.9399 52.4924 63.5326C51.5593 63.2646 50.7618 62.9297 49.9643 62.5948L49.9635 62.5945C50.9427 64.0018 51.9279 65.1407 53.9901 66.012L52.3847 69.6976C48.727 68.1565 47.2253 65.878 45.9209 63.8676C45.4623 63.1976 45.0036 62.5945 44.5449 61.9915L44.5449 61.9914C44.0696 62.5159 43.6954 63.0405 43.2897 63.609C43.229 63.6942 43.1675 63.7803 43.1049 63.8676C43.0762 63.9076 43.0475 63.9477 43.0187 63.9879C41.5992 65.9684 40.009 68.1871 36.4378 69.6976L34.96 66.012C37.0521 65.1407 38.0772 64.0018 39.1083 62.5945C38.2971 62.9963 37.4222 63.2642 36.5473 63.532L36.5455 63.5326C31.1587 64.9399 26.0293 63.1976 26.0293 63.1976C26.0293 63.1976 29.653 59.1099 35.0377 57.7029C39.0085 56.6977 42.8178 57.3677 44.5528 57.7696Z" fill="#F4DCA5" fill-opacity="0.1"/>
<defs>
<filter id="filter0_b_12959_6493" x="-1.26849" y="-1.78802" width="91.6112" height="91.6108" filterUnits="userSpaceOnUse" color-interpolation-filters="sRGB">
<feFlood flood-opacity="0" result="BackgroundImageFix"/>
<feGaussianBlur in="BackgroundImageFix" stdDeviation="0.894009"/>
<feComposite in2="SourceAlpha" operator="in" result="effect1_backgroundBlur_12959_6493"/>
<feBlend mode="normal" in="SourceGraphic" in2="effect1_backgroundBlur_12959_6493" result="shape"/>
</filter>
<filter id="filter1_i_12959_6493" x="2.48438" y="1.96497" width="84.1094" height="84.1103" filterUnits="userSpaceOnUse" color-interpolation-filters="sRGB">
<feFlood flood-opacity="0" result="BackgroundImageFix"/>
<feBlend mode="normal" in="SourceGraphic" in2="BackgroundImageFix" result="shape"/>
<feColorMatrix in="SourceAlpha" type="matrix" values="0 0 0 0 0 0 0 0 0 0 0 0 0 0 0 0 0 0 127 0" result="hardAlpha"/>
<feOffset/>
<feGaussianBlur stdDeviation="8.29798"/>
<feComposite in2="hardAlpha" operator="arithmetic" k2="-1" k3="1"/>
<feColorMatrix type="matrix" values="0 0 0 0 1 0 0 0 0 1 0 0 0 0 1 0 0 0 0.3 0"/>
<feBlend mode="normal" in2="shape" result="effect1_innerShadow_12959_6493"/>
</filter>
</defs>
</svg>
