<svg width="24" height="24" viewBox="0 0 24 24" fill="none" xmlns="http://www.w3.org/2000/svg">
<g id="Group 1000004582">
<rect id="Rectangle 34625926" width="24" height="24" rx="12" fill="white"/>
<path id="Vector" d="M7.52714 16.7095L7.35119 16.5335C7.172 16.7127 7.172 17.0032 7.35119 17.1824C7.44004 17.2713 7.55779 17.3166 7.67515 17.3166C7.7925 17.3166 7.91025 17.2713 7.99911 17.1824L12.2659 12.9155L16.5326 17.1824C16.6215 17.2712 16.7392 17.3166 16.8566 17.3166C16.9739 17.3166 17.0917 17.2713 17.1805 17.1824C17.3597 17.0032 17.3597 16.7127 17.1805 16.5335L12.9156 12.2667L17.1824 7.9998C17.3616 7.82061 17.3616 7.53014 17.1824 7.35095C17.0032 7.17175 16.7127 7.17175 16.5336 7.35095L16.7099 7.52733L16.5336 7.35095L12.2668 11.6178L8.00004 7.35095C7.82085 7.17175 7.53038 7.17175 7.35119 7.35095C7.172 7.53014 7.172 7.82061 7.35119 7.9998L11.6179 12.2667L7.35119 16.5335L7.52714 16.7095ZM7.52714 16.7095L7.52755 16.7099L7.52714 16.7095Z" fill="#0F1012" stroke="#0F1012" stroke-width="0.5"/>
</g>
</svg>
