<svg xmlns="http://www.w3.org/2000/svg" width="17" height="16" viewBox="0 0 17 16" fill="none">
  <path d="M8.10938 15C11.9754 15 15.1094 11.866 15.1094 8C15.1094 4.134 11.9754 1 8.10938 1C4.24338 1 1.10938 4.134 1.10938 8C1.10938 11.866 4.24338 15 8.10938 15Z" fill="#F1411B"/>
  <path fill-rule="evenodd" clip-rule="evenodd" d="M8.60643 4.83784C8.33307 4.56447 7.88985 4.56447 7.61648 4.83784L5.28315 7.17117C5.00978 7.44454 5.00978 7.88775 5.28315 8.16112C5.55652 8.43449 5.99973 8.43449 6.2731 8.16112L8.11146 6.32276L9.94982 8.16112C10.2232 8.43449 10.6664 8.43449 10.9398 8.16112C11.2131 7.88775 11.2131 7.44454 10.9398 7.17117L8.60643 4.83784ZM8.60643 7.83784C8.33307 7.56447 7.88985 7.56447 7.61648 7.83784L5.28315 10.1712C5.00978 10.4445 5.00978 10.8878 5.28315 11.1611C5.55652 11.4345 5.99973 11.4345 6.2731 11.1611L8.11146 9.32276L9.94982 11.1611C10.2232 11.4345 10.6664 11.4345 10.9398 11.1611C11.2131 10.8878 11.2131 10.4445 10.9398 10.1712L8.60643 7.83784Z" fill="white"/>
</svg>