<svg width="26" height="26" viewBox="0 0 26 26" fill="none" xmlns="http://www.w3.org/2000/svg">
<g id="Frame">
<path id="Subtract" fill-rule="evenodd" clip-rule="evenodd" d="M24.6668 12.9987C24.6668 19.442 19.4435 24.6654 13.0002 24.6654C6.55684 24.6654 1.3335 19.442 1.3335 12.9987C1.3335 6.55537 6.55684 1.33203 13.0002 1.33203C19.4435 1.33203 24.6668 6.55537 24.6668 12.9987ZM12.9999 6.58138C13.6443 6.58108 14.1669 7.10317 14.1672 7.7475L14.1707 15.4287L15.8883 13.7112C16.3439 13.2556 17.0826 13.2556 17.5382 13.7112C17.9938 14.1668 17.9938 14.9055 17.5382 15.3611L13.8863 19.0129C13.6922 19.2363 13.4146 19.3851 13.102 19.4108C12.7707 19.4394 12.4295 19.327 12.176 19.0734L8.46362 15.3611C8.00801 14.9055 8.00801 14.1668 8.46362 13.7112C8.91923 13.2556 9.65792 13.2556 10.1135 13.7112L11.8374 15.4351L11.8338 7.74859C11.8335 7.10426 12.3556 6.58168 12.9999 6.58138Z" fill="currentColor" />
</g>
</svg>
