<svg width="20" height="21" viewBox="0 0 20 21" fill="none" xmlns="http://www.w3.org/2000/svg">
<path d="M18.7411 8.25C18.4018 7.90179 18.0536 7.53571 17.9196 7.22321C17.7857 6.91071 17.7946 6.44643 17.7857 5.97321C17.7768 5.10714 17.7589 4.11607 17.0714 3.42857C16.3839 2.74107 15.3929 2.72321 14.5268 2.71429C14.0536 2.70536 13.5714 2.69643 13.2768 2.58036C12.9821 2.46429 12.5982 2.09821 12.25 1.75893C11.6339 1.16964 10.9286 0.5 10 0.5C9.07143 0.5 8.36607 1.16964 7.75 1.75893C7.40179 2.09821 7.03571 2.44643 6.72321 2.58036C6.41071 2.71429 5.94643 2.70536 5.47321 2.71429C4.60714 2.72321 3.61607 2.74107 2.92857 3.42857C2.24107 4.11607 2.22321 5.10714 2.21429 5.97321C2.20536 6.44643 2.19643 6.92857 2.08036 7.22321C1.96429 7.51786 1.59821 7.90179 1.25893 8.25C0.669643 8.86607 0 9.57143 0 10.5C0 11.4286 0.669643 12.1339 1.25893 12.75C1.59821 13.0982 1.94643 13.4643 2.08036 13.7768C2.21429 14.0893 2.20536 14.5536 2.21429 15.0268C2.22321 15.8929 2.24107 16.8839 2.92857 17.5714C3.61607 18.2589 4.60714 18.2768 5.47321 18.2857C5.94643 18.2946 6.42857 18.3036 6.72321 18.4196C7.01786 18.5357 7.40179 18.9018 7.75 19.2411C8.36607 19.8304 9.07143 20.5 10 20.5C10.9286 20.5 11.6339 19.8304 12.25 19.2411C12.5982 18.9018 12.9643 18.5536 13.2768 18.4196C13.5893 18.2857 14.0536 18.2946 14.5268 18.2857C15.3929 18.2768 16.3839 18.2589 17.0714 17.5714C17.7589 16.8839 17.7768 15.8929 17.7857 15.0268C17.7946 14.5536 17.8036 14.0714 17.9196 13.7768C18.0357 13.4821 18.4018 13.0982 18.7411 12.75C19.3304 12.1339 20 11.4286 20 10.5C20 9.57143 19.3304 8.86607 18.7411 8.25ZM14.4196 8.875L9.1875 13.875C9.05223 14.0022 8.87321 14.0726 8.6875 14.0714C8.50453 14.0721 8.32845 14.0017 8.19643 13.875L5.58036 11.375C5.5078 11.3117 5.44879 11.2344 5.40687 11.1477C5.36496 11.061 5.341 10.9667 5.33645 10.8705C5.3319 10.7743 5.34685 10.6782 5.38039 10.588C5.41393 10.4977 5.46538 10.4151 5.53164 10.3453C5.5979 10.2754 5.6776 10.2196 5.76596 10.1814C5.85431 10.1431 5.9495 10.1231 6.04579 10.1225C6.14209 10.1219 6.2375 10.1409 6.32629 10.1781C6.41509 10.2154 6.49543 10.2702 6.5625 10.3393L8.6875 12.3661L13.4375 7.83928C13.5764 7.71811 13.7567 7.65532 13.9408 7.66403C14.1249 7.67274 14.2986 7.75228 14.4254 7.88602C14.5522 8.01977 14.6224 8.19736 14.6214 8.38167C14.6203 8.56598 14.548 8.74274 14.4196 8.875Z" fill="#1D1D1F"/>
</svg>
