<svg width="16" height="13" viewBox="0 0 16 13" fill="none" xmlns="http://www.w3.org/2000/svg">
<path fill-rule="evenodd" clip-rule="evenodd" d="M11.4986 0.496717C11.7942 0.495707 12.0872 0.553134 12.3606 0.665704C12.6345 0.778495 12.8834 0.944412 13.0928 1.15388C13.3023 1.36335 13.4682 1.61223 13.581 1.88616C13.6936 2.15954 13.751 2.45247 13.75 2.74811L13.75 2.74986L13 2.74672H13.75V2.74811V9.74672C13.75 10.1609 13.4142 10.4967 13 10.4967C12.5858 10.4967 12.25 10.1609 12.25 9.74672V2.74672L12.25 2.74357C12.2504 2.64538 12.2314 2.54807 12.194 2.45727C12.1566 2.36648 12.1016 2.28398 12.0322 2.21454C11.9627 2.14511 11.8802 2.09011 11.7894 2.05272C11.6986 2.01534 11.6013 1.9963 11.5031 1.99671L11.5 1.99672H3C2.58579 1.99672 2.25 1.66093 2.25 1.24672C2.25 0.832504 2.58579 0.496717 3 0.496717H11.4986ZM11.4986 0.496717L11.4969 0.496724L11.5 1.24672V0.496717H11.4986Z" fill="#FF4D45"/>
<path fill-rule="evenodd" clip-rule="evenodd" d="M6.25 4.9967C6.25 4.58249 6.58579 4.2467 7 4.2467H11C11.4142 4.2467 11.75 4.58249 11.75 4.9967C11.75 5.41092 11.4142 5.7467 11 5.7467H7C6.58579 5.7467 6.25 5.41092 6.25 4.9967Z" fill="#FF4D45"/>
<path fill-rule="evenodd" clip-rule="evenodd" d="M6.25 7.4967C6.25 7.08249 6.58579 6.7467 7 6.7467H11C11.4142 6.7467 11.75 7.08249 11.75 7.4967C11.75 7.91092 11.4142 8.2467 11 8.2467H7C6.58579 8.2467 6.25 7.91092 6.25 7.4967Z" fill="#FF4D45"/>
<path fill-rule="evenodd" clip-rule="evenodd" d="M3.08903 2.0028C2.96836 1.98837 2.84598 2.00349 2.73245 2.04684C2.61891 2.0902 2.51761 2.1605 2.43727 2.25168C2.35692 2.34287 2.29994 2.45222 2.27123 2.57031C2.24252 2.6884 2.24293 2.8117 2.27244 2.9296C2.30195 3.04749 2.35967 3.15645 2.44062 3.2471C2.71655 3.55603 2.68978 4.03015 2.38085 4.30607C2.07191 4.58199 1.5978 4.55523 1.32187 4.2463C1.079 3.97437 0.905854 3.64749 0.817329 3.2938C0.728804 2.94011 0.727556 2.57021 0.813693 2.21593C0.89983 1.86165 1.07077 1.53362 1.3118 1.26005C1.55283 0.986493 1.85673 0.775603 2.19734 0.645537C2.53795 0.515471 2.90507 0.470127 3.26709 0.513407C3.62911 0.556686 3.97519 0.687294 4.27554 0.893987C4.57589 1.10068 4.82151 1.37727 4.99126 1.69994C5.16101 2.02261 5.24981 2.3817 5.25 2.7463V10.7463C5.25006 10.8678 5.27966 10.9875 5.33625 11.0951C5.39283 11.2026 5.4747 11.2948 5.57482 11.3637C5.67494 11.4326 5.7903 11.4762 5.91097 11.4906C6.03164 11.505 6.15402 11.4899 6.26755 11.4465C6.38109 11.4032 6.48239 11.3329 6.56273 11.2417C6.64308 11.1505 6.70006 11.0412 6.72877 10.9231C6.75748 10.805 6.75707 10.6817 6.72756 10.5638C6.69805 10.4459 6.64033 10.3369 6.55937 10.2463C6.36242 10.0258 6.31341 9.71013 6.43421 9.44026C6.55501 9.1704 6.82308 8.9967 7.11875 8.9967H14.1187C14.3322 8.9967 14.5355 9.08762 14.6778 9.2467C14.9674 9.57051 15.1571 9.97124 15.2239 10.4005C15.2908 10.8298 15.2319 11.2692 15.0545 11.6657C14.877 12.0623 14.5885 12.399 14.2239 12.6352C13.8594 12.8713 13.4343 12.9968 13 12.9967H6C5.98557 12.9967 5.97124 12.9963 5.95702 12.9955C5.88229 12.9941 5.80749 12.9889 5.73291 12.98C5.37089 12.9367 5.02481 12.8061 4.72446 12.5994C4.42411 12.3927 4.17849 12.1161 4.00874 11.7935C3.83899 11.4708 3.75019 11.1117 3.75 10.7471V2.7471C3.74993 2.62556 3.72034 2.50587 3.66375 2.39831C3.60717 2.29075 3.5253 2.19856 3.42518 2.12966C3.32506 2.06076 3.2097 2.01723 3.08903 2.0028ZM8.12104 11.4967H13C13.1448 11.4968 13.2869 11.4549 13.4084 11.3762C13.53 11.2975 13.6261 11.1852 13.6853 11.053C13.7444 10.9209 13.7641 10.7744 13.7418 10.6313C13.7346 10.5853 13.7232 10.5402 13.7078 10.4967H8.23616C8.26518 10.7571 8.24857 11.0214 8.18631 11.2775C8.16824 11.3518 8.14643 11.4249 8.12104 11.4967Z" fill="#FF4D45"/>
</svg>
