<svg width="196" height="196" viewBox="0 0 196 196" fill="none" xmlns="http://www.w3.org/2000/svg">
<g clip-path="url(#clip0_7886_5552)">
<g filter="url(#filter0_f_7886_5552)">
<circle cx="97.6713" cy="97.6772" r="79.0698" fill="white"/>
</g>
<path fill-rule="evenodd" clip-rule="evenodd" d="M97.6669 193.02C150.321 193.02 193.005 150.335 193.005 97.6814C193.005 45.0274 150.321 2.34293 97.6669 2.34293C45.0129 2.34293 2.32841 45.0274 2.32841 97.6814C2.32841 150.335 45.0129 193.02 97.6669 193.02ZM97.6669 194.871C151.343 194.871 194.857 151.358 194.857 97.6814C194.857 44.005 151.343 0.491699 97.6669 0.491699C43.9905 0.491699 0.477173 44.005 0.477173 97.6814C0.477173 151.358 43.9905 194.871 97.6669 194.871Z" fill="black"/>
<g opacity="0.1" filter="url(#filter1_f_7886_5552)">
<path d="M191.161 97.7322C191.161 149.396 149.304 191.274 97.6741 191.274C46.0445 191.274 4.18684 149.396 4.18684 97.7322C4.18684 56.2524 43.4142 4.35026 102.215 4.29918C151.734 6.6675 191.161 47.5924 191.161 97.7322Z" stroke="black" stroke-width="7.40493"/>
</g>
<g filter="url(#filter2_dddd_7886_5552)">
<rect x="89.2113" y="49" width="17.2973" height="17.2973" rx="8.64865" fill="white"/>
<path d="M103.215 57.0919C103.166 57.6815 103.063 58.265 102.905 58.835C102.368 61.1978 100.253 62.9616 97.7259 62.9616C94.7925 62.9616 92.4146 60.5856 92.4146 57.6545C92.4146 54.7235 94.7925 52.3474 97.7259 52.3474C99.6292 52.3474 101.299 53.3478 102.236 54.851L103.946 55.3337L102.653 55.6693C102.653 55.6694 102.653 55.6692 102.653 55.6693L100.73 56.1846C100.186 55.0761 99.0449 54.313 97.7259 54.313C95.8789 54.313 94.3817 55.8091 94.3817 57.6545C94.3817 59.5 95.8789 60.996 97.7259 60.996C99.152 60.996 100.37 60.1041 100.85 58.848L97.9218 58.2759L100.577 57.5721L103.233 56.8683L103.215 57.0919Z" fill="black"/>
</g>
<path d="M58.0439 77.7028V79.5493H54.805V88.2974H52.9585V79.5493H49.7196V77.7028H58.0439ZM61.7325 88.4941C61.0363 88.4941 60.4006 88.315 59.8255 87.9568C59.2554 87.5986 58.7988 87.1193 58.4558 86.519C58.1178 85.9136 57.9488 85.2451 57.9488 84.5136C57.9488 83.777 58.1178 83.106 58.4558 82.5006C58.7988 81.8952 59.2554 81.4134 59.8255 81.0552C60.4006 80.697 61.0363 80.5179 61.7325 80.5179C62.4288 80.5179 63.0619 80.697 63.632 81.0552C64.2071 81.4134 64.6637 81.8952 65.0017 82.5006C65.3448 83.106 65.5163 83.777 65.5163 84.5136C65.5163 85.2451 65.3448 85.9136 65.0017 86.519C64.6637 87.1193 64.2071 87.5986 63.632 87.9568C63.0619 88.315 62.4288 88.4941 61.7325 88.4941ZM61.7325 86.6476C62.1008 86.6476 62.4288 86.5493 62.7163 86.3525C63.0089 86.1557 63.241 85.8959 63.4125 85.573C63.5841 85.2502 63.6698 84.897 63.6698 84.5136C63.6698 84.1201 63.5815 83.7619 63.405 83.439C63.2334 83.1111 62.9988 82.8512 62.7012 82.6595C62.4086 82.4628 62.0857 82.3644 61.7325 82.3644C61.3693 82.3644 61.0414 82.4628 60.7488 82.6595C60.4561 82.8563 60.2241 83.1186 60.0525 83.4466C59.881 83.7745 59.7952 84.1302 59.7952 84.5136C59.7952 84.9121 59.8835 85.2729 60.0601 85.5957C60.2367 85.9186 60.4713 86.1759 60.7639 86.3676C61.0615 86.5543 61.3844 86.6476 61.7325 86.6476ZM70.7656 82.5763H69.2975V88.2974H67.451V82.5763H66.331V80.7298H67.451V78.3536H69.2975V80.7298H70.7656V82.5763ZM77.6772 80.7298H79.5237V88.2974H77.6772L77.5939 87.359C77.382 87.702 77.1071 87.977 76.7691 88.1838C76.431 88.3907 76.03 88.4941 75.5658 88.4941C75.0058 88.4941 74.4811 88.3907 73.9918 88.1838C73.5024 87.972 73.071 87.6793 72.6977 87.306C72.3294 86.9327 72.0393 86.5013 71.8274 86.012C71.6206 85.5175 71.5172 84.9903 71.5172 84.4303C71.5172 83.7089 71.6912 83.053 72.0393 82.4628C72.3874 81.8725 72.8541 81.4008 73.4393 81.0476C74.0296 80.6945 74.6855 80.5179 75.4069 80.5179C75.9114 80.5179 76.3604 80.6289 76.7539 80.8509C77.1474 81.0729 77.4829 81.3554 77.7604 81.6984L77.6772 80.7298ZM75.5204 86.7157C75.9139 86.7157 76.262 86.6174 76.5647 86.4206C76.8674 86.2238 77.1046 85.959 77.2761 85.626C77.4476 85.293 77.5334 84.9222 77.5334 84.5136C77.5334 84.1049 77.4451 83.7341 77.2685 83.4011C77.097 83.0682 76.8599 82.8033 76.5572 82.6066C76.2545 82.4048 75.9089 82.3038 75.5204 82.3038C75.1269 82.3038 74.7712 82.4048 74.4534 82.6066C74.1355 82.8033 73.8808 83.0682 73.6891 83.4011C73.5024 83.7341 73.4091 84.1049 73.4091 84.5136C73.4091 84.9222 73.5049 85.293 73.6966 85.626C73.8883 85.959 74.1431 86.2238 74.4609 86.4206C74.7838 86.6174 75.137 86.7157 75.5204 86.7157ZM81.0759 88.2974V76.946H82.9224V88.2974H81.0759ZM88.3775 88.2974V77.7028H92.4413C93.0164 77.7028 93.536 77.8466 94.0002 78.1341C94.4643 78.4217 94.8326 78.8076 95.105 79.292C95.3775 79.7712 95.5137 80.3035 95.5137 80.8887C95.5137 81.6051 95.322 82.2332 94.9386 82.773C94.5602 83.3129 94.0658 83.6938 93.4553 83.9157L95.9904 88.2974H93.864L91.4121 84.0822H90.224V88.2974H88.3775ZM90.224 82.2357H92.2294C92.6229 82.2357 92.9609 82.0945 93.2434 81.812C93.5259 81.5244 93.6672 81.1763 93.6672 80.7676C93.6672 80.3539 93.5259 80.0058 93.2434 79.7233C92.9609 79.4357 92.6229 79.292 92.2294 79.292H90.224V82.2357ZM100.25 88.4941C99.5541 88.4941 98.9184 88.315 98.3432 87.9568C97.7732 87.5986 97.3166 87.1193 96.9735 86.519C96.6355 85.9136 96.4665 85.2426 96.4665 84.506C96.4665 83.7745 96.6355 83.106 96.9735 82.5006C97.3166 81.8952 97.7732 81.4134 98.3432 81.0552C98.9184 80.697 99.5541 80.5179 100.25 80.5179C100.841 80.5179 101.38 80.644 101.87 80.8963C102.359 81.1435 102.775 81.484 103.118 81.9179C103.466 82.3467 103.716 82.8386 103.868 83.3936C104.024 83.9485 104.062 84.5312 103.981 85.1417H98.4492C98.5501 85.5655 98.7569 85.9211 99.0697 86.2087C99.3825 86.4963 99.776 86.6426 100.25 86.6476C100.568 86.6476 100.861 86.5694 101.128 86.413C101.395 86.2566 101.617 86.0422 101.794 85.7698L103.678 86.2087C103.371 86.8797 102.912 87.4296 102.301 87.8584C101.691 88.2822 101.007 88.4941 100.25 88.4941ZM98.3887 83.7568H102.112C102.021 83.3028 101.802 82.9193 101.454 82.6066C101.11 82.2887 100.709 82.1298 100.25 82.1298C99.7912 82.1298 99.3901 82.2862 99.047 82.599C98.709 82.9118 98.4896 83.2977 98.3887 83.7568ZM108.762 88.2974H106.931L104.404 80.7298H106.212L107.854 85.626L109.489 80.7298H111.313L112.947 85.626L114.59 80.7298H116.398L113.871 88.2974H112.039L110.397 83.3784L108.762 88.2974ZM122.935 80.7298H124.781V88.2974H122.935L122.852 87.359C122.64 87.702 122.365 87.977 122.027 88.1838C121.689 88.3907 121.288 88.4941 120.823 88.4941C120.263 88.4941 119.739 88.3907 119.249 88.1838C118.76 87.972 118.329 87.6793 117.955 87.306C117.587 86.9327 117.297 86.5013 117.085 86.012C116.878 85.5175 116.775 84.9903 116.775 84.4303C116.775 83.7089 116.949 83.053 117.297 82.4628C117.645 81.8725 118.112 81.4008 118.697 81.0476C119.287 80.6945 119.943 80.5179 120.664 80.5179C121.169 80.5179 121.618 80.6289 122.012 80.8509C122.405 81.0729 122.741 81.3554 123.018 81.6984L122.935 80.7298ZM120.778 86.7157C121.172 86.7157 121.52 86.6174 121.822 86.4206C122.125 86.2238 122.362 85.959 122.534 85.626C122.705 85.293 122.791 84.9222 122.791 84.5136C122.791 84.1049 122.703 83.7341 122.526 83.4011C122.355 83.0682 122.117 82.8033 121.815 82.6066C121.512 82.4048 121.166 82.3038 120.778 82.3038C120.384 82.3038 120.029 82.4048 119.711 82.6066C119.393 82.8033 119.138 83.0682 118.947 83.4011C118.76 83.7341 118.667 84.1049 118.667 84.5136C118.667 84.9222 118.763 85.293 118.954 85.626C119.146 85.959 119.401 86.2238 119.719 86.4206C120.041 86.6174 120.395 86.7157 120.778 86.7157ZM126.297 88.2974L126.289 80.7298H128.136L128.143 81.4033C128.401 81.1309 128.708 80.9165 129.067 80.7601C129.425 80.5986 129.811 80.5179 130.224 80.5179C130.502 80.5179 130.779 80.5583 131.057 80.639L130.33 82.5006C130.139 82.4249 129.947 82.3871 129.755 82.3871C129.306 82.3871 128.925 82.546 128.612 82.8638C128.3 83.1766 128.143 83.555 128.143 83.999V88.2974H126.297ZM137.272 76.946H139.119V88.2974H137.272V87.3514C137.03 87.6894 136.725 87.9644 136.356 88.1763C135.988 88.3882 135.562 88.4941 135.078 88.4941C134.528 88.4941 134.013 88.3907 133.534 88.1838C133.054 87.977 132.631 87.692 132.262 87.3287C131.899 86.9604 131.614 86.5366 131.407 86.0574C131.2 85.5781 131.097 85.0635 131.097 84.5136C131.097 83.9637 131.2 83.4491 131.407 82.9698C131.614 82.4855 131.899 82.0617 132.262 81.6984C132.631 81.3352 133.054 81.0502 133.534 80.8433C134.013 80.6365 134.528 80.533 135.078 80.533C135.562 80.533 135.988 80.639 136.356 80.8509C136.725 81.0577 137.03 81.3327 137.272 81.6757V76.946ZM135.1 86.7157C135.494 86.7157 135.842 86.6174 136.145 86.4206C136.447 86.2238 136.684 85.959 136.856 85.626C137.027 85.293 137.113 84.9222 137.113 84.5136C137.113 84.1049 137.025 83.7341 136.848 83.4011C136.677 83.0682 136.44 82.8033 136.137 82.6066C135.834 82.4048 135.489 82.3038 135.1 82.3038C134.707 82.3038 134.351 82.4048 134.033 82.6066C133.715 82.8033 133.461 83.0682 133.269 83.4011C133.082 83.7341 132.989 84.1049 132.989 84.5136C132.989 84.9222 133.085 85.293 133.276 85.626C133.468 85.959 133.723 86.2238 134.041 86.4206C134.364 86.6174 134.717 86.7157 135.1 86.7157ZM143.169 88.4336C142.579 88.3932 142.026 88.2343 141.512 87.9568C140.997 87.6793 140.629 87.2984 140.407 86.8141L141.966 86.1482C142.057 86.3046 142.228 86.4635 142.48 86.6249C142.738 86.7864 143.035 86.8671 143.373 86.8671C143.661 86.8671 143.921 86.8066 144.153 86.6855C144.39 86.5644 144.508 86.3727 144.508 86.1103C144.508 85.9237 144.443 85.7799 144.312 85.679C144.181 85.573 144.019 85.4948 143.827 85.4444C143.636 85.3889 143.449 85.3384 143.267 85.293C142.788 85.1972 142.342 85.0484 141.928 84.8466C141.519 84.6448 141.189 84.3849 140.937 84.0671C140.689 83.7442 140.566 83.3557 140.566 82.9017C140.566 82.4022 140.697 81.9709 140.959 81.6076C141.222 81.2444 141.567 80.9644 141.996 80.7676C142.425 80.5709 142.887 80.4725 143.381 80.4725C143.981 80.4725 144.531 80.5986 145.031 80.8509C145.535 81.1031 145.934 81.4538 146.226 81.9028L144.766 82.7655C144.66 82.5838 144.493 82.4249 144.266 82.2887C144.039 82.1475 143.795 82.0693 143.532 82.0541C143.189 82.0339 142.897 82.0894 142.654 82.2206C142.412 82.3467 142.291 82.5586 142.291 82.8563C142.291 83.048 142.367 83.1918 142.518 83.2876C142.67 83.3784 142.851 83.4491 143.063 83.4995C143.28 83.55 143.487 83.6055 143.684 83.666C144.128 83.8123 144.544 83.9914 144.932 84.2033C145.326 84.4152 145.641 84.675 145.878 84.9828C146.115 85.2905 146.229 85.6588 146.219 86.0876C146.219 86.577 146.072 87.0058 145.78 87.3741C145.492 87.7374 145.114 88.0148 144.645 88.2066C144.181 88.3983 143.689 88.4739 143.169 88.4336Z" fill="black"/>
</g>
<defs>
<filter id="filter0_f_7886_5552" x="7.43877" y="7.44463" width="180.465" height="180.465" filterUnits="userSpaceOnUse" color-interpolation-filters="sRGB">
<feFlood flood-opacity="0" result="BackgroundImageFix"/>
<feBlend mode="normal" in="SourceGraphic" in2="BackgroundImageFix" result="shape"/>
<feGaussianBlur stdDeviation="5.5814" result="effect1_foregroundBlur_7886_5552"/>
</filter>
<filter id="filter1_f_7886_5552" x="-8.77179" y="-8.65949" width="212.892" height="212.892" filterUnits="userSpaceOnUse" color-interpolation-filters="sRGB">
<feFlood flood-opacity="0" result="BackgroundImageFix"/>
<feBlend mode="normal" in="SourceGraphic" in2="BackgroundImageFix" result="shape"/>
<feGaussianBlur stdDeviation="4.62808" result="effect1_foregroundBlur_7886_5552"/>
</filter>
<filter id="filter2_dddd_7886_5552" x="85.9681" y="47.9189" width="23.7837" height="29.1893" filterUnits="userSpaceOnUse" color-interpolation-filters="sRGB">
<feFlood flood-opacity="0" result="BackgroundImageFix"/>
<feColorMatrix in="SourceAlpha" type="matrix" values="0 0 0 0 0 0 0 0 0 0 0 0 0 0 0 0 0 0 127 0" result="hardAlpha"/>
<feOffset/>
<feGaussianBlur stdDeviation="0.540541"/>
<feColorMatrix type="matrix" values="0 0 0 0 0 0 0 0 0 0 0 0 0 0 0 0 0 0 0.1 0"/>
<feBlend mode="normal" in2="BackgroundImageFix" result="effect1_dropShadow_7886_5552"/>
<feColorMatrix in="SourceAlpha" type="matrix" values="0 0 0 0 0 0 0 0 0 0 0 0 0 0 0 0 0 0 127 0" result="hardAlpha"/>
<feOffset dy="2.16216"/>
<feGaussianBlur stdDeviation="1.08108"/>
<feColorMatrix type="matrix" values="0 0 0 0 0 0 0 0 0 0 0 0 0 0 0 0 0 0 0.09 0"/>
<feBlend mode="normal" in2="effect1_dropShadow_7886_5552" result="effect2_dropShadow_7886_5552"/>
<feColorMatrix in="SourceAlpha" type="matrix" values="0 0 0 0 0 0 0 0 0 0 0 0 0 0 0 0 0 0 127 0" result="hardAlpha"/>
<feOffset dy="4.32432"/>
<feGaussianBlur stdDeviation="1.08108"/>
<feColorMatrix type="matrix" values="0 0 0 0 0 0 0 0 0 0 0 0 0 0 0 0 0 0 0.05 0"/>
<feBlend mode="normal" in2="effect2_dropShadow_7886_5552" result="effect3_dropShadow_7886_5552"/>
<feColorMatrix in="SourceAlpha" type="matrix" values="0 0 0 0 0 0 0 0 0 0 0 0 0 0 0 0 0 0 127 0" result="hardAlpha"/>
<feOffset dy="7.56757"/>
<feGaussianBlur stdDeviation="1.62162"/>
<feColorMatrix type="matrix" values="0 0 0 0 0 0 0 0 0 0 0 0 0 0 0 0 0 0 0.01 0"/>
<feBlend mode="normal" in2="effect3_dropShadow_7886_5552" result="effect4_dropShadow_7886_5552"/>
<feBlend mode="normal" in="SourceGraphic" in2="effect4_dropShadow_7886_5552" result="shape"/>
</filter>
<clipPath id="clip0_7886_5552">
<rect width="195.35" height="195.35" fill="white"/>
</clipPath>
</defs>
</svg>
