<svg width="199" height="198" viewBox="0 0 199 198" fill="none" xmlns="http://www.w3.org/2000/svg">
<g filter="url(#filter0_f_4915_5401)">
<circle cx="99.4988" cy="98.9943" r="73.2205" fill="white"/>
</g>
<path fill-rule="evenodd" clip-rule="evenodd" d="M99.4902 187.283C148.249 187.283 187.776 147.756 187.776 98.9975C187.776 50.2387 148.249 10.7118 99.4902 10.7118C50.7314 10.7118 11.2045 50.2387 11.2045 98.9975C11.2045 147.756 50.7314 187.283 99.4902 187.283ZM99.4902 188.997C149.196 188.997 189.49 148.703 189.49 98.9975C189.49 49.2919 149.196 8.99756 99.4902 8.99756C49.7846 8.99756 9.49023 49.2919 9.49023 98.9975C9.49023 148.703 49.7846 188.997 99.4902 188.997Z" fill="#0D0D0D"/>
<g opacity="0.1" filter="url(#filter1_f_4915_5401)">
<path d="M186.072 99.0459C186.072 146.887 147.311 185.667 99.501 185.667C51.6907 185.667 12.9295 146.887 12.9295 99.0459C12.9295 60.6346 49.255 12.572 103.706 12.5247C149.562 14.7178 186.072 52.6152 186.072 99.0459Z" stroke="#0D0D0D" stroke-width="6.85714"/>
</g>
<g filter="url(#filter2_dddd_4915_5401)">
<rect x="91.499" y="54.9933" width="16" height="16" rx="8" fill="white"/>
<path d="M104.452 62.4783C104.407 63.0236 104.311 63.5634 104.166 64.0906C103.669 66.2763 101.713 67.9078 99.3749 67.9078C96.6615 67.9078 94.4619 65.7099 94.4619 62.9987C94.4619 60.2875 96.6615 58.0896 99.3749 58.0896C101.135 58.0896 102.68 59.0149 103.547 60.4054L105.129 60.8519L103.933 61.1623C103.933 61.1624 103.933 61.1623 103.933 61.1623L102.154 61.639C101.65 60.6136 100.595 59.9078 99.3749 59.9078C97.6665 59.9078 96.2815 61.2916 96.2815 62.9987C96.2815 64.7057 97.6665 66.0896 99.3749 66.0896C100.694 66.0896 101.82 65.2645 102.265 64.1027L99.5561 63.5734L102.013 62.9224L104.469 62.2714L104.452 62.4783Z" fill="#1D1D1F"/>
</g>
<path d="M63.1612 82.1933V83.6493H60.0392V91.9933H58.5832V83.6493H55.4682V82.1933H63.1612ZM66.5665 92.1753C65.9225 92.1753 65.3345 92.0096 64.8025 91.6783C64.2752 91.347 63.8528 90.9036 63.5355 90.3483C63.2228 89.7883 63.0665 89.17 63.0665 88.4933C63.0665 87.812 63.2228 87.1913 63.5355 86.6313C63.8528 86.0713 64.2752 85.6256 64.8025 85.2943C65.3345 84.963 65.9225 84.7973 66.5665 84.7973C67.2105 84.7973 67.7962 84.963 68.3235 85.2943C68.8555 85.6256 69.2778 86.0713 69.5905 86.6313C69.9078 87.1913 70.0665 87.812 70.0665 88.4933C70.0665 89.17 69.9078 89.7883 69.5905 90.3483C69.2778 90.9036 68.8555 91.347 68.3235 91.6783C67.7962 92.0096 67.2105 92.1753 66.5665 92.1753ZM66.5665 90.7193C66.9538 90.7193 67.3015 90.6166 67.6095 90.4113C67.9175 90.206 68.1602 89.9353 68.3375 89.5993C68.5195 89.2586 68.6105 88.89 68.6105 88.4933C68.6105 88.0873 68.5172 87.714 68.3305 87.3733C68.1485 87.0326 67.9035 86.762 67.5955 86.5613C67.2875 86.356 66.9445 86.2533 66.5665 86.2533C66.1838 86.2533 65.8362 86.356 65.5235 86.5613C65.2155 86.7666 64.9705 87.0396 64.7885 87.3803C64.6112 87.721 64.5225 88.092 64.5225 88.4933C64.5225 88.9086 64.6158 89.2843 64.8025 89.6203C64.9892 89.9563 65.2365 90.2246 65.5445 90.4253C65.8572 90.6213 66.1978 90.7193 66.5665 90.7193ZM74.8524 86.4493H73.3824L73.3754 91.9933H71.9194L71.9264 86.4493H70.8134V84.9933H71.9264L71.9194 82.7953H73.3754L73.3824 84.9933H74.8524V86.4493ZM81.3876 84.9933H82.8436V91.9933H81.3806L81.3246 90.9783C81.1192 91.3376 80.8416 91.627 80.4916 91.8463C80.1462 92.0656 79.7332 92.1753 79.2526 92.1753C78.7392 92.1753 78.2562 92.0796 77.8036 91.8883C77.3509 91.6923 76.9542 91.424 76.6136 91.0833C76.2729 90.738 76.0046 90.339 75.8086 89.8863C75.6172 89.4336 75.5216 88.9483 75.5216 88.4303C75.5216 87.763 75.6826 87.154 76.0046 86.6033C76.3312 86.0526 76.7676 85.614 77.3136 85.2873C77.8596 84.9606 78.4662 84.7973 79.1336 84.7973C79.6422 84.7973 80.0902 84.914 80.4776 85.1473C80.8696 85.376 81.1939 85.67 81.4506 86.0293L81.3876 84.9933ZM79.2176 90.7683C79.6282 90.7683 79.9876 90.668 80.2956 90.4673C80.6036 90.262 80.8416 89.9866 81.0096 89.6413C81.1822 89.296 81.2686 88.9133 81.2686 88.4933C81.2686 88.0686 81.1822 87.6836 81.0096 87.3383C80.8369 86.993 80.5966 86.72 80.2886 86.5193C79.9806 86.314 79.6236 86.2113 79.2176 86.2113C78.8069 86.2113 78.4359 86.314 78.1046 86.5193C77.7732 86.7246 77.5072 87 77.3066 87.3453C77.1106 87.6906 77.0126 88.0733 77.0126 88.4933C77.0126 88.918 77.1129 89.303 77.3136 89.6483C77.5189 89.9936 77.7872 90.2666 78.1186 90.4673C78.4546 90.668 78.8209 90.7683 79.2176 90.7683ZM84.2951 91.9933V81.4933H85.7511V91.9933H84.2951ZM90.7892 91.9933V82.1933H94.3942C94.9262 82.1933 95.4046 82.324 95.8292 82.5853C96.2539 82.8466 96.5899 83.199 96.8372 83.6423C97.0892 84.081 97.2152 84.571 97.2152 85.1123C97.2152 85.7936 97.0262 86.3863 96.6482 86.8903C96.2702 87.3896 95.7872 87.728 95.1992 87.9053L97.5652 91.9933H95.8782L93.5822 88.0383H92.2452V91.9933H90.7892ZM92.2452 86.5823H94.2402C94.6556 86.5823 95.0126 86.433 95.3112 86.1343C95.6099 85.831 95.7592 85.46 95.7592 85.0213C95.7592 84.578 95.6099 84.207 95.3112 83.9083C95.0126 83.6096 94.6556 83.4603 94.2402 83.4603H92.2452V86.5823ZM101.649 92.1753C101.005 92.1753 100.417 92.0096 99.8845 91.6783C99.3572 91.347 98.9348 90.9036 98.6175 90.3483C98.3048 89.7883 98.1485 89.17 98.1485 88.4933C98.1485 87.812 98.3048 87.1913 98.6175 86.6313C98.9348 86.0713 99.3572 85.6256 99.8845 85.2943C100.417 84.963 101.005 84.7973 101.649 84.7973C102.185 84.7973 102.678 84.9093 103.126 85.1333C103.574 85.3526 103.956 85.6583 104.274 86.0503C104.591 86.4376 104.824 86.8856 104.974 87.3943C105.123 87.8983 105.167 88.435 105.107 89.0043H99.7095C99.7982 89.4896 100.015 89.8956 100.361 90.2223C100.711 90.549 101.14 90.7146 101.649 90.7193C102.003 90.7193 102.325 90.6306 102.615 90.4533C102.909 90.276 103.149 90.031 103.336 89.7183L104.813 90.0613C104.533 90.682 104.11 91.1906 103.546 91.5873C102.981 91.9793 102.349 92.1753 101.649 92.1753ZM99.6605 87.8913H103.637C103.59 87.56 103.471 87.2566 103.28 86.9813C103.093 86.706 102.857 86.489 102.573 86.3303C102.293 86.167 101.985 86.0853 101.649 86.0853C101.145 86.0853 100.708 86.2603 100.34 86.6103C99.9708 86.9556 99.7445 87.3826 99.6605 87.8913ZM109.312 91.9933H107.863L105.518 84.9933H106.946L108.598 89.9073L110.236 84.9933H111.706L113.344 89.9073L114.989 84.9933H116.417L114.079 91.9933H112.616L110.964 87.0443L109.312 91.9933ZM122.677 84.9933H124.133V91.9933H122.67L122.614 90.9783C122.408 91.3376 122.131 91.627 121.781 91.8463C121.435 92.0656 121.022 92.1753 120.542 92.1753C120.028 92.1753 119.545 92.0796 119.093 91.8883C118.64 91.6923 118.243 91.424 117.903 91.0833C117.562 90.738 117.294 90.339 117.098 89.8863C116.906 89.4336 116.811 88.9483 116.811 88.4303C116.811 87.763 116.972 87.154 117.294 86.6033C117.62 86.0526 118.057 85.614 118.603 85.2873C119.149 84.9606 119.755 84.7973 120.423 84.7973C120.931 84.7973 121.379 84.914 121.767 85.1473C122.159 85.376 122.483 85.67 122.74 86.0293L122.677 84.9933ZM120.507 90.7683C120.917 90.7683 121.277 90.668 121.585 90.4673C121.893 90.262 122.131 89.9866 122.299 89.6413C122.471 89.296 122.558 88.9133 122.558 88.4933C122.558 88.0686 122.471 87.6836 122.299 87.3383C122.126 86.993 121.886 86.72 121.578 86.5193C121.27 86.314 120.913 86.2113 120.507 86.2113C120.096 86.2113 119.725 86.314 119.394 86.5193C119.062 86.7246 118.796 87 118.596 87.3453C118.4 87.6906 118.302 88.0733 118.302 88.4933C118.302 88.918 118.402 89.303 118.603 89.6483C118.808 89.9936 119.076 90.2666 119.408 90.4673C119.744 90.668 120.11 90.7683 120.507 90.7683ZM125.529 91.9933V84.9933H126.985V85.7353C127.228 85.446 127.527 85.2173 127.881 85.0493C128.236 84.8813 128.619 84.7973 129.029 84.7973C129.291 84.7973 129.55 84.8323 129.806 84.9023L129.225 86.3723C129.043 86.3023 128.861 86.2673 128.679 86.2673C128.371 86.2673 128.089 86.3443 127.832 86.4983C127.576 86.6476 127.37 86.8506 127.216 87.1073C127.062 87.364 126.985 87.6486 126.985 87.9613V91.9933H125.529ZM135.74 81.4933H137.196V91.9933H135.74V90.9643C135.512 91.3283 135.213 91.6223 134.844 91.8463C134.476 92.0656 134.044 92.1753 133.549 92.1753C133.041 92.1753 132.565 92.0796 132.121 91.8883C131.678 91.697 131.286 91.4333 130.945 91.0973C130.609 90.7566 130.346 90.3646 130.154 89.9213C129.963 89.478 129.867 89.002 129.867 88.4933C129.867 87.9846 129.963 87.5086 130.154 87.0653C130.346 86.6173 130.609 86.2253 130.945 85.8893C131.286 85.5486 131.678 85.2826 132.121 85.0913C132.565 84.9 133.041 84.8043 133.549 84.8043C134.044 84.8043 134.476 84.9163 134.844 85.1403C135.213 85.3596 135.512 85.649 135.74 86.0083V81.4933ZM133.563 90.7683C133.974 90.7683 134.333 90.668 134.641 90.4673C134.949 90.262 135.187 89.9866 135.355 89.6413C135.528 89.296 135.614 88.9133 135.614 88.4933C135.614 88.0686 135.528 87.6836 135.355 87.3383C135.183 86.993 134.942 86.72 134.634 86.5193C134.326 86.314 133.969 86.2113 133.563 86.2113C133.157 86.2113 132.786 86.314 132.45 86.5193C132.119 86.7246 131.853 87 131.652 87.3453C131.456 87.6906 131.358 88.0733 131.358 88.4933C131.358 88.918 131.459 89.303 131.659 89.6483C131.865 89.9936 132.133 90.2666 132.464 90.4673C132.8 90.668 133.167 90.7683 133.563 90.7683ZM140.973 92.1263C140.413 92.0936 139.891 91.9443 139.405 91.6783C138.92 91.4123 138.579 91.06 138.383 90.6213L139.622 90.0893C139.716 90.2806 139.905 90.4603 140.189 90.6283C140.474 90.7916 140.784 90.8733 141.12 90.8733C141.442 90.8733 141.732 90.801 141.988 90.6563C142.25 90.5116 142.38 90.2993 142.38 90.0193C142.38 89.814 142.31 89.6553 142.17 89.5433C142.035 89.4313 141.865 89.345 141.659 89.2843C141.454 89.219 141.249 89.1583 141.043 89.1023C140.581 88.9996 140.161 88.8596 139.783 88.6823C139.405 88.5003 139.104 88.2693 138.88 87.9893C138.656 87.7046 138.544 87.357 138.544 86.9463C138.544 86.4983 138.666 86.111 138.908 85.7843C139.151 85.453 139.468 85.1986 139.86 85.0213C140.252 84.844 140.675 84.7553 141.127 84.7553C141.687 84.7553 142.201 84.8743 142.667 85.1123C143.134 85.3503 143.491 85.677 143.738 86.0923L142.583 86.7783C142.476 86.5683 142.296 86.3933 142.044 86.2533C141.792 86.1086 141.526 86.0293 141.246 86.0153C140.882 86.0013 140.567 86.069 140.301 86.2183C140.04 86.363 139.909 86.594 139.909 86.9113C139.909 87.1166 139.982 87.2706 140.126 87.3733C140.271 87.476 140.453 87.5576 140.672 87.6183C140.896 87.6743 141.125 87.7396 141.358 87.8143C141.774 87.9496 142.163 88.1106 142.527 88.2973C142.891 88.484 143.185 88.715 143.409 88.9903C143.633 89.2656 143.741 89.6016 143.731 89.9983C143.731 90.437 143.598 90.822 143.332 91.1533C143.071 91.48 142.73 91.732 142.31 91.9093C141.89 92.082 141.445 92.1543 140.973 92.1263Z" fill="#0D0D0D"/>
<defs>
<filter id="filter0_f_4915_5401" x="15.9413" y="15.4368" width="167.115" height="167.115" filterUnits="userSpaceOnUse" color-interpolation-filters="sRGB">
<feFlood flood-opacity="0" result="BackgroundImageFix"/>
<feBlend mode="normal" in="SourceGraphic" in2="BackgroundImageFix" result="shape"/>
<feGaussianBlur stdDeviation="5.1685" result="effect1_foregroundBlur_4915_5401"/>
</filter>
<filter id="filter1_f_4915_5401" x="0.929548" y="0.524641" width="197.143" height="197.143" filterUnits="userSpaceOnUse" color-interpolation-filters="sRGB">
<feFlood flood-opacity="0" result="BackgroundImageFix"/>
<feBlend mode="normal" in="SourceGraphic" in2="BackgroundImageFix" result="shape"/>
<feGaussianBlur stdDeviation="4.28571" result="effect1_foregroundBlur_4915_5401"/>
</filter>
<filter id="filter2_dddd_4915_5401" x="88.499" y="53.9933" width="22" height="27" filterUnits="userSpaceOnUse" color-interpolation-filters="sRGB">
<feFlood flood-opacity="0" result="BackgroundImageFix"/>
<feColorMatrix in="SourceAlpha" type="matrix" values="0 0 0 0 0 0 0 0 0 0 0 0 0 0 0 0 0 0 127 0" result="hardAlpha"/>
<feOffset/>
<feGaussianBlur stdDeviation="0.5"/>
<feColorMatrix type="matrix" values="0 0 0 0 0 0 0 0 0 0 0 0 0 0 0 0 0 0 0.1 0"/>
<feBlend mode="normal" in2="BackgroundImageFix" result="effect1_dropShadow_4915_5401"/>
<feColorMatrix in="SourceAlpha" type="matrix" values="0 0 0 0 0 0 0 0 0 0 0 0 0 0 0 0 0 0 127 0" result="hardAlpha"/>
<feOffset dy="2"/>
<feGaussianBlur stdDeviation="1"/>
<feColorMatrix type="matrix" values="0 0 0 0 0 0 0 0 0 0 0 0 0 0 0 0 0 0 0.09 0"/>
<feBlend mode="normal" in2="effect1_dropShadow_4915_5401" result="effect2_dropShadow_4915_5401"/>
<feColorMatrix in="SourceAlpha" type="matrix" values="0 0 0 0 0 0 0 0 0 0 0 0 0 0 0 0 0 0 127 0" result="hardAlpha"/>
<feOffset dy="4"/>
<feGaussianBlur stdDeviation="1"/>
<feColorMatrix type="matrix" values="0 0 0 0 0 0 0 0 0 0 0 0 0 0 0 0 0 0 0.05 0"/>
<feBlend mode="normal" in2="effect2_dropShadow_4915_5401" result="effect3_dropShadow_4915_5401"/>
<feColorMatrix in="SourceAlpha" type="matrix" values="0 0 0 0 0 0 0 0 0 0 0 0 0 0 0 0 0 0 127 0" result="hardAlpha"/>
<feOffset dy="7"/>
<feGaussianBlur stdDeviation="1.5"/>
<feColorMatrix type="matrix" values="0 0 0 0 0 0 0 0 0 0 0 0 0 0 0 0 0 0 0.01 0"/>
<feBlend mode="normal" in2="effect3_dropShadow_4915_5401" result="effect4_dropShadow_4915_5401"/>
<feBlend mode="normal" in="SourceGraphic" in2="effect4_dropShadow_4915_5401" result="shape"/>
</filter>
</defs>
</svg>
