<svg xmlns="http://www.w3.org/2000/svg" width="26" height="26" viewBox="0 0 26 26" fill="none">
<path fill-rule="evenodd" clip-rule="evenodd" d="M18.3444 2.30675C18.3444 1.71611 17.8656 1.2373 17.275 1.2373C16.6843 1.2373 16.2055 1.71611 16.2055 2.30675V4.29286H12.9972C12.4065 4.29286 11.9277 4.77167 11.9277 5.36231V8.72342C11.9277 8.72353 11.9277 8.72364 11.9277 8.72376H8.2888C4.39059 8.72376 1.23047 12.0754 1.23047 16.2099C1.23047 20.3443 4.39059 23.696 8.2888 23.696H17.6999C21.5981 23.696 24.7582 20.3443 24.7582 16.2099C24.7582 12.0754 21.5981 8.72376 17.6999 8.72376H14.0666C14.0666 8.72364 14.0666 8.72353 14.0666 8.72342V6.43175H17.275C17.8656 6.43175 18.3444 5.95294 18.3444 5.36231V2.30675ZM9.78668 14.0714C9.78668 13.4808 9.30787 13.002 8.71723 13.002C8.12659 13.002 7.64779 13.4808 7.64779 14.0714V15.1405H6.57986C5.98922 15.1405 5.51042 15.6193 5.51042 16.2099C5.51042 16.8005 5.98922 17.2794 6.57986 17.2794H7.64779V18.3492C7.64779 18.9398 8.12659 19.4186 8.71723 19.4186C9.30787 19.4186 9.78668 18.9398 9.78668 18.3492V17.2794H10.8576C11.4483 17.2794 11.9271 16.8005 11.9271 16.2099C11.9271 15.6193 11.4483 15.1405 10.8576 15.1405H9.78668V14.0714ZM17.2728 13.002C15.5009 13.002 14.0645 14.4384 14.0645 16.2103C14.0645 17.9822 15.5009 19.4186 17.2728 19.4186C19.0447 19.4186 20.4811 17.9822 20.4811 16.2103C20.4811 14.4384 19.0447 13.002 17.2728 13.002Z" fill="currentColor" />
</svg>