<svg width="16" height="17" viewBox="0 0 16 17" fill="none" xmlns="http://www.w3.org/2000/svg">
<path d="M4.75226 14.7467C4.61969 14.7467 4.49254 14.694 4.3988 14.6003C4.30505 14.5066 4.25239 14.3794 4.25239 14.2468V11.5788C3.97815 11.7096 3.67422 11.7656 3.37136 11.7412C3.11492 11.7224 2.86578 11.6472 2.64169 11.5212C2.41759 11.3951 2.22404 11.2211 2.0748 11.0118C1.92557 10.8024 1.82433 10.5626 1.77828 10.3097C1.73224 10.0567 1.74252 9.79668 1.80839 9.54813C1.87427 9.29958 1.99412 9.06861 2.15941 8.87165C2.32471 8.67469 2.53139 8.51658 2.76474 8.40859C2.99809 8.30059 3.25238 8.24536 3.50951 8.24682C3.76663 8.24828 4.02028 8.3064 4.25239 8.41704V5.74897C4.25239 5.61639 4.30505 5.48925 4.3988 5.3955C4.49254 5.30176 4.61969 5.24909 4.75226 5.24909H7.67028C7.53946 4.97485 7.48341 4.67092 7.50782 4.36806C7.52666 4.11162 7.60179 3.86249 7.72788 3.63839C7.85396 3.41429 8.02788 3.22074 8.23728 3.07151C8.44667 2.92228 8.68639 2.82103 8.93936 2.77499C9.19233 2.72894 9.45235 2.73922 9.7009 2.80509C9.94945 2.87097 10.1804 2.99082 10.3774 3.15612C10.5743 3.32141 10.7324 3.52809 10.8404 3.76144C10.9484 3.9948 11.0037 4.24909 11.0022 4.50621C11.0007 4.76334 10.9426 5.01698 10.832 5.24909H13.75C13.8826 5.24909 14.0097 5.30176 14.1035 5.3955C14.1972 5.48925 14.2499 5.61639 14.2499 5.74897V8.41704C13.9756 8.28623 13.6717 8.23018 13.3688 8.25459C13.1124 8.27343 12.8633 8.34856 12.6392 8.47464C12.4151 8.60072 12.2215 8.77465 12.0723 8.98405C11.9231 9.19344 11.8218 9.43315 11.7758 9.68613C11.7297 9.9391 11.74 10.1991 11.8059 10.4477C11.8718 10.6962 11.9916 10.9272 12.1569 11.1241C12.3222 11.3211 12.5289 11.4792 12.7622 11.5872C12.9956 11.6952 13.2499 11.7504 13.507 11.749C13.7641 11.7475 14.0178 11.6894 14.2499 11.5788V14.2468C14.2499 14.3794 14.1972 14.5066 14.1035 14.6003C14.0097 14.694 13.8826 14.7467 13.75 14.7467H4.75226Z" stroke="#0AC2C2" stroke-width="1.49962" stroke-linecap="round" stroke-linejoin="round"/>
</svg>
