<svg width="16" height="17" viewBox="0 0 16 17" fill="none" xmlns="http://www.w3.org/2000/svg">
<path fill-rule="evenodd" clip-rule="evenodd" d="M13.6004 8.49844C13.6004 11.5912 11.0932 14.0984 8.00039 14.0984C4.9076 14.0984 2.40039 11.5912 2.40039 8.49844C2.40039 5.40564 4.9076 2.89844 8.00039 2.89844C11.0932 2.89844 13.6004 5.40564 13.6004 8.49844ZM8.70039 5.69844C8.70039 6.08504 8.38699 6.39844 8.00039 6.39844C7.61379 6.39844 7.30039 6.08504 7.30039 5.69844C7.30039 5.31184 7.61379 4.99844 8.00039 4.99844C8.38699 4.99844 8.70039 5.31184 8.70039 5.69844ZM7.30039 7.79844C6.91379 7.79844 6.60039 8.11184 6.60039 8.49844C6.60039 8.88504 6.91379 9.19844 7.30039 9.19844V11.2984C7.30039 11.685 7.61379 11.9984 8.00039 11.9984H8.70039C9.08699 11.9984 9.40039 11.685 9.40039 11.2984C9.40039 10.9118 9.08699 10.5984 8.70039 10.5984V8.49844C8.70039 8.11184 8.38699 7.79844 8.00039 7.79844H7.30039Z" fill="#BFBFBF"/>
</svg>
