<svg xmlns="http://www.w3.org/2000/svg" width="55" height="64" viewBox="0 0 55 64" fill="none">
  <path d="M32.1687 64L0 31.9435L32.055 0L32.1687 0.113322V9.90566L15.1514 31.9444L32.1687 53.9831L54.2374 31.9912V42.0086L32.1687 64Z" fill="white"/>
  <path d="M36.168 23.8912V4.43311L45.9311 14.1622L36.168 23.8912ZM37.3208 7.47271V20.8516L44.0337 14.1622L37.3208 7.47271Z" fill="white"/>
  <path d="M36.3973 23.3268L45.5937 14.1625L36.3973 4.99822V23.3268ZM37.0806 6.90825L44.3603 14.1625L37.0806 21.4167V6.90825ZM35.9277 24.4566V3.86865L46.2577 14.1625L35.9277 24.4566ZM37.5501 8.03782V20.2872L43.6962 14.1625L37.5501 8.03782Z" fill="white"/>
  <path d="M35.9202 31.9445L42.4941 38.4956L49.0681 31.9445H35.9202Z" fill="white"/>
</svg>