<svg xmlns="http://www.w3.org/2000/svg" width="19" height="19" viewBox="0 0 19 19" fill="none">
  <rect y="0.05896" width="18.0827" height="18.0842" rx="9.04136" fill="white"/>
  <g filter="url(#filter0_d_2480_850)">
    <path d="M14.0909 8.5823C14.0458 9.13208 13.9492 9.67629 13.8024 10.2078C13.3015 12.4113 11.3291 14.0561 8.97219 14.0561C6.23664 14.0561 4.01904 11.8403 4.01904 9.10695C4.01904 6.37363 6.23664 4.15784 8.97219 4.15784C10.7472 4.15784 12.3041 5.09071 13.1786 6.49254L14.7729 6.9427L13.5672 7.25565C13.5672 7.25574 13.5672 7.25584 13.5673 7.25593L11.7737 7.73614C11.2661 6.70245 10.2023 5.99084 8.97219 5.99084C7.24981 5.99084 5.85354 7.38597 5.85354 9.10695C5.85354 10.8279 7.24981 12.2231 8.97219 12.2231C10.3021 12.2231 11.4376 11.3913 11.886 10.2199L9.1549 9.68639L14.108 8.37378L14.0909 8.5823Z" fill="#1F2231"/>
  </g>
  <defs>
    <filter id="filter0_d_2480_850" x="2.55274" y="2.69154" width="13.6865" height="12.8308" filterUnits="userSpaceOnUse" color-interpolation-filters="sRGB">
      <feFlood flood-opacity="0" result="BackgroundImageFix"/>
      <feColorMatrix in="SourceAlpha" type="matrix" values="0 0 0 0 0 0 0 0 0 0 0 0 0 0 0 0 0 0 127 0" result="hardAlpha"/>
      <feOffset/>
      <feGaussianBlur stdDeviation="0.733151"/>
      <feComposite in2="hardAlpha" operator="out"/>
      <feColorMatrix type="matrix" values="0 0 0 0 0.619608 0 0 0 0 0.623529 0 0 0 0 0.647059 0 0 0 1 0"/>
      <feBlend mode="normal" in2="BackgroundImageFix" result="effect1_dropShadow_2480_850"/>
      <feBlend mode="normal" in="SourceGraphic" in2="effect1_dropShadow_2480_850" result="shape"/>
    </filter>
  </defs>
</svg>