<svg xmlns="http://www.w3.org/2000/svg" width="20" height="20" viewBox="0 0 20 20" fill="none">
  <g clip-path="url(#clip0_2378_2008)">
    <path fill-rule="evenodd" clip-rule="evenodd" d="M10.0007 -0.000366211C4.47436 -0.000366211 0.000732422 4.47327 0.000732422 9.99963C0.000732422 15.526 4.47436 19.9996 10.0007 19.9996C15.5271 19.9996 20.0007 15.527 20.0007 9.99963C20.0007 4.47229 15.5281 -0.000366211 10.0007 -0.000366211ZM7.82103 12.839C9.37868 12.839 10.6414 11.5676 10.6414 9.99934C10.6414 8.43106 9.37858 7.15975 7.82103 7.15975C6.26347 7.15975 5.00078 8.43067 5.00078 9.99934C5.00078 11.568 6.26337 12.839 7.82103 12.839ZM12.3251 12.6724C13.1039 12.6724 13.7353 11.4757 13.7353 9.99934C13.7353 8.52337 13.1039 7.32629 12.3251 7.32629C11.5464 7.32629 10.915 8.52337 10.915 9.99934C10.915 11.4753 11.5464 12.6724 12.3251 12.6724ZM14.5048 12.3943C14.7787 12.3943 15.0008 11.3221 15.0008 9.99934C15.0008 8.6767 14.7789 7.60439 14.5049 7.60439C14.2309 7.60439 14.0088 8.67699 14.0088 9.99934C14.0088 11.3217 14.2309 12.3943 14.5048 12.3943Z" fill="white"/>
  </g>
  <defs>
    <clipPath id="clip0_2378_2008">
      <rect width="20" height="20" fill="white"/>
    </clipPath>
  </defs>
</svg>