<svg width="24" height="24" viewBox="0 0 24 24" fill="none" xmlns="http://www.w3.org/2000/svg">
<g id="Frame">
<path id="Union" fill-rule="evenodd" clip-rule="evenodd" d="M2.72461 5.97461C2.72461 5.28425 3.28425 4.72461 3.97461 4.72461H19.9746C20.665 4.72461 21.2246 5.28425 21.2246 5.97461C21.2246 6.66497 20.665 7.22461 19.9746 7.22461H3.97461C3.28425 7.22461 2.72461 6.66497 2.72461 5.97461ZM2.72461 11.9746C2.72461 11.2843 3.28425 10.7246 3.97461 10.7246H19.9746C20.665 10.7246 21.2246 11.2843 21.2246 11.9746C21.2246 12.665 20.665 13.2246 19.9746 13.2246H3.97461C3.28425 13.2246 2.72461 12.665 2.72461 11.9746ZM3.97461 16.7246C3.28425 16.7246 2.72461 17.2843 2.72461 17.9746C2.72461 18.665 3.28425 19.2246 3.97461 19.2246H19.9746C20.665 19.2246 21.2246 18.665 21.2246 17.9746C21.2246 17.2843 20.665 16.7246 19.9746 16.7246H3.97461Z" fill="white"/>
</g>
</svg>
