<svg width="28" height="28" viewBox="0 0 28 28" fill="none" xmlns="http://www.w3.org/2000/svg">
<g id="Frame">
<path id="Subtract" fill-rule="evenodd" clip-rule="evenodd" d="M9.3335 2.33203C5.4675 2.33203 2.3335 5.46604 2.3335 9.33204V18.6654C2.3335 22.5314 5.46751 25.6654 9.3335 25.6654H18.6668C22.5328 25.6654 25.6668 22.5314 25.6668 18.6654V9.33203C25.6668 5.46604 22.5328 2.33203 18.6668 2.33203H9.3335ZM20.402 15.4414C20.5967 14.7453 20.7248 14.0326 20.7846 13.3126L20.8073 13.0395L14.2397 14.7586L17.861 15.4573C17.2665 16.9913 15.7608 18.0806 13.9974 18.0806C11.7136 18.0806 9.86217 16.2535 9.86217 13.9997C9.86217 11.7459 11.7136 9.91878 13.9974 9.91878C15.6285 9.91878 17.039 10.8507 17.712 12.2045L20.0903 11.5756L20.0902 11.5752L21.6889 11.1653L19.575 10.5758C18.4153 8.73995 16.3509 7.51823 13.9974 7.51823C10.3701 7.51823 7.42969 10.4201 7.42969 13.9997C7.42969 17.5793 10.3701 20.4812 13.9974 20.4812C17.1225 20.4812 19.7379 18.3271 20.402 15.4414Z"  fill="currentColor" />
</g>
</svg>
