<svg width="28" height="28" viewBox="0 0 28 28" fill="none" xmlns="http://www.w3.org/2000/svg">
<path d="M4.52573 4.61468L4.56664 4.74716L9.73591 24.2775C9.91593 24.997 9.49658 25.7756 8.77447 25.957C8.45453 26.0403 8.1149 26.0017 7.82206 25.8486C7.52921 25.6956 7.30423 25.4391 7.19117 25.1295L7.15025 24.997L2.0403 5.46666C1.95742 5.12544 2.00332 4.76577 2.16929 4.45609C2.33525 4.14641 2.60969 3.90833 2.94037 3.78715C3.26061 3.70278 3.60095 3.74093 3.89437 3.89409C4.18779 4.04725 4.41303 4.30432 4.52573 4.61468ZM14.7865 3.24906C19.8985 6.48373 23.327 8.8807 25.6692 5.94564C25.792 5.82539 26.0927 5.94564 25.972 6.12501C25.7326 7.26234 25.2499 9.06006 24.5891 10.2585C23.6277 12.0563 20.4406 14.5735 16.4701 13.4932C12.8637 12.4741 10.1573 13.9722 9.07518 17.3292C9.07518 17.3292 6.00675 6.30233 5.76742 5.34436C6.12744 4.74716 9.31452 -0.287272 14.7886 3.24906H14.7865Z" fill="currentColor"/>
</svg>
