<svg width="25" height="24" viewBox="0 0 25 24" fill="none" xmlns="http://www.w3.org/2000/svg">
<path fill-rule="evenodd" clip-rule="evenodd" d="M17.6889 4.93548C17.3309 4.5775 16.7505 4.5775 16.3925 4.93548C16.0345 5.29346 16.0345 5.87386 16.3925 6.23184L17.5777 7.41699L16.3925 8.60214C16.0345 8.96012 16.0345 9.54053 16.3925 9.89851C16.7505 10.2565 17.3309 10.2565 17.6889 9.89851L18.874 8.71335L20.0592 9.89851C20.4172 10.2565 20.9976 10.2565 21.3555 9.89851C21.7135 9.54053 21.7135 8.96012 21.3555 8.60214L20.1704 7.41699L21.3555 6.23184C21.7135 5.87386 21.7135 5.29346 21.3555 4.93548C20.9976 4.5775 20.4172 4.5775 20.0592 4.93548L18.874 6.12063L17.6889 4.93548ZM14.457 5.91699C14.457 5.36471 14.0093 4.91699 13.457 4.91699H3.45703C2.90475 4.91699 2.45703 5.36471 2.45703 5.91699V8.91699C2.45703 9.46928 2.90475 9.91699 3.45703 9.91699H13.457C14.0093 9.91699 14.457 9.46928 14.457 8.91699V5.91699ZM22.227 14.0598C22.608 14.3932 22.6466 14.9723 22.3132 15.3533L19.1049 19.02C18.9378 19.2109 18.6991 19.3241 18.4455 19.3325C18.192 19.341 17.9463 19.2439 17.7669 19.0645L15.9335 17.2312C15.5755 16.8732 15.5755 16.2928 15.9335 15.9348C16.2915 15.5769 16.8719 15.5769 17.2299 15.9348L18.3704 17.0753L20.9335 14.1461C21.2669 13.7651 21.846 13.7264 22.227 14.0598ZM14.457 15.083C14.457 14.5307 14.0093 14.083 13.457 14.083H3.45703C2.90475 14.083 2.45703 14.5307 2.45703 15.083V18.083C2.45703 18.6353 2.90475 19.083 3.45703 19.083H13.457C14.0093 19.083 14.457 18.6353 14.457 18.083V15.083Z" fill="currentColor"/>
</svg>
