<svg width="26" height="26" viewBox="0 0 26 26" fill="none" xmlns="http://www.w3.org/2000/svg">
<g id="Frame">
<path id="Union" fill-rule="evenodd" clip-rule="evenodd" d="M15.3346 4.83333C15.3346 3.54467 14.29 2.5 13.0013 2.5C11.7126 2.5 10.668 3.54467 10.668 4.83333V21.1667C10.668 22.4553 11.7126 23.5 13.0013 23.5C14.29 23.5 15.3346 22.4553 15.3346 21.1667V4.83333ZM22.3346 11.8333C22.3346 10.5447 21.29 9.5 20.0013 9.5C18.7126 9.5 17.668 10.5447 17.668 11.8333V21.1667C17.668 22.4553 18.7126 23.5 20.0013 23.5C21.29 23.5 22.3346 22.4553 22.3346 21.1667V11.8333ZM6.0013 14.1667C7.28997 14.1667 8.33464 15.2113 8.33464 16.5V21.1667C8.33464 22.4553 7.28997 23.5 6.0013 23.5C4.71264 23.5 3.66797 22.4553 3.66797 21.1667V16.5C3.66797 15.2113 4.71264 14.1667 6.0013 14.1667Z" fill="currentColor" />
</g>
</svg>
