<svg width="42" height="38" viewBox="0 0 42 38" fill="none" xmlns="http://www.w3.org/2000/svg">
<g filter="url(#filter0_b_9556_7181)">
<circle cx="21" cy="19" r="14" fill="#191A27" fill-opacity="0.56"/>
<circle cx="21" cy="19" r="13.6667" stroke="white" stroke-opacity="0.2" stroke-width="0.666667"/>
</g>
<g filter="url(#filter1_d_9556_7181)">
<path fill-rule="evenodd" clip-rule="evenodd" d="M12.6923 21.6921L12 15.4614L16.1538 19.6152L21 12L25.8462 19.6152L30 15.4614L29.3077 21.6921C29.2945 21.6979 29.2812 21.7038 29.2678 21.7098C28.2179 22.1768 26.1949 23.0766 21 23.0766C15.8051 23.0766 13.7821 22.1768 12.7322 21.7098C12.7188 21.7038 12.7055 21.6979 12.6923 21.6921ZM21.0011 14.7686L18.2319 19.6146H23.7703L21.0011 14.7686Z" fill="#F4DCA5"/>
<path fill-rule="evenodd" clip-rule="evenodd" d="M12.6934 23.0775C13.9225 23.5628 16.166 24.2558 20.9995 24.2558C25.8373 24.2558 28.0804 23.5615 29.3089 23.0762L29.1798 24.2565C29.1668 24.2623 29.1537 24.2682 29.1405 24.2742C28.1069 24.7412 26.1153 25.641 21.0011 25.641C15.8868 25.641 13.8953 24.7412 12.8616 24.2742C12.8484 24.2682 12.8353 24.2623 12.8223 24.2565L12.6934 23.0775Z" fill="#F4DCA5"/>
</g>
<defs>
<filter id="filter0_b_9556_7181" x="-5" y="-7" width="52" height="52" filterUnits="userSpaceOnUse" color-interpolation-filters="sRGB">
<feFlood flood-opacity="0" result="BackgroundImageFix"/>
<feGaussianBlur in="BackgroundImageFix" stdDeviation="6"/>
<feComposite in2="SourceAlpha" operator="in" result="effect1_backgroundBlur_9556_7181"/>
<feBlend mode="normal" in="SourceGraphic" in2="effect1_backgroundBlur_9556_7181" result="shape"/>
</filter>
<filter id="filter1_d_9556_7181" x="0" y="0" width="42" height="37.6406" filterUnits="userSpaceOnUse" color-interpolation-filters="sRGB">
<feFlood flood-opacity="0" result="BackgroundImageFix"/>
<feColorMatrix in="SourceAlpha" type="matrix" values="0 0 0 0 0 0 0 0 0 0 0 0 0 0 0 0 0 0 127 0" result="hardAlpha"/>
<feOffset/>
<feGaussianBlur stdDeviation="6"/>
<feComposite in2="hardAlpha" operator="out"/>
<feColorMatrix type="matrix" values="0 0 0 0 0.956863 0 0 0 0 0.862745 0 0 0 0 0.647059 0 0 0 0.48 0"/>
<feBlend mode="normal" in2="BackgroundImageFix" result="effect1_dropShadow_9556_7181"/>
<feBlend mode="normal" in="SourceGraphic" in2="effect1_dropShadow_9556_7181" result="shape"/>
</filter>
</defs>
</svg>
