<svg xmlns="http://www.w3.org/2000/svg" width="20" height="20" viewBox="0 0 20 20" fill="none">
  <g clip-path="url(#clip0_2378_2004)">
    <path fill-rule="evenodd" clip-rule="evenodd" d="M10 0C4.47363 0 0 4.47363 0 10C0 15.5264 4.47363 20 10 20C15.5264 20 20 15.5273 20 10C20 4.47266 15.5273 0 10 0ZM14.3418 7.075C14.8062 7.02261 15.2602 6.90831 15.6885 6.73209L15.7143 6.74161C15.3995 7.17502 15.0023 7.55603 14.543 7.86084C14.5482 7.95134 14.5482 8.04659 14.5482 8.13708C14.5482 10.9899 12.1903 14.2857 7.88197 14.2857C6.60755 14.2857 5.35892 13.9476 4.28571 13.3141C4.47146 13.3332 4.65721 13.3427 4.84295 13.3427C5.89552 13.3427 6.91712 13.0188 7.74782 12.4187C6.7417 12.4045 5.86456 11.7996 5.55498 10.9185C5.90584 10.9804 6.26185 10.9661 6.60755 10.8804C5.51371 10.6756 4.72944 9.78973 4.72944 8.76099V8.73242C5.0545 8.89911 5.42083 8.99436 5.79233 9.00389C5.16285 8.61335 4.75008 7.9561 4.75008 7.20359C4.74492 6.82258 4.85843 6.44633 5.06482 6.11294C6.22057 7.41791 7.94905 8.28472 9.88907 8.37045C9.64657 7.41791 10.1264 6.43204 11.0655 5.97006C12.0045 5.50808 13.1603 5.6843 13.8826 6.3987C14.4192 6.29868 14.9197 6.12246 15.3738 5.87957C15.1983 6.37965 14.832 6.80353 14.3418 7.075Z" fill="white" fill-opacity="0.8"/>
  </g>
  <defs>
    <clipPath id="clip0_2378_2004">
      <rect width="20" height="20" fill="white"/>
    </clipPath>
  </defs>
</svg>