<svg width="22" height="23" viewBox="0 0 22 23" fill="none" xmlns="http://www.w3.org/2000/svg">
<path d="M21.2272 12.1875C21.6378 12.9617 21.8908 13.8087 21.9717 14.68C22.0526 15.5513 21.9598 16.43 21.6986 17.2657C21.4374 18.1014 21.013 18.8778 20.4496 19.5505C19.8862 20.2232 19.1948 20.7791 18.415 21.1863L16.2613 22.3133L15.7317 22.59C15.2452 22.8443 14.7063 22.9841 14.1567 22.9987C13.6071 23.0133 13.0615 22.9023 12.5619 22.6742L4.15101 19.1052L4.94303 16.7714L9.94512 17.7311L7.35464 12.8421L3.1842 4.97155L5.21583 3.90995L9.38632 11.7828L10.3898 11.2586L8.55131 7.7863L10.5818 6.7253L12.4203 10.1976L13.4239 9.6733L12.0042 6.9934L14.0359 5.9318L15.4555 8.6117L16.4596 8.0829L15.4853 6.2386L17.5164 5.1799L18.4907 7.02415L21.2266 12.1892L21.2272 12.1875ZM1.80132 6.0337C1.37927 5.61415 1.09182 5.07981 0.975263 4.49814C0.858703 3.91646 0.918257 3.31353 1.14641 2.76545C1.37456 2.21736 1.76108 1.74869 2.25717 1.4186C2.75327 1.08851 3.33671 0.911789 3.93384 0.91075C4.41773 0.911289 4.89444 1.0271 5.32395 1.24847C5.75346 1.46984 6.12324 1.79031 6.40226 2.18298C6.68129 2.57564 6.86141 3.02906 6.92751 3.50517C6.99361 3.98127 6.94377 4.46618 6.78216 4.9192L7.31518 5.91985C7.67171 5.3262 7.86362 4.64937 7.87138 3.95817C7.87915 3.26697 7.7025 2.58606 7.35939 1.98465C7.01628 1.38325 6.51895 0.882812 5.91797 0.534216C5.31698 0.185621 4.63378 0.00130196 3.93781 0C2.91797 0.000142437 1.93794 0.393211 1.20396 1.09649C0.469992 1.79977 0.0393139 2.75841 0.00256079 3.77068C-0.0341923 4.78296 0.325846 5.76992 1.00691 6.52388C1.68797 7.27784 2.63695 7.74 3.65414 7.8131L3.11826 6.801C2.62008 6.66212 2.16646 6.39782 1.80132 6.0337Z" fill="currentColor"/>
</svg>
