<svg xmlns="http://www.w3.org/2000/svg" width="48" height="64" viewBox="0 0 48 64" fill="none">
  <path d="M23.9985 38.3956C32.245 38.3956 38.9301 31.7105 38.9301 23.464C38.9301 15.2175 32.245 8.53237 23.9985 8.53237C15.752 8.53237 9.06687 15.2175 9.06687 23.464C9.06687 31.7105 15.752 38.3956 23.9985 38.3956Z" fill="#F73558" fill-opacity="0.89"/>
  <path d="M23.9988 4.86657e-05C19.1648 -0.00979963 14.446 1.4753 10.489 4.25187C6.53194 7.02843 3.53024 10.9606 1.89515 15.5097C0.260058 20.0587 0.0715699 25.0021 1.35551 29.6625C2.63945 34.3228 5.33301 38.4722 9.06712 41.542V61.8597C9.06495 62.2237 9.15715 62.5821 9.33472 62.8998C9.5123 63.2176 9.76919 63.4839 10.0803 63.6728C10.389 63.8669 10.7422 63.9785 11.1063 63.9972C11.4704 64.0159 11.8332 63.9409 12.1601 63.7795L23.9988 57.8335L35.8374 63.7795C36.1402 63.9133 36.4664 63.9858 36.7973 63.9928C37.363 63.9928 37.9056 63.7681 38.3056 63.368C38.7057 62.968 38.9304 62.4254 38.9304 61.8597V41.542C42.6645 38.4722 45.3581 34.3228 46.642 29.6625C47.926 25.0021 47.7375 20.0587 46.1024 15.5097C44.4673 10.9606 41.4656 7.02843 37.5085 4.25187C33.5515 1.4753 28.8327 -0.00979963 23.9988 4.86657e-05ZM23.9988 42.6619C20.2018 42.6619 16.4901 41.5359 13.333 39.4265C10.176 37.317 7.71533 34.3187 6.26229 30.8107C4.80925 27.3028 4.42907 23.4428 5.16982 19.7187C5.91057 15.9947 7.73899 12.574 10.4239 9.88914C13.1087 7.20428 16.5294 5.37586 20.2535 4.63511C23.9775 3.89436 27.8375 4.27454 31.3454 5.72758C34.8534 7.18062 37.8517 9.64125 39.9612 12.7983C42.0707 15.9554 43.1966 19.6671 43.1966 23.4641C43.1895 28.5535 41.1646 33.4324 37.5659 37.0312C33.9671 40.6299 29.0882 42.6548 23.9988 42.6619Z" fill="#F73558" fill-opacity="0.89"/>
  <path d="M23.2549 31.9998V17.4688H21.2191L21.9139 14.9332H25.7905V31.9998H23.2549Z" fill="white"/>
</svg>