<svg xmlns="http://www.w3.org/2000/svg" width="30" height="40" viewBox="0 0 30 40" fill="none">
  <path d="M15.3323 23.9973C20.4864 23.9973 24.6646 19.8191 24.6646 14.665C24.6646 9.51093 20.4864 5.33273 15.3323 5.33273C10.1782 5.33273 6.00004 9.51093 6.00004 14.665C6.00004 19.8191 10.1782 23.9973 15.3323 23.9973Z" fill="#FF4D45" fill-opacity="0.89"/>
  <path d="M15.3325 3.0416e-05C12.3112 -0.00612477 9.36201 0.922062 6.88886 2.65742C4.41571 4.39277 2.53965 6.85039 1.51772 9.69355C0.495788 12.5367 0.377983 15.6263 1.18045 18.539C1.98291 21.4518 3.66638 24.0451 6.0002 25.9638V38.6623C5.99885 38.8898 6.05647 39.1138 6.16745 39.3124C6.27844 39.511 6.43899 39.6774 6.63347 39.7955C6.82638 39.9168 7.04715 39.9866 7.27471 39.9982C7.50226 40.0099 7.72902 39.9631 7.93332 39.8622L15.3325 36.1459L22.7316 39.8622C22.9209 39.9458 23.1248 39.9911 23.3316 39.9955C23.6852 39.9955 24.0243 39.855 24.2743 39.605C24.5243 39.355 24.6648 39.0159 24.6648 38.6623V25.9638C26.9986 24.0451 28.682 21.4518 29.4845 18.539C30.287 15.6263 30.1692 12.5367 29.1472 9.69355C28.1253 6.85039 26.2492 4.39277 23.7761 2.65742C21.3029 0.922062 18.3537 -0.00612477 15.3325 3.0416e-05ZM15.3325 26.6637C12.9594 26.6637 10.6396 25.96 8.66639 24.6415C6.69323 23.3231 5.15533 21.4492 4.24718 19.2567C3.33903 17.0642 3.10142 14.6517 3.56439 12.3242C4.02736 9.99671 5.17012 7.85875 6.84816 6.18071C8.5262 4.50267 10.6642 3.35992 12.9917 2.89694C15.3192 2.43397 17.7317 2.67159 19.9242 3.57974C22.1166 4.48788 23.9906 6.02578 25.309 7.99895C26.6274 9.97211 27.3311 12.2919 27.3311 14.665C27.3267 17.8459 26.0612 20.8953 23.8119 23.1445C21.5627 25.3937 18.5134 26.6593 15.3325 26.6637Z" fill="#FF4D45" fill-opacity="0.89"/>
  <path d="M11.8764 20.0003V18.6165C12.2305 18.3273 12.6369 17.9857 13.0957 17.5917C13.5545 17.1978 14.0207 16.7814 14.4945 16.3426C14.9682 15.8988 15.4045 15.4574 15.8035 15.0186C16.2024 14.5748 16.5241 14.1559 16.7684 13.7619C17.0177 13.363 17.1424 13.0164 17.1424 12.7222C17.1424 12.3881 17.0601 12.0839 16.8956 11.8096C16.736 11.5304 16.5191 11.3085 16.2448 11.1439C15.9705 10.9744 15.6663 10.8896 15.3322 10.8896C14.9981 10.8896 14.6914 10.9744 14.4122 11.1439C14.1379 11.3085 13.916 11.5304 13.7465 11.8096C13.5819 12.0839 13.4996 12.3881 13.4996 12.7222H11.9438C11.9438 12.0889 12.0983 11.5154 12.4075 11.0018C12.7167 10.4882 13.1281 10.0817 13.6417 9.78255C14.1554 9.48334 14.7189 9.33374 15.3322 9.33374C15.9506 9.33374 16.5141 9.48584 17.0227 9.79003C17.5314 10.0942 17.9378 10.5031 18.242 11.0168C18.5462 11.5304 18.6983 12.0989 18.6983 12.7222C18.6983 13.1561 18.5861 13.6074 18.3617 14.0761C18.1423 14.5449 17.843 15.0236 17.4641 15.5123C17.0851 16.001 16.6562 16.4922 16.1775 16.9859C15.7037 17.4746 15.2126 17.9608 14.7039 18.4445H18.788V20.0003H11.8764Z" fill="white"/>
</svg>