<svg xmlns="http://www.w3.org/2000/svg" width="31" height="40" viewBox="0 0 31 40" fill="none">
  <path d="M15.6663 23.9973C20.8204 23.9973 24.9986 19.8191 24.9986 14.665C24.9986 9.51093 20.8204 5.33273 15.6663 5.33273C10.5122 5.33273 6.33403 9.51093 6.33403 14.665C6.33403 19.8191 10.5122 23.9973 15.6663 23.9973Z" fill="#A945E3" fill-opacity="0.89"/>
  <path d="M15.6665 3.0416e-05C12.6452 -0.00612477 9.69599 0.922062 7.22285 2.65742C4.7497 4.39277 2.87364 6.85039 1.8517 9.69355C0.829772 12.5367 0.711967 15.6263 1.51443 18.539C2.31689 21.4518 4.00037 24.0451 6.33419 25.9638V38.6623C6.33283 38.8898 6.39045 39.1138 6.50144 39.3124C6.61242 39.511 6.77298 39.6774 6.96745 39.7955C7.16036 39.9168 7.38113 39.9866 7.60869 39.9982C7.83625 40.0099 8.063 39.9631 8.2673 39.8622L15.6665 36.1459L23.0656 39.8622C23.2548 39.9458 23.4587 39.9911 23.6656 39.9955C24.0191 39.9955 24.3582 39.855 24.6083 39.605C24.8583 39.355 24.9987 39.0159 24.9987 38.6623V25.9638C27.3326 24.0451 29.016 21.4518 29.8185 18.539C30.621 15.6263 30.5032 12.5367 29.4812 9.69355C28.4593 6.85039 26.5832 4.39277 24.1101 2.65742C21.6369 0.922062 18.6877 -0.00612477 15.6665 3.0416e-05ZM15.6665 26.6637C13.2934 26.6637 10.9735 25.96 9.00038 24.6415C7.02721 23.3231 5.48932 21.4492 4.58117 19.2567C3.67302 17.0642 3.43541 14.6517 3.89838 12.3242C4.36135 9.99671 5.5041 7.85875 7.18214 6.18071C8.86018 4.50267 10.9981 3.35992 13.3256 2.89694C15.6532 2.43397 18.0657 2.67159 20.2581 3.57974C22.4506 4.48788 24.3245 6.02578 25.643 7.99895C26.9614 9.97211 27.6651 12.2919 27.6651 14.665C27.6607 17.8459 26.3951 20.8953 24.1459 23.1445C21.8967 25.3937 18.8473 26.6593 15.6665 26.6637Z" fill="#A945E3" fill-opacity="0.89"/>
  <path d="M15.6643 19.9999C15.0428 19.9999 14.4848 19.8555 13.9905 19.5667C13.5011 19.278 13.1145 18.8914 12.8306 18.4068C12.5468 17.9223 12.4049 17.384 12.4049 16.7918H13.9318C13.9318 17.2518 14.0909 17.6483 14.409 17.9811C14.732 18.309 15.1504 18.4729 15.6643 18.4729C15.9726 18.4729 16.2589 18.3971 16.5232 18.2453C16.7875 18.0936 17.0004 17.8905 17.1619 17.636C17.3234 17.3815 17.4041 17.1001 17.4041 16.7918C17.4041 16.1996 17.179 15.7567 16.7288 15.4631C16.2785 15.1694 15.6961 15.0226 14.9816 15.0226V13.8187C15.6276 13.8187 16.1439 13.6914 16.5306 13.4369C16.9172 13.1824 17.1105 12.8031 17.1105 12.2991C17.1105 12.0348 17.0395 11.795 16.8976 11.5796C16.7606 11.3594 16.577 11.1857 16.347 11.0584C16.1219 10.9263 15.8796 10.8602 15.6203 10.8602C15.3511 10.8602 15.0917 10.9263 14.8421 11.0584C14.5974 11.1857 14.3967 11.3594 14.2401 11.5796C14.0835 11.795 14.0052 12.0348 14.0052 12.2991H12.4783C12.4783 11.7558 12.6227 11.2591 12.9114 10.8088C13.205 10.3586 13.5892 10.0013 14.0639 9.73703C14.5436 9.46785 15.055 9.33327 15.5982 9.33327C16.1366 9.33327 16.6358 9.46541 17.0958 9.72968C17.5608 9.99396 17.9327 10.3512 18.2117 10.8015C18.4955 11.2517 18.6374 11.7509 18.6374 12.2991C18.6374 12.7346 18.5298 13.1482 18.3144 13.5397C18.104 13.9312 17.8103 14.2053 17.4335 14.3619C17.9229 14.5381 18.2949 14.8587 18.5494 15.3236C18.8038 15.7836 18.9311 16.273 18.9311 16.7918C18.9311 17.3791 18.7818 17.9174 18.4833 18.4068C18.1847 18.8914 17.7859 19.278 17.2867 19.5667C16.7924 19.8555 16.2516 19.9999 15.6643 19.9999Z" fill="white"/>
</svg>