<svg xmlns="http://www.w3.org/2000/svg" width="80" height="23" viewBox="0 0 80 23" fill="none">
  <path d="M8.25645 13.4986C11.1556 13.4986 13.5059 11.1483 13.5059 8.24912C13.5059 5.34994 11.1556 2.99968 8.25645 2.99968C5.35726 2.99968 3.007 5.34994 3.007 8.24912C3.007 11.1483 5.35726 13.4986 8.25645 13.4986Z" fill="#1D1D1F" fill-opacity="0.89"/>
  <path d="M8.25654 1.71091e-05C6.55708 -0.00344521 4.89812 0.518664 3.50697 1.49481C2.11581 2.47095 1.06052 3.85337 0.485679 5.45266C-0.0891619 7.05195 -0.155428 8.78987 0.295961 10.4283C0.74735 12.0667 1.69431 13.5255 3.00709 14.6047V21.7477C3.00633 21.8757 3.03874 22.0017 3.10117 22.1134C3.1636 22.2251 3.25392 22.3187 3.36331 22.3851C3.47182 22.4534 3.596 22.4926 3.72401 22.4992C3.85201 22.5057 3.97956 22.4794 4.09448 22.4226L8.25654 20.3322L12.4186 22.4226C12.525 22.4697 12.6397 22.4952 12.7561 22.4976C12.9549 22.4976 13.1457 22.4186 13.2863 22.278C13.427 22.1373 13.506 21.9466 13.506 21.7477V14.6047C14.8188 13.5255 15.7657 12.0667 16.2171 10.4283C16.6685 8.78987 16.6022 7.05195 16.0274 5.45266C15.4526 3.85337 14.3973 2.47095 13.0061 1.49481C11.615 0.518664 9.95599 -0.00344521 8.25654 1.71091e-05ZM8.25654 14.9984C6.92165 14.9984 5.61675 14.6026 4.50684 13.861C3.39692 13.1193 2.53185 12.0653 2.02101 10.832C1.51018 9.59871 1.37652 8.24165 1.63694 6.93242C1.89736 5.62319 2.54017 4.42058 3.48407 3.47668C4.42798 2.53277 5.63058 1.88997 6.93982 1.62954C8.24905 1.36912 9.6061 1.50278 10.8394 2.01362C12.0726 2.52445 13.1267 3.38953 13.8684 4.49944C14.61 5.60935 15.0058 6.91426 15.0058 8.24914C15.0033 10.0384 14.2915 11.7537 13.0263 13.0189C11.7611 14.2841 10.0458 14.9959 8.25654 14.9984Z" fill="#1D1D1F" fill-opacity="0.89"/>
  <path d="M7.99501 11.25V6.14143H7.2793L7.52358 5.25H8.88644V11.25H7.99501Z" fill="white"/>
</svg>