<svg xmlns="http://www.w3.org/2000/svg" width="80" height="24" viewBox="0 0 80 24" fill="none">
  <path d="M8.25645 14.3345C11.1556 14.3345 13.5059 11.9842 13.5059 9.08506C13.5059 6.18587 11.1556 3.83562 8.25645 3.83562C5.35726 3.83562 3.007 6.18587 3.007 9.08506C3.007 11.9842 5.35726 14.3345 8.25645 14.3345Z" fill="#1D1D1F" fill-opacity="0.89"/>
  <path d="M8.25654 0.835955C6.55708 0.832492 4.89812 1.3546 3.50697 2.33075C2.11581 3.30689 1.06052 4.68931 0.485679 6.2886C-0.0891619 7.88789 -0.155428 9.6258 0.295961 11.2642C0.74735 12.9026 1.69431 14.3614 3.00709 15.4407V22.5836C3.00633 22.7116 3.03874 22.8376 3.10117 22.9493C3.1636 23.061 3.25392 23.1547 3.36331 23.2211C3.47182 23.2893 3.596 23.3285 3.72401 23.3351C3.85201 23.3417 3.97956 23.3153 4.09448 23.2586L8.25654 21.1682L12.4186 23.2586C12.525 23.3056 12.6397 23.3311 12.7561 23.3336C12.9549 23.3336 13.1457 23.2546 13.2863 23.1139C13.427 22.9733 13.506 22.7825 13.506 22.5836V15.4407C14.8188 14.3614 15.7657 12.9026 16.2171 11.2642C16.6685 9.6258 16.6022 7.88789 16.0274 6.2886C15.4526 4.68931 14.3973 3.30689 13.0061 2.33075C11.615 1.3546 9.95599 0.832492 8.25654 0.835955ZM8.25654 15.8344C6.92165 15.8344 5.61675 15.4385 4.50684 14.6969C3.39692 13.9553 2.53185 12.9012 2.02101 11.6679C1.51018 10.4346 1.37652 9.07759 1.63694 7.76836C1.89736 6.45913 2.54017 5.25652 3.48407 4.31261C4.42798 3.36871 5.63058 2.7259 6.93982 2.46548C8.24905 2.20506 9.6061 2.33872 10.8394 2.84955C12.0726 3.36039 13.1267 4.22546 13.8684 5.33538C14.61 6.44529 15.0058 7.7502 15.0058 9.08508C15.0033 10.8743 14.2915 12.5896 13.0263 13.8548C11.7611 15.12 10.0458 15.8319 8.25654 15.8344Z" fill="#1D1D1F" fill-opacity="0.89"/>
  <path d="M8.25532 12.0859C7.9057 12.0859 7.59187 12.0047 7.31382 11.8423C7.03853 11.6799 6.82105 11.4624 6.66138 11.1899C6.50171 10.9173 6.42188 10.6145 6.42188 10.2814H7.28079C7.28079 10.5402 7.37026 10.7632 7.5492 10.9504C7.73089 11.1348 7.96627 11.227 8.25532 11.227C8.42876 11.227 8.5898 11.1844 8.73846 11.099C8.88712 11.0137 9.00687 10.8994 9.09772 10.7563C9.18856 10.6131 9.23399 10.4548 9.23399 10.2814C9.23399 9.94829 9.10735 9.69915 8.85408 9.53398C8.60081 9.3688 8.27322 9.28621 7.87129 9.28621V8.60899C8.23468 8.60899 8.52511 8.53742 8.74259 8.39427C8.96007 8.25111 9.06881 8.03776 9.06881 7.75421C9.06881 7.60555 9.0289 7.47066 8.94906 7.34953C8.87198 7.22565 8.76874 7.12792 8.63936 7.05634C8.51272 6.98201 8.37645 6.94485 8.23055 6.94485C8.07914 6.94485 7.93323 6.98201 7.79283 7.05634C7.65519 7.12792 7.54232 7.22565 7.45422 7.34953C7.36613 7.47066 7.32208 7.60555 7.32208 7.75421H6.46317C6.46317 7.44864 6.54438 7.16921 6.7068 6.91594C6.87198 6.66267 7.08808 6.46171 7.35512 6.31305C7.6249 6.16164 7.91258 6.08594 8.21816 6.08594C8.52098 6.08594 8.80178 6.16027 9.06055 6.30892C9.32208 6.45758 9.5313 6.65855 9.68822 6.91181C9.84789 7.16508 9.92772 7.44588 9.92772 7.75421C9.92772 7.99922 9.86716 8.23184 9.74603 8.45208C9.62766 8.67231 9.46248 8.82647 9.25051 8.91457C9.5258 9.01367 9.73502 9.19399 9.87817 9.45552C10.0213 9.71429 10.0929 9.98958 10.0929 10.2814C10.0929 10.6117 10.0089 10.9146 9.84101 11.1899C9.67308 11.4624 9.44872 11.6799 9.16792 11.8423C8.88987 12.0047 8.58567 12.0859 8.25532 12.0859Z" fill="white"/>
</svg>