<svg width="88" height="18" viewBox="0 0 88 18" fill="none" xmlns="http://www.w3.org/2000/svg">
<g id="Vector" style="mix-blend-mode:luminosity" opacity="0.5">
<path d="M9.66128 0C14.6179 0 18.6351 4.02891 18.6351 9C18.6351 13.9711 14.6179 18 9.66128 18C4.70467 18 0.6875 13.9711 0.6875 9C0.6875 4.02891 4.70467 0 9.66128 0Z" fill="#0052FF"/>
<path d="M9.66303 12.1641C7.92086 12.1641 6.50819 10.749 6.50819 9C6.50819 7.25098 7.92086 5.83594 9.66303 5.83594C11.2247 5.83594 12.5217 6.97852 12.7706 8.47266H15.9482C15.68 5.22422 12.9686 2.67188 9.66128 2.67188C6.17693 2.67188 3.35159 5.50547 3.35159 9C3.35159 12.4945 6.17693 15.3281 9.66128 15.3281C12.9686 15.3281 15.68 12.7758 15.9482 9.52734H12.7688C12.5182 11.0215 11.2247 12.1641 9.66303 12.1641Z" fill="white"/>
<path d="M35.8535 6.32812C33.4979 6.32812 31.6751 8.1 31.6751 10.4906C31.6751 12.8812 33.4698 14.6531 35.8535 14.6531C38.2372 14.6531 40.0599 12.8531 40.0599 10.4906C40.0599 8.12812 38.2652 6.32812 35.8535 6.32812ZM35.8815 12.9094C34.5355 12.9094 33.582 11.8688 33.582 10.4625C33.582 9.05625 34.5355 8.01562 35.8815 8.01562C37.2276 8.01562 38.2091 9.05625 38.2091 10.4625C38.2091 11.8688 37.1996 12.9094 35.8815 12.9094ZM40.5647 8.12812H41.7145V14.4844H43.5934V6.46875H40.5647V8.12812ZM26.9919 8.04375C27.9734 8.04375 28.7586 8.63438 29.039 9.53438H31.002C30.6375 7.62188 29.0671 6.3 26.9919 6.3C24.6643 6.32812 22.8415 8.1 22.8415 10.4906C22.8415 12.8812 24.6363 14.6531 27.0199 14.6531C29.039 14.6531 30.6375 13.3594 31.002 11.4187H29.039C28.7586 12.3187 27.9734 12.9375 27.0199 12.9375C25.6739 12.9375 24.7204 11.8969 24.7204 10.4906C24.7204 9.08437 25.6458 8.04375 26.9919 8.04375ZM75.927 9.70312L74.5529 9.50625C73.9079 9.42187 73.4312 9.19687 73.4312 8.69062C73.4312 8.12812 74.0481 7.84687 74.8614 7.84687C75.7588 7.84687 76.3477 8.24062 76.4598 8.85938H78.2546C78.0583 7.25625 76.8244 6.3 74.9175 6.3C72.9545 6.3 71.6364 7.3125 71.6364 8.74688C71.6364 10.0969 72.4777 10.9125 74.2164 11.1375L75.5905 11.3344C76.2635 11.4187 76.6281 11.7 76.6281 12.1781C76.6281 12.825 75.9831 13.0781 75.0857 13.0781C73.992 13.0781 73.3751 12.6281 73.2629 11.9531H71.4401C71.6084 13.5281 72.8423 14.625 75.0577 14.625C77.0768 14.625 78.4509 13.6969 78.4509 12.0938C78.4509 10.6875 77.4694 9.95625 75.927 9.70312ZM42.668 3.17813C41.9949 3.17813 41.4621 3.68437 41.4621 4.35938C41.4621 5.03438 41.9669 5.54063 42.668 5.54063C43.341 5.54063 43.8738 5.03438 43.8738 4.35938C43.8738 3.68437 43.341 3.17813 42.668 3.17813ZM69.9819 9.225C69.9819 7.48125 68.9163 6.32812 66.7009 6.32812C64.5976 6.32812 63.4198 7.39687 63.1674 9.02812H65.0183C65.1024 8.38125 65.6072 7.875 66.6728 7.875C67.6263 7.875 68.075 8.29687 68.075 8.80312C68.075 9.47812 67.2337 9.64688 66.168 9.75938C64.7378 9.92813 62.9711 10.4062 62.9711 12.2625C62.9711 13.6969 64.0368 14.625 65.7474 14.625C67.0935 14.625 67.9067 14.0625 68.3273 13.1906C68.3834 13.9781 68.9723 14.4844 69.8136 14.4844H70.9073V12.825H69.9819V9.225ZM68.131 11.2219C68.131 12.2906 67.2056 13.0781 66.0559 13.0781C65.3548 13.0781 64.7659 12.7969 64.7659 12.15C64.7659 11.3625 65.7193 11.1375 66.5887 11.0531C67.43 10.9687 67.8787 10.8 68.131 10.4344V11.2219ZM58.2599 6.32812C57.2223 6.32812 56.353 6.75 55.736 7.48125V3.09375H53.8852V14.4844H55.708V13.4437C56.3249 14.2031 57.2223 14.6531 58.2599 14.6531C60.5033 14.6531 62.1859 12.8812 62.1859 10.4906C62.1859 8.1 60.4753 6.32812 58.2599 6.32812ZM57.9795 12.9094C56.6334 12.9094 55.6799 11.8688 55.6799 10.4625C55.6799 9.05625 56.6614 8.01562 58.0075 8.01562C59.3536 8.01562 60.307 9.05625 60.307 10.4625C60.307 11.8969 59.3255 12.9094 57.9795 12.9094ZM49.4263 6.32812C48.2205 6.32812 47.4353 6.83438 46.9585 7.50938V6.46875H45.1077V14.4844H46.9585V10.125C46.9585 8.8875 47.7437 8.04375 48.8935 8.04375C49.9591 8.04375 50.6322 8.80313 50.6322 9.9V14.4844H52.483V9.75938C52.483 7.73438 51.4454 6.32812 49.4263 6.32812ZM87.3125 10.2375C87.3125 7.93125 85.6299 6.32812 83.3865 6.32812C81.0028 6.32812 79.2361 8.12812 79.2361 10.4906C79.2361 12.9937 81.115 14.6531 83.4145 14.6531C85.3495 14.6531 86.8638 13.5 87.2564 11.8688H85.3214C85.041 12.5719 84.368 12.9938 83.4426 12.9938C82.2367 12.9938 81.3393 12.2625 81.143 10.9406H87.3125V10.2375ZM81.2552 9.61875C81.5637 8.49375 82.3769 7.95937 83.3584 7.95937C84.4241 7.95937 85.2093 8.55 85.4056 9.61875H81.2552Z" fill="white"/>
</g>
</svg>
