<svg width="98" height="10" viewBox="0 0 98 10" fill="none" xmlns="http://www.w3.org/2000/svg">
<g id="Vector">
<path d="M7.37801 2.3283C8.03114 2.3283 8.56061 1.80709 8.56061 1.16415C8.56061 0.521208 8.03114 0 7.37801 0C6.72487 0 6.1954 0.521208 6.1954 1.16415C6.1954 1.80709 6.72487 2.3283 7.37801 2.3283Z" fill="#8D8D8D"/>
<path d="M15.7874 2.32698C16.4401 2.32698 16.9691 1.80616 16.9691 1.1637C16.9691 0.521244 16.4401 0.000428844 15.7874 0.000428844C15.1348 0.000428844 14.6057 0.521244 14.6057 1.1637C14.6057 1.80616 15.1348 2.32698 15.7874 2.32698Z" fill="#8D8D8D"/>
<path d="M51.6666 4.25001C51.705 4.21019 51.7781 4.12705 51.8861 4.00058C51.9812 3.88903 52.0568 3.80926 52.1127 3.76125C52.4535 3.47025 52.8354 3.29752 53.2583 3.24307C54.2357 3.11703 55.1876 3.50259 55.5855 4.42171C55.7363 4.77067 55.8125 5.1719 55.814 5.62538C55.8178 6.76977 55.8184 8.04956 55.8157 9.46475C55.8157 9.4693 55.8139 9.47365 55.8106 9.47686C55.8074 9.48007 55.803 9.48188 55.7983 9.48188H54.4248C54.4153 9.48188 54.4062 9.47814 54.3994 9.47149C54.3927 9.46483 54.3888 9.45578 54.3887 9.44631C54.386 8.76213 54.386 7.68596 54.3887 6.21778C54.3891 5.83748 54.3668 5.45763 54.2053 5.14497C53.9854 4.71988 53.5728 4.50251 53.0887 4.50207C52.5824 4.50163 52.1863 4.66938 51.9003 5.09007C51.7939 5.2467 51.7213 5.43392 51.6826 5.65173C51.6597 5.78025 51.6482 5.97625 51.6479 6.23973C51.6464 7.31474 51.6464 8.38872 51.6479 9.46168C51.6479 9.46404 51.6474 9.46638 51.6465 9.46857C51.6455 9.47075 51.6442 9.47274 51.6425 9.47441C51.6408 9.47608 51.6388 9.47741 51.6366 9.47831C51.6343 9.47922 51.632 9.47968 51.6296 9.47968H50.2386C50.236 9.47968 50.2334 9.47917 50.231 9.47818C50.2285 9.47719 50.2263 9.47573 50.2244 9.4739C50.2226 9.47206 50.2211 9.46988 50.2201 9.46749C50.2191 9.46509 50.2186 9.46252 50.2186 9.45992V1.02455C50.2186 1.0064 50.2276 0.997321 50.2458 0.997321H51.63C51.6323 0.997321 51.6346 0.997763 51.6367 0.998624C51.6388 0.999484 51.6407 1.00075 51.6423 1.00234C51.6439 1.00393 51.6452 1.00582 51.6461 1.00789C51.647 1.00997 51.6474 1.0122 51.6474 1.01445V4.24254C51.6474 4.26098 51.6538 4.26347 51.6666 4.25001Z" fill="#8D8D8D"/>
<path d="M81.7674 0.998607H80.3845C80.373 0.998607 80.3636 1.00785 80.3636 1.01925V9.46209C80.3636 9.47349 80.373 9.48273 80.3845 9.48273H81.7674C81.779 9.48273 81.7884 9.47349 81.7884 9.46209V1.01925C81.7884 1.00785 81.779 0.998607 81.7674 0.998607Z" fill="#8D8D8D"/>
<path d="M85.1229 0.996377H83.7382C83.7269 0.996377 83.7177 1.00542 83.7177 1.01658V9.46205C83.7177 9.47321 83.7269 9.48225 83.7382 9.48225H85.1229C85.1342 9.48225 85.1434 9.47321 85.1434 9.46205V1.01658C85.1434 1.00542 85.1342 0.996377 85.1229 0.996377Z" fill="#8D8D8D"/>
<path d="M64.1197 7.33927L66.1263 1.35954C66.1295 1.34973 66.1358 1.34117 66.1444 1.33509C66.153 1.32901 66.1633 1.32574 66.174 1.32573H67.3142C67.3297 1.32572 67.3447 1.33051 67.3572 1.33942C67.3697 1.34834 67.379 1.36091 67.3838 1.37535L69.3801 7.32653C69.3914 7.36079 69.4027 7.36079 69.414 7.32653L71.3545 1.38194C71.358 1.37147 71.3647 1.36236 71.3738 1.35589C71.3829 1.34943 71.3938 1.34594 71.4049 1.34593H72.8668C72.882 1.34593 72.887 1.35296 72.882 1.36701L70.0323 9.51212C70.0296 9.52005 70.0244 9.52695 70.0174 9.53184C70.0105 9.53672 70.0021 9.53935 69.9935 9.53934H68.7855C68.7676 9.53934 68.7559 9.53114 68.7502 9.51475L66.7356 3.71244C66.7312 3.69956 66.7267 3.69956 66.7223 3.71244L64.7063 9.51826C64.7041 9.52444 64.7 9.52978 64.6946 9.53356C64.6891 9.53733 64.6827 9.53935 64.676 9.53934H63.4747C63.4666 9.53934 63.4587 9.53689 63.4522 9.53232C63.4456 9.52775 63.4407 9.52131 63.4381 9.51387L60.5795 1.38062C60.5712 1.3572 60.5795 1.34549 60.6045 1.34549H62.1123C62.1295 1.34549 62.1407 1.35354 62.1457 1.36964C63.1762 4.52469 63.7951 6.41679 64.0024 7.04592C64.0396 7.15893 64.0745 7.25686 64.1072 7.33971C64.1117 7.35112 64.1159 7.35098 64.1197 7.33927Z" fill="#8D8D8D"/>
<path d="M29.9354 3.73221C29.9175 3.8051 29.9086 3.87229 29.9086 3.93377C29.9089 5.86831 29.9086 7.70449 29.9077 9.4423C29.9077 9.4522 29.9037 9.4617 29.8967 9.4687C29.8897 9.4757 29.8802 9.47963 29.8702 9.47963H28.5101C28.4887 9.47963 28.478 9.46894 28.478 9.44757V1.37448C28.478 1.35135 28.4898 1.33994 28.5136 1.34023C28.9166 1.34579 29.3762 1.34667 29.8925 1.34286C29.9693 1.34199 30.009 1.34067 30.054 1.40083C30.0733 1.42659 30.1194 1.49539 30.1923 1.60723C30.2556 1.70413 31.0335 2.89346 32.5258 5.17521C32.5271 5.177 32.5288 5.17845 32.5307 5.17944C32.5327 5.18043 32.5349 5.18093 32.5371 5.18089C32.5393 5.18084 32.5415 5.18026 32.5434 5.17919C32.5453 5.17813 32.547 5.17661 32.5481 5.17477L35.0374 1.36746C35.0472 1.35282 35.061 1.3455 35.0788 1.3455H36.5483C36.5825 1.3455 36.5996 1.36219 36.5996 1.39556V9.45416C36.5996 9.46068 36.597 9.46694 36.5923 9.47155C36.5876 9.47616 36.5812 9.47875 36.5746 9.47875H35.1663C35.1604 9.47875 35.1547 9.47644 35.1505 9.47232C35.1463 9.4682 35.144 9.46262 35.144 9.45679C35.1419 8.73485 35.142 6.9158 35.1444 3.99964C35.1444 3.92265 35.1489 3.82516 35.1578 3.70718C35.158 3.70438 35.1574 3.70156 35.156 3.6991C35.1546 3.69663 35.1526 3.69463 35.1501 3.69335C35.1476 3.69207 35.1447 3.69157 35.142 3.69193C35.1392 3.69228 35.1367 3.69346 35.1346 3.69532C35.0974 3.72664 35.0646 3.76324 35.036 3.8051C35.014 3.8376 34.2277 4.99575 32.6771 7.27955C32.625 7.35626 32.5754 7.42374 32.5281 7.48199C32.5257 7.48512 32.5225 7.48762 32.5189 7.48928C32.5153 7.49094 32.5113 7.49172 32.5073 7.49155C32.5033 7.49137 32.4993 7.49026 32.4958 7.48829C32.4923 7.48632 32.4893 7.48356 32.487 7.48024C31.6415 6.22899 30.8506 5.06294 30.1142 3.98208C30.0991 3.95953 30.0738 3.91679 30.0384 3.85385C29.9968 3.77978 29.97 3.73704 29.9581 3.72562C29.9468 3.71508 29.9392 3.71728 29.9354 3.73221Z" fill="#8D8D8D"/>
<path d="M47.1236 4.55161C47.1202 4.55161 47.1169 4.553 47.1145 4.55547C47.112 4.55794 47.1107 4.56129 47.1107 4.56479C47.1098 5.48171 47.1098 6.39687 47.1107 7.31027C47.1111 7.52852 47.1093 7.72745 47.1722 7.92594C47.2962 8.31985 47.8173 8.37649 48.1759 8.30799C48.3568 8.27344 48.5435 8.21709 48.7363 8.13892C48.7562 8.13102 48.7661 8.1376 48.7661 8.15868V9.22447C48.7662 9.23632 48.763 9.24797 48.757 9.25822C48.7509 9.26848 48.7422 9.27699 48.7318 9.28287C48.3009 9.52703 47.8307 9.58763 47.3244 9.57051C46.4509 9.54108 45.8339 9.12434 45.722 8.20304C45.6898 7.93955 45.6756 7.65499 45.6791 7.34935C45.6818 7.11046 45.6827 6.18476 45.6818 4.57225C45.6818 4.56666 45.6796 4.5613 45.6756 4.55735C45.6715 4.5534 45.6661 4.55117 45.6604 4.55117H44.9101C44.9053 4.55117 44.9008 4.54932 44.8975 4.54603C44.8941 4.54274 44.8922 4.53827 44.8922 4.53361V3.3699C44.8922 3.35526 44.8998 3.34794 44.915 3.34794H45.6265C45.6634 3.34794 45.6818 3.32979 45.6818 3.29349V1.6801C45.6818 1.67556 45.6837 1.6712 45.6869 1.66799C45.6902 1.66478 45.6946 1.66297 45.6992 1.66297H47.079C47.1001 1.66297 47.1107 1.67337 47.1107 1.69415V3.32554C47.1107 3.33055 47.1127 3.33536 47.1163 3.3389C47.1199 3.34244 47.1248 3.34443 47.1299 3.34443H48.7474C48.7581 3.34443 48.7683 3.34859 48.7758 3.356C48.7833 3.36341 48.7876 3.37347 48.7876 3.38395V4.53537C48.7876 4.53968 48.7858 4.54381 48.7827 4.54686C48.7796 4.5499 48.7754 4.55161 48.771 4.55161H47.1236Z" fill="#8D8D8D"/>
<path d="M95.8419 3.34405H97.4594C97.4865 3.34405 97.5 3.35752 97.5 3.38445V4.51611C97.5 4.54012 97.4878 4.55212 97.4634 4.55212H95.8312C95.8246 4.55212 95.8213 4.55548 95.8213 4.56222C95.8237 5.44166 95.8234 6.44714 95.8204 7.57865C95.8201 7.7502 95.8647 7.91078 95.9543 8.06038C96.11 8.32035 96.561 8.35899 96.8411 8.3164C97.0448 8.28537 97.2401 8.22433 97.4268 8.13328C97.4587 8.11805 97.4746 8.12786 97.4746 8.1627V9.24737C97.4746 9.25581 97.4723 9.26408 97.4679 9.27129C97.4635 9.27849 97.4571 9.28434 97.4496 9.28821C97.1674 9.43312 96.8695 9.52241 96.5561 9.55608C96.2265 9.59121 95.9204 9.58243 95.6375 9.52973C95.0395 9.41761 94.6561 9.07259 94.4875 8.49469C94.4139 8.24218 94.3894 7.94138 94.3894 7.65023C94.3891 5.90949 94.3897 4.88586 94.3912 4.57935C94.3914 4.56149 94.3825 4.55256 94.3644 4.55256H93.6199C93.6153 4.55256 93.611 4.5508 93.6079 4.54767C93.6047 4.54454 93.6029 4.5403 93.6029 4.53587V3.36733C93.6029 3.35328 93.61 3.34625 93.6243 3.34625H94.3639C94.3708 3.34625 94.3774 3.34352 94.3822 3.33866C94.3871 3.3338 94.3898 3.32721 94.3898 3.32034V1.68368C94.3898 1.6705 94.3965 1.66392 94.4099 1.66392H95.7946C95.8127 1.66392 95.8218 1.67285 95.8218 1.6907V3.32429C95.8218 3.33747 95.8285 3.34405 95.8419 3.34405Z" fill="#8D8D8D"/>
<path d="M5.27971 4.39398C5.93309 4.39398 6.46276 3.87258 6.46276 3.22939C6.46276 2.58621 5.93309 2.0648 5.27971 2.0648C4.62633 2.0648 4.09666 2.58621 4.09666 3.22939C4.09666 3.87258 4.62633 4.39398 5.27971 4.39398Z" fill="#8D8D8D"/>
<path d="M9.47546 4.39355C10.1288 4.39355 10.6585 3.87215 10.6585 3.22896C10.6585 2.58578 10.1288 2.06437 9.47546 2.06437C8.82208 2.06437 8.29241 2.58578 8.29241 3.22896C8.29241 3.87215 8.82208 4.39355 9.47546 4.39355Z" fill="#8D8D8D"/>
<path d="M13.6903 4.39267C14.3434 4.39267 14.8729 3.87147 14.8729 3.22852C14.8729 2.58558 14.3434 2.06437 13.6903 2.06437C13.0371 2.06437 12.5077 2.58558 12.5077 3.22852C12.5077 3.87147 13.0371 4.39267 13.6903 4.39267Z" fill="#8D8D8D"/>
<path d="M17.8873 4.39317C18.5402 4.39317 19.0695 3.87216 19.0695 3.22946C19.0695 2.58676 18.5402 2.06574 17.8873 2.06574C17.2344 2.06574 16.7052 2.58676 16.7052 3.22946C16.7052 3.87216 17.2344 4.39317 17.8873 4.39317Z" fill="#8D8D8D"/>
<path d="M88.0867 6.93613C88.1054 7.06114 88.1282 7.16463 88.1549 7.2466C88.3402 7.81426 88.7041 8.1887 89.2465 8.36991C89.518 8.46067 89.8111 8.48775 90.1258 8.45115C90.6474 8.39085 91.1047 8.16601 91.4975 7.77664C91.5081 7.76602 91.5224 7.75969 91.5375 7.75888C91.5526 7.75806 91.5674 7.76283 91.5792 7.77225C91.8944 8.02666 92.162 8.25735 92.3821 8.46433C92.3845 8.46646 92.3858 8.46942 92.386 8.4726C92.3862 8.47578 92.3851 8.47895 92.383 8.48145C91.768 9.18993 90.9835 9.56803 90.0294 9.61575C89.4593 9.64414 88.9168 9.54212 88.4021 9.30967C87.5215 8.91137 86.8987 8.0713 86.7136 7.13726C86.6612 6.87202 86.6407 6.58087 86.652 6.26381C86.6828 5.38466 87.0468 4.56128 87.7026 3.96933C88.1754 3.54219 88.7449 3.29642 89.4111 3.23201C90.4867 3.12794 91.5207 3.55522 92.1064 4.46072C92.5601 5.1629 92.7171 6.028 92.6636 6.8685C92.6618 6.89895 92.6455 6.91418 92.6145 6.91418H88.1058C88.0907 6.91418 88.0843 6.92149 88.0867 6.93613ZM88.0862 5.83961C88.0856 5.84166 88.0783 5.87928 88.0644 5.95247C88.062 5.96506 88.0673 5.97179 88.0804 5.97267C88.1693 5.97911 88.2458 5.98247 88.3097 5.98277C89.6575 5.98394 90.6306 5.98438 91.229 5.98408C91.2385 5.98408 91.2429 5.9794 91.2423 5.97003C91.1968 5.2459 90.7739 4.56743 90.0169 4.40627C89.3487 4.26399 88.7237 4.54108 88.3615 5.11767C88.247 5.29976 88.1552 5.54041 88.0862 5.83961Z" fill="#8D8D8D"/>
<path d="M42.3093 8.76563C41.876 9.25102 41.3253 9.52314 40.6574 9.58198C40.1479 9.62677 39.6488 9.5754 39.1978 9.36549C38.6187 9.09615 38.272 8.6554 38.1575 8.04325C38.0963 7.71697 38.1271 7.29672 38.2476 6.98756C38.4251 6.53233 38.7542 6.20078 39.2348 5.99292C39.5875 5.84039 39.9534 5.75388 40.3326 5.73339C40.4897 5.72519 40.6754 5.72212 40.8898 5.72417C41.4019 5.72944 41.869 5.81682 42.349 5.96833C42.3516 5.96914 42.3544 5.96935 42.3571 5.96892C42.3599 5.9685 42.3624 5.96746 42.3647 5.96588C42.3669 5.96431 42.3688 5.96224 42.3701 5.95985C42.3714 5.95745 42.3721 5.95479 42.3722 5.95208C42.3731 5.84142 42.3688 5.73295 42.3592 5.62668C42.3213 5.20555 42.0992 4.84063 41.7026 4.65751C41.3479 4.49371 40.9656 4.46516 40.5771 4.49371C40.0608 4.53176 39.5646 4.65253 39.0885 4.85599C39.0629 4.86683 39.0456 4.85936 39.0367 4.8336L38.67 3.79021C38.6656 3.77791 38.6694 3.76898 38.6816 3.76342C39.6395 3.32956 40.6352 3.18069 41.6687 3.31682C42.0934 3.37244 42.473 3.51165 42.8076 3.73444C43.3085 4.0673 43.6105 4.64126 43.6984 5.23102C43.7404 5.51236 43.7612 5.80087 43.7609 6.09656C43.7603 7.51994 43.7591 8.63623 43.7573 9.44541C43.7573 9.45403 43.7538 9.4623 43.7476 9.46839C43.7415 9.47448 43.7331 9.47791 43.7243 9.47791H42.3896C42.3726 9.47791 42.3641 9.46956 42.3641 9.45288V8.78583C42.3641 8.73137 42.3459 8.72464 42.3093 8.76563ZM41.4791 6.64679C41.0675 6.60024 40.7075 6.6102 40.3991 6.67665C39.8914 6.78556 39.5033 7.12721 39.5198 7.66691C39.5341 8.14513 39.8803 8.4433 40.3371 8.54167C40.6482 8.60871 40.9701 8.59876 41.3029 8.51181C41.8141 8.37831 42.2758 8.027 42.3646 7.51321C42.3988 7.31531 42.4094 7.10364 42.3963 6.87822C42.3959 6.87106 42.3933 6.86419 42.3891 6.85849C42.3848 6.85279 42.3789 6.8485 42.3722 6.84616C42.0995 6.74984 41.8018 6.68339 41.4791 6.64679Z" fill="#8D8D8D"/>
<path d="M77.1674 8.75069C77.1591 8.75625 77.0816 8.8271 76.935 8.96323C76.618 9.25716 76.2401 9.44818 75.8015 9.5363C74.5319 9.79144 73.0522 9.28248 72.9594 7.81006C72.9121 7.06221 73.2681 6.37496 73.9578 6.04341C74.3372 5.86102 74.7457 5.75724 75.1832 5.73206C75.4404 5.71742 75.723 5.71947 76.0308 5.73821C76.3945 5.76046 76.776 5.83833 77.1755 5.97183C77.1783 5.97286 77.1814 5.97319 77.1844 5.97281C77.1875 5.97243 77.1904 5.97134 77.1929 5.96964C77.1955 5.96793 77.1976 5.96565 77.1992 5.96299C77.2007 5.96032 77.2016 5.95733 77.2018 5.95427C77.2317 5.40534 77.0403 4.87135 76.488 4.63729C76.2789 4.5483 76.0708 4.4997 75.8635 4.4915C75.1931 4.46486 74.542 4.58782 73.91 4.86038C73.9068 4.8618 73.9032 4.86255 73.8997 4.86259C73.8961 4.86262 73.8925 4.86194 73.8892 4.86059C73.8859 4.85923 73.883 4.85723 73.8805 4.8547C73.878 4.85217 73.8761 4.84917 73.8748 4.84588C73.7395 4.49545 73.6178 4.14224 73.5099 3.78625C73.5054 3.77161 73.5103 3.76122 73.5246 3.75507C74.3508 3.39146 75.2009 3.23089 76.0749 3.27334C76.5692 3.29705 77.1121 3.41079 77.5283 3.66592C77.9955 3.95283 78.3041 4.36342 78.454 4.8977C78.5441 5.21857 78.5888 5.58905 78.5882 6.00916C78.5873 6.74398 78.5873 7.88925 78.5882 9.44496C78.5882 9.45463 78.5843 9.4639 78.5774 9.47073C78.5705 9.47757 78.561 9.48141 78.5512 9.48141H77.2241C77.2172 9.48141 77.2105 9.47874 77.2056 9.47398C77.2007 9.46921 77.1979 9.46274 77.1978 9.45594L77.1929 8.76386C77.1929 8.74425 77.1844 8.73986 77.1674 8.75069ZM75.2528 6.67138C74.8419 6.74822 74.44 7.02444 74.3664 7.44557C74.2276 8.24392 74.9102 8.59787 75.607 8.58425C76.248 8.57196 76.8993 8.30057 77.1429 7.69676C77.2392 7.45831 77.2419 7.15882 77.2245 6.89446C77.2236 6.88036 77.2184 6.86684 77.2096 6.85565C77.2008 6.84445 77.1887 6.8361 77.175 6.83166C76.5737 6.63976 75.8818 6.55369 75.2528 6.67138Z" fill="#8D8D8D"/>
<path d="M7.37975 6.45928C8.03288 6.45928 8.56235 5.93807 8.56235 5.29512C8.56235 4.65218 8.03288 4.13097 7.37975 4.13097C6.72662 4.13097 6.19715 4.65218 6.19715 5.29512C6.19715 5.93807 6.72662 6.45928 7.37975 6.45928Z" fill="#8D8D8D"/>
<path d="M15.7871 6.45837C16.4397 6.45837 16.9688 5.93756 16.9688 5.2951C16.9688 4.65264 16.4397 4.13183 15.7871 4.13183C15.1344 4.13183 14.6054 4.65264 14.6054 5.2951C14.6054 5.93756 15.1344 6.45837 15.7871 6.45837Z" fill="#8D8D8D"/>
<path d="M3.18263 6.16814C3.67217 6.16814 4.06903 5.77748 4.06903 5.29558C4.06903 4.81368 3.67217 4.42302 3.18263 4.42302C2.69309 4.42302 2.29624 4.81368 2.29624 5.29558C2.29624 5.77748 2.69309 6.16814 3.18263 6.16814Z" fill="#8D8D8D"/>
<path d="M11.5732 6.16765C12.063 6.16765 12.46 5.77679 12.46 5.29465C12.46 4.8125 12.063 4.42164 11.5732 4.42164C11.0834 4.42164 10.6863 4.8125 10.6863 5.29465C10.6863 5.77679 11.0834 6.16765 11.5732 6.16765Z" fill="#8D8D8D"/>
<path d="M19.9844 6.16812C20.4737 6.16812 20.8703 5.77766 20.8703 5.296C20.8703 4.81434 20.4737 4.42387 19.9844 4.42387C19.4951 4.42387 19.0984 4.81434 19.0984 5.296C19.0984 5.77766 19.4951 6.16812 19.9844 6.16812Z" fill="#8D8D8D"/>
<path d="M9.47514 8.23382C9.96493 8.23382 10.362 7.84297 10.362 7.36082C10.362 6.87867 9.96493 6.48782 9.47514 6.48782C8.98535 6.48782 8.5883 6.87867 8.5883 7.36082C8.5883 7.84297 8.98535 8.23382 9.47514 8.23382Z" fill="#8D8D8D"/>
<path d="M17.8869 8.23382C18.3766 8.23382 18.7737 7.84297 18.7737 7.36082C18.7737 6.87867 18.3766 6.48782 17.8869 6.48782C17.3971 6.48782 17 6.87867 17 7.36082C17 7.84297 17.3971 8.23382 17.8869 8.23382Z" fill="#8D8D8D"/>
<path d="M5.27954 8.23292C5.76884 8.23292 6.16549 7.84246 6.16549 7.3608C6.16549 6.87914 5.76884 6.48867 5.27954 6.48867C4.79024 6.48867 4.39359 6.87914 4.39359 7.3608C4.39359 7.84246 4.79024 8.23292 5.27954 8.23292Z" fill="#8D8D8D"/>
<path d="M13.6918 8.23382C14.1816 8.23382 14.5786 7.84297 14.5786 7.36082C14.5786 6.87867 14.1816 6.48782 13.6918 6.48782C13.202 6.48782 12.805 6.87867 12.805 7.36082C12.805 7.84297 13.202 8.23382 13.6918 8.23382Z" fill="#8D8D8D"/>
<path d="M1.08483 7.93736C1.40783 7.93736 1.66967 7.67961 1.66967 7.36166C1.66967 7.0437 1.40783 6.78595 1.08483 6.78595C0.761839 6.78595 0.5 7.0437 0.5 7.36166C0.5 7.67961 0.761839 7.93736 1.08483 7.93736Z" fill="#8D8D8D"/>
<path d="M22.0823 7.93606C22.4051 7.93606 22.6667 7.6785 22.6667 7.36079C22.6667 7.04308 22.4051 6.78552 22.0823 6.78552C21.7596 6.78552 21.4979 7.04308 21.4979 7.36079C21.4979 7.6785 21.7596 7.93606 22.0823 7.93606Z" fill="#8D8D8D"/>
<path d="M3.18104 10C3.50379 10 3.76543 9.74244 3.76543 9.42473C3.76543 9.10702 3.50379 8.84946 3.18104 8.84946C2.8583 8.84946 2.59666 9.10702 2.59666 9.42473C2.59666 9.74244 2.8583 10 3.18104 10Z" fill="#8D8D8D"/>
<path d="M11.5744 9.99867C11.8967 9.99867 12.1579 9.74151 12.1579 9.42428C12.1579 9.10705 11.8967 8.84989 11.5744 8.84989C11.2522 8.84989 10.9909 9.10705 10.9909 9.42428C10.9909 9.74151 11.2522 9.99867 11.5744 9.99867Z" fill="#8D8D8D"/>
<path d="M19.9837 9.99824C20.306 9.99824 20.5672 9.74108 20.5672 9.42385C20.5672 9.10662 20.306 8.84946 19.9837 8.84946C19.6615 8.84946 19.4002 9.10662 19.4002 9.42385C19.4002 9.74108 19.6615 9.99824 19.9837 9.99824Z" fill="#8D8D8D"/>
</g>
</svg>
