<svg width="106" height="18" viewBox="0 0 106 18" fill="none" xmlns="http://www.w3.org/2000/svg">
<g id="Vector">
<path d="M93.2521 9.04624C92.7093 8.70009 92.1171 8.46932 91.5249 8.16932C91.1548 7.98471 90.76 7.80009 90.4392 7.54624C89.8964 7.13086 89.9951 6.30009 90.5872 5.93086C91.4015 5.42317 92.7586 5.70009 92.9067 6.73855C92.9067 6.76163 92.9313 6.78471 92.956 6.78471H94.1897C94.2144 6.78471 94.2391 6.76163 94.2391 6.73855C94.1651 6.02317 93.869 5.42317 93.3261 5.03086C92.808 4.66163 92.2158 4.47701 91.5742 4.47701C88.3172 4.47701 88.0211 7.70778 89.773 8.72317C89.9704 8.83855 91.6976 9.64624 92.3145 10.0155C92.9313 10.3616 93.1041 11.0078 92.8573 11.5155C92.6106 11.977 91.9937 12.3001 91.3768 12.2539C90.6859 12.2078 90.1678 11.8616 89.9704 11.3309C89.9457 11.2386 89.921 11.0539 89.921 10.9616C89.921 10.9385 89.8964 10.9155 89.8717 10.9155H88.5392C88.5146 10.9155 88.4899 10.9385 88.4899 10.9616C88.4899 11.8616 88.7366 12.3693 89.3782 12.8309C89.9951 13.2693 90.6613 13.4539 91.3768 13.4539C93.2028 13.4539 94.1404 12.4847 94.3378 11.4924C94.4858 10.5232 94.1897 9.64624 93.2521 9.04624Z" fill="white"/>
<path d="M33.8602 4.66163C33.8355 4.66163 33.8108 4.6847 33.8108 4.6847L32.7005 8.07701C32.6758 8.12316 32.6264 8.12316 32.6018 8.07701L31.4914 4.6847C31.4914 4.66163 31.4667 4.66163 31.442 4.66163H29.4187C29.394 4.66163 29.3694 4.68471 29.3694 4.70778V13.3616C29.3694 13.3847 29.394 13.4078 29.4187 13.4078H30.7512C30.7758 13.4078 30.8005 13.3847 30.8005 13.3616V6.78471C30.8005 6.73855 30.8745 6.71547 30.8992 6.76163L32.0096 10.177L32.0836 10.4078C32.0836 10.4309 32.1083 10.4309 32.1329 10.4309H33.1693C33.1939 10.4309 33.2186 10.4078 33.2186 10.4078L33.2926 10.177L34.403 6.76163C34.4277 6.71547 34.5017 6.71547 34.5017 6.78471V13.3616C34.5017 13.3847 34.5264 13.4078 34.5511 13.4078H35.8835C35.9082 13.4078 35.9328 13.3847 35.9328 13.3616V4.70778C35.9328 4.68471 35.9082 4.66163 35.8835 4.66163H33.8602Z" fill="white"/>
<path d="M72.7475 4.66163C72.7228 4.66163 72.6981 4.6847 72.6981 4.6847L71.5877 8.07701C71.5631 8.12316 71.5137 8.12316 71.489 8.07701L70.3787 4.6847C70.3787 4.66163 70.354 4.66163 70.3293 4.66163H68.2813C68.2567 4.66163 68.232 4.68471 68.232 4.70778V13.3616C68.232 13.3847 68.2567 13.4078 68.2813 13.4078H69.6138C69.6384 13.4078 69.6631 13.3847 69.6631 13.3616V6.78471C69.6631 6.73855 69.7371 6.71547 69.7618 6.76163L70.8722 10.177L70.9462 10.4078C70.9462 10.4309 70.9709 10.4309 70.9956 10.4309H72.0319C72.0566 10.4309 72.0812 10.4078 72.0812 10.4078L72.1553 10.177L73.2656 6.76163C73.2903 6.71547 73.3643 6.71547 73.3643 6.78471V13.3616C73.3643 13.3847 73.389 13.4078 73.4137 13.4078H74.7461C74.7708 13.4078 74.7955 13.3847 74.7955 13.3616V4.70778C74.7955 4.68471 74.7708 4.66163 74.7461 4.66163H72.7475Z" fill="white"/>
<path d="M55.4752 4.66163H49.1338C49.1091 4.66163 49.0844 4.68471 49.0844 4.70778V5.7924C49.0844 5.81547 49.1091 5.83855 49.1338 5.83855H51.5766V13.3616C51.5766 13.3847 51.6013 13.4078 51.6259 13.4078H52.9584C52.983 13.4078 53.0077 13.3847 53.0077 13.3616V5.83855H55.4505C55.4752 5.83855 55.4999 5.81547 55.4999 5.7924V4.70778C55.5245 4.68471 55.4999 4.66163 55.4752 4.66163Z" fill="white"/>
<path d="M63.3711 13.4078H64.5801C64.6048 13.4078 64.6295 13.3847 64.6295 13.3386L62.1127 4.66163C62.1127 4.63855 62.088 4.63855 62.0633 4.63855H60.3114C60.2867 4.63855 60.2621 4.66163 60.2621 4.66163L57.7452 13.3386C57.7452 13.3616 57.7699 13.4078 57.7946 13.4078H59.0037C59.0283 13.4078 59.053 13.3847 59.053 13.3847L59.7933 10.8462C59.7933 10.8232 59.8179 10.8232 59.8426 10.8232H62.5321C62.5568 10.8232 62.5815 10.8462 62.5815 10.8462L63.3217 13.3847C63.3217 13.3847 63.3464 13.4078 63.3711 13.4078ZM60.1634 9.57701L61.1504 6.1847C61.175 6.13855 61.2244 6.13855 61.2491 6.1847L62.236 9.57701C62.236 9.60009 62.2114 9.64624 62.1867 9.64624H60.2374C60.188 9.64624 60.1634 9.60009 60.1634 9.57701Z" fill="white"/>
<path d="M84.1472 13.4078H85.3562C85.3809 13.4078 85.4056 13.3847 85.4056 13.3386L82.8887 4.66163C82.8887 4.63855 82.8641 4.63855 82.8394 4.63855H81.0875C81.0628 4.63855 81.0381 4.66163 81.0381 4.66163L78.5213 13.3386C78.5213 13.3616 78.546 13.4078 78.5707 13.4078H79.7797C79.8044 13.4078 79.8291 13.3847 79.8291 13.3847L80.5693 10.8462C80.5693 10.8232 80.594 10.8232 80.6187 10.8232H83.3082C83.3329 10.8232 83.3576 10.8462 83.3576 10.8462L84.0978 13.3847C84.0978 13.3847 84.1225 13.4078 84.1472 13.4078ZM80.9394 9.57701L81.9264 6.1847C81.9511 6.13855 82.0005 6.13855 82.0251 6.1847L83.0121 9.57701C83.0121 9.60009 82.9874 9.64624 82.9628 9.64624H81.0135C80.9641 9.64624 80.9394 9.60009 80.9394 9.57701Z" fill="white"/>
<path d="M41.3613 12.1155V9.43855C41.3613 9.41547 41.3859 9.3924 41.4106 9.3924H44.9884C45.0131 9.3924 45.0378 9.36932 45.0378 9.34624V8.26163C45.0378 8.23855 45.0131 8.21547 44.9884 8.21547H41.4106C41.3859 8.21547 41.3613 8.1924 41.3613 8.16932V5.8847C41.3613 5.86163 41.3859 5.83855 41.4106 5.83855H45.4573C45.4819 5.83855 45.5066 5.81547 45.5066 5.7924V4.70778C45.5066 4.68471 45.4819 4.66163 45.4573 4.66163H39.9795C39.9548 4.66163 39.9301 4.68471 39.9301 4.70778V13.3616C39.9301 13.3847 39.9548 13.4078 39.9795 13.4078H45.63C45.6547 13.4078 45.6793 13.3847 45.6793 13.3616V12.2309C45.6793 12.2078 45.6547 12.1847 45.63 12.1847H41.3859C41.3859 12.1616 41.3613 12.1385 41.3613 12.1155Z" fill="white"/>
<path d="M105.491 13.3155L100.852 8.83855C100.827 8.81547 100.827 8.7924 100.852 8.76932L105.022 4.70778C105.047 4.68471 105.022 4.63855 104.997 4.63855H103.295C103.27 4.63855 103.27 4.63855 103.27 4.66163L99.7169 8.12317C99.6922 8.14624 99.6429 8.12317 99.6429 8.10009V4.73086C99.6429 4.70778 99.6182 4.6847 99.5935 4.6847H98.2364C98.2117 4.6847 98.187 4.70778 98.187 4.73086V13.3847C98.187 13.4078 98.2117 13.4309 98.2364 13.4309H99.5688C99.5935 13.4309 99.6182 13.4078 99.6182 13.3847V9.57701C99.6182 9.53086 99.6675 9.50778 99.6922 9.55394L103.689 13.4309L103.714 13.4539H105.417C105.491 13.4078 105.515 13.3386 105.491 13.3155Z" fill="white"/>
<path d="M20.2151 0L12.1218 5.63077L13.6269 2.30769L20.2151 0Z" fill="#E17726"/>
<path d="M1.51166 0L9.55561 5.67692L8.12448 2.30769L1.51166 0Z" fill="#E27625"/>
<path d="M17.3035 13.0385L15.1321 16.1308L19.7709 17.3308L21.0787 13.1077L17.3035 13.0385Z" fill="#E27625"/>
<path d="M0.672722 13.1077L1.98048 17.3308L6.59464 16.1308L4.44795 13.0385L0.672722 13.1077Z" fill="#E27625"/>
<path d="M6.3479 7.82308L5.06482 9.64615L9.62963 9.83077L9.48158 5.21539L6.3479 7.82308Z" fill="#E27625"/>
<path d="M15.4035 7.82308L12.2205 5.16923L12.1218 9.83077L16.6866 9.64615L15.4035 7.82308Z" fill="#E27625"/>
<path d="M6.59464 16.1308L9.35821 14.8846L6.96476 13.1308L6.59464 16.1308Z" fill="#E27625"/>
<path d="M12.3932 14.8846L15.1321 16.1308L14.762 13.1308L12.3932 14.8846Z" fill="#E27625"/>
<path d="M15.1321 16.1308L12.3932 14.8846L12.6153 16.5462L12.5906 17.2615L15.1321 16.1308Z" fill="#D5BFB2"/>
<path d="M6.59464 16.1308L9.16081 17.2615L9.13614 16.5462L9.35821 14.8846L6.59464 16.1308Z" fill="#D5BFB2"/>
<path d="M9.21016 12.0231L6.91542 11.4L8.51927 10.7077L9.21016 12.0231Z" fill="#233447"/>
<path d="M12.5412 12.0231L13.2075 10.7077L14.836 11.4L12.5412 12.0231Z" fill="#233447"/>
<path d="M6.59464 16.1308L6.98944 13.0385L4.44795 13.1077L6.59464 16.1308Z" fill="#CC6228"/>
<path d="M14.762 13.0385L15.1321 16.1308L17.3035 13.1077L14.762 13.0385Z" fill="#CC6228"/>
<path d="M16.6866 9.64615L12.1218 9.83077L12.5412 12.0231L13.2075 10.7077L14.836 11.4L16.6866 9.64615Z" fill="#CC6228"/>
<path d="M6.91542 11.4L8.51927 10.7077L9.21016 12.0231L9.62963 9.83077L5.06482 9.64615L6.91542 11.4Z" fill="#CC6228"/>
<path d="M5.06482 9.64615L6.96476 13.1308L6.91542 11.4L5.06482 9.64615Z" fill="#E27525"/>
<path d="M14.836 11.4L14.762 13.1308L16.6866 9.64615L14.836 11.4Z" fill="#E27525"/>
<path d="M9.62963 9.83077L9.21016 12.0231L9.72833 14.6308L9.8517 11.1923L9.62963 9.83077Z" fill="#E27525"/>
<path d="M12.1218 9.83077L11.8997 11.1923L11.9984 14.6308L12.5412 12.0231L12.1218 9.83077Z" fill="#E27525"/>
<path d="M12.5412 12.0231L11.9984 14.6308L12.3932 14.8846L14.762 13.1308L14.836 11.4L12.5412 12.0231Z" fill="#F5841F"/>
<path d="M6.91542 11.4L6.96476 13.1308L9.35821 14.8846L9.72833 14.6308L9.21016 12.0231L6.91542 11.4Z" fill="#F5841F"/>
<path d="M12.5906 17.2615L12.6153 16.5462L12.3932 16.3846H9.33353L9.13614 16.5462L9.16081 17.2615L6.59464 16.1308L7.48293 16.8231L9.30886 18H12.4179L14.2438 16.8231L15.1321 16.1308L12.5906 17.2615Z" fill="#C0AC9D"/>
<path d="M12.3932 14.8846L11.9984 14.6308H9.72833L9.35821 14.8846L9.13614 16.5462L9.33353 16.3846H12.3932L12.6153 16.5462L12.3932 14.8846Z" fill="#161616"/>
<path d="M20.5605 6L21.2514 2.88462L20.2151 0L12.3932 5.44616L15.4035 7.82308L19.6475 8.97693L20.5852 7.96154L20.1904 7.68462L20.8319 7.13077L20.3384 6.76154L20.98 6.3L20.5605 6Z" fill="#763E1A"/>
<path d="M0.5 2.88462L1.19089 6L0.746747 6.3L1.38829 6.76154L0.894794 7.13077L1.56101 7.68462L1.14154 7.96154L2.07918 8.97693L6.3479 7.82308L9.35821 5.44616L1.51166 0L0.5 2.88462Z" fill="#763E1A"/>
<path d="M19.6475 8.97693L15.4035 7.82308L16.6866 9.64615L14.762 13.1308L17.3035 13.1077H21.0787L19.6475 8.97693Z" fill="#F5841F"/>
<path d="M6.3479 7.82308L2.07918 8.97693L0.672722 13.1077H4.44795L6.96476 13.1308L5.06482 9.64615L6.3479 7.82308Z" fill="#F5841F"/>
<path d="M12.1218 9.83077L12.3932 5.44616L13.6269 2.30769H8.12448L9.35821 5.44616L9.62963 9.83077L9.72833 11.2154V14.6308H11.9984V11.2154L12.1218 9.83077Z" fill="#F5841F"/>
</g>
</svg>
