<svg width="62" height="18" viewBox="0 0 62 18" fill="none" xmlns="http://www.w3.org/2000/svg">
<g id="Vector">
<path d="M18.5086 18H1.18892C1.08209 18 0.979643 17.9579 0.904105 17.8828C0.828569 17.8078 0.786133 17.7061 0.786133 17.6V0.400695C0.786133 0.294599 0.828569 0.19276 0.904105 0.117727C0.979643 0.0428353 1.08209 0.000709022 1.18892 0.000709022H18.5086C18.6156 0.000709022 18.7179 0.0428353 18.7936 0.117727C18.8691 0.19276 18.9116 0.294599 18.9116 0.400695V17.6C18.9116 17.7061 18.8691 17.8078 18.7936 17.8828C18.7179 17.9579 18.6156 18 18.5086 18ZM12.8697 6.40041C12.8697 6.29433 12.8273 6.1926 12.7517 6.11758C12.6762 6.04258 12.5737 6.00043 12.4669 6.00043H7.2307C7.12387 6.00043 7.02143 6.04258 6.94589 6.11758C6.87035 6.1926 6.82791 6.29433 6.82791 6.40041V11.6002C6.82791 11.7063 6.87035 11.8081 6.94589 11.8831C7.02143 11.9581 7.12387 12.0002 7.2307 12.0002H12.4669C12.5737 12.0002 12.6762 11.9581 12.7517 11.8831C12.8273 11.8081 12.8697 11.7063 12.8697 11.6002V6.40041Z" fill="#8D8D8D"/>
<path d="M54.7669 11.9995H49.5306C49.3082 11.9995 49.1278 11.8204 49.1278 11.5995V6.39968C49.1278 6.17878 49.3082 5.9997 49.5306 5.9997H54.7669C54.9893 5.9997 55.1696 6.17878 55.1696 6.39968V11.5995C55.1696 11.8204 54.9893 11.9995 54.7669 11.9995Z" fill="#8D8D8D"/>
<path d="M48.7264 17.9997H43.4903C43.2678 17.9997 43.0875 17.8206 43.0875 17.5997V12.3999C43.0875 12.179 43.2678 11.9999 43.4903 11.9999H48.7264C48.9489 11.9999 49.1293 12.179 49.1293 12.3999V17.5997C49.1293 17.8206 48.9489 17.9997 48.7264 17.9997Z" fill="#8D8D8D"/>
<path d="M60.8119 17.9997H55.5756C55.3533 17.9997 55.1729 17.8206 55.1729 17.5997V12.3999C55.1729 12.179 55.3533 11.9999 55.5756 11.9999H60.8119C61.0344 11.9999 61.2147 12.179 61.2147 12.3999V17.5997C61.2147 17.8206 61.0344 17.9997 60.8119 17.9997Z" fill="#8D8D8D"/>
<path d="M48.7264 5.99984H43.4903C43.2678 5.99984 43.0875 5.82077 43.0875 5.59987V0.399988C43.0875 0.179144 43.2678 1.73282e-07 43.4903 1.73282e-07H48.7264C48.9489 1.73282e-07 49.1293 0.179144 49.1293 0.399988V5.59987C49.1293 5.82077 48.9489 5.99984 48.7264 5.99984Z" fill="#8D8D8D"/>
<path d="M60.8119 5.99984H55.5756C55.3533 5.99984 55.1729 5.82077 55.1729 5.59987V0.399988C55.1729 0.179144 55.3533 1.73282e-07 55.5756 1.73282e-07H60.8119C61.0344 1.73282e-07 61.2147 0.179144 61.2147 0.399988V5.59987C61.2147 5.82077 61.0344 5.99984 60.8119 5.99984Z" fill="#8D8D8D"/>
<path d="M39.6565 17.9997H34.4204C34.1979 17.9997 34.0174 17.8206 34.0174 17.5997V12.3999C34.0174 12.179 34.1979 11.9999 34.4204 11.9999H39.6565C39.879 11.9999 40.0593 12.179 40.0593 12.3999V17.5997C40.0593 17.8206 39.879 17.9997 39.6565 17.9997Z" fill="#8D8D8D"/>
<path d="M39.6565 5.99984H34.4204C34.1979 5.99984 34.0174 5.82077 34.0174 5.59987V0.399988C34.0174 0.179144 34.1979 1.73282e-07 34.4204 1.73282e-07H39.6565C39.879 1.73282e-07 40.0593 0.179144 40.0593 0.399988V5.59987C40.0593 5.82077 39.879 5.99984 39.6565 5.99984Z" fill="#8D8D8D"/>
<path d="M34.0158 11.6047C34.0158 11.7108 33.9733 11.8125 33.8978 11.8876C33.8223 11.9626 33.7198 12.0047 33.613 12.0047H27.9739V17.6C27.9739 17.7061 27.9314 17.8078 27.8559 17.8828C27.7804 17.9579 27.6779 18 27.5712 18H22.335C22.2281 18 22.1257 17.9579 22.0501 17.8828C21.9746 17.8078 21.9321 17.7061 21.9321 17.6V0.409634C21.9321 0.303538 21.9746 0.201838 22.0501 0.126805C22.1257 0.051772 22.2281 0.0096461 22.335 0.0096461H27.5712C27.6779 0.0096461 27.7804 0.051772 27.8559 0.126805C27.9314 0.201838 27.9739 0.303538 27.9739 0.409634V6.00493H33.613C33.7198 6.00493 33.8223 6.04707 33.8978 6.12208C33.9733 6.1971 34.0158 6.29884 34.0158 6.40492V11.6047Z" fill="#8D8D8D"/>
</g>
</svg>
