<svg xmlns="http://www.w3.org/2000/svg" width="14" height="13" viewBox="0 0 14 13" fill="none">
  <path d="M12.2103 5.86395C12.1556 6.53047 12.0384 7.19023 11.8605 7.83458C11.2532 10.5059 8.86205 12.5 6.00477 12.5C2.68843 12.5 0 9.81371 0 6.5C0 3.18629 2.68843 0.5 6.00477 0.5C8.1566 0.5 10.0441 1.63096 11.1043 3.33045L13.0371 3.87619L11.5753 4.25559L9.40102 4.83812C8.78566 3.58493 7.49604 2.72222 6.00477 2.72222C3.9167 2.72222 2.22399 4.41359 2.22399 6.5C2.22399 8.58641 3.9167 10.2778 6.00477 10.2778C7.61707 10.2778 8.99365 9.26936 9.53726 7.84932L6.22627 7.20247L12.231 5.61115L12.2103 5.86395Z" fill="white"/>
</svg>