<svg xmlns="http://www.w3.org/2000/svg" width="20" height="20" viewBox="0 0 20 20" fill="none">
  <g clip-path="url(#clip0_82_6660)">
    <path d="M18.8607 0.740723L11.4141 6.52739L12.7992 3.11702L18.86 0.740723H18.8607Z" fill="#E17726"/>
    <path d="M1.68366 0.740723L9.0644 6.58146L7.74588 3.11702L1.68366 0.740723ZM16.1792 14.1592L14.1977 17.3378L18.44 18.5652L19.6555 14.2289L16.1792 14.1592ZM0.895508 14.2289L2.10292 18.5652L6.33847 17.3378L4.3644 14.1592L0.895508 14.2289Z" fill="#E27625"/>
    <path d="M6.1109 8.78874L4.93164 10.6554L9.13016 10.8569L8.99016 6.11096L6.11016 8.78874H6.1109ZM14.4331 8.78874L11.5087 6.05688L11.4131 10.8569L15.6116 10.6561L14.4331 8.78874ZM6.33905 17.3384L8.87979 16.0495L6.69238 14.2591L6.33905 17.3384ZM11.6635 16.0495L14.1968 17.3384L13.8509 14.2591L11.6635 16.0495Z" fill="#E27625"/>
    <path d="M14.1981 17.3385L11.6648 16.0496L11.87 17.7784L11.8478 18.5118L14.1981 17.3385ZM6.33887 17.3385L8.6959 18.511L8.68109 17.7777L8.87961 16.0503L6.33887 17.3385Z" fill="#D5BFB2"/>
    <path d="M8.73948 13.1179L6.63281 12.4697L8.12096 11.7512L8.73948 13.1179ZM11.8032 13.1179L12.4217 11.752L13.9165 12.4697L11.8032 13.1179Z" fill="#233447"/>
    <path d="M6.33857 17.3377L6.70746 14.1592L4.36523 14.2288L6.33857 17.3377ZM13.8371 14.1592L14.1978 17.3377L16.1793 14.2288L13.8371 14.1592ZM15.6119 10.6562L11.4134 10.8562L11.8038 13.1177L12.4223 11.7518L13.9178 12.4696L15.6119 10.6562ZM6.63338 12.4696L8.12153 11.7511L8.74005 13.1177L9.13042 10.857L4.9319 10.6562L6.63338 12.4696Z" fill="#CC6228"/>
    <path d="M4.93164 10.6562L6.69238 14.2592L6.63312 12.4696L4.93164 10.6562ZM13.9176 12.4696L13.8509 14.2592L15.6116 10.6562L13.9176 12.4696ZM9.13016 10.857L8.73979 13.1177L9.23312 15.7874L9.34423 12.2688L9.12942 10.857H9.13016ZM11.4131 10.857L11.2072 12.2614L11.3109 15.7874L11.8035 13.1177L11.4131 10.857Z" fill="#E27525"/>
    <path d="M11.8032 13.1179L11.3098 15.7875L11.6632 16.0497L13.8506 14.2601L13.9173 12.4697L11.8032 13.1179ZM6.63281 12.4697L6.69207 14.2601L8.87948 16.0497L9.23281 15.7875L8.73948 13.1179L6.63281 12.4697Z" fill="#F5841F"/>
    <path d="M11.8478 18.5112L11.87 17.7779L11.6789 17.6075H8.86479L8.68109 17.7779L8.6959 18.5112L6.33887 17.3379L7.16331 18.0483L8.8359 19.2594H11.7003L13.3803 18.0483L14.1974 17.3379L11.8478 18.5112Z" fill="#C0AC9D"/>
    <path d="M11.6639 16.0496L11.3105 15.7874H9.23349L8.87942 16.0496L8.68164 17.7777L8.86534 17.6081H11.6794L11.8705 17.7785L11.6646 16.0496H11.6639Z" fill="#161616"/>
    <path d="M19.1758 6.90591L19.8025 3.71109L18.8588 0.740723L11.6625 6.3348L14.4321 8.78887L18.3432 9.98443L19.2047 8.92739L18.8291 8.6422L19.4254 8.07109L18.9691 7.70072L19.5654 7.2222L19.175 6.90591H19.1758ZM0.740234 3.71109L1.37357 6.90591L0.968383 7.2222L1.57283 7.70072L1.11579 8.07109L1.71283 8.64146L1.33653 8.92739L2.19949 9.98517L6.1106 8.78961L8.88023 6.33554L1.6832 0.740723L0.740234 3.71109Z" fill="#763E1A"/>
    <path d="M18.3444 9.98459L14.4333 8.78829L15.6111 10.6557L13.8518 14.2594L16.1792 14.2283H19.6562L18.3451 9.98385L18.3444 9.98459ZM6.11032 8.78829L2.19921 9.98459L0.895508 14.2283H4.3644L6.6918 14.2594L4.9318 10.6557L6.10958 8.78903L6.11032 8.78829ZM11.4133 10.8564L11.6637 6.33496L12.7977 3.11792H7.74588L8.87921 6.33496L9.12958 10.8564L9.22588 12.2764L9.23329 15.7875H11.3103L11.3177 12.2764L11.4133 10.8564Z" fill="#F5841F"/>
  </g>
  <defs>
    <clipPath id="clip0_82_6660">
      <rect width="20" height="20" fill="white"/>
    </clipPath>
  </defs>
</svg>