<svg width="20" height="21" viewBox="0 0 20 21" fill="none" xmlns="http://www.w3.org/2000/svg">
<path d="M18.75 8.38976V13.3898C18.7502 13.5012 18.7206 13.6107 18.6643 13.7068C18.608 13.803 18.527 13.8823 18.4297 13.9366L11.0938 18.1007C11.046 18.1283 10.9919 18.1427 10.9368 18.1426C10.8817 18.1425 10.8276 18.1278 10.78 18.1C10.7324 18.0722 10.693 18.0324 10.6658 17.9845C10.6386 17.9366 10.6245 17.8824 10.625 17.8273V13.3663L14.9844 10.8898L17.5 12.3194V9.46007L14.9844 10.8898L13.7188 10.171L16.8594 8.38976L10.625 4.8507V8.4132L13.7188 10.171L10 12.2804L6.28125 10.171L9.375 8.4132V4.8507L3.14063 8.38976L6.28125 10.171L5.01563 10.8898L2.5 9.46007V12.3194L5.01563 10.8898L9.375 13.3663V17.8273C9.3755 17.8824 9.36142 17.9366 9.33419 17.9845C9.30697 18.0324 9.26756 18.0722 9.21997 18.1C9.17238 18.1278 9.1183 18.1425 9.06321 18.1426C9.00811 18.1427 8.95396 18.1283 8.90625 18.1007L1.57031 13.9366C1.47302 13.8823 1.39202 13.803 1.3357 13.7068C1.27938 13.6107 1.24979 13.5012 1.25 13.3898V8.38976C1.24979 8.27833 1.27938 8.16887 1.3357 8.07271C1.39202 7.97656 1.47302 7.89721 1.57031 7.84289L9.38281 3.4132C9.57072 3.30562 9.78348 3.24902 10 3.24902C10.2165 3.24902 10.4293 3.30562 10.6172 3.4132L18.4297 7.84289C18.527 7.89721 18.608 7.97656 18.6643 8.07271C18.7206 8.16887 18.7502 8.27833 18.75 8.38976Z" fill="currentColor"/>
</svg>
