<svg xmlns="http://www.w3.org/2000/svg" width="16" height="16" viewBox="0 0 16 16" fill="none">
  <path d="M3.90163 11.4002C4.46829 10.9668 5.10163 10.6253 5.80163 10.3755C6.50163 10.1257 7.23496 10.0006 8.00163 10.0002C8.76829 9.99972 9.50163 10.1248 10.2016 10.3755C10.9016 10.6262 11.535 10.9677 12.1016 11.4002C12.4905 10.9446 12.7934 10.4279 13.0103 9.85016C13.2272 9.27239 13.3354 8.65572 13.335 8.00016C13.335 6.52239 12.8156 5.26394 11.777 4.22483C10.7383 3.18572 9.47985 2.66639 8.00163 2.66683C6.52341 2.66727 5.26496 3.18683 4.22629 4.2255C3.18763 5.26416 2.6683 6.52239 2.6683 8.00016C2.6683 8.65572 2.77674 9.27239 2.99363 9.85016C3.21052 10.4279 3.51318 10.9446 3.90163 11.4002ZM8.00163 8.66683C7.34607 8.66683 6.79318 8.44194 6.34296 7.99216C5.89274 7.54239 5.66785 6.9895 5.66829 6.3335C5.66874 5.6775 5.89385 5.12461 6.34363 4.67483C6.79341 4.22505 7.34607 4.00016 8.00163 4.00016C8.65718 4.00016 9.21007 4.22527 9.66029 4.6755C10.1105 5.12572 10.3354 5.67839 10.335 6.3335C10.3345 6.98861 10.1096 7.5415 9.66029 7.99216C9.21096 8.44283 8.65807 8.66772 8.00163 8.66683ZM8.00163 14.6668C7.07941 14.6668 6.21274 14.4917 5.40163 14.1415C4.59052 13.7913 3.88496 13.3164 3.28496 12.7168C2.68496 12.1173 2.21007 11.4117 1.8603 10.6002C1.51052 9.78861 1.33541 8.92194 1.33496 8.00016C1.33452 7.07839 1.50963 6.21172 1.8603 5.40016C2.21096 4.58861 2.68585 3.88305 3.28496 3.2835C3.88407 2.68394 4.58963 2.20905 5.40163 1.85883C6.21363 1.50861 7.08029 1.3335 8.00163 1.3335C8.92296 1.3335 9.78963 1.50861 10.6016 1.85883C11.4136 2.20905 12.1192 2.68394 12.7183 3.2835C13.3174 3.88305 13.7925 4.58861 14.1436 5.40016C14.4947 6.21172 14.6696 7.07839 14.6683 8.00016C14.667 8.92194 14.4918 9.78861 14.143 10.6002C13.7941 11.4117 13.3192 12.1173 12.7183 12.7168C12.1174 13.3164 11.4118 13.7915 10.6016 14.1422C9.79141 14.4928 8.92474 14.6677 8.00163 14.6668ZM8.00163 13.3335C8.59052 13.3335 9.14607 13.2475 9.66829 13.0755C10.1905 12.9035 10.6683 12.6562 11.1016 12.3335C10.6683 12.0113 10.1905 11.7642 9.66829 11.5922C9.14607 11.4202 8.59052 11.3339 8.00163 11.3335C7.41274 11.3331 6.85718 11.4193 6.33496 11.5922C5.81274 11.7651 5.33496 12.0122 4.90163 12.3335C5.33496 12.6557 5.81274 12.9031 6.33496 13.0755C6.85718 13.2479 7.41274 13.3339 8.00163 13.3335ZM8.00163 7.3335C8.29052 7.3335 8.52941 7.23905 8.71829 7.05016C8.90718 6.86127 9.00163 6.62239 9.00163 6.3335C9.00163 6.04461 8.90718 5.80572 8.71829 5.61683C8.52941 5.42794 8.29052 5.3335 8.00163 5.3335C7.71274 5.3335 7.47385 5.42794 7.28496 5.61683C7.09607 5.80572 7.00163 6.04461 7.00163 6.3335C7.00163 6.62239 7.09607 6.86127 7.28496 7.05016C7.47385 7.23905 7.71274 7.3335 8.00163 7.3335Z" fill="currentColor"/>
</svg>