<svg xmlns="http://www.w3.org/2000/svg" width="17" height="24" viewBox="0 0 17 24" fill="none">
  <path d="M8.25645 14.2486C11.1556 14.2486 13.5059 11.8983 13.5059 8.99912C13.5059 6.09994 11.1556 3.74968 8.25645 3.74968C5.35726 3.74968 3.007 6.09994 3.007 8.99912C3.007 11.8983 5.35726 14.2486 8.25645 14.2486Z" fill="#1D1D1F" fill-opacity="0.89"/>
  <path d="M8.25654 0.750017C6.55708 0.746555 4.89812 1.26866 3.50697 2.24481C2.11581 3.22095 1.06052 4.60337 0.485679 6.20266C-0.0891619 7.80195 -0.155428 9.53987 0.295961 11.1783C0.74735 12.8167 1.69431 14.2755 3.00709 15.3547V22.4977C3.00633 22.6257 3.03874 22.7517 3.10117 22.8634C3.1636 22.9751 3.25392 23.0687 3.36331 23.1351C3.47182 23.2034 3.596 23.2426 3.72401 23.2492C3.85201 23.2557 3.97956 23.2294 4.09448 23.1726L8.25654 21.0822L12.4186 23.1726C12.525 23.2197 12.6397 23.2452 12.7561 23.2476C12.9549 23.2476 13.1457 23.1686 13.2863 23.028C13.427 22.8873 13.506 22.6966 13.506 22.4977V15.3547C14.8188 14.2755 15.7657 12.8167 16.2171 11.1783C16.6685 9.53987 16.6022 7.80195 16.0274 6.20266C15.4526 4.60337 14.3973 3.22095 13.0061 2.24481C11.615 1.26866 9.95599 0.746555 8.25654 0.750017ZM8.25654 15.7484C6.92165 15.7484 5.61675 15.3526 4.50684 14.611C3.39692 13.8693 2.53185 12.8152 2.02101 11.582C1.51018 10.3487 1.37652 8.99165 1.63694 7.68242C1.89736 6.37319 2.54017 5.17058 3.48407 4.22668C4.42798 3.28277 5.63058 2.63997 6.93982 2.37954C8.24905 2.11912 9.6061 2.25278 10.8394 2.76362C12.0726 3.27445 13.1267 4.13953 13.8684 5.24944C14.61 6.35935 15.0058 7.66426 15.0058 8.99914C15.0033 10.7884 14.2915 12.5037 13.0263 13.7689C11.7611 15.0341 10.0458 15.7459 8.25654 15.7484Z" fill="#1D1D1F" fill-opacity="0.89"/>
</svg>