<svg xmlns="http://www.w3.org/2000/svg" width="16" height="17" viewBox="0 0 16 17" fill="none">
  <path fill-rule="evenodd" clip-rule="evenodd" d="M7.88535 2C7.2743 2 6.75281 2.44177 6.65236 3.0445L6.59133 3.41068C6.56011 3.59797 6.42471 3.74938 6.2469 3.81596C6.13874 3.85646 6.03235 3.9006 5.9279 3.94823C5.75506 4.02704 5.55215 4.01575 5.39757 3.90534L5.09533 3.68945C4.5981 3.33429 3.91697 3.39066 3.4849 3.82274L3.32275 3.98488C2.89067 4.41696 2.8343 5.09808 3.18947 5.59531L3.40535 5.89755C3.51576 6.05213 3.52705 6.25504 3.44824 6.42788C3.40061 6.53234 3.35647 6.63873 3.31597 6.74689C3.24939 6.92471 3.09797 7.0601 2.91068 7.09132L2.5445 7.15235C1.94177 7.2528 1.5 7.77429 1.5 8.38534V8.61465C1.5 9.2257 1.94177 9.74719 2.5445 9.84764L2.91068 9.90867C3.09797 9.93989 3.24938 10.0753 3.31596 10.2531C3.35646 10.3613 3.4006 10.4676 3.44823 10.5721C3.52704 10.7449 3.51575 10.9479 3.40534 11.1024L3.18944 11.4047C2.83427 11.9019 2.89064 12.583 3.32272 13.0151L3.48487 13.1773C3.91694 13.6093 4.59807 13.6657 5.0953 13.3105L5.39755 13.0947C5.55213 12.9842 5.75504 12.973 5.92788 13.0518C6.03234 13.0994 6.13873 13.1435 6.24689 13.184C6.4247 13.2506 6.5601 13.402 6.59132 13.5893L6.65235 13.9555C6.7528 14.5582 7.27429 15 7.88534 15H8.11465C8.7257 15 9.24719 14.5582 9.34764 13.9555L9.40867 13.5893C9.43989 13.402 9.57529 13.2506 9.7531 13.184C9.86126 13.1435 9.96765 13.0994 10.0721 13.0518C10.2449 12.973 10.4479 12.9842 10.6024 13.0947L10.9047 13.3105C11.4019 13.6657 12.083 13.6093 12.5151 13.1773L12.6772 13.0151C13.1093 12.583 13.1657 11.9019 12.8105 11.4047L12.5946 11.1024C12.4842 10.9479 12.473 10.745 12.5518 10.5721C12.5994 10.4677 12.6435 10.3613 12.684 10.2531C12.7506 10.0753 12.902 9.9399 13.0893 9.90868L13.4555 9.84765C14.0582 9.7472 14.5 9.22571 14.5 8.61466V8.38535C14.5 7.7743 14.0582 7.25281 13.4555 7.15236L13.0893 7.09133C12.902 7.06011 12.7506 6.92471 12.684 6.7469C12.6435 6.63874 12.5994 6.53236 12.5518 6.4279C12.473 6.25506 12.4843 6.05215 12.5947 5.89757L12.8106 5.59531C13.1657 5.09808 13.1094 4.41696 12.6773 3.98488L12.5151 3.82273C12.0831 3.39066 11.4019 3.33429 10.9047 3.68945L10.6024 3.90535C10.4479 4.01576 10.245 4.02705 10.0721 3.94824C9.96766 3.90061 9.86127 3.85647 9.75311 3.81597C9.5753 3.74939 9.4399 3.59797 9.40868 3.41068L9.34765 3.0445C9.2472 2.44177 8.72571 2 8.11466 2H7.88535ZM8 11C9.38071 11 10.5 9.88071 10.5 8.5C10.5 7.11929 9.38071 6 8 6C6.61929 6 5.5 7.11929 5.5 8.5C5.5 9.88071 6.61929 11 8 11Z" fill="#6E6E73"/>
</svg>