<svg xmlns="http://www.w3.org/2000/svg" width="24" height="25" viewBox="0 0 24 25" fill="none">
  <path d="M19.125 3.875H4.875C4.47718 3.875 4.09564 4.03304 3.81434 4.31434C3.53304 4.59564 3.375 4.97718 3.375 5.375V19.625C3.375 20.0228 3.53304 20.4044 3.81434 20.6857C4.09564 20.967 4.47718 21.125 4.875 21.125H19.125C19.5228 21.125 19.9044 20.967 20.1857 20.6857C20.467 20.4044 20.625 20.0228 20.625 19.625V5.375C20.625 4.97718 20.467 4.59564 20.1857 4.31434C19.9044 4.03304 19.5228 3.875 19.125 3.875ZM4.875 5.375H12V19.625H4.875V5.375Z" fill="#1D1D1F" fill-opacity="0.89"/>
</svg>