<svg xmlns="http://www.w3.org/2000/svg" width="21" height="20" viewBox="0 0 21 20" fill="none">
  <path d="M17.375 5.625H4.875C4.70924 5.625 4.55027 5.55915 4.43306 5.44194C4.31585 5.32473 4.25 5.16576 4.25 5C4.25 4.83424 4.31585 4.67527 4.43306 4.55806C4.55027 4.44085 4.70924 4.375 4.875 4.375H15.5C15.6658 4.375 15.8247 4.30915 15.9419 4.19194C16.0592 4.07473 16.125 3.91576 16.125 3.75C16.125 3.58424 16.0592 3.42527 15.9419 3.30806C15.8247 3.19085 15.6658 3.125 15.5 3.125H4.875C4.37835 3.12706 3.90263 3.32526 3.55145 3.67645C3.20026 4.02763 3.00206 4.50335 3 5V15C3.00206 15.4966 3.20026 15.9724 3.55145 16.3236C3.90263 16.6747 4.37835 16.8729 4.875 16.875H17.375C17.7065 16.875 18.0245 16.7433 18.2589 16.5089C18.4933 16.2745 18.625 15.9565 18.625 15.625V6.875C18.625 6.54348 18.4933 6.22554 18.2589 5.99112C18.0245 5.7567 17.7065 5.625 17.375 5.625ZM14.5625 12.1875C14.3771 12.1875 14.1958 12.1325 14.0417 12.0295C13.8875 11.9265 13.7673 11.7801 13.6964 11.6088C13.6254 11.4375 13.6068 11.249 13.643 11.0671C13.6792 10.8852 13.7685 10.7182 13.8996 10.5871C14.0307 10.456 14.1977 10.3667 14.3796 10.3305C14.5615 10.2943 14.75 10.3129 14.9213 10.3839C15.0926 10.4548 15.239 10.575 15.342 10.7292C15.445 10.8833 15.5 11.0646 15.5 11.25C15.5 11.4986 15.4012 11.7371 15.2254 11.9129C15.0496 12.0887 14.8111 12.1875 14.5625 12.1875Z" fill="white" fill-opacity="0.89"/>
  <path d="M4.875 5.66406H17.375C17.6962 5.66406 18.0042 5.79164 18.2313 6.01874C18.4584 6.24583 18.5859 6.55384 18.5859 6.875V15.625C18.5859 15.9462 18.4584 16.2542 18.2313 16.4813C18.0042 16.7084 17.6962 16.8359 17.375 16.8359H4.87516C4.38882 16.8339 3.92297 16.6398 3.57907 16.2959C3.23519 15.9521 3.0411 15.4862 3.03906 14.9999V5.00008C3.0411 4.51377 3.23519 4.04795 3.57907 3.70407C3.92295 3.36019 4.38877 3.1661 4.87508 3.16406H15.5C15.6554 3.16406 15.8044 3.2258 15.9143 3.33568C16.0242 3.44556 16.0859 3.5946 16.0859 3.75C16.0859 3.9054 16.0242 4.05444 15.9143 4.16432C15.8044 4.2742 15.6554 4.33594 15.5 4.33594H4.875C4.69888 4.33594 4.52997 4.4059 4.40544 4.53044C4.2809 4.65497 4.21094 4.82388 4.21094 5C4.21094 5.17612 4.2809 5.34503 4.40544 5.46956C4.52997 5.5941 4.69888 5.66406 4.875 5.66406ZM14.02 12.062C14.1805 12.1693 14.3694 12.2266 14.5625 12.2266C14.8215 12.2266 15.0699 12.1237 15.253 11.9405C15.4362 11.7574 15.5391 11.509 15.5391 11.25C15.5391 11.0569 15.4818 10.868 15.3745 10.7075C15.2672 10.5469 15.1147 10.4217 14.9362 10.3478C14.7578 10.2739 14.5614 10.2545 14.372 10.2922C14.1825 10.3299 14.0085 10.4229 13.872 10.5595C13.7354 10.696 13.6424 10.87 13.6047 11.0595C13.567 11.2489 13.5864 11.4453 13.6603 11.6237C13.7342 11.8022 13.8594 11.9547 14.02 12.062Z" stroke="white" stroke-opacity="0.89" stroke-width="0.078125"/>
</svg>