<svg xmlns="http://www.w3.org/2000/svg" width="22" height="20" viewBox="0 0 22 20" fill="none">
  <path d="M18.946 3.15826C18.0411 2.23408 16.9601 1.50072 15.7669 1.00154C14.5737 0.502357 13.2925 0.247492 11.9991 0.252012H11.2491C11.0502 0.252012 10.8594 0.33103 10.7188 0.471682C10.5781 0.612334 10.4991 0.8031 10.4991 1.00201V3.58014L1.10537 9.36451C1.01894 9.41857 0.94443 9.48968 0.886402 9.57349C0.828374 9.65731 0.788042 9.75208 0.767872 9.85201C0.745021 9.95347 0.744072 10.0586 0.765088 10.1605C0.786105 10.2623 0.828603 10.3585 0.889747 10.4426L2.1835 12.2333C2.5087 12.6907 2.95716 13.0464 3.47666 13.2588C3.99616 13.4712 4.56532 13.5318 5.11787 13.4333C6.40225 13.2176 8.73662 13.0395 10.8929 14.0145L8.43662 17.4458C7.73363 17.1053 7.08067 16.67 6.496 16.152C6.42275 16.0861 6.33725 16.0353 6.24436 16.0025C6.15148 15.9697 6.05303 15.9554 5.95466 15.9607C5.85628 15.9659 5.75989 15.9904 5.67101 16.0329C5.58212 16.0754 5.50248 16.135 5.43662 16.2083C5.37131 16.2821 5.32119 16.3681 5.28913 16.4613C5.25708 16.5545 5.24372 16.6532 5.24981 16.7516C5.25591 16.8499 5.28134 16.9462 5.32466 17.0347C5.36797 17.1233 5.42832 17.2024 5.50225 17.2676C7.28644 18.8702 9.60089 19.7552 11.9991 19.752H12.196C14.1018 19.7144 15.9547 19.1189 17.5256 18.0393C19.0965 16.9597 20.3166 15.4433 21.0348 13.6777C21.753 11.9121 21.9379 9.97461 21.5667 8.10498C21.1955 6.23535 20.2843 4.51554 18.946 3.15826ZM11.6241 8.50201C11.4016 8.50201 11.1841 8.43603 10.9991 8.31242C10.8141 8.1888 10.6699 8.0131 10.5848 7.80753C10.4996 7.60196 10.4773 7.37576 10.5207 7.15754C10.5641 6.93931 10.6713 6.73885 10.8286 6.58152C10.986 6.42418 11.1864 6.31704 11.4046 6.27363C11.6229 6.23022 11.8491 6.2525 12.0546 6.33765C12.2602 6.4228 12.4359 6.56699 12.5595 6.752C12.6831 6.937 12.7491 7.15451 12.7491 7.37701C12.7491 7.67538 12.6306 7.96153 12.4196 8.17251C12.2086 8.38349 11.9225 8.50201 11.6241 8.50201Z" fill="currentColor"/>
</svg>