<svg xmlns="http://www.w3.org/2000/svg" width="66" height="66" viewBox="0 0 66 66" fill="none">
  <g filter="url(#filter0_d_4850_5345)">
    <path d="M17.8889 34.8889H29.2222C29.7232 34.8889 30.2036 34.6899 30.5579 34.3356C30.9121 33.9814 31.1111 33.501 31.1111 33V17.8889C31.1111 17.3879 30.9121 16.9075 30.5579 16.5532C30.2036 16.199 29.7232 16 29.2222 16H17.8889C17.3879 16 16.9075 16.199 16.5532 16.5532C16.199 16.9075 16 17.3879 16 17.8889V33C16 33.501 16.199 33.9814 16.5532 34.3356C16.9075 34.6899 17.3879 34.8889 17.8889 34.8889ZM16 48.1111C16 48.6121 16.199 49.0925 16.5532 49.4468C16.9075 49.801 17.3879 50 17.8889 50H29.2222C29.7232 50 30.2036 49.801 30.5579 49.4468C30.9121 49.0925 31.1111 48.6121 31.1111 48.1111V40.5556C31.1111 40.0546 30.9121 39.5741 30.5579 39.2199C30.2036 38.8657 29.7232 38.6667 29.2222 38.6667H17.8889C17.3879 38.6667 16.9075 38.8657 16.5532 39.2199C16.199 39.5741 16 40.0546 16 40.5556V48.1111ZM34.8889 48.1111C34.8889 48.6121 35.0879 49.0925 35.4421 49.4468C35.7964 49.801 36.2768 50 36.7778 50H48.1111C48.6121 50 49.0925 49.801 49.4468 49.4468C49.801 49.0925 50 48.6121 50 48.1111V34.8889C50 34.6408 49.9511 34.3952 49.8562 34.166C49.7613 33.9369 49.6222 33.7286 49.4468 33.5532C49.2714 33.3778 49.0631 33.2387 48.834 33.1438C48.6048 33.0489 48.3592 33 48.1111 33H36.7778C36.2768 33 35.7964 33.199 35.4421 33.5532C35.0879 33.9075 34.8889 34.3879 34.8889 34.8889V48.1111ZM36.7778 29.2222H48.1111C48.6121 29.2222 49.0925 29.0232 49.4468 28.669C49.801 28.3147 50 27.8343 50 27.3333V17.8889C50 17.3879 49.801 16.9075 49.4468 16.5532C49.0925 16.199 48.6121 16 48.1111 16H36.7778C36.2768 16 35.7964 16.199 35.4421 16.5532C35.0879 16.9075 34.8889 17.3879 34.8889 17.8889V27.3333C34.8889 27.8343 35.0879 28.3147 35.4421 28.669C35.7964 29.0232 36.2768 29.2222 36.7778 29.2222Z" fill="white"/>
  </g>
  <defs>
    <filter id="filter0_d_4850_5345" x="0" y="0" width="66" height="66" filterUnits="userSpaceOnUse" color-interpolation-filters="sRGB">
      <feFlood flood-opacity="0" result="BackgroundImageFix"/>
      <feColorMatrix in="SourceAlpha" type="matrix" values="0 0 0 0 0 0 0 0 0 0 0 0 0 0 0 0 0 0 127 0" result="hardAlpha"/>
      <feOffset/>
      <feGaussianBlur stdDeviation="8"/>
      <feComposite in2="hardAlpha" operator="out"/>
      <feColorMatrix type="matrix" values="0 0 0 0 1 0 0 0 0 1 0 0 0 0 1 0 0 0 0.6 0"/>
      <feBlend mode="normal" in2="BackgroundImageFix" result="effect1_dropShadow_4850_5345"/>
      <feBlend mode="normal" in="SourceGraphic" in2="effect1_dropShadow_4850_5345" result="shape"/>
    </filter>
  </defs>
</svg>