<svg xmlns="http://www.w3.org/2000/svg" width="21" height="20" viewBox="0 0 21 20" fill="none">
  <path d="M15.5438 20H19.5C19.8978 20 20.2794 19.842 20.5607 19.5607C20.842 19.2794 21 18.8978 21 18.5V14.9656C20.9996 14.8426 20.9685 14.7216 20.9096 14.6135C20.8506 14.5055 20.7657 14.4139 20.6625 14.3469C20.5607 14.2766 20.4426 14.2337 20.3195 14.2222C20.1964 14.2107 20.0724 14.2311 19.9594 14.2812C19.6937 14.3862 19.4107 14.4403 19.125 14.4406C17.8875 14.4406 16.875 13.4 16.875 12.125C16.875 10.85 17.8875 9.80938 19.125 9.80938C19.4107 9.80972 19.6937 9.86378 19.9594 9.96875C20.0724 10.0189 20.1964 10.0393 20.3195 10.0278C20.4426 10.0163 20.5607 9.97337 20.6625 9.90313C20.7657 9.83615 20.8506 9.7445 20.9096 9.63647C20.9685 9.52844 20.9996 9.40743 21 9.28437V5.75C21 5.35218 20.842 4.97064 20.5607 4.68934C20.2794 4.40804 19.8978 4.25 19.5 4.25H16.1063C16.1156 4.12813 16.125 3.99687 16.125 3.875C16.125 2.97989 15.7694 2.12145 15.1365 1.48851C14.5035 0.855579 13.6451 0.5 12.75 0.5C11.8549 0.5 10.9965 0.855579 10.3635 1.48851C9.73058 2.12145 9.375 2.97989 9.375 3.875C9.375 3.99687 9.38437 4.12813 9.39375 4.25H6C5.60218 4.25 5.22064 4.40804 4.93934 4.68934C4.65804 4.97064 4.5 5.35218 4.5 5.75V8.76875L4.125 8.75C3.22989 8.75 2.37145 9.10558 1.73851 9.73851C1.10558 10.3715 0.75 11.2299 0.75 12.125C0.75 13.0201 1.10558 13.8785 1.73851 14.5115C2.37145 15.1444 3.22989 15.5 4.125 15.5L4.5 15.4813V18.5C4.5 18.8978 4.65804 19.2794 4.93934 19.5607C5.22064 19.842 5.60218 20 6 20H9.95625" fill="currentColor"/>
</svg>