<svg xmlns="http://www.w3.org/2000/svg" width="18" height="18" viewBox="0 0 18 18" fill="none">
  <path d="M7.50009 10.5V15.3375C7.49995 15.4483 7.47553 15.5578 7.42856 15.6582C7.38159 15.7586 7.31321 15.8475 7.22821 15.9187C7.09406 16.0302 6.92449 16.09 6.75009 16.0875H6.61884L0.618839 15C0.443432 14.9688 0.284843 14.8762 0.17147 14.7388C0.0580969 14.6014 -0.00265622 14.4281 8.91685e-05 14.25V10.5C8.91685e-05 10.301 0.079107 10.1103 0.219759 9.96963C0.360411 9.82897 0.551177 9.74996 0.750089 9.74996H6.75009C6.949 9.74996 7.13977 9.82897 7.28042 9.96963C7.42107 10.1103 7.50009 10.301 7.50009 10.5ZM7.22821 2.08121C7.14427 2.01204 7.04629 1.96197 6.94107 1.93445C6.83584 1.90693 6.72589 1.90262 6.61884 1.92183L0.618839 3.00933C0.445035 3.04022 0.287697 3.13143 0.174517 3.2669C0.0613382 3.40238 -0.0004282 3.57343 8.91685e-05 3.74996V7.49996C8.91685e-05 7.69887 0.079107 7.88963 0.219759 8.03029C0.360411 8.17094 0.551177 8.24996 0.750089 8.24996H6.75009C6.949 8.24996 7.13977 8.17094 7.28042 8.03029C7.42107 7.88963 7.50009 7.69887 7.50009 7.49996V2.66246C7.49995 2.5516 7.47553 2.44212 7.42856 2.3417C7.38159 2.24129 7.31321 2.15237 7.22821 2.08121ZM17.2501 9.74996H9.75009C9.55118 9.74996 9.36041 9.82897 9.21976 9.96963C9.07911 10.1103 9.00009 10.301 9.00009 10.5V15.8906C9.00176 16.0655 9.06453 16.2343 9.17752 16.3679C9.2905 16.5014 9.44662 16.5912 9.61884 16.6218L17.1188 17.9906H17.2501C17.4263 17.9941 17.5972 17.9304 17.7282 17.8125C17.8118 17.7442 17.8794 17.6584 17.9264 17.5613C17.9733 17.4641 17.9985 17.3579 18.0001 17.25V10.5C18.0001 10.301 17.9211 10.1103 17.7804 9.96963C17.6398 9.82897 17.449 9.74996 17.2501 9.74996ZM17.7282 0.178081C17.6461 0.105557 17.5486 0.0526731 17.443 0.0234358C17.3374 -0.00580144 17.2266 -0.0106251 17.1188 0.00933051L9.61884 1.37808C9.44662 1.40868 9.2905 1.49852 9.17752 1.63206C9.06453 1.76559 9.00176 1.93442 9.00009 2.10933V7.49996C9.00009 7.69887 9.07911 7.88963 9.21976 8.03029C9.36041 8.17094 9.55118 8.24996 9.75009 8.24996H17.2501C17.449 8.24996 17.6398 8.17094 17.7804 8.03029C17.9211 7.88963 18.0001 7.69887 18.0001 7.49996V0.749956C17.9999 0.640464 17.9754 0.532384 17.9283 0.433498C17.8813 0.334612 17.813 0.24738 17.7282 0.178081Z" fill="currentColor"/>
</svg>