<svg xmlns="http://www.w3.org/2000/svg" width="24" height="19" viewBox="0 0 24 19" fill="none">
  <path d="M21.7516 3H19.5016V2.25C19.5016 1.85218 19.3435 1.47064 19.0622 1.18934C18.7809 0.908035 18.3994 0.75 18.0016 0.75H6.00156C5.60374 0.75 5.22221 0.908035 4.9409 1.18934C4.6596 1.47064 4.50156 1.85218 4.50156 2.25V3H2.24219C1.84436 3 1.46283 3.15804 1.18153 3.43934C0.900223 3.72064 0.742188 4.10218 0.742188 4.5V6C0.742188 6.99456 1.13728 7.94839 1.84054 8.65165C2.5438 9.35491 3.49763 9.75 4.49219 9.75H4.86719C5.77656 12.5531 8.26094 14.6531 11.2516 14.9625V17.25H9.00156C8.80265 17.25 8.61189 17.329 8.47123 17.4697C8.33058 17.6103 8.25156 17.8011 8.25156 18C8.25156 18.1989 8.33058 18.3897 8.47123 18.5303C8.61189 18.671 8.80265 18.75 9.00156 18.75H15.0016C15.2005 18.75 15.3912 18.671 15.5319 18.5303C15.6725 18.3897 15.7516 18.1989 15.7516 18C15.7516 17.8011 15.6725 17.6103 15.5319 17.4697C15.3912 17.329 15.2005 17.25 15.0016 17.25H12.7516V14.9625C14.213 14.819 15.5997 14.2481 16.7385 13.321C17.8773 12.394 18.7177 11.1519 19.1547 9.75H19.5016C20.4961 9.75 21.45 9.35491 22.1532 8.65165C22.8565 7.94839 23.2516 6.99456 23.2516 6V4.5C23.2516 4.10218 23.0935 3.72064 22.8122 3.43934C22.5309 3.15804 22.1494 3 21.7516 3ZM4.49219 8.25C3.89545 8.25 3.32315 8.01295 2.9012 7.59099C2.47924 7.16903 2.24219 6.59674 2.24219 6V4.5H4.50156V7.41562C4.5029 7.69437 4.51855 7.97286 4.54844 8.25H4.49219ZM21.7516 6C21.7491 6.59598 21.5113 7.16684 21.0898 7.58826C20.6684 8.00969 20.0975 8.24753 19.5016 8.25H19.4641C19.4908 8.00092 19.5033 7.75051 19.5016 7.5V4.5H21.7516V6Z" fill="currentColor"/>
</svg>