<svg xmlns="http://www.w3.org/2000/svg" width="148" height="20" viewBox="0 0 148 20" fill="none">
  <path fill-rule="evenodd" clip-rule="evenodd" d="M4.42389 0C1.98064 0 0 1.98065 0 4.4239V15.5761C0 18.0194 1.98064 20 4.42389 20H15.5745C18.0178 20 19.9984 18.0194 19.9984 15.5761V4.42389C19.9984 1.98064 18.0178 0 15.5745 0H4.42389ZM15.2606 11.222C15.4229 10.6342 15.5298 10.0323 15.5797 9.42426L15.5987 9.19364L10.1208 10.6453L13.1412 11.2354C12.6453 12.5309 11.3895 13.4508 9.91871 13.4508C8.01386 13.4508 6.46967 11.9078 6.46967 10.0045C6.46967 8.10116 8.01386 6.5582 9.91871 6.5582C11.2791 6.5582 12.4556 7.34521 13.017 8.48844L15.0006 7.95734L15.0005 7.95703L16.334 7.61091L14.5708 7.11306C13.6036 5.56269 11.8817 4.53096 9.91871 4.53096C6.89336 4.53096 4.44082 6.98155 4.44082 10.0045C4.44082 13.0275 6.89336 15.478 9.91871 15.478C12.5253 15.478 14.7066 13.6589 15.2606 11.222Z" fill="#131415"/>
  <path d="M34.7739 17.8161C33.726 17.8161 32.7535 17.6116 31.8564 17.2025C30.9593 16.7934 30.1734 16.23 29.4988 15.5123C28.8241 14.7946 28.2966 13.9621 27.9162 13.0147C27.543 12.0673 27.3564 11.059 27.3564 9.9896C27.3564 8.8628 27.5574 7.82572 27.9593 6.87836C28.3612 5.93099 28.9102 5.10922 29.6064 4.41305C30.3026 3.7097 31.0956 3.16425 31.9856 2.77669C32.8827 2.38913 33.8229 2.19535 34.8062 2.19535C35.9114 2.19535 36.9772 2.45731 38.0035 2.98124C39.0298 3.49798 39.927 4.26951 40.6949 5.29583L38.6925 6.38314C38.1758 5.73721 37.5729 5.24918 36.8839 4.91903C36.2021 4.58889 35.5023 4.42382 34.7846 4.42382C33.8588 4.42382 33.0011 4.67142 32.2117 5.16664C31.4222 5.65468 30.787 6.32214 30.3062 7.16903C29.8325 8.01592 29.5956 8.96687 29.5956 10.0219C29.5956 11.0482 29.8289 11.9812 30.2954 12.8209C30.7691 13.6606 31.3971 14.3317 32.1794 14.8341C32.9688 15.3293 33.8409 15.5769 34.7954 15.5769C35.4987 15.5769 36.1662 15.4262 36.7978 15.1248C37.4294 14.8233 37.982 14.3999 38.4557 13.8544C38.9365 13.309 39.299 12.6738 39.543 11.9489H36.3456V9.96807H42.1698C42.177 11.0446 41.9904 12.0566 41.61 13.0039C41.2296 13.9513 40.6985 14.7874 40.0167 15.5123C39.342 16.23 38.5562 16.7934 37.659 17.2025C36.7619 17.6116 35.8002 17.8161 34.7739 17.8161Z" fill="#131415"/>
  <path d="M52.4581 6.7707H54.6973V17.5362H52.4473L52.3612 15.9752C52.0454 16.5279 51.6184 16.9728 51.0801 17.3102C50.549 17.6475 49.9138 17.8161 49.1746 17.8161C48.3851 17.8161 47.6423 17.669 46.9461 17.3747C46.25 17.0733 45.6399 16.6606 45.116 16.1367C44.5921 15.6056 44.1794 14.992 43.878 14.2958C43.5837 13.5996 43.4366 12.8532 43.4366 12.0566C43.4366 11.0303 43.6842 10.0937 44.1794 9.24677C44.6818 8.39989 45.3528 7.72525 46.1926 7.22285C47.0323 6.72046 47.9653 6.46927 48.9916 6.46927C49.7739 6.46927 50.4629 6.64869 51.0586 7.00754C51.6614 7.35922 52.1602 7.81137 52.555 8.364L52.4581 6.7707ZM49.1208 15.6523C49.7524 15.6523 50.305 15.498 50.7787 15.1893C51.2524 14.8736 51.6184 14.4501 51.8768 13.919C52.1423 13.3879 52.2751 12.7994 52.2751 12.1535C52.2751 11.5004 52.1423 10.9083 51.8768 10.3772C51.6112 9.84606 51.2416 9.4262 50.7679 9.11759C50.2942 8.8018 49.7452 8.6439 49.1208 8.6439C48.4892 8.6439 47.9186 8.8018 47.4091 9.11759C46.8995 9.43338 46.4904 9.85682 46.1818 10.3879C45.8804 10.919 45.7296 11.5075 45.7296 12.1535C45.7296 12.8066 45.8839 13.3987 46.1926 13.9298C46.5083 14.4609 46.921 14.8807 47.4306 15.1893C47.9473 15.498 48.5107 15.6523 49.1208 15.6523Z" fill="#131415"/>
  <path d="M56.8456 17.5362V6.7707H59.0848V7.91185C59.458 7.46687 59.9137 7.1152 60.452 6.85683C60.9975 6.59845 61.586 6.46927 62.2176 6.46927C62.9855 6.46927 63.6924 6.65587 64.3384 7.02908C64.9843 7.3951 65.4975 7.88314 65.8778 8.49319C66.251 7.88314 66.757 7.3951 67.3958 7.02908C68.0345 6.65587 68.7415 6.46927 69.5166 6.46927C70.3061 6.46927 71.0273 6.66305 71.6805 7.05061C72.3336 7.43817 72.8539 7.9585 73.2414 8.61161C73.629 9.26472 73.8228 9.98601 73.8228 10.7755V17.5362H71.5836V11.3568C71.5836 10.8831 71.4687 10.4489 71.2391 10.0542C71.0094 9.65228 70.7008 9.3329 70.3132 9.09606C69.9257 8.85204 69.495 8.73003 69.0214 8.73003C68.3108 8.73003 67.7044 8.98123 67.202 9.48362C66.7068 9.98601 66.4592 10.6104 66.4592 11.3568V17.5362H64.2199V11.3568C64.2199 10.6104 63.9687 9.98601 63.4664 9.48362C62.964 8.98123 62.3575 8.73003 61.647 8.73003C61.1805 8.73003 60.7499 8.85204 60.3551 9.09606C59.9676 9.3329 59.6589 9.65228 59.4293 10.0542C59.1996 10.4489 59.0848 10.8831 59.0848 11.3568V17.5362H56.8456Z" fill="#131415"/>
  <path d="M80.5062 17.8161C79.5157 17.8161 78.6114 17.5613 77.7933 17.0518C76.9822 16.5422 76.3327 15.8604 75.8447 15.0063C75.3638 14.1451 75.1234 13.1941 75.1234 12.1535C75.1234 11.1056 75.3638 10.1511 75.8447 9.28984C76.3327 8.42859 76.9822 7.74319 77.7933 7.23362C78.6114 6.72405 79.5157 6.46927 80.5062 6.46927C81.3315 6.46927 82.0887 6.64152 82.7777 6.98601C83.4667 7.32333 84.0552 7.79343 84.5432 8.3963C85.0313 8.99199 85.3901 9.68098 85.6198 10.4633C85.8495 11.2384 85.9176 12.0638 85.8243 12.9394H77.5241C77.6605 13.6858 77.9942 14.3102 78.5253 14.8126C79.0636 15.3149 79.7239 15.5697 80.5062 15.5769C81.0516 15.5769 81.5468 15.4405 81.9918 15.1678C82.444 14.8951 82.8136 14.5183 83.1007 14.0374L85.3722 14.5649C84.9416 15.5195 84.292 16.3018 83.4236 16.9118C82.5552 17.5147 81.5827 17.8161 80.5062 17.8161ZM77.4488 11.2276H83.5636C83.4918 10.7181 83.3088 10.2516 83.0145 9.82811C82.7274 9.40467 82.365 9.07094 81.9272 8.82692C81.4966 8.57572 81.0229 8.45012 80.5062 8.45012C79.731 8.45012 79.06 8.71926 78.493 9.25754C77.926 9.78864 77.5779 10.4453 77.4488 11.2276Z" fill="#131415"/>
  <path d="M87.6072 17.5362V6.7707H89.8464V7.91185C90.2196 7.46687 90.679 7.1152 91.2244 6.85683C91.7699 6.59845 92.3584 6.46927 92.99 6.46927C93.3919 6.46927 93.7902 6.5231 94.1849 6.63075L93.2914 8.89151C93.0115 8.78386 92.7316 8.73003 92.4517 8.73003C91.978 8.73003 91.5438 8.84845 91.1491 9.08529C90.7543 9.31496 90.4385 9.62716 90.2017 10.0219C89.9649 10.4166 89.8464 10.8544 89.8464 11.3353V17.5362H87.6072Z" fill="#131415"/>
  <path d="M95.429 17.5362V2.46449H100.779C101.555 2.46449 102.254 2.62597 102.879 2.94894C103.51 3.26473 104.009 3.71688 104.375 4.3054C104.748 4.89391 104.935 5.60085 104.935 6.42621C104.935 7.0219 104.791 7.59606 104.504 8.14869C104.224 8.70132 103.833 9.07094 103.331 9.25754C103.948 9.41543 104.425 9.72405 104.763 10.1834C105.107 10.6427 105.348 11.1594 105.484 11.7336C105.628 12.3078 105.699 12.846 105.699 13.3484C105.699 14.1594 105.506 14.8807 105.118 15.5123C104.73 16.1439 104.21 16.6391 103.557 16.998C102.911 17.3568 102.197 17.5362 101.415 17.5362H95.429ZM97.6683 8.42859H100.543C101.131 8.42859 101.637 8.24917 102.061 7.89032C102.484 7.53147 102.696 7.03984 102.696 6.41544C102.696 5.74798 102.484 5.24918 102.061 4.91903C101.637 4.58171 101.131 4.41305 100.543 4.41305H97.6683V8.42859ZM97.6683 15.5984H101.199C101.888 15.5984 102.473 15.3472 102.954 14.8448C103.442 14.3353 103.686 13.6965 103.686 12.9286C103.686 12.4836 103.575 12.0638 103.352 11.669C103.13 11.2743 102.829 10.9549 102.448 10.7109C102.075 10.4597 101.659 10.3341 101.199 10.3341H97.6683V15.5984Z" fill="#131415"/>
  <path d="M112.067 17.8161C111.076 17.8161 110.172 17.5613 109.354 17.0518C108.543 16.5422 107.893 15.8604 107.405 15.0063C106.924 14.1451 106.684 13.1941 106.684 12.1535C106.684 11.1056 106.924 10.1511 107.405 9.28984C107.893 8.42859 108.543 7.74319 109.354 7.23362C110.172 6.72405 111.076 6.46927 112.067 6.46927C113.057 6.46927 113.958 6.72405 114.769 7.23362C115.587 7.74319 116.237 8.42859 116.718 9.28984C117.206 10.1511 117.45 11.1056 117.45 12.1535C117.45 13.1941 117.206 14.1451 116.718 15.0063C116.237 15.8604 115.587 16.5422 114.769 17.0518C113.958 17.5613 113.057 17.8161 112.067 17.8161ZM112.067 15.5769C112.663 15.5769 113.197 15.419 113.671 15.1032C114.145 14.7874 114.518 14.3712 114.791 13.8544C115.07 13.3305 115.21 12.7635 115.21 12.1535C115.21 11.5291 115.067 10.9549 114.78 10.431C114.5 9.90706 114.123 9.49079 113.649 9.18218C113.176 8.86639 112.648 8.7085 112.067 8.7085C111.478 8.7085 110.944 8.86639 110.463 9.18218C109.989 9.49797 109.612 9.91783 109.332 10.4417C109.06 10.9657 108.923 11.5362 108.923 12.1535C108.923 12.7922 109.067 13.37 109.354 13.8867C109.641 14.4035 110.021 14.8161 110.495 15.1248C110.976 15.4262 111.5 15.5769 112.067 15.5769Z" fill="#131415"/>
  <path d="M123.905 17.8161C122.914 17.8161 122.01 17.5613 121.192 17.0518C120.381 16.5422 119.731 15.8604 119.243 15.0063C118.762 14.1451 118.522 13.1941 118.522 12.1535C118.522 11.1056 118.762 10.1511 119.243 9.28984C119.731 8.42859 120.381 7.74319 121.192 7.23362C122.01 6.72405 122.914 6.46927 123.905 6.46927C124.895 6.46927 125.796 6.72405 126.607 7.23362C127.425 7.74319 128.075 8.42859 128.555 9.28984C129.043 10.1511 129.287 11.1056 129.287 12.1535C129.287 13.1941 129.043 14.1451 128.555 15.0063C128.075 15.8604 127.425 16.5422 126.607 17.0518C125.796 17.5613 124.895 17.8161 123.905 17.8161ZM123.905 15.5769C124.5 15.5769 125.035 15.419 125.509 15.1032C125.982 14.7874 126.356 14.3712 126.628 13.8544C126.908 13.3305 127.048 12.7635 127.048 12.1535C127.048 11.5291 126.905 10.9549 126.618 10.431C126.338 9.90706 125.961 9.49079 125.487 9.18218C125.014 8.86639 124.486 8.7085 123.905 8.7085C123.316 8.7085 122.781 8.86639 122.301 9.18218C121.827 9.49797 121.45 9.91783 121.17 10.4417C120.898 10.9657 120.761 11.5362 120.761 12.1535C120.761 12.7922 120.905 13.37 121.192 13.8867C121.479 14.4035 121.859 14.8161 122.333 15.1248C122.814 15.4262 123.338 15.5769 123.905 15.5769Z" fill="#131415"/>
  <path d="M131.027 17.5362V6.7707H133.266V7.91185C133.639 7.46687 134.095 7.1152 134.633 6.85683C135.179 6.59845 135.767 6.46927 136.399 6.46927C137.167 6.46927 137.874 6.65587 138.52 7.02908C139.165 7.3951 139.679 7.88314 140.059 8.49319C140.432 7.88314 140.938 7.3951 141.577 7.02908C142.216 6.65587 142.923 6.46927 143.698 6.46927C144.487 6.46927 145.209 6.66305 145.862 7.05061C146.515 7.43817 147.035 7.9585 147.423 8.61161C147.81 9.26472 148.004 9.98601 148.004 10.7755V17.5362H145.765V11.3568C145.765 10.8831 145.65 10.4489 145.42 10.0542C145.191 9.65228 144.882 9.3329 144.494 9.09606C144.107 8.85204 143.676 8.73003 143.203 8.73003C142.492 8.73003 141.886 8.98123 141.383 9.48362C140.888 9.98601 140.64 10.6104 140.64 11.3568V17.5362H138.401V11.3568C138.401 10.6104 138.15 9.98601 137.648 9.48362C137.145 8.98123 136.539 8.73003 135.828 8.73003C135.362 8.73003 134.931 8.85204 134.536 9.09606C134.149 9.3329 133.84 9.65228 133.611 10.0542C133.381 10.4489 133.266 10.8831 133.266 11.3568V17.5362H131.027Z" fill="#131415"/>
</svg>