<svg xmlns="http://www.w3.org/2000/svg" width="40" height="40" viewBox="0 0 40 40" fill="none">
  <mask id="mask0_4880_3934" style="mask-type:alpha" maskUnits="userSpaceOnUse" x="0" y="0" width="40" height="40">
    <rect width="40" height="40" fill="#D9D9D9"/>
  </mask>
  <g mask="url(#mask0_4880_3934)">
    <path d="M13.3684 12.5556C11.7697 12.5556 10.5263 13.7708 10.5263 15.3333C10.5263 16.8958 11.7697 18.1111 13.3684 18.1111C14.9671 18.1111 16.2105 16.8958 16.2105 15.3333C16.2105 13.7708 14.8783 12.5556 13.3684 12.5556Z" fill="currentColor"/>
    <path d="M27.1428 7C21.9121 9.56184 18.4545 9.29682 13.0465 7C3.5603 7 -1.84771 32 5.24476 32C11.2734 32 12.0713 24.6678 20.2276 24.6678C26.8768 24.6678 30.7777 31.9117 35.2105 31.9117C42.1256 31.9117 34.9445 7 27.1428 7ZM13.5784 20.2509C11.0074 20.2509 8.96831 18.2191 8.96831 15.6572C8.96831 13.0954 11.0074 11.0636 13.5784 11.0636C16.1494 11.0636 18.1885 13.0954 18.1885 15.6572C18.1885 18.2191 16.0608 20.2509 13.5784 20.2509ZM24.1285 15.9223C23.4192 15.7456 23.0646 15.0389 23.3306 14.3322C23.5079 13.7138 24.2171 13.2721 24.9264 13.5371C25.6356 13.7138 25.9902 14.4205 25.7243 15.1272C25.547 15.7456 24.8377 16.0989 24.1285 15.9223ZM27.2314 17.8657C27.0541 18.4841 26.3449 18.9258 25.6356 18.6608C24.9264 18.4841 24.5717 17.7774 24.8377 17.0707C25.015 16.4523 25.7243 16.0106 26.4335 16.2756C27.0541 16.5406 27.4974 17.2473 27.2314 17.8657ZM27.4087 14.8622C26.6995 14.6855 26.3449 13.9788 26.6108 13.2721C26.7881 12.6537 27.4974 12.212 28.2066 12.477C28.9159 12.6537 29.2705 13.3604 29.0045 14.0671C28.7386 14.6855 28.0293 15.0389 27.4087 14.8622ZM30.6003 16.9823C30.423 17.6007 29.7138 18.0424 29.0045 17.7774C28.2953 17.6007 27.9407 16.894 28.2066 16.1873C28.3839 15.5689 29.0932 15.1272 29.8024 15.3922C30.423 15.5689 30.7777 16.2756 30.6003 16.9823Z" fill="currentColor"/>
  </g>
</svg>