<svg xmlns="http://www.w3.org/2000/svg" width="68" height="57" viewBox="0 0 68 57" fill="none">
  <g filter="url(#filter0_d_4964_7348)">
    <path d="M27.3684 21.5556C25.7697 21.5556 24.5263 22.7708 24.5263 24.3333C24.5263 25.8958 25.7697 27.1111 27.3684 27.1111C28.9671 27.1111 30.2105 25.8958 30.2105 24.3333C30.2105 22.7708 28.8783 21.5556 27.3684 21.5556Z" fill="white"/>
    <path d="M41.1428 16C35.9121 18.5618 32.4545 18.2968 27.0465 16C17.5603 16 12.1523 41 19.2448 41C25.2734 41 26.0713 33.6678 34.2276 33.6678C40.8768 33.6678 44.7777 40.9117 49.2105 40.9117C56.1256 40.9117 48.9445 16 41.1428 16ZM27.5784 29.2509C25.0074 29.2509 22.9683 27.2191 22.9683 24.6572C22.9683 22.0954 25.0074 20.0636 27.5784 20.0636C30.1494 20.0636 32.1885 22.0954 32.1885 24.6572C32.1885 27.2191 30.0608 29.2509 27.5784 29.2509ZM38.1285 24.9223C37.4192 24.7456 37.0646 24.0389 37.3306 23.3322C37.5079 22.7138 38.2171 22.2721 38.9264 22.5371C39.6356 22.7138 39.9902 23.4205 39.7243 24.1272C39.547 24.7456 38.8377 25.0989 38.1285 24.9223ZM41.2314 26.8657C41.0541 27.4841 40.3449 27.9258 39.6356 27.6608C38.9264 27.4841 38.5717 26.7774 38.8377 26.0707C39.015 25.4523 39.7243 25.0106 40.4335 25.2756C41.0541 25.5406 41.4974 26.2473 41.2314 26.8657ZM41.4087 23.8622C40.6995 23.6855 40.3449 22.9788 40.6108 22.2721C40.7881 21.6537 41.4974 21.212 42.2066 21.477C42.9159 21.6537 43.2705 22.3604 43.0045 23.0671C42.7386 23.6855 42.0293 24.0389 41.4087 23.8622ZM44.6003 25.9823C44.423 26.6007 43.7138 27.0424 43.0045 26.7774C42.2953 26.6007 41.9407 25.894 42.2066 25.1873C42.3839 24.5689 43.0932 24.1272 43.8024 24.3922C44.423 24.5689 44.7777 25.2756 44.6003 25.9823Z" fill="white"/>
  </g>
  <defs>
    <filter id="filter0_d_4964_7348" x="0" y="0" width="68" height="57" filterUnits="userSpaceOnUse" color-interpolation-filters="sRGB">
      <feFlood flood-opacity="0" result="BackgroundImageFix"/>
      <feColorMatrix in="SourceAlpha" type="matrix" values="0 0 0 0 0 0 0 0 0 0 0 0 0 0 0 0 0 0 127 0" result="hardAlpha"/>
      <feOffset/>
      <feGaussianBlur stdDeviation="8"/>
      <feComposite in2="hardAlpha" operator="out"/>
      <feColorMatrix type="matrix" values="0 0 0 0 1 0 0 0 0 1 0 0 0 0 1 0 0 0 0.6 0"/>
      <feBlend mode="normal" in2="BackgroundImageFix" result="effect1_dropShadow_4964_7348"/>
      <feBlend mode="normal" in="SourceGraphic" in2="effect1_dropShadow_4964_7348" result="shape"/>
    </filter>
  </defs>
</svg>