<svg xmlns="http://www.w3.org/2000/svg" width="40" height="40" viewBox="0 0 40 40" fill="none">
  <mask id="mask0_4880_3929" style="mask-type:alpha" maskUnits="userSpaceOnUse" x="0" y="0" width="40" height="40">
    <rect width="40" height="40" fill="#D9D9D9"/>
  </mask>
  <g mask="url(#mask0_4880_3929)">
    <path d="M33.9094 8.76059H35.875C36.4386 8.76059 36.9791 8.98652 37.3776 9.38866C37.7761 9.7908 38 10.3362 38 10.9049V21.6266C38 22.1953 37.7761 22.7408 37.3776 23.1429C36.9791 23.545 36.4386 23.771 35.875 23.771H32.0064L23.1144 10.8084L22.0806 9.33099L15.7523 12.2795C15.3433 12.47 14.8849 12.5244 14.4433 12.4349C12.5117 12.0436 11.8636 11.3617 12.4989 10.3881C13.1141 9.44571 15.7321 7.55011 20.354 4.69922C20.4751 4.62416 20.6005 4.55983 20.7291 4.50837C22.6703 3.5863 23.8856 4.91868 26.3739 6.50656C28.4311 7.82281 31.6216 7.91367 33.9083 8.76059H33.9094ZM4.45137 24.6605C4.02863 24.518 3.66102 24.2448 3.40056 23.8798C3.1401 23.5148 2.99997 23.0764 3 22.6266V11.9049C3 11.3362 3.22388 10.7908 3.6224 10.3887C4.02091 9.98652 4.56141 9.76059 5.125 9.76059H10.0252L10.0168 9.7681C9.72093 10.037 9.48645 10.3675 9.32951 10.7367C9.17256 11.1059 9.09688 11.5051 9.10769 11.9067C9.1185 12.3084 9.21554 12.7028 9.39211 13.0629C9.56869 13.423 9.82059 13.7401 10.1304 13.9924C10.8963 14.6162 11.8089 15.0296 12.7798 15.1925C13.7506 15.3554 14.7467 15.2622 15.6714 14.922L20.4516 13.1637L23.8038 18.0528C23.9068 18.1525 23.9997 18.2624 24.0811 18.3808L29.9567 26.9496C30.1302 27.2028 30.2477 27.4907 30.3012 27.7937C30.3547 28.0968 30.3429 28.4079 30.2665 28.706C30.1902 29.004 30.0512 29.282 29.859 29.521C29.6667 29.76 29.4257 29.9544 29.1524 30.0911L19.7663 34.7775C19.3306 34.9952 18.8525 35.0488 18.4063 34.9577L18.7537 34.6028C19.5401 33.8 19.9811 32.7166 19.9811 31.5878C19.9811 30.459 19.5401 29.3757 18.7537 28.5729L11.9537 21.6295C11.6572 21.3267 11.3041 21.0863 10.9149 20.9223C10.5257 20.7582 10.1081 20.6737 9.68631 20.6737C9.26451 20.6737 8.8469 20.7582 8.45769 20.9223C8.06848 21.0863 7.7154 21.3267 7.41894 21.6295L4.45031 24.6605H4.45137ZM10.1132 24.7385L16.144 30.8949C16.404 31.1605 16.5908 31.4901 16.6858 31.851C16.7809 32.2118 16.7809 32.5915 16.6859 32.9524L16.382 34.1135C16.3136 34.3739 16.1831 34.6135 16.002 34.8114C15.8209 35.0093 15.5946 35.1595 15.3428 35.2491C15.091 35.3386 14.8214 35.3646 14.5573 35.325C14.2933 35.2854 14.0428 35.1812 13.8278 35.0216L6.07363 29.2662C5.82791 29.0838 5.624 28.8501 5.47576 28.5811C5.32752 28.312 5.23842 28.0139 5.21453 27.707C5.19064 27.4001 5.23251 27.0916 5.3373 26.8025C5.44209 26.5134 5.60734 26.2504 5.82181 26.0315L7.08938 24.7363C7.28701 24.5345 7.52237 24.3743 7.78181 24.265C8.04125 24.1556 8.31962 24.0993 8.60078 24.0993C8.88194 24.0993 9.16031 24.1556 9.41975 24.265C9.67919 24.3743 9.91455 24.5345 10.1122 24.7363L10.1132 24.7385Z" fill="currentColor"/>
  </g>
</svg>