<svg xmlns="http://www.w3.org/2000/svg" width="40" height="40" viewBox="0 0 40 40" fill="none">
  <mask id="mask0_4880_3931" style="mask-type:alpha" maskUnits="userSpaceOnUse" x="0" y="0" width="40" height="40">
    <rect width="40" height="40" fill="#D9D9D9"/>
  </mask>
  <g mask="url(#mask0_4880_3931)">
    <path d="M18.2592 7.90898H12.4564C12.0552 7.90898 11.7472 7.82582 11.5322 7.6595C11.3173 7.49318 11.1669 7.28208 11.0809 7.02621C10.9949 6.77033 10.952 6.48247 10.952 6.16263C10.952 5.84278 10.9806 5.54213 11.0379 5.26066C11.0666 4.9792 11.1239 4.67215 11.2099 4.33951C11.2958 4.00687 11.4176 3.72541 11.5752 3.49512C11.7328 3.26483 11.9406 3.11131 12.1985 3.03454C12.4564 2.95778 12.7716 3.02175 13.1441 3.22645C13.574 3.45674 14.0611 3.70622 14.6056 3.97489C15.15 4.24356 15.6802 4.51223 16.196 4.7809C16.7118 5.04957 17.1917 5.29265 17.6359 5.51014C18.0801 5.72764 18.4168 5.90035 18.646 6.02829C18.9326 6.20741 19.1475 6.40571 19.2908 6.6232C19.4341 6.8407 19.4914 7.0454 19.4627 7.23731C19.4341 7.42921 19.3194 7.58914 19.1188 7.71707C18.9182 7.84501 18.6317 7.90898 18.2592 7.90898ZM21.6119 7.8706H27.3717C27.7729 7.8706 28.0809 7.78744 28.2958 7.62112C28.5107 7.4548 28.6612 7.2437 28.7472 6.98783C28.8331 6.73195 28.8761 6.44409 28.8761 6.12425C28.8761 5.8044 28.8618 5.50375 28.8331 5.22228C28.7758 4.94082 28.7113 4.64017 28.6397 4.32032C28.5681 4.00048 28.4534 3.72541 28.2958 3.49512C28.1382 3.26483 27.9305 3.11131 27.6726 3.03454C27.4147 2.95778 27.0995 3.00896 26.7269 3.18807C26.2971 3.41836 25.8099 3.66784 25.2655 3.93651C24.721 4.20518 24.1837 4.47385 23.6536 4.74252C23.1235 5.01119 22.6363 5.25427 22.1922 5.47176C21.748 5.68926 21.4256 5.86197 21.225 5.98991C20.9098 6.16902 20.6806 6.36733 20.5373 6.58482C20.394 6.80232 20.3367 7.00702 20.3654 7.19893C20.394 7.39083 20.5086 7.55075 20.7092 7.67869C20.9098 7.80663 21.2107 7.8706 21.6119 7.8706ZM17.6574 10.4038H5.19216C4.27518 10.4038 3.68057 10.5381 3.40834 10.8068C3.13611 11.0754 3 11.504 3 12.0926V15.4701C3 16.1098 3.15044 16.5832 3.45133 16.8902C3.75221 17.1973 4.34682 17.3508 5.23515 17.3508H17.6574V10.4038ZM22.3426 10.4038H34.6359C35.5529 10.4038 36.1761 10.5637 36.5057 10.8835C36.8352 11.2034 37 11.6576 37 12.2461V15.5469C37 16.161 36.8496 16.6152 36.5487 16.9094C36.2478 17.2037 35.6532 17.3508 34.7649 17.3508H22.3426V10.4038ZM17.6574 19.385H4.46144V25.6796V28.1744V30.5156V32.5115V33.8932C4.46144 35.1982 4.87695 36.2089 5.70796 36.9253C6.53898 37.6418 7.82849 38 9.57649 38H17.6574V19.385ZM22.3426 19.385H35.4956V33.778C35.4669 35.083 35.0514 36.1129 34.2491 36.8677C33.4467 37.6226 32.1715 38 30.4235 38H22.3426V19.385Z" fill="currentColor"/>
  </g>
</svg>