<svg width="16" height="16" viewBox="0 0 16 16" xmlns="http://www.w3.org/2000/svg">
<g id="Frame 1430105500">
<path id="Vector" d="M14.8726 7.63216L12.5391 4.71686C12.4257 4.57595 12.2573 4.49726 12.0834 4.49726C12.0194 4.49726 11.9535 4.50824 11.8913 4.5302C11.657 4.61255 11.5014 4.83399 11.5014 5.08105V6.83059H6.83453C6.19032 6.83059 5.66873 7.35216 5.66873 7.99634C5.66873 8.64052 6.19032 9.16209 6.83453 9.16209H11.4996V10.9116C11.4996 11.1587 11.657 11.3801 11.8894 11.4625C11.9535 11.4844 12.0175 11.4954 12.0816 11.4954C12.2555 11.4954 12.4238 11.4167 12.5373 11.2758L14.8707 8.35869C15.0428 8.14824 15.0428 7.84627 14.8726 7.63216ZM9.16615 12.663H4.49194C3.85321 12.663 3.33345 12.1414 3.33345 11.4973V4.49726V4.4881C3.33345 3.84941 3.85504 3.3315 4.50109 3.3315H9.16615C9.81037 3.3315 10.3338 2.80993 10.3338 2.16575C10.3338 1.52157 9.8122 1 9.16615 1H3.33345C2.04502 1 1 2.04497 1 3.33333V12.6667C1 13.955 2.04502 15 3.33345 15H9.16615C9.81037 15 10.3338 14.4784 10.3338 13.8342C10.3338 13.1864 9.81037 12.663 9.16615 12.663Z"/>
</g>
</svg>
