<svg width="20" height="16" viewBox="0 0 20 16" xmlns="http://www.w3.org/2000/svg">
<path id="Vector" d="M0.480745 1.24081C0.0259418 1.90495 0.47448 2.72983 1.17547 3.12548L9.1481 7.62535C9.75834 7.96978 10.5043 7.96972 11.1145 7.62519L18.8975 3.23064C19.5666 2.85283 20.0142 2.08563 19.6295 1.42043C19.1392 0.572534 18.2091 0 17.1421 0H2.8579C1.86697 0 0.993422 0.492163 0.480745 1.24081ZM2.98283 6.2C1.6496 5.44772 0 6.41102 0 7.94185V13.2058C0 14.7495 1.27902 16 2.8579 16H17.1421C18.721 16 20 14.7495 20 13.2058V8.09044C20 6.55945 18.3501 5.59617 17.0169 6.34876L10.5825 9.98087C10.272 10.155 9.90056 10.1312 9.62254 9.95044C9.59882 9.93502 9.57463 9.91994 9.55022 9.90563L2.98283 6.2Z" />
</svg>
