<svg width="15" height="21" viewBox="0 0 15 21" fill="none" xmlns="http://www.w3.org/2000/svg">
<path id="Vector" d="M2.07651 0H12.9254C13.4756 0.00111166 14.003 0.242919 14.3919 0.672403C14.7808 1.10189 14.9995 1.684 15 2.2911V18.7089C14.9995 19.316 14.7808 19.8981 14.3919 20.3276C14.003 20.7571 13.4756 20.9989 12.9254 21H2.07651C1.52594 20.9994 0.998066 20.7579 0.608754 20.3283C0.219441 19.8988 0.000504494 19.3164 0 18.7089V2.2911C0.000504494 1.68363 0.219441 1.10121 0.608754 0.671662C0.998066 0.242118 1.52594 0.000556034 2.07651 0ZM1.12486 2.2911V18.7089C1.12486 18.8468 1.14947 18.9833 1.1973 19.1107C1.24512 19.2381 1.31522 19.3539 1.40359 19.4514C1.49196 19.5489 1.59687 19.6262 1.71233 19.679C1.82779 19.7317 1.95154 19.7589 2.07651 19.7589H12.9254C13.1778 19.7589 13.4198 19.6483 13.5983 19.4514C13.7768 19.2544 13.877 18.9874 13.877 18.7089V2.2911C13.877 2.01262 13.7768 1.74555 13.5983 1.54864C13.4198 1.35172 13.1778 1.2411 12.9254 1.2411H2.07651C1.82412 1.2411 1.58206 1.35172 1.40359 1.54864C1.22512 1.74555 1.12486 2.01262 1.12486 2.2911ZM5.33784 3.49125L14.4366 1.7346V19.5436L5.01523 17.4647C4.58793 17.3596 4.34907 16.8535 4.34907 16.4146V4.725C4.35424 4.4233 4.45657 4.13348 4.63774 3.90742C4.81891 3.68137 5.06708 3.53384 5.33784 3.49125ZM6.36563 12.3112C6.56514 12.3112 6.76017 12.246 6.92606 12.1237C7.09195 12.0014 7.22124 11.8276 7.2976 11.6242C7.37395 11.4208 7.39392 11.197 7.355 10.9811C7.31608 10.7652 7.22 10.5669 7.07892 10.4112C6.93785 10.2556 6.7581 10.1496 6.56242 10.1066C6.36675 10.0637 6.16392 10.0857 5.97959 10.17C5.79527 10.2542 5.63772 10.3969 5.52688 10.5799C5.41603 10.7629 5.35687 10.9781 5.35687 11.1982C5.35738 11.4931 5.46388 11.7756 5.653 11.9839C5.84212 12.1922 6.09842 12.3092 6.36563 12.3091V12.3112Z" fill="white"/>
</svg>
