<svg width="16" height="16" viewBox="0 0 16 16" xmlns="http://www.w3.org/2000/svg">
<g id="Frame 1430105498">
<path id="Vector" d="M14.5132 6.22499L13.6003 6.09178C13.3976 6.06181 13.2332 5.91861 13.1534 5.72379C12.9731 5.2792 12.7432 4.86292 12.4687 4.48328C12.3458 4.31343 12.3091 4.09197 12.3857 3.89549L12.7321 3.00465C12.839 2.73157 12.7353 2.41687 12.4895 2.27034L10.5153 1.07978C10.2695 0.931585 9.95825 0.99486 9.78429 1.22798L9.21931 1.98227C9.09323 2.15211 8.88895 2.23038 8.68466 2.20373C8.46122 2.17376 8.233 2.15711 8.00158 2.15711C7.77016 2.15711 7.54194 2.17376 7.3185 2.20373C7.11421 2.23038 6.90993 2.15211 6.78384 1.98227L6.21887 1.22798C6.0449 0.99486 5.73369 0.931585 5.48791 1.07978L3.51367 2.26867C3.26789 2.41687 3.16575 2.72991 3.27108 3.00299L3.61741 3.89383C3.69402 4.09197 3.65731 4.31177 3.53442 4.48161C3.25991 4.86126 3.02849 5.27754 2.84974 5.72212C2.76995 5.91861 2.60556 6.06181 2.40287 6.09011L1.48997 6.22332C1.20907 6.26495 1 6.51472 1 6.81111V9.19056C1 9.48528 1.20907 9.73505 1.48837 9.77668L2.40127 9.90989C2.60396 9.93986 2.76835 10.0831 2.84815 10.2779C3.02849 10.7225 3.25832 11.1387 3.53283 11.5184C3.65572 11.6882 3.69242 11.9097 3.61582 12.1062L3.26949 12.997C3.16256 13.2701 3.2663 13.5848 3.51208 13.7313L5.48631 14.9202C5.73209 15.0684 6.04331 15.0051 6.21727 14.772L6.78225 14.0177C6.90833 13.8479 7.11262 13.7696 7.3169 13.7963C7.54034 13.8262 7.76857 13.8429 7.99998 13.8429C8.2314 13.8429 8.45963 13.8262 8.68306 13.7963C8.88735 13.7696 9.09163 13.8479 9.21772 14.0177L9.7827 14.772C9.95666 15.0051 10.2679 15.0684 10.5137 14.9202L12.4879 13.7313C12.7337 13.5831 12.8358 13.2701 12.7305 12.997L12.3841 12.1062C12.3075 11.9097 12.3442 11.6882 12.4671 11.5184C12.7416 11.1387 12.9731 10.7225 13.1518 10.2779C13.2316 10.0814 13.396 9.93819 13.5987 9.90989L14.5116 9.77668C14.7925 9.73505 15 9.48528 15 9.19056V6.81111C15.0032 6.51472 14.7941 6.26495 14.5132 6.22499ZM8.00158 10.3128C6.77746 10.3128 5.78476 9.27714 5.78476 8C5.78476 6.72286 6.77746 5.68715 8.00158 5.68715C9.2257 5.68715 10.2184 6.72286 10.2184 8C10.2184 9.27714 9.2257 10.3128 8.00158 10.3128Z"/>
</g>
</svg>
