<svg width="13" height="13" viewBox="0 0 13 13" xmlns="http://www.w3.org/2000/svg">
<path id="Vector" d="M7.67826 0C10.6181 0 13 2.12933 13 4.75713C13 6.25734 12.2201 7.59198 11.0041 8.46652V10.8707L8.67227 9.42576C8.34386 9.48181 8.01136 9.51002 7.67826 9.5101C4.73878 9.5101 2.35652 7.38077 2.35652 4.75713C2.35241 2.12933 4.73878 0 7.67826 0ZM10.3374 5.43741C10.4255 5.43691 10.5127 5.41891 10.5939 5.38444C10.6752 5.34997 10.7488 5.29971 10.8108 5.23652C10.8727 5.17334 10.9216 5.09848 10.9548 5.01622C10.988 4.93396 11.0047 4.84591 11.0041 4.75713C11.0041 4.38104 10.7063 4.07685 10.3371 4.07685C9.96822 4.07685 9.6704 4.38104 9.6704 4.75713C9.67451 5.13322 9.97234 5.43741 10.3371 5.43741H10.3374ZM7.67826 5.43741C7.76642 5.43695 7.85363 5.41899 7.93489 5.38454C8.01615 5.35009 8.08987 5.29983 8.15183 5.23664C8.21378 5.17346 8.26276 5.09858 8.29596 5.01629C8.32915 4.93401 8.34591 4.84594 8.34528 4.75713C8.34528 4.38104 8.04746 4.07685 7.67826 4.07685C7.30941 4.07685 7.01159 4.38104 7.01159 4.75713C7.01095 4.84591 7.0277 4.93396 7.06088 5.01622C7.09405 5.09848 7.143 5.17334 7.20492 5.23652C7.26684 5.29971 7.34052 5.34997 7.42174 5.38444C7.50296 5.41891 7.59013 5.43691 7.67826 5.43741ZM5.01568 5.43741C5.10381 5.43691 5.19098 5.41891 5.2722 5.38444C5.35342 5.34997 5.4271 5.29971 5.48902 5.23652C5.55094 5.17334 5.59989 5.09848 5.63306 5.01622C5.66624 4.93396 5.68299 4.84591 5.68235 4.75713C5.68235 4.38104 5.38453 4.07685 5.01533 4.07685C4.64648 4.07685 4.34866 4.38104 4.34866 4.75713C4.34803 4.84591 4.36477 4.93396 4.39795 5.01622C4.43112 5.09848 4.48007 5.17334 4.54199 5.23652C4.60391 5.29971 4.67759 5.34997 4.75881 5.38444C4.84003 5.41891 4.9272 5.43691 5.01533 5.43741H5.01568ZM1.55157 4.0644L1.53064 4.40247C1.52618 4.72325 1.53064 4.69387 1.53064 4.98942C1.53064 8.10737 3.9376 10.2664 7.2799 10.2664H8.42934C7.51494 11.1749 6.45402 11.7324 4.98205 11.7324C4.66741 11.7324 4.36101 11.703 4.06353 11.6522L1.91631 13V10.7815C0.750396 9.96604 0 8.70296 0 7.28329C0 6.01571 0.599423 4.875 1.55157 4.06406V4.0644Z"/>
</svg>
