<svg width="16" height="16" viewBox="0 0 16 16" xmlns="http://www.w3.org/2000/svg">
<g id="Frame 1430105499">
<path id="Vector" d="M11.6 8C12.704 8 13.592 7.04 13.592 5.85714C13.592 4.67429 12.704 3.71429 11.6 3.71429C10.496 3.71429 9.6 4.67429 9.6 5.85714C9.6 7.04 10.496 8 11.6 8ZM5.6 7.14286C6.924 7.14286 7.992 5.99 7.992 4.57143C7.992 3.15286 6.924 2 5.6 2C4.276 2 3.2 3.15286 3.2 4.57143C3.2 5.99 4.276 7.14286 5.6 7.14286ZM11.6 9.71428C10.132 9.71428 7.2 10.5029 7.2 12.0714V13.5C7.2 13.7761 7.42386 14 7.7 14H15.5C15.7761 14 16 13.7761 16 13.5V12.0714C16 10.5029 13.068 9.71428 11.6 9.71428ZM5.6 8.85714C3.732 8.85714 0 9.86 0 11.8571V13.5C0 13.7761 0.223858 14 0.5 14H5.1C5.37614 14 5.6 13.7761 5.6 13.5V12.0714C5.6 11.5238 5.75139 10.6688 6.51781 9.86473C6.82895 9.5383 6.71518 8.9381 6.26646 8.89323C6.02675 8.86925 5.80207 8.85714 5.6 8.85714Z"/>
</g>
</svg>
