<svg width="14" height="14" viewBox="0 0 14 14" fill="none" xmlns="http://www.w3.org/2000/svg">
<path id="Vector" d="M12.6389 9.79511V12.4643C12.6389 12.6051 12.5164 12.7203 12.3667 12.7203H1.63333C1.48361 12.7203 1.36111 12.6051 1.36111 12.4643V9.79511C1.36111 9.69456 1.27361 9.61229 1.16667 9.61229H0.194444C0.0875 9.61229 0 9.69456 0 9.79511V12.9031C0 13.5082 0.523056 14 1.16667 14H12.8333C13.4769 14 14 13.5082 14 12.9031V9.79511C14 9.69456 13.9125 9.61229 13.8056 9.61229H12.8333C12.7264 9.61229 12.6389 9.69456 12.6389 9.79511ZM7.68056 10.3984V2.87445C7.68056 2.61161 7.99456 2.47584 8.18606 2.65588L11.0561 5.35438C11.3225 5.60484 11.7522 5.60484 12.0186 5.35438C12.285 5.10391 12.285 4.69988 12.0186 4.44941L7.48222 0.184192C7.47444 0.17688 7.46667 0.169567 7.45694 0.162254C7.44976 0.155501 7.44201 0.149145 7.43387 0.143586C7.43317 0.143105 7.43243 0.142624 7.43167 0.142144C7.42583 0.138487 7.42195 0.134831 7.41611 0.131174C7.40876 0.127718 7.40292 0.121689 7.39604 0.117375L7.38889 0.112892C7.385 0.111064 7.38306 0.109236 7.37917 0.107408C7.37333 0.103751 7.3675 0.100095 7.35972 0.0964382C7.35583 0.09461 7.35389 0.0927817 7.35 0.0909535C7.34564 0.0882175 7.34127 0.0854815 7.33609 0.0835114C7.33249 0.082142 7.32818 0.0808125 7.32479 0.078975C7.32163 0.07726 7.31932 0.0753129 7.31611 0.0736965C7.31185 0.0715522 7.30759 0.0698569 7.30333 0.0671867L7.29167 0.0617023C7.28583 0.059874 7.28 0.0562174 7.27611 0.0543892C7.27222 0.052561 7.26639 0.0507328 7.2625 0.0489045C7.25667 0.0470763 7.25278 0.0452483 7.24694 0.0434201L7.22944 0.0379354C7.22877 0.0376196 7.2281 0.0373038 7.22742 0.0369974C7.22016 0.0337372 7.21201 0.0329513 7.20434 0.0308288C7.20368 0.0306469 7.20301 0.0304649 7.20233 0.030283C7.1984 0.0292351 7.19452 0.027898 7.19056 0.0269662C7.18659 0.0260343 7.18272 0.0246864 7.17878 0.0236589C7.17548 0.0227994 7.17238 0.0219399 7.16908 0.0210803C7.16527 0.0200904 7.16133 0.019639 7.1575 0.0187391C7.15367 0.0178393 7.14974 0.0173549 7.14591 0.0164283C7.14072 0.0151682 7.13603 0.0141686 7.13028 0.0141686C7.12995 0.0141686 7.12962 0.0141556 7.1293 0.0141319C7.1221 0.0136104 7.11506 0.0114722 7.10792 0.0105121C7.10077 0.00955201 7.09369 0.00773382 7.08651 0.00700511C7.0856 0.0069122 7.08464 0.00685586 7.08361 0.00685586C7.07778 0.00685586 7.07 0.00502753 7.06417 0.00502753C7.06129 0.00502753 7.05842 0.0050275 7.05555 0.00480918C7.04957 0.00435471 7.04375 0.00358804 7.0378 0.00285225C7.03338 0.00230636 7.02887 0.00117978 7.02443 0.000894673C7.00365 -0.000440164 6.98415 -0.000281335 6.96306 0.00137116C6.96049 0.00137116 6.9583 0.00137113 6.95615 0.00152685C6.95031 0.00195079 6.94459 0.00297032 6.93875 0.00342779C6.93291 0.00388525 6.92701 0.00504304 6.92121 0.00581716C6.9175 0.00631173 6.91374 0.00685586 6.91056 0.00685586C6.9096 0.00685586 6.90865 0.00696578 6.90767 0.00713173C6.90055 0.00833309 6.8934 0.00955202 6.88625 0.0105121C6.88464 0.0107285 6.88303 0.0109449 6.88136 0.0112099C6.87748 0.0118286 6.87355 0.0123546 6.86972 0.0132544C6.86589 0.0141543 6.86196 0.0146386 6.85814 0.0155652C6.85294 0.0168253 6.84825 0.017825 6.8425 0.017825C6.84242 0.017825 6.84235 0.0178257 6.84227 0.0178271C6.83456 0.0179683 6.82706 0.0205359 6.81962 0.0225358C6.81289 0.0243423 6.80598 0.0257825 6.79942 0.0281212C6.79887 0.0283162 6.79833 0.0285372 6.79778 0.0287944C6.79587 0.0293936 6.79395 0.0299929 6.79197 0.0305921C6.78298 0.0333131 6.77322 0.0339383 6.76472 0.0379354L6.74722 0.0434201C6.74139 0.0452483 6.7375 0.0470763 6.73167 0.0489045C6.72778 0.0507328 6.72194 0.052561 6.71806 0.0543892C6.71222 0.0562174 6.70639 0.059874 6.7025 0.0617023L6.69083 0.0671867C6.685 0.0708431 6.67917 0.0726713 6.67333 0.0763277C6.66659 0.0794967 6.6605 0.0839254 6.65404 0.0876291C6.65105 0.0893467 6.64782 0.0910643 6.64417 0.0927818C6.64028 0.09461 6.63833 0.0964383 6.63444 0.0982665C6.62861 0.101923 6.62278 0.105579 6.615 0.109236C6.61111 0.111064 6.60917 0.112892 6.60528 0.11472C6.60262 0.116385 6.59997 0.11805 6.59731 0.119887C6.59065 0.124494 6.58538 0.131386 6.57806 0.134831C6.57489 0.136812 6.57231 0.138793 6.56967 0.140774C6.56501 0.144272 6.56048 0.147947 6.55598 0.151648C6.55521 0.152286 6.5544 0.152924 6.55356 0.153562C6.55055 0.155826 6.54729 0.158368 6.54445 0.160844C6.53985 0.164857 6.53496 0.168041 6.53051 0.172223L6.51389 0.187849L1.98139 4.44941C1.715 4.69988 1.715 5.10391 1.98139 5.35438C2.24778 5.60484 2.6775 5.60484 2.94389 5.35438L5.81394 2.65588C6.00544 2.47584 6.31944 2.61161 6.31944 2.87445V10.3984C6.31944 10.7513 6.62472 11.0383 7 11.0383C7.37528 11.0383 7.68056 10.7513 7.68056 10.3984Z" fill="white"/>
</svg>
