<svg width="18" height="20" viewBox="0 0 18 20" xmlns="http://www.w3.org/2000/svg">
<path id="Vector" d="M17.957 4.25348C17.9565 4.24424 17.9562 4.2365 17.9558 4.22726C17.9289 3.62187 17.4218 3.05284 16.8211 2.9454C16.816 2.94448 16.8111 2.94369 16.8059 2.94287C16.6602 2.91988 14.4103 2.56084 13.1295 2.11127C11.5806 1.56764 10.0469 0.413771 9.85939 0.270213C9.84652 0.260365 9.83364 0.25072 9.82022 0.241651C9.32315 -0.0942115 8.5815 -0.0777777 8.11158 0.277256C8.08614 0.296477 8.06315 0.317693 8.03981 0.339426C7.83384 0.531271 6.70102 1.52643 4.75481 2.13238C2.93831 2.85244 1.4536 2.98444 1.2007 3.00239C1.17507 3.00421 1.14987 3.00626 1.12452 3.01037C0.539872 3.1053 0.0437597 3.64152 0.030555 4.24017C0.0305058 4.2424 0.0305112 4.24252 0.0304545 4.24475C0.0286523 4.31567 -0.0494292 7.42655 0.0517139 10.1606C0.0903678 15.1085 6.02876 20 9.02959 20C11.9834 20 17.088 16.5921 17.891 10.2326C18.0808 6.61999 17.9672 4.43542 17.957 4.25348ZM13.3488 8.58171L8.24311 13.6792C8.02556 13.8964 7.65647 13.9214 7.40632 13.7252L4.74011 11.6354C4.25031 11.2515 4.19922 10.5833 4.63265 10.1361C5.06307 9.69198 5.80224 9.63324 6.30191 10.019L6.86868 10.4566C7.25579 10.7554 7.80226 10.7304 8.1605 10.3975L11.7932 7.02179C12.2362 6.61006 12.9406 6.6217 13.3731 7.02885C13.3669 7.02248 13.3652 7.01381 13.3588 7.0075L13.3948 7.04314C13.3885 7.03685 13.3795 7.03497 13.3731 7.02885C13.789 7.46002 13.7832 8.14794 13.3488 8.58171Z"/>
</svg>
