<svg width="14" height="14" viewBox="0 0 14 14" xmlns="http://www.w3.org/2000/svg">
<path id="Vector" d="M13.0665 7.22321H11.1999C10.7048 7.22321 10.23 7.42721 9.87997 7.79032C9.5299 8.15343 9.33324 8.64592 9.33324 9.15944C9.33324 9.67296 9.5299 10.1654 9.87997 10.5286C10.23 10.8917 10.7048 11.0957 11.1999 11.0957H13.0665V13.0319C13.0665 13.2886 12.9682 13.5349 12.7932 13.7164C12.6181 13.898 12.3807 14 12.1332 14H0.933324C0.685791 14 0.448396 13.898 0.273364 13.7164C0.0983321 13.5349 0 13.2886 0 13.0319V5.28699C0 5.15985 0.0241414 5.03396 0.0710453 4.91651C0.117949 4.79905 0.186697 4.69233 0.273364 4.60243C0.360031 4.51253 0.46292 4.44122 0.576156 4.39257C0.689393 4.34391 0.810758 4.31887 0.933324 4.31887H12.1332C12.2558 4.31887 12.3771 4.34391 12.4904 4.39257C12.6036 4.44122 12.7065 4.51253 12.7932 4.60243C12.8798 4.69233 12.9486 4.79905 12.9955 4.91651C13.0424 5.03396 13.0665 5.15985 13.0665 5.28699V7.22321ZM9.7999 0.968236V3.35076H1.39999L8.48765 0.083381C8.62975 0.0178948 8.78538 -0.00972435 8.9404 0.00303313C9.09541 0.0157906 9.24489 0.0685203 9.37527 0.156432C9.50564 0.244343 9.61277 0.36465 9.68693 0.506422C9.76109 0.648195 9.79992 0.80694 9.7999 0.968236ZM11.1999 8.19132H13.0665C13.1891 8.1913 13.3105 8.21633 13.4237 8.26497C13.537 8.31362 13.6399 8.38492 13.7266 8.47482C13.8133 8.56472 13.882 8.67146 13.9289 8.78892C13.9759 8.90639 14 9.03229 14 9.15944C14 9.28658 13.9759 9.41248 13.9289 9.52995C13.882 9.64742 13.8133 9.75415 13.7266 9.84405C13.6399 9.93395 13.537 10.0053 13.4237 10.0539C13.3105 10.1025 13.1891 10.1276 13.0665 10.1275H11.1999C11.0773 10.1276 10.9559 10.1025 10.8427 10.0539C10.7294 10.0053 10.6265 9.93395 10.5398 9.84405C10.4532 9.75415 10.3844 9.64742 10.3375 9.52995C10.2906 9.41248 10.2664 9.28658 10.2664 9.15944C10.2664 9.03229 10.2906 8.90639 10.3375 8.78892C10.3844 8.67146 10.4532 8.56472 10.5398 8.47482C10.6265 8.38492 10.7294 8.31362 10.8427 8.26497C10.9559 8.21633 11.0773 8.1913 11.1999 8.19132Z"/>
</svg>
