
<svg xmlns="http://www.w3.org/2000/svg" width="24" height="24" viewBox="0 0 24 24" fill="none">
  <path d="M18.5837 14.8623L18.5842 14.8621C18.8648 14.7622 19.1073 14.5774 19.2781 14.3334C19.449 14.0893 19.5396 13.7982 19.5374 13.5003L19.5374 13.4997C19.5396 13.2018 19.449 12.9107 19.2781 12.6666C19.1073 12.4226 18.8648 12.2378 18.5842 12.1379L18.5837 12.1377L13.69 10.3377L13.6696 10.3303L13.6622 10.3099L11.8622 5.41631C11.759 5.13822 11.5731 4.89837 11.3296 4.729C11.0861 4.55964 10.7965 4.46885 10.4999 4.46885C10.2033 4.46885 9.91373 4.55964 9.67021 4.729C9.4267 4.89836 9.24085 5.13817 9.13762 5.41623C9.13761 5.41626 9.1376 5.41628 9.13759 5.41631L7.33764 10.3099L7.33016 10.3303L7.30983 10.3377L2.41621 12.1377C2.13811 12.2409 1.89827 12.4268 1.7289 12.6703C1.55953 12.9138 1.46875 13.2034 1.46875 13.5C1.46875 13.7966 1.55953 14.0862 1.7289 14.3297C1.89827 14.5732 2.13811 14.7591 2.41621 14.8623L7.30983 16.6623L7.33016 16.6697L7.33764 16.6901L9.13759 21.5837L18.5837 14.8623ZM18.5837 14.8623L13.69 16.6623L13.6696 16.6697M18.5837 14.8623L13.6696 16.6697M13.6696 16.6697L13.6622 16.6901M13.6696 16.6697L13.6622 16.6901M13.6622 16.6901L11.8622 21.5837M13.6622 16.6901L11.8622 21.5837M11.8622 21.5837C11.759 21.8618 11.5731 22.1016 11.3296 22.271C11.0861 22.4404 10.7965 22.5311 10.4999 22.5311C10.2033 22.5311 9.91373 22.4404 9.67021 22.271C9.42672 22.1017 9.24087 21.8619 9.13764 21.5838L11.8622 21.5837ZM15.7968 4.5V4.45312H15.7499H14.2499C14.0634 4.45312 13.8846 4.37905 13.7527 4.24718C13.6209 4.11532 13.5468 3.93648 13.5468 3.75C13.5468 3.56352 13.6209 3.38468 13.7527 3.25282C13.8846 3.12095 14.0634 3.04688 14.2499 3.04688H15.7499H15.7968V3V1.5C15.7968 1.31352 15.8709 1.13468 16.0027 1.00282C16.1346 0.870954 16.3134 0.796875 16.4999 0.796875C16.6864 0.796875 16.8652 0.870954 16.9971 1.00282C17.1289 1.13468 17.203 1.31352 17.203 1.5V3V3.04688H17.2499H18.7499C18.9364 3.04688 19.1152 3.12095 19.2471 3.25282C19.3789 3.38468 19.453 3.56352 19.453 3.75C19.453 3.93648 19.3789 4.11532 19.2471 4.24718C19.1152 4.37905 18.9364 4.45312 18.7499 4.45312H17.2499H17.203V4.5V6C17.203 6.18648 17.1289 6.36532 16.9971 6.49718C16.8652 6.62905 16.6864 6.70312 16.4999 6.70312C16.3134 6.70312 16.1346 6.62905 16.0027 6.49718C15.8709 6.36532 15.7968 6.18648 15.7968 6V4.5ZM21.703 7.5V7.54688H21.7499H22.4999C22.6864 7.54688 22.8652 7.62095 22.9971 7.75282C23.1289 7.88468 23.203 8.06352 23.203 8.25C23.203 8.43648 23.1289 8.61532 22.9971 8.74718C22.8652 8.87905 22.6864 8.95312 22.4999 8.95312H21.7499H21.703V9V9.75C21.703 9.93648 21.6289 10.1153 21.4971 10.2472C21.3652 10.379 21.1864 10.4531 20.9999 10.4531C20.8134 10.4531 20.6346 10.379 20.5027 10.2472C20.3708 10.1153 20.2968 9.93648 20.2968 9.75V9V8.95312H20.2499H19.4999C19.3134 8.95312 19.1346 8.87905 19.0027 8.74718C18.8708 8.61532 18.7968 8.43648 18.7968 8.25C18.7968 8.06352 18.8708 7.88468 19.0027 7.75282C19.1346 7.62095 19.3134 7.54688 19.4999 7.54688H20.2499H20.2968V7.5V6.75C20.2968 6.56352 20.3708 6.38468 20.5027 6.25282C20.6346 6.12095 20.8134 6.04688 20.9999 6.04688C21.1864 6.04688 21.3652 6.12095 21.4971 6.25282C21.6289 6.38468 21.703 6.56352 21.703 6.75V7.5Z" fill="#0AC2C2" stroke="#0AC2C2" stroke-width="0.09375"/>
</svg>