<svg xmlns="http://www.w3.org/2000/svg" width="24" height="24" viewBox="0 0 24 24" fill="none">
  <path d="M5.65857 9.65135L5.62531 9.61785L5.59205 9.65135L4.2521 11.0007C4.252 11.0008 4.25189 11.0009 4.25178 11.001C4.1172 11.131 3.93741 11.2036 3.75031 11.2036C3.56322 11.2036 3.38345 11.131 3.24887 11.001C3.11696 10.8676 3.04297 10.6876 3.04297 10.5C3.04297 10.3123 3.11705 10.1321 3.24912 9.99874C3.24916 9.99869 3.2492 9.99865 3.24924 9.99861L4.59897 8.65826L4.63246 8.625L4.59897 8.59174L3.25069 7.25282C3.13945 7.11637 3.08265 6.94355 3.09129 6.76767C3.09996 6.591 3.17404 6.42388 3.29912 6.2988C3.42419 6.17373 3.59131 6.09965 3.76798 6.09097C3.94386 6.08234 4.11669 6.13914 4.25313 6.25037L5.59205 7.59865L5.62531 7.63215L5.65857 7.59865L6.99749 6.25037C7.13394 6.13914 7.30676 6.08234 7.48265 6.09097C7.65931 6.09965 7.82644 6.17373 7.95151 6.2988C8.07658 6.42388 8.15066 6.591 8.15934 6.76767C8.16798 6.94355 8.11117 7.11637 7.99994 7.25282L6.65166 8.59174L6.61816 8.625L6.65166 8.65826L8.00138 9.99861C8.00143 9.99866 8.00148 9.99871 8.00152 9.99875C8.13358 10.1322 8.20766 10.3123 8.20766 10.5C8.20766 10.6876 8.13366 10.8676 8.00175 11.001C7.86718 11.131 7.6874 11.2036 7.50031 11.2036C7.31321 11.2036 7.13343 11.131 6.99885 11.001C6.99874 11.0009 6.99863 11.0008 6.99852 11.0007L5.65857 9.65135ZM19.4017 17.5917L19.3682 17.625L19.4017 17.6583L20.7514 18.9986C20.7514 18.9987 20.7515 18.9987 20.7516 18.9988C20.8836 19.1322 20.9577 19.3123 20.9577 19.5C20.9577 19.6876 20.8837 19.8677 20.7517 20.001C20.6172 20.131 20.4374 20.2036 20.2503 20.2036C20.0632 20.2036 19.8834 20.131 19.7489 20.001C19.7488 20.0009 19.7486 20.0008 19.7485 20.0007L18.4086 18.6513L18.3753 18.6179L18.3421 18.6513L17.0021 20.0007C17.002 20.0008 17.0019 20.0009 17.0018 20.001C16.8672 20.131 16.6874 20.2036 16.5003 20.2036C16.3132 20.2036 16.1335 20.131 15.9989 20.001C15.867 19.8676 15.793 19.6876 15.793 19.5C15.793 19.3123 15.867 19.1322 15.9991 18.9988C15.9991 18.9987 15.9992 18.9987 15.9992 18.9986L17.349 17.6583L17.3825 17.625L17.349 17.5917L16.0007 16.2528C15.8895 16.1164 15.8326 15.9436 15.8413 15.7677C15.85 15.591 15.924 15.4239 16.0491 15.2988C16.1742 15.1737 16.3413 15.0997 16.518 15.091C16.6939 15.0823 16.8667 15.1391 17.0031 15.2504L18.3421 16.5987L18.3753 16.6321L18.4086 16.5987L19.7475 15.2504C19.8839 15.1391 20.0568 15.0823 20.2326 15.091C20.4093 15.0997 20.5764 15.1737 20.7015 15.2988C20.8266 15.4239 20.9007 15.591 20.9093 15.7677C20.918 15.9436 20.8612 16.1164 20.7499 16.2528L19.4017 17.5917ZM14.5273 4.53384L14.7515 4.74868C14.7516 4.74881 14.7517 4.74895 14.7519 4.74908C16.448 6.45472 17.078 8.48148 16.502 10.5625C15.9252 12.6463 14.1483 14.4414 12.1703 14.935L11.9978 14.9531C11.8408 14.9532 11.6882 14.9006 11.5645 14.8039C11.4402 14.7067 11.3522 14.5705 11.3147 14.4172C11.2721 14.2354 11.3027 14.0442 11.3997 13.8847C11.4968 13.7251 11.6526 13.61 11.8337 13.5642C13.3141 13.194 14.7039 11.774 15.1486 10.1939L15.1487 10.1934C15.4429 9.10191 15.4503 7.44325 13.7494 5.75152C13.7493 5.7514 13.7491 5.75127 13.749 5.75114L13.5342 5.52694L13.4534 5.44271V5.55937V7.5C13.4534 7.68648 13.3794 7.86532 13.2475 7.99718C13.1156 8.12905 12.9368 8.20312 12.7503 8.20312C12.5638 8.20312 12.385 8.12905 12.2531 7.99718C12.1213 7.86532 12.0472 7.68648 12.0472 7.5V3.75C12.0472 3.56352 12.1213 3.38468 12.2531 3.25282C12.385 3.12095 12.5638 3.04688 12.7503 3.04688H16.5003C16.6868 3.04688 16.8656 3.12095 16.9975 3.25282C17.1294 3.38468 17.2034 3.56352 17.2034 3.75C17.2034 3.93648 17.1294 4.11532 16.9975 4.24718C16.8656 4.37905 16.6868 4.45312 16.5003 4.45312H14.5597H14.443L14.5273 4.53384ZM9.70344 17.625C9.70344 18.2832 9.50825 18.9267 9.14255 19.474C8.77685 20.0213 8.25707 20.4479 7.64893 20.6998C7.0408 20.9517 6.37162 21.0176 5.72603 20.8892C5.08043 20.7608 4.48742 20.4438 4.02197 19.9783C3.55653 19.5129 3.23955 18.9199 3.11114 18.2743C2.98272 17.6287 3.04863 16.9595 3.30053 16.3514C3.55242 15.7432 3.979 15.2235 4.52631 14.8578C5.07361 14.4921 5.71707 14.2969 6.37531 14.2969C7.25799 14.2969 8.10451 14.6475 8.72865 15.2717C9.3528 15.8958 9.70344 16.7423 9.70344 17.625Z" fill="#0AC2C2" stroke="#0AC2C2" stroke-width="0.09375"/>
</svg>