<svg xmlns="http://www.w3.org/2000/svg" width="24" height="24" viewBox="0 0 24 24" fill="none">
  <path d="M20.2033 9.74861V9.74877C20.2058 10.9913 19.925 12.218 19.3823 13.3358C18.8396 14.4534 18.0494 15.4326 17.0716 16.199C16.8802 16.3436 16.7248 16.5304 16.6176 16.7449C16.5103 16.9595 16.454 17.1961 16.4533 17.436V17.4362V17.9987C16.4533 18.3841 16.3002 18.7537 16.0277 19.0262C15.7552 19.2987 15.3856 19.4518 15.0002 19.4518H9.00016C8.61477 19.4518 8.24516 19.2987 7.97265 19.0262C7.70013 18.7537 7.54704 18.3841 7.54704 17.9987L7.54704 17.4362L7.54704 17.436C7.54638 17.1995 7.49212 16.9662 7.38834 16.7536C7.28456 16.541 7.13396 16.3547 6.94785 16.2087L6.94774 16.2086C5.97184 15.4474 5.18127 14.4748 4.63554 13.364C4.08981 12.2531 3.80312 11.033 3.79704 9.79532L3.79704 9.79526C3.76907 5.34897 7.36744 1.64807 11.8044 1.54554L11.8045 1.54554C12.8984 1.51815 13.9867 1.71016 15.0053 2.11024C16.0238 2.51032 16.9518 3.11036 17.7347 3.87495C18.5175 4.63955 19.1393 5.55321 19.5633 6.56201C19.9873 7.57082 20.2049 8.65433 20.2033 9.74861ZM15.5678 9.93131L15.5675 9.931C15.4166 9.78147 15.2127 9.69758 15.0002 9.69758C14.7877 9.69758 14.5838 9.78147 14.4328 9.931L14.4326 9.93122L12.0002 12.3729L9.56775 9.93122L9.56791 9.93105L9.56428 9.92807C9.40956 9.80109 9.21314 9.7362 9.01323 9.74601C8.81332 9.75583 8.6242 9.83966 8.48268 9.98119C8.34115 10.1227 8.25732 10.3118 8.2475 10.5117C8.23768 10.7117 8.30257 10.9081 8.42955 11.0628L8.42937 11.0629L8.4327 11.0663L11.2033 13.8275V17.2487C11.2033 17.46 11.2872 17.6627 11.4367 17.8122C11.5861 17.9616 11.7888 18.0456 12.0002 18.0456C12.2115 18.0456 12.4142 17.9616 12.5636 17.8122C12.7131 17.6627 12.797 17.46 12.797 17.2487V13.8275L15.5676 11.0663L15.5678 11.066C15.7174 10.9151 15.8013 10.7112 15.8013 10.4987C15.8013 10.2862 15.7174 10.0823 15.5678 9.93131ZM16.4533 21.7487C16.4533 21.9352 16.3792 22.114 16.2473 22.2459C16.1155 22.3777 15.9366 22.4518 15.7502 22.4518H8.25016C8.06368 22.4518 7.88484 22.3777 7.75298 22.2459C7.62112 22.114 7.54704 21.9352 7.54704 21.7487C7.54704 21.5622 7.62112 21.3834 7.75298 21.2515C7.88484 21.1196 8.06368 21.0456 8.25016 21.0456H15.7502C15.9366 21.0456 16.1155 21.1196 16.2473 21.2515C16.3792 21.3834 16.4533 21.5622 16.4533 21.7487Z" fill="#0AC2C2" stroke="#0AC2C2" stroke-width="0.09375"/>
</svg>