<svg xmlns="http://www.w3.org/2000/svg" width="24" height="24" viewBox="0 0 24 24" fill="none">
  <path d="M10.3364 20.6371L10.3364 20.637L10.3334 20.6362L7.50232 19.9331C7.5023 19.9331 7.50229 19.9331 7.50227 19.9331C7.27995 19.877 7.07447 19.768 6.90327 19.6155L6.90288 19.6151L4.7935 17.7776L4.79341 17.7775C4.72419 17.7175 4.66747 17.6445 4.62648 17.5626C4.58549 17.4807 4.56103 17.3915 4.5545 17.3001C4.54798 17.2088 4.55951 17.117 4.58845 17.0301C4.61738 16.9432 4.66315 16.8629 4.72313 16.7937C4.78312 16.7244 4.85616 16.6677 4.93807 16.6267C5.01998 16.5857 5.10916 16.5613 5.20052 16.5547C5.29188 16.5482 5.38363 16.5598 5.47054 16.5887C5.55744 16.6176 5.63779 16.6634 5.70701 16.7234L7.82575 18.5609L7.83423 18.5682L7.84513 18.5709L10.6668 19.274C10.6669 19.274 10.667 19.274 10.667 19.2741C10.848 19.3199 11.0038 19.435 11.1008 19.5945C11.1978 19.754 11.2284 19.9451 11.1859 20.1269C11.1469 20.2794 11.0585 20.4147 10.9345 20.5117C10.8104 20.6088 10.6576 20.662 10.5001 20.663C10.4445 20.6627 10.3893 20.654 10.3364 20.6371ZM22.8828 12.0427L22.8823 12.0429L20.6979 13.1398L20.6894 13.1441L20.6833 13.1513L19.3004 14.7755H19.2565V14.8029L19.2514 14.8079L15.8018 18.2576C15.8018 18.2576 15.8017 18.2577 15.8016 18.2578C15.5245 18.5285 15.1533 18.6816 14.7659 18.6848C14.6496 18.6837 14.5339 18.6685 14.4213 18.6394L14.4208 18.6393L8.98331 17.2987L8.98274 17.2986C8.78419 17.2522 8.59839 17.1624 8.43874 17.0356L8.43845 17.0354L3.37595 13.0791L3.37654 13.0784L3.36805 13.0742L1.11828 11.9493C1.11823 11.9492 1.11819 11.9492 1.11815 11.9492C0.769925 11.7727 0.505473 11.4658 0.382297 11.0954C0.324187 10.9119 0.303089 10.7188 0.32023 10.5271C0.33738 10.3353 0.392469 10.1489 0.482297 9.97857L0.482385 9.9784L2.7886 5.56285C2.78861 5.56283 2.78862 5.56281 2.78863 5.56279C2.96523 5.22613 3.26598 4.97146 3.62715 4.85276C3.98826 4.73409 4.38138 4.76067 4.72323 4.92687C4.7233 4.9269 4.72338 4.92694 4.72346 4.92698L6.823 5.97675L6.83944 5.98497L6.85708 5.97983L11.4219 4.6488C11.422 4.64877 11.4222 4.64873 11.4223 4.64869C11.754 4.5584 12.1066 4.58405 12.4218 4.7214C12.4219 4.72145 12.422 4.7215 12.4221 4.72154L15.5152 6.1275L15.5244 6.1317H15.5346H17.0721H17.0832L17.0931 6.12672L19.2773 5.02992C19.2774 5.02991 19.2774 5.0299 19.2774 5.0299C19.6177 4.86059 20.0108 4.83137 20.3724 4.94852C20.7341 5.06566 21.0354 5.31986 21.2118 5.65658L23.518 10.0722L23.5181 10.0722C23.6082 10.2441 23.6634 10.4322 23.6806 10.6255C23.6977 10.8188 23.6765 11.0136 23.6181 11.1986C23.5584 11.3814 23.4625 11.5503 23.3363 11.6953C23.2099 11.8403 23.0557 11.9584 22.8828 12.0427ZM17.6302 14.4523L17.669 14.4136L17.6247 14.3813L14.6622 12.2251L14.6341 12.2046L14.6064 12.2255L13.8472 12.7972C13.8472 12.7973 13.8471 12.7973 13.8471 12.7973C13.2049 13.2752 12.4257 13.5333 11.6252 13.5333C10.8248 13.5333 10.0456 13.2752 9.40343 12.7974C9.40335 12.7973 9.40328 12.7973 9.4032 12.7972L8.89731 12.4131L8.89686 12.4128C8.72935 12.2887 8.59068 12.1299 8.4904 11.9471C8.39012 11.7644 8.3306 11.5621 8.31594 11.3542C8.30127 11.1462 8.3318 10.9376 8.40544 10.7426C8.47907 10.5476 8.59406 10.3708 8.7425 10.2245L8.74277 10.2242L12.4069 6.5507L12.574 6.41146L12.6313 6.36367L12.5634 6.33278L11.8415 6.00465L11.8257 5.99746L11.809 6.00233L7.24334 7.33358L7.22414 7.33918L7.21489 7.35692L4.66489 12.2507L4.64687 12.2853L4.6776 12.3093L9.30885 15.928L9.31668 15.9341L9.32633 15.9365L14.7545 17.2959L14.7802 17.3024L14.799 17.2836L17.6302 14.4523ZM19.3857 12.5092L19.4065 12.4852L19.3918 12.4569L16.8418 7.56317L16.8286 7.53795H16.8002H13.4346H13.4152L13.4014 7.55168L9.73582 11.2173L9.69783 11.2553L9.74062 11.2878L10.2469 11.6722L10.2474 11.6726C10.6467 11.9663 11.1295 12.1248 11.6252 12.1248C12.1209 12.1248 12.6037 11.9663 13.003 11.6726L13.0033 11.6723L14.2033 10.7723L14.2034 10.7722C14.3234 10.6818 14.4692 10.6321 14.6195 10.6305C14.7697 10.6289 14.9166 10.6755 15.0384 10.7635L18.6008 13.3509L18.6356 13.3762L18.6638 13.3436L19.3857 12.5092Z" fill="#0AC2C2" stroke="#0AC2C2" stroke-width="0.09375"/>
</svg>