<svg xmlns="http://www.w3.org/2000/svg" width="24" height="24" viewBox="0 0 24 24" fill="none">
  <path d="M14.9538 8.80673V8.79375V3.75V3.70312H15.0006H15.7506C15.9371 3.70312 16.116 3.62905 16.2478 3.49718C16.3797 3.36532 16.4538 3.18648 16.4538 3C16.4538 2.81352 16.3797 2.63468 16.2478 2.50282C16.116 2.37095 15.9371 2.29688 15.7506 2.29688H8.25064C8.06416 2.29688 7.88532 2.37095 7.75346 2.50282C7.6216 2.63468 7.54752 2.81352 7.54752 3C7.54752 3.18648 7.6216 3.36532 7.75346 3.49718C7.88532 3.62905 8.06416 3.70312 8.25064 3.70312H9.00064H9.04752V3.75V8.79375V8.80675L9.04082 8.81789L5.27648 15.0824C5.27579 15.085 5.27502 15.0872 5.27432 15.0891C5.27258 15.0938 5.27046 15.098 5.26939 15.1001V15.1067L5.2627 15.1179L3.07839 18.7553C3.07838 18.7553 3.07836 18.7553 3.07835 18.7554C2.94689 18.9756 2.87609 19.2268 2.87314 19.4833C2.8702 19.7399 2.93523 19.9926 3.06162 20.2159C3.18802 20.4392 3.37127 20.625 3.59276 20.7545C3.81425 20.884 4.06607 20.9525 4.32263 20.9531H19.6787C19.9352 20.9525 20.187 20.884 20.4085 20.7545C20.63 20.625 20.8133 20.4392 20.9397 20.2159C21.0661 19.9926 21.1311 19.7399 21.1281 19.4833C21.1252 19.2268 21.0544 18.9757 20.923 18.7554L14.9538 8.80673ZM14.9538 8.80673L14.9605 8.81787L20.9229 18.7553L14.9538 8.80673ZM10.2449 9.53822L10.2448 9.53841L7.58231 13.9822L7.53321 14.0641L7.62807 14.0528C9.26436 13.8576 10.9792 14.4526 12.3171 15.1169C14.3938 16.1599 16.1276 16.3554 17.3761 15.6787L17.4191 15.6554L17.394 15.6134L13.7565 9.53842L13.7564 9.53822C13.6203 9.31363 13.5481 9.05621 13.5475 8.79364V3.75V3.70312H13.5006H10.5006H10.4538V3.75V8.79364C10.4532 9.05621 10.3809 9.31363 10.2449 9.53822Z" fill="#0AC2C2" stroke="#0AC2C2" stroke-width="0.09375"/>
</svg>