<svg xmlns="http://www.w3.org/2000/svg" width="24" height="24" viewBox="0 0 24 24" fill="none">
  <path d="M16.1254 4.47266L7.87536 4.50078C6.55197 4.49874 5.27038 4.96416 4.25667 5.81491C3.24297 6.66567 2.5623 7.8471 2.33474 9.15078M16.1254 4.47266L16.1253 4.51953M16.1254 4.47266L16.1255 4.51953L16.1253 4.51953M16.1254 4.47266C17.4426 4.4735 18.7178 4.93659 19.7286 5.78121C20.7394 6.62583 21.4217 7.79841 21.6566 9.09453C21.662 9.09992 21.6643 9.10221 21.6653 9.10497C21.666 9.10701 21.666 9.1093 21.666 9.11328L2.33474 9.16953V9.15078M16.1253 4.51953L7.87552 4.54766L7.87529 4.54766C6.56294 4.54564 5.29205 5.00716 4.28681 5.85082C3.2826 6.6936 2.60797 7.86363 2.38161 9.15485M16.1253 4.51953C17.4316 4.52036 18.6961 4.9796 19.6985 5.81718C20.7009 6.65477 21.3775 7.81757 21.6105 9.10289L21.6131 9.11731L21.6204 9.12465L23.1481 17.044L23.1554 17.082H23.1638C23.3019 17.9386 23.101 18.816 22.6027 19.5276C22.0969 20.25 21.3257 20.7428 20.4577 20.8984L20.4572 20.8985C20.2654 20.9352 20.0706 20.9538 19.8753 20.9539C18.995 20.9536 18.1507 20.6046 17.5272 19.9832L17.4813 19.9373L13.6759 15.6914L13.6618 15.6757L13.6407 15.6758L10.3688 15.6945L10.3482 15.6946L10.3343 15.71L6.51872 19.9287L6.51866 19.9287L6.51689 19.9309L6.4811 19.9756C5.85313 20.5947 5.0072 20.9427 4.12529 20.9445C3.93323 20.9448 3.74161 20.9263 3.55318 20.8892L3.55213 20.889C3.12124 20.8142 2.70937 20.655 2.34021 20.4205C1.97104 20.1861 1.65186 19.8809 1.40101 19.5227C1.15016 19.1645 0.972587 18.7602 0.878498 18.3331C0.784434 17.9061 0.775665 17.4648 0.852693 17.0344C0.852714 17.0343 0.852734 17.0342 0.852755 17.034L2.38075 9.17848L2.38161 9.17865V9.16953V9.15485M2.38161 9.15485V9.15078H2.33474M2.38161 9.15485C2.38138 9.15618 2.38115 9.15751 2.38092 9.15884L2.33474 9.15078M20.2116 19.5188L20.2117 19.5188C20.71 19.4296 21.1529 19.1475 21.4444 18.7337C21.7358 18.3199 21.8523 17.8078 21.7685 17.3086L21.7683 17.3075L20.9526 13.07L20.93 12.9526L20.8668 13.0541C20.3655 13.8597 19.667 14.5242 18.8373 14.9845C18.0077 15.4449 17.0743 15.6861 16.1254 15.6852H16.1254H15.6472H15.5419L15.6124 15.7634L18.528 18.9978L18.528 18.9979L18.5302 19C18.7493 19.2135 19.016 19.3718 19.3083 19.462C19.6007 19.5522 19.9103 19.5717 20.2116 19.5188ZM9.04724 11.6258V10.9227H9.75036C9.96171 10.9227 10.1644 10.8387 10.3138 10.6893C10.4633 10.5398 10.5472 10.3371 10.5472 10.1258C10.5472 9.91444 10.4633 9.71175 10.3138 9.56231C10.1644 9.41286 9.96171 9.32891 9.75036 9.32891H9.04724V8.62578C9.04724 8.41444 8.96328 8.21175 8.81384 8.06231C8.6644 7.91286 8.46171 7.82891 8.25036 7.82891C8.03902 7.82891 7.83633 7.91286 7.68689 8.06231C7.53745 8.21175 7.45349 8.41444 7.45349 8.62578V9.32891H6.75036C6.53902 9.32891 6.33633 9.41286 6.18689 9.56231C6.03745 9.71175 5.95349 9.91444 5.95349 10.1258C5.95349 10.3371 6.03745 10.5398 6.18689 10.6893C6.33633 10.8387 6.53902 10.9227 6.75036 10.9227H7.45349V11.6258C7.45349 11.8371 7.53745 12.0398 7.68689 12.1893C7.83633 12.3387 8.03902 12.4227 8.25036 12.4227C8.46171 12.4227 8.6644 12.3387 8.81384 12.1893C8.96328 12.0398 9.04724 11.8371 9.04724 11.6258ZM13.6869 9.56231C13.5374 9.71175 13.4535 9.91444 13.4535 10.1258C13.4535 10.3371 13.5374 10.5398 13.6869 10.6893C13.8363 10.8387 14.039 10.9227 14.2504 10.9227H17.2504C17.4617 10.9227 17.6644 10.8387 17.8138 10.6893C17.9633 10.5398 18.0472 10.3371 18.0472 10.1258C18.0472 9.91444 17.9633 9.71175 17.8138 9.56231C17.6644 9.41286 17.4617 9.32891 17.2504 9.32891H14.2504C14.039 9.32891 13.8363 9.41286 13.6869 9.56231Z" fill="#0AC2C2" stroke="#0AC2C2" stroke-width="0.09375"/>
</svg>