<svg xmlns="http://www.w3.org/2000/svg" width="24" height="24" viewBox="0 0 24 24" fill="none">
  <path d="M19.8826 10.5548L19.8936 10.4926C20.1186 9.22086 20.0355 7.91368 19.6513 6.68062C19.5421 6.33895 19.3095 6.05019 18.999 5.87059C18.6885 5.691 18.3222 5.63343 17.9716 5.70911C17.1058 5.90088 16.2799 6.24136 15.5304 6.71542L15.4857 6.7437L15.463 6.6959C14.8651 5.43644 13.9766 4.33699 12.8707 3.48808C12.6199 3.29812 12.3138 3.19531 11.9991 3.19531C11.6845 3.19531 11.3784 3.29812 11.1275 3.48808C10.0216 4.33699 9.13312 5.43644 8.53522 6.6959L8.51253 6.7437L8.46782 6.71542C7.71839 6.24136 6.89243 5.90087 6.02664 5.7091C5.676 5.63343 5.30975 5.691 4.99924 5.87059C4.68876 6.05017 4.45623 6.33889 4.34696 6.68051C3.96272 7.9136 3.87963 9.22082 4.10466 10.4926L4.11565 10.5548L4.05299 10.5474C3.18379 10.4444 2.30309 10.5012 1.45433 10.715C1.26666 10.7623 1.09041 10.8468 0.936062 10.9636C0.781712 11.0803 0.652411 11.2269 0.555845 11.3946C0.459279 11.5624 0.397419 11.7478 0.373943 11.9399C0.350467 12.132 0.365853 12.3268 0.419187 12.5129L0.419294 12.5133C0.744712 13.6848 1.75057 15.933 4.81316 17.6977C7.86125 19.4541 10.5203 19.454 11.9674 19.4539H11.9898H12.0085C13.4504 19.4539 16.14 19.4538 19.1851 17.6977C22.229 15.9423 23.2536 13.6847 23.579 12.5133L23.579 12.513C23.6317 12.3271 23.6468 12.1326 23.6234 11.9407C23.6001 11.749 23.5387 11.5638 23.4429 11.396L19.8826 10.5548ZM19.8826 10.5548L19.9453 10.5474M19.8826 10.5548L19.9453 10.5474M19.9453 10.5474C20.8145 10.4444 21.6952 10.5012 22.5439 10.715C22.7318 10.7624 22.9082 10.8471 23.0626 10.9641C23.217 11.0811 23.3463 11.2279 23.4428 11.3959L19.9453 10.5474ZM12.0273 4.6133L11.9991 4.59221L11.971 4.6133C11.0635 5.29391 8.95225 7.29387 8.95225 11.2508C8.95225 15.2077 11.0635 17.2077 11.971 17.8883L11.9991 17.9094L12.0273 17.8883C12.9347 17.2077 15.046 15.2077 15.046 11.2508C15.046 7.29387 12.9347 5.29391 12.0273 4.6133ZM1.79679 12.0773L1.74985 12.0894L1.76353 12.1359C2.04764 13.1019 2.89807 14.9594 5.51617 16.4757C6.4437 17.0155 7.44155 17.4241 8.48127 17.69L8.52216 17.6079C7.27359 16.609 6.22193 15.3863 5.42095 14.0023L5.42075 14.002C5.05551 13.383 4.75222 12.7295 4.51526 12.051L4.50619 12.025L4.47913 12.0203C3.30016 11.8128 2.38401 11.9257 1.79679 12.0773ZM15.4761 17.6079L15.517 17.69C16.5567 17.4241 17.5546 17.0155 18.4821 16.4757C21.1001 14.9595 21.9508 13.1018 22.2255 12.126L22.2388 12.0786L22.1908 12.0676C21.3129 11.8668 20.4029 11.8507 19.5184 12.0204L19.4919 12.0255L19.483 12.051C19.246 12.7295 18.9427 13.383 18.5775 14.002L18.5773 14.0023C17.7763 15.3863 16.7247 16.609 15.4761 17.6079Z" fill="#0AC2C2" stroke="#0AC2C2" stroke-width="0.09375"/>
</svg>