<svg xmlns="http://www.w3.org/2000/svg" width="24" height="24" viewBox="0 0 24 24" fill="none">
  <path d="M9 17.9531H8.95312V18V19.5V19.5469H9H10.5C10.6865 19.5469 10.8653 19.621 10.9972 19.7528C11.129 19.8847 11.2031 20.0635 11.2031 20.25C11.2031 20.4365 11.129 20.6153 10.9972 20.7472C10.8653 20.879 10.6865 20.9531 10.5 20.9531H6C5.81352 20.9531 5.63468 20.879 5.50282 20.7472C5.37095 20.6153 5.29688 20.4365 5.29688 20.25C5.29688 20.0635 5.37095 19.8847 5.50282 19.7528C5.63468 19.621 5.81352 19.5469 6 19.5469H7.5H7.54688V19.5V18V17.9531H7.5H3.00019C2.41658 17.9507 1.85756 17.7178 1.44488 17.3051C1.03222 16.8925 0.799317 16.3335 0.796875 15.7499V9.0001C0.799317 8.41652 1.03222 7.85754 1.44488 7.44488C1.85753 7.03223 2.41651 6.79932 3.00008 6.79688H10.5C10.6865 6.79688 10.8653 6.87095 10.9972 7.00282C11.129 7.13468 11.2031 7.31352 11.2031 7.5V17.25C11.2031 17.4365 11.129 17.6153 10.9972 17.7472C10.8653 17.879 10.6865 17.9531 10.5 17.9531H9ZM23.2031 4.5V19.5C23.2031 19.8854 23.05 20.255 22.7775 20.5275C22.505 20.8 22.1354 20.9531 21.75 20.9531H14.25C13.8646 20.9531 13.495 20.8 13.2225 20.5275C12.95 20.255 12.7969 19.8854 12.7969 19.5V4.5C12.7969 4.11461 12.95 3.745 13.2225 3.47249C13.495 3.19997 13.8646 3.04688 14.25 3.04688H21.75C22.1354 3.04688 22.505 3.19997 22.7775 3.47249C23.05 3.745 23.2031 4.11461 23.2031 4.5ZM19.1719 16.875C19.1719 16.6432 19.1031 16.4167 18.9744 16.2239C18.8456 16.0312 18.6626 15.881 18.4485 15.7923C18.2343 15.7036 17.9987 15.6804 17.7714 15.7256C17.5441 15.7709 17.3352 15.8825 17.1714 16.0464C17.0075 16.2102 16.8959 16.4191 16.8506 16.6464C16.8054 16.8737 16.8286 17.1093 16.9173 17.3235C17.006 17.5376 17.1562 17.7206 17.3489 17.8494C17.5417 17.9781 17.7682 18.0469 18 18.0469C18.3108 18.0469 18.6089 17.9234 18.8286 17.7036C19.0484 17.4839 19.1719 17.1858 19.1719 16.875ZM21.0469 9.75C21.0469 9.53866 20.9629 9.33597 20.8135 9.18652C20.664 9.03708 20.4613 8.95312 20.25 8.95312H15.75C15.5387 8.95312 15.336 9.03708 15.1865 9.18652C15.0371 9.33597 14.9531 9.53866 14.9531 9.75C14.9531 9.96134 15.0371 10.164 15.1865 10.3135C15.336 10.4629 15.5387 10.5469 15.75 10.5469H20.25C20.4613 10.5469 20.664 10.4629 20.8135 10.3135C20.9629 10.164 21.0469 9.96134 21.0469 9.75ZM21.0469 6.75C21.0469 6.53866 20.9629 6.33597 20.8135 6.18652C20.664 6.03708 20.4613 5.95312 20.25 5.95312H15.75C15.5387 5.95312 15.336 6.03708 15.1865 6.18652C15.0371 6.33597 14.9531 6.53866 14.9531 6.75C14.9531 6.96134 15.0371 7.16403 15.1865 7.31348C15.336 7.46292 15.5387 7.54688 15.75 7.54688H20.25C20.4613 7.54688 20.664 7.46292 20.8135 7.31348C20.9629 7.16403 21.0469 6.96134 21.0469 6.75Z" fill="#0AC2C2" stroke="#0AC2C2" stroke-width="0.09375"/>
</svg>