<svg xmlns="http://www.w3.org/2000/svg" width="24" height="24" viewBox="0 0 24 24" fill="none">
  <path d="M16.5875 14.6484L16.5876 14.6485L16.5891 14.6453C16.6759 14.4644 16.6912 14.2575 16.6321 14.0658C16.573 13.8742 16.4438 13.7118 16.2703 13.6112C16.0968 13.5106 15.8917 13.4792 15.696 13.5232C15.5003 13.5671 15.3284 13.6833 15.2145 13.8484L15.2144 13.8483L15.2126 13.8515C14.8864 14.4147 14.4179 14.8822 13.854 15.2072C13.2902 15.5322 12.6508 15.7033 12 15.7033C11.3492 15.7033 10.7098 15.5322 10.146 15.2072C9.58264 14.8825 9.11448 14.4155 8.78834 13.8531C8.74086 13.7547 8.67365 13.6671 8.59088 13.5957C8.50764 13.524 8.41046 13.4702 8.30545 13.4379C8.20044 13.4055 8.08987 13.3952 7.98068 13.4076C7.87149 13.42 7.76605 13.4548 7.67098 13.5099C7.57592 13.5651 7.49327 13.6392 7.42825 13.7278C7.36322 13.8164 7.31722 13.9175 7.29314 14.0247C7.26906 14.1319 7.26741 14.243 7.2883 14.3508C7.30907 14.4581 7.35168 14.5599 7.41346 14.65C7.87829 15.4547 8.54661 16.1229 9.35136 16.5875C10.1566 17.0525 11.0701 17.2973 12 17.2973C12.9299 17.2973 13.8434 17.0525 14.6487 16.5875C15.4539 16.1225 16.1226 15.4538 16.5875 14.6484ZM6.60924 3.93215C8.2049 2.86596 10.0809 2.29688 12 2.29688C14.5719 2.30182 17.037 3.3257 18.8557 5.14433C20.6743 6.96297 21.6982 9.42815 21.7031 12.0001C21.7031 13.9192 21.134 15.7951 20.0679 17.3908C19.0017 18.9864 17.4862 20.2301 15.7132 20.9645C13.9402 21.6989 11.9892 21.8911 10.107 21.5167C8.2248 21.1423 6.49587 20.2182 5.13886 18.8611C3.78185 17.5041 2.85772 15.7752 2.48332 13.893C2.10892 12.0108 2.30108 10.0598 3.03549 8.28677C3.76989 6.51376 5.01357 4.99834 6.60924 3.93215ZM9.27606 9.15062C9.08335 9.02185 8.85678 8.95312 8.625 8.95312C8.3142 8.95312 8.01613 9.07659 7.79636 9.29636C7.57659 9.51613 7.45313 9.8142 7.45313 10.125C7.45313 10.3568 7.52186 10.5833 7.65063 10.7761C7.77939 10.9688 7.96242 11.119 8.17655 11.2077C8.39068 11.2964 8.6263 11.3196 8.85363 11.2744C9.08095 11.2291 9.28976 11.1175 9.45365 10.9536C9.61754 10.7898 9.72915 10.5809 9.77436 10.3536C9.81958 10.1263 9.79637 9.89067 9.70768 9.67654C9.61898 9.46241 9.46878 9.27939 9.27606 9.15062ZM13.875 10.9219H16.875C17.0863 10.9219 17.289 10.8379 17.4385 10.6885C17.5879 10.539 17.6719 10.3363 17.6719 10.125C17.6719 9.91366 17.5879 9.71097 17.4385 9.56152C17.289 9.41208 17.0863 9.32812 16.875 9.32812H13.875C13.6637 9.32812 13.461 9.41208 13.3115 9.56152C13.1621 9.71097 13.0781 9.91366 13.0781 10.125C13.0781 10.3363 13.1621 10.539 13.3115 10.6885C13.461 10.8379 13.6637 10.9219 13.875 10.9219Z" fill="#0AC2C2" stroke="#0AC2C2" stroke-width="0.09375"/>
</svg>