<svg xmlns="http://www.w3.org/2000/svg" width="24" height="24" viewBox="0 0 24 24" fill="none">
  <path d="M20.9678 10.7719L21.1912 10.534C21.1913 10.534 21.1914 10.5339 21.1914 10.5339C22.3744 9.24795 22.9433 8.22796 23.1586 7.42936C23.3734 6.6325 23.2366 6.05474 23.0039 5.64864L20.9678 10.7719ZM20.9678 10.7719C20.8844 10.2059 20.7531 9.64787 20.5752 9.10395M20.9678 10.7719L20.5752 9.10395M20.5752 9.10395C21.1347 8.4306 21.4935 7.85217 21.685 7.39038C21.7818 7.15721 21.8364 6.95237 21.8521 6.77913C21.8677 6.60621 21.8447 6.46144 21.7821 6.3519L21.782 6.35173C21.7038 6.21622 21.5489 6.11024 21.3416 6.03354C21.1332 5.95646 20.8659 5.90667 20.5536 5.88774V5.88773L20.5524 5.88769C19.9517 5.86663 19.3505 5.91409 18.7605 6.02915L18.6802 6.04481L18.7343 6.10617C19.5019 6.97611 20.0915 7.988 20.4698 9.08458C20.3491 9.23294 20.2211 9.37521 20.0862 9.51086L20.0849 9.51222C18.5329 11.2045 16.184 12.9924 13.4773 14.5564C10.7707 16.1205 8.0472 17.2619 5.80335 17.7575C5.80328 17.7575 5.8032 17.7575 5.80312 17.7575L5.24912 17.8737C4.48462 17.0019 3.89825 15.9886 3.52321 14.8912L3.49677 14.8139L3.44336 14.8758C3.05379 15.3274 2.7154 15.8207 2.43439 16.3468L2.43438 16.3468L2.43395 16.3477C2.29188 16.6271 2.20084 16.8848 2.1635 17.1052C2.12636 17.3245 2.14136 17.513 2.21945 17.6485C2.21947 17.6485 2.21949 17.6485 2.21951 17.6486L2.26011 17.6252M20.5752 9.10395L5.21421 17.9759L5.19696 17.9563C5.19694 17.9563 5.19692 17.9563 5.19691 17.9563L5.19683 17.9562C5.19049 17.949 5.18417 17.9418 5.17785 17.9346C3.45839 18.2301 2.48278 18.0148 2.26011 17.6252M2.26011 17.6252C2.11948 17.3814 2.19448 16.922 2.47573 16.3689L2.26011 17.6252ZM5.26795 17.9655L5.2416 17.971L5.21501 17.9766L5.26795 17.9655ZM5.26795 17.9655C5.64929 18.3909 6.06694 18.7823 6.51617 19.1353L5.26795 17.9655ZM14.2741 15.9408C16.9117 14.423 19.2401 12.6674 20.8989 10.9792C20.9331 11.3185 20.9515 11.6592 20.9539 12.0002C20.9539 13.6669 20.4887 15.3005 19.6106 16.7171C18.7326 18.1337 17.4765 19.2771 15.9839 20.0186C14.4912 20.7601 12.8212 21.0702 11.1618 20.914C9.53492 20.7609 7.98156 20.1655 6.66972 19.1933C8.96032 18.6033 11.6361 17.4588 14.2741 15.9408ZM5.28485 17.9141L5.81323 17.8033L5.28485 17.9141ZM3.04761 12C3.04761 10.3334 3.51281 8.69982 4.39084 7.28323C5.2689 5.8666 6.52495 4.72318 8.01761 3.9817C9.51027 3.24022 11.1803 2.9301 12.8396 3.08627C14.499 3.24243 16.0818 3.85868 17.4099 4.86564L17.4278 4.87922L17.4496 4.87375C19.2974 4.41064 20.5619 4.38878 21.426 4.59034C22.2882 4.79143 22.7528 5.21499 23.0038 5.64846L3.04761 12ZM5.22309 17.8791C5.21398 17.8807 5.20488 17.8823 5.19581 17.8839L5.22309 17.8791ZM5.26706 17.8941C5.26704 17.894 5.26702 17.894 5.26701 17.894L5.26706 17.8941Z" fill="#0AC2C2" stroke="#0AC2C2" stroke-width="0.09375"/>
</svg>