<svg xmlns="http://www.w3.org/2000/svg" width="24" height="24" viewBox="0 0 24 24" fill="none">
  <path d="M17.6225 4.0954L17.6224 4.0955L17.6253 4.09757C19.5126 5.44142 20.8574 7.41568 21.4169 9.66401C21.9764 11.9123 21.7137 14.2866 20.6763 16.3583C19.6389 18.4299 17.8951 20.0625 15.7596 20.9613C13.6242 21.8601 11.2378 21.9659 9.03113 21.2596C6.82451 20.5534 4.94305 19.0815 3.72635 17.1098C2.50965 15.1381 2.03786 12.7964 2.39616 10.5074C2.75445 8.21839 3.91921 6.13285 5.68021 4.62723C7.4412 3.12161 9.68242 2.2951 11.9993 2.29689L11.9994 2.29689C13.9636 2.29348 15.8815 2.89263 17.4945 4.01351L17.4942 4.01391L17.5003 4.01694L17.5704 4.05201L17.6225 4.0954ZM11.9993 14.2969H11.9995C12.6079 14.2944 13.1906 14.0516 13.6208 13.6214C14.0509 13.1913 14.2937 12.6086 14.2962 12.0002V12C14.2962 11.5457 14.1615 11.1017 13.9091 10.7239C13.6567 10.3462 13.298 10.0518 12.8783 9.87798C12.4586 9.70413 11.9968 9.65865 11.5512 9.74727C11.1057 9.8359 10.6964 10.0547 10.3752 10.3759C10.054 10.6971 9.83523 11.1064 9.7466 11.5519C9.65798 11.9975 9.70346 12.4593 9.87731 12.879C10.0512 13.2987 10.3455 13.6574 10.7233 13.9098C11.101 14.1622 11.5451 14.2969 11.9993 14.2969ZM20.2131 12.7306L20.2637 12.7395L20.2679 12.6883C20.2868 12.462 20.2962 12.2357 20.2962 12C20.2967 10.7935 20.0336 9.60139 19.5256 8.50704C19.0175 7.41269 18.2766 6.44248 17.3546 5.6642L17.3154 5.6311L17.2859 5.67313L14.6797 9.395L14.6577 9.42647L14.6842 9.45426C15.3147 10.1146 15.6776 10.9855 15.7025 11.8982L15.7035 11.9364L15.7412 11.9431L20.2131 12.7306Z" fill="#0AC2C2" stroke="#0AC2C2" stroke-width="0.09375"/>
</svg>