<svg xmlns="http://www.w3.org/2000/svg" width="24" height="24" viewBox="0 0 24 24" fill="none">
  <path d="M18.3469 11.9715L18.3269 11.999L18.3469 12.0266C19.0431 12.9851 19.6444 14.0092 20.1423 15.0842C21.1814 17.3872 21.1793 19.1977 20.1892 20.1878C19.6751 20.7019 18.9851 20.9334 18.1692 20.9334C16.4595 20.9334 14.2196 19.9002 12.0277 18.3359L12.0005 18.3164L11.9733 18.3359C9.78137 19.9002 7.5415 20.9334 5.83174 20.9334C5.01584 20.9334 4.32587 20.7019 3.81176 20.1878C2.82172 19.1977 2.81962 17.3872 3.85875 15.0842C4.35659 14.0091 4.95786 12.9851 5.65404 12.0266L5.67405 11.999L5.65404 11.9715C4.95786 11.0129 4.35659 9.98893 3.85875 8.91392C2.81964 6.61092 2.82172 4.80041 3.81171 3.81036C4.61462 3.01207 5.84048 2.89375 7.28006 3.26939C8.71854 3.64475 10.3586 4.51085 11.9733 5.6622L12.0005 5.68161L12.0277 5.6622C13.6424 4.51085 15.2824 3.64475 16.7209 3.26939C18.1605 2.89376 19.3863 3.01207 20.1892 3.81031C21.1793 4.80034 21.1814 6.61085 20.1423 8.91387C19.6444 9.98889 19.0431 11.0129 18.3469 11.9715ZM19.1964 4.80368L19.1961 4.80339C18.9772 4.58444 18.6248 4.48029 18.1692 4.48029C17.0489 4.48029 15.2767 5.1335 13.221 6.53216L13.169 6.56753L13.2178 6.60725C13.9763 7.22535 14.7062 7.86169 15.4171 8.58196C16.1288 9.30299 16.7933 10.0331 17.3922 10.7723L17.4315 10.8208L17.4671 10.7695C18.0016 10.0002 18.4672 9.18529 18.8587 8.33425L18.8589 8.33386C19.2304 7.50614 19.4504 6.76513 19.5108 6.16191C19.5711 5.56062 19.4736 5.08584 19.1964 4.80368ZM16.5468 12.0279L16.5694 11.999L16.5468 11.9702C15.889 11.1291 15.1802 10.3293 14.4242 9.57522L14.4241 9.57515C13.6652 8.82176 12.8659 8.1102 12.0297 7.44363L12.0005 7.42034L11.9713 7.44363C11.1351 8.1102 10.3358 8.82176 9.57684 9.57515L9.57676 9.57522C8.82081 10.3293 8.11195 11.1291 7.45419 11.9702L7.43161 11.999L7.45419 12.0279C8.11195 12.869 8.82081 13.6688 9.57676 14.4228L9.57684 14.4229C10.3358 15.1763 11.1351 15.8879 11.9713 16.5544L12.0005 16.5777L12.0297 16.5544C12.8659 15.8879 13.6652 15.1763 14.4241 14.4229L14.4242 14.4228C15.1802 13.6688 15.889 12.869 16.5468 12.0279ZM5.1421 8.33386L5.14228 8.33425C5.53376 9.18529 5.99942 10.0002 6.53387 10.7695L6.56949 10.8208L6.60879 10.7723C7.20788 10.0328 7.88172 9.27474 8.58341 8.5824C9.28551 7.88967 10.025 7.22504 10.7832 6.60725L10.832 6.56753L10.78 6.53216C8.72424 5.1335 6.95213 4.48029 5.83174 4.48029C5.37623 4.48029 5.0238 4.58444 4.80485 4.80339L4.80455 4.80369C4.52735 5.08584 4.42993 5.56062 4.49018 6.16191C4.55062 6.76513 4.77057 7.50614 5.1421 8.33386ZM4.80455 19.1944L4.80485 19.1947C4.99398 19.3838 5.28506 19.4891 5.65376 19.5134C6.02292 19.5378 6.47481 19.4813 6.99239 19.3416C8.02773 19.0621 9.33327 18.4476 10.7799 17.466L10.832 17.4306L10.7832 17.3908C10.0246 16.7727 9.29477 16.1364 8.58385 15.4161C7.87219 14.6951 7.20764 13.965 6.60879 13.2258L6.56949 13.1773L6.53387 13.2285C5.99942 13.9979 5.53376 14.8128 5.14228 15.6638L5.1421 15.6642C4.77057 16.4919 4.55062 17.2329 4.49018 17.8362C4.42993 18.4375 4.52735 18.9122 4.80455 19.1944ZM19.1961 19.1947L19.1964 19.1944C19.4736 18.9122 19.5711 18.4375 19.5108 17.8362C19.4504 17.2329 19.2304 16.4919 18.8589 15.6642L18.8587 15.6638C18.4672 14.8128 18.0016 13.9979 17.4671 13.2285L17.4315 13.1773L17.3922 13.2258C16.7931 13.9653 16.1193 14.7233 15.4176 15.4157C14.7155 16.1084 13.976 16.773 13.2178 17.3908L13.169 17.4305L13.221 17.4659C15.2767 18.8646 17.0489 19.5178 18.1692 19.5178C18.6248 19.5178 18.9772 19.4136 19.1961 19.1947ZM13.0786 11.999C13.0786 12.2123 13.0154 12.4207 12.8969 12.598C12.7785 12.7753 12.6101 12.9135 12.4131 12.9951C12.2161 13.0767 11.9993 13.098 11.7902 13.0564C11.581 13.0148 11.3889 12.9122 11.2381 12.7614C11.0874 12.6106 10.9847 12.4185 10.9431 12.2094C10.9015 12.0002 10.9228 11.7835 11.0044 11.5865C11.086 11.3895 11.2242 11.2211 11.4015 11.1026C11.5788 10.9841 11.7873 10.9209 12.0005 10.9209C12.2864 10.9209 12.5607 11.0345 12.7628 11.2367C12.965 11.4389 13.0786 11.7131 13.0786 11.999Z" fill="#0AC2C2" stroke="#0AC2C2" stroke-width="0.09375"/>
</svg>