<svg xmlns="http://www.w3.org/2000/svg" width="24" height="24" viewBox="0 0 24 24" fill="none">
  <path d="M18.961 18.8239C20.752 17.0037 21.7557 14.5525 21.7557 11.9989C21.7557 9.44538 20.752 6.99415 18.961 5.17393C18.9442 5.14755 18.9218 5.12516 18.8954 5.10831C18.8786 5.08193 18.8562 5.05954 18.8298 5.04268C17.0096 3.25175 14.5583 2.24805 12.0048 2.24805C9.45124 2.24805 7.00001 3.25175 5.17979 5.04268C5.15341 5.05954 5.13102 5.08193 5.11417 5.10831C5.08779 5.12516 5.0654 5.14755 5.04854 5.17393C3.25761 6.99415 2.25391 9.44538 2.25391 11.9989C2.25391 14.5525 3.25761 17.0037 5.04854 18.8239L5.11417 18.8896C5.13102 18.9159 5.15341 18.9383 5.17979 18.9552C7.00001 20.7461 9.45124 21.7498 12.0048 21.7498C14.5583 21.7498 17.0096 20.7461 18.8298 18.9552C18.8562 18.9383 18.8786 18.9159 18.8954 18.8896C18.9218 18.8727 18.9442 18.8503 18.961 18.8239ZM3.79229 12.7489H6.05167C6.18666 13.816 6.60778 14.8267 7.27042 15.6739L5.66729 17.2771C4.59547 15.994 3.94127 14.4141 3.79229 12.7489ZM5.66729 6.72081L7.27042 8.32393C6.60778 9.17116 6.18666 10.1819 6.05167 11.2489H3.79229C3.94127 9.58376 4.59547 8.00385 5.66729 6.72081ZM20.2173 11.2489H17.9579C17.8229 10.1819 17.4018 9.17116 16.7392 8.32393L18.3423 6.72081C19.4141 8.00385 20.0683 9.58376 20.2173 11.2489ZM15.6798 7.26456C14.8326 6.60192 13.8219 6.1808 12.7548 6.04581V3.78643C14.42 3.93541 15.9999 4.58961 17.2829 5.66143L15.6798 7.26456ZM11.2548 6.04581C10.1877 6.1808 9.17702 6.60192 8.32979 7.26456L6.72667 5.66143C8.00971 4.58961 9.58962 3.93541 11.2548 3.78643V6.04581ZM8.32979 16.7333C9.17702 17.3959 10.1877 17.8171 11.2548 17.9521V20.2114C9.58962 20.0625 8.00971 19.4083 6.72667 18.3364L8.32979 16.7333ZM12.7548 17.9521C13.8219 17.8171 14.8326 17.3959 15.6798 16.7333L17.2829 18.3364C15.9999 19.4083 14.42 20.0625 12.7548 20.2114V17.9521ZM16.7392 15.6739C17.4018 14.8267 17.8229 13.816 17.9579 12.7489H20.2173C20.0683 14.4141 19.4141 15.994 18.3423 17.2771L16.7392 15.6739Z" fill="#1D1D1F"/>
</svg>