<svg xmlns="http://www.w3.org/2000/svg" width="121" height="120" viewBox="0 0 121 120" fill="none">
  <path d="M117.171 61.6095C117.171 56.6418 115.761 51.776 113.106 47.5774C110.451 43.3788 106.659 40.0198 102.171 37.8908V33.4845C102.167 28.6524 100.608 23.9496 97.7245 20.0723C94.8407 16.1949 90.7852 13.349 86.1583 11.9557C81.5314 10.5623 76.5788 10.6956 72.0334 12.3358C67.4881 13.9759 63.5916 17.0358 60.9205 21.0627C58.2494 17.0358 54.3529 13.9759 49.8076 12.3358C45.2623 10.6956 40.3097 10.5623 35.6827 11.9557C31.0558 13.349 27.0003 16.1949 24.1165 20.0723C21.2327 23.9496 19.6738 28.6524 19.6705 33.4845V37.8908C15.1815 40.0193 11.3886 43.3781 8.73273 47.5767C6.07685 51.7753 4.66699 56.6414 4.66699 61.6095C4.66699 66.5777 6.07685 71.4438 8.73273 75.6424C11.3886 79.841 15.1815 83.1998 19.6705 85.3283V85.9845C19.6738 90.8167 21.2327 95.5195 24.1165 99.3968C27.0003 103.274 31.0558 106.12 35.6827 107.513C40.3097 108.907 45.2623 108.773 49.8076 107.133C54.3529 105.493 58.2494 102.433 60.9205 98.4064C63.5916 102.433 67.4881 105.493 72.0334 107.133C76.5788 108.773 81.5314 108.907 86.1583 107.513C90.7852 106.12 94.8407 103.274 97.7245 99.3968C100.608 95.5195 102.167 90.8167 102.171 85.9845V85.3283C106.655 83.1947 110.444 79.8347 113.099 75.6371C115.754 71.4396 117.165 66.5761 117.171 61.6095ZM42.1705 100.985C38.4697 100.982 34.9004 99.6122 32.1488 97.1375C29.3971 94.6627 27.6575 91.2581 27.2643 87.5783C28.4736 87.7687 29.6962 87.8628 30.9205 87.8595H34.6705C35.6651 87.8595 36.6189 87.4645 37.3222 86.7612C38.0254 86.0579 38.4205 85.1041 38.4205 84.1095C38.4205 83.115 38.0254 82.1611 37.3222 81.4579C36.6189 80.7546 35.6651 80.3595 34.6705 80.3595H30.9205C26.5017 80.352 22.2275 78.7841 18.8521 75.9324C15.4766 73.0807 13.2167 69.1285 12.4712 64.773C11.7257 60.4175 12.5424 55.9387 14.7772 52.1267C17.012 48.3147 20.5214 45.4144 24.6861 43.9377C25.4149 43.6692 26.0438 43.1837 26.488 42.5467C26.9322 41.9097 27.1704 41.1518 27.1705 40.3752V33.4845C27.1705 29.5063 28.7509 25.691 31.5639 22.8779C34.377 20.0649 38.1923 18.4845 42.1705 18.4845C46.1488 18.4845 49.9641 20.0649 52.7771 22.8779C55.5902 25.691 57.1705 29.5063 57.1705 33.4845V69.2502C53.065 65.5241 47.7147 63.4676 42.1705 63.4845C41.1759 63.4845 40.2221 63.8796 39.5189 64.5829C38.8156 65.2861 38.4205 66.24 38.4205 67.2345C38.4205 68.2291 38.8156 69.1829 39.5189 69.8862C40.2221 70.5895 41.1759 70.9845 42.1705 70.9845C46.1488 70.9845 49.9641 72.5649 52.7771 75.3779C55.5902 78.191 57.1705 82.0063 57.1705 85.9845C57.1705 89.9628 55.5902 93.7781 52.7771 96.5911C49.9641 99.4042 46.1488 100.985 42.1705 100.985ZM90.9205 80.3595H87.1705C86.1759 80.3595 85.2221 80.7546 84.5189 81.4579C83.8156 82.1611 83.4205 83.115 83.4205 84.1095C83.4205 85.1041 83.8156 86.0579 84.5189 86.7612C85.2221 87.4645 86.1759 87.8595 87.1705 87.8595H90.9205C92.1448 87.8628 93.3674 87.7687 94.5768 87.5783C94.2687 90.461 93.1319 93.1927 91.3038 95.4429C89.4758 97.693 87.0348 99.3652 84.2763 100.257C81.5178 101.149 78.5599 101.222 75.7605 100.468C72.9611 99.7144 70.4403 98.1653 68.5029 96.0086C66.5655 93.8518 65.2946 91.1799 64.844 88.316C64.3934 85.4521 64.7823 82.519 65.9638 79.8715C67.1453 77.224 69.0687 74.9757 71.5013 73.3985C73.9339 71.8213 76.7714 70.9828 79.6705 70.9845C80.6651 70.9845 81.6189 70.5895 82.3222 69.8862C83.0254 69.1829 83.4205 68.2291 83.4205 67.2345C83.4205 66.24 83.0254 65.2861 82.3222 64.5829C81.6189 63.8796 80.6651 63.4845 79.6705 63.4845C74.1263 63.4676 68.776 65.5241 64.6705 69.2502V33.4845C64.6705 29.5063 66.2509 25.691 69.0639 22.8779C71.877 20.0649 75.6923 18.4845 79.6705 18.4845C83.6488 18.4845 87.4641 20.0649 90.2771 22.8779C93.0902 25.691 94.6705 29.5063 94.6705 33.4845V40.3752C94.6706 41.1518 94.9088 41.9097 95.353 42.5467C95.7973 43.1837 96.4261 43.6692 97.1549 43.9377C101.32 45.4144 104.829 48.3147 107.064 52.1267C109.299 55.9387 110.115 60.4175 109.37 64.773C108.624 69.1285 106.364 73.0807 102.989 75.9324C99.6135 78.7841 95.3393 80.352 90.9205 80.3595ZM29.0455 59.7345C28.0509 59.7345 27.0971 59.3395 26.3939 58.6362C25.6906 57.9329 25.2955 56.9791 25.2955 55.9845C25.2955 54.99 25.6906 54.0362 26.3939 53.3329C27.0971 52.6296 28.0509 52.2345 29.0455 52.2345C31.5281 52.2222 33.9055 51.2305 35.661 49.4751C37.4165 47.7196 38.4082 45.3421 38.4205 42.8595V39.1095C38.4205 38.115 38.8156 37.1612 39.5189 36.4579C40.2221 35.7546 41.1759 35.3595 42.1705 35.3595C43.1651 35.3595 44.1189 35.7546 44.8222 36.4579C45.5254 37.1612 45.9205 38.115 45.9205 39.1095V42.8595C45.9205 47.3351 44.1426 51.6273 40.9779 54.792C37.8133 57.9566 33.521 59.7345 29.0455 59.7345ZM96.5455 55.9845C96.5455 56.9791 96.1504 57.9329 95.4472 58.6362C94.7439 59.3395 93.7901 59.7345 92.7955 59.7345C88.32 59.7345 84.0278 57.9566 80.8631 54.792C77.6984 51.6273 75.9205 47.3351 75.9205 42.8595V39.1095C75.9205 38.115 76.3156 37.1612 77.0189 36.4579C77.7221 35.7546 78.6759 35.3595 79.6705 35.3595C80.6651 35.3595 81.6189 35.7546 82.3222 36.4579C83.0254 37.1612 83.4205 38.115 83.4205 39.1095V42.8595C83.4328 45.3421 84.4245 47.7196 86.18 49.4751C87.9355 51.2305 90.3129 52.2222 92.7955 52.2345C93.7901 52.2345 94.7439 52.6296 95.4472 53.3329C96.1504 54.0362 96.5455 54.99 96.5455 55.9845Z" fill="#0AC2C2"/>
</svg>