<svg xmlns="http://www.w3.org/2000/svg" width="24" height="24" viewBox="0 0 24 24" fill="none">
  <path d="M16.4531 9V9.04688H16.5H20.25C20.4365 9.04688 20.6153 9.12095 20.7472 9.25282C20.879 9.38468 20.9531 9.56352 20.9531 9.75V14.25C20.9531 14.4365 20.879 14.6153 20.7472 14.7472C20.6153 14.879 20.4365 14.9531 20.25 14.9531H13.5H13.4531V15V18.75C13.4531 18.9365 13.379 19.1153 13.2472 19.2472C13.1153 19.379 12.9365 19.4531 12.75 19.4531H4.5H4.45312V19.5V20.25C4.45312 20.4365 4.37905 20.6153 4.24718 20.7472C4.11532 20.879 3.93648 20.9531 3.75 20.9531C3.56352 20.9531 3.38468 20.879 3.25282 20.7472C3.12095 20.6153 3.04688 20.4365 3.04688 20.25V3.75C3.04688 3.56352 3.12095 3.38468 3.25282 3.25282C3.38468 3.12095 3.56352 3.04688 3.75 3.04688C3.93648 3.04688 4.11532 3.12095 4.24718 3.25282C4.37905 3.38468 4.45312 3.56352 4.45312 3.75V4.5V4.54688H4.5H15.75C15.9365 4.54688 16.1153 4.62095 16.2472 4.75282C16.379 4.88468 16.4531 5.06352 16.4531 5.25V9ZM15.0469 6V5.95312H15H4.5H4.45312V6V9V9.04688H4.5H15H15.0469V9V6ZM12 18.0469H12.0469V18V15V14.9531H12H4.5H4.45312V15V18V18.0469H4.5H12Z" fill="#0AC2C2" stroke="#0AC2C2" stroke-width="0.09375"/>
</svg>