<svg xmlns="http://www.w3.org/2000/svg" width="14" height="13" viewBox="0 0 14 13" fill="none">
  <path d="M11.9997 3.54383C11.9604 3.58684 11.9113 3.62029 11.8573 3.63941C11.8034 3.6633 11.7445 3.67286 11.6856 3.67286H0.568997C0.176359 3.67286 -0.024868 3.19496 0.249979 2.90822L2.07575 1.02053C2.11501 0.977519 2.16409 0.944067 2.22299 0.920172C2.27697 0.896277 2.33587 0.886719 2.39476 0.886719H13.5555C13.953 0.886719 14.1494 1.3694 13.8696 1.65613L11.9997 3.54383ZM11.9997 11.9835C11.9162 12.0647 11.8034 12.1125 11.6856 12.1125H0.568997C0.176359 12.1125 -0.024868 11.6442 0.249979 11.367L2.07575 9.52232C2.11501 9.47931 2.169 9.44586 2.22299 9.42674C2.27697 9.40285 2.33587 9.39329 2.39476 9.39329H13.5555C13.953 9.39329 14.1494 9.86641 13.8696 10.1436L11.9997 11.9835ZM11.9997 5.26904C11.9162 5.18779 11.8034 5.14 11.6856 5.14H0.568997C0.176359 5.14 -0.024868 5.60834 0.249979 5.88552L2.07575 7.73021C2.11501 7.77322 2.169 7.80667 2.22299 7.82579C2.27697 7.84968 2.33587 7.85924 2.39476 7.85924H13.5555C13.953 7.85924 14.1494 7.38612 13.8696 7.10894L11.9997 5.26904Z" fill="#1D1D1F"/>
</svg>