<svg xmlns="http://www.w3.org/2000/svg" width="120" height="120" viewBox="0 0 120 120" fill="none">
  <path d="M86.5 42.25V39.625C86.5 27.8594 68.7812 19 45.25 19C21.7188 19 4 27.8594 4 39.625V58.375C4 68.1719 16.2812 75.9531 34 78.2969V80.875C34 92.6406 51.7188 101.5 75.25 101.5C98.7812 101.5 116.5 92.6406 116.5 80.875V62.125C116.5 52.4219 104.594 44.6406 86.5 42.25ZM34 70.6562V59.5469C37.7307 60.0263 41.4887 60.2612 45.25 60.25C49.0113 60.2612 52.7693 60.0263 56.5 59.5469V70.6562C52.7784 71.2362 49.0165 71.5183 45.25 71.5C41.4835 71.5183 37.7216 71.2362 34 70.6562ZM79 51.7656V58.375C79 62.3125 73.1875 66.5312 64 69.1094V58.1406C70.0469 56.6875 75.1562 54.4844 79 51.7656ZM11.5 58.375V51.7656C15.3438 54.4844 20.4531 56.6875 26.5 58.1406V69.1094C17.3125 66.5312 11.5 62.3125 11.5 58.375ZM41.5 80.875V78.9062L45.25 79C47.0938 79 48.875 78.9531 50.5938 78.8594C52.4688 79.5156 54.4375 80.0781 56.5 80.5937V91.6094C47.3125 89.0312 41.5 84.8125 41.5 80.875ZM64 93.1562V82C67.7302 82.4894 71.4879 82.7399 75.25 82.75C79.0113 82.7612 82.7693 82.5263 86.5 82.0469V93.1562C79.0422 94.2812 71.4578 94.2812 64 93.1562ZM94 91.6094V80.6406C100.047 79.1875 105.156 76.9844 109 74.2656V80.875C109 84.8125 103.188 89.0312 94 91.6094Z" fill="#0AC2C2"/>
</svg>