<svg xmlns="http://www.w3.org/2000/svg" width="42" height="43" viewBox="0 0 42 43" fill="none">
  <g clip-path="url(#clip0_2378_1344)">
    <path fill-rule="evenodd" clip-rule="evenodd" d="M23.8569 40.2866C22.925 40.4272 21.971 40.5 21 40.5C20.029 40.5 19.075 40.4272 18.1431 40.2866L16.4287 42.001C17.9003 42.3277 19.43 42.5 21 42.5C22.57 42.5 24.0997 42.3277 25.5713 42.001L23.8569 40.2866ZM14.9225 39.5072C7.4096 36.9725 2 29.868 2 21.5C2 11.0066 10.5066 2.5 21 2.5C31.4934 2.5 40 11.0066 40 21.5C40 29.868 34.5904 36.9725 27.0775 39.5072L28.6381 41.0677C36.4594 38.0125 42 30.4033 42 21.5C42 9.90202 32.598 0.5 21 0.5C9.40202 0.5 0 9.90202 0 21.5C0 30.4033 5.54061 38.0125 13.3619 41.0677L14.9225 39.5072Z" fill="white" fill-opacity="0.4"/>
    <path fill-rule="evenodd" clip-rule="evenodd" d="M21.1426 15.9719L28.3444 23.1734L28.3439 23.1738H33.1421L33.1426 23.1734L30.7435 20.7744L23.5417 13.5728L21.1426 11.1738L18.7435 13.5728L11.5417 20.7744L9.14258 23.1734L9.14301 23.1738H13.9412L13.9408 23.1734L21.1426 15.9719Z" fill="white" fill-opacity="0.4"/>
    <path fill-rule="evenodd" clip-rule="evenodd" d="M21.0205 24.807L26.1126 29.8995L26.1117 29.9004H29.5044L29.5053 29.8995L27.8089 28.203L22.7168 23.1106L21.0205 21.4141L19.3241 23.1106L14.232 28.203L12.5356 29.8995L12.5365 29.9004H15.9292L15.9284 29.8995L21.0205 24.807Z" fill="white" fill-opacity="0.4"/>
  </g>
  <defs>
    <clipPath id="clip0_2378_1344">
      <rect width="42" height="42" fill="white" transform="translate(0 0.5)"/>
    </clipPath>
  </defs>
</svg>