<svg width="60" height="60" viewBox="0 0 60 60" fill="none" xmlns="http://www.w3.org/2000/svg">
<circle cx="30" cy="29.5" r="25.75" stroke="#BC65F7" stroke-opacity="0.1" stroke-width="0.5"/>
<circle cx="30" cy="29.5" r="20.5" stroke="#BC65F7"/>
<g filter="url(#filter0_d_2607_3059)">
<circle cx="30" cy="29.5" r="15" fill="#BC65F7"/>
</g>
<path d="M31.4658 23.8C32.4898 23.8 33.2525 24.04 33.7538 24.52C34.2551 25 34.5058 25.7093 34.5058 26.648C34.5058 27.1493 34.3831 27.592 34.1378 27.976C33.8925 28.3493 33.5298 28.6427 33.0498 28.856C32.5698 29.0587 31.9778 29.16 31.2738 29.16L31.3378 28.44C31.6685 28.44 32.0471 28.488 32.4738 28.584C32.9005 28.6693 33.3111 28.8293 33.7058 29.064C34.1111 29.288 34.4418 29.608 34.6978 30.024C34.9645 30.4293 35.0978 30.952 35.0978 31.592C35.0978 32.296 34.9805 32.872 34.7458 33.32C34.5218 33.768 34.2231 34.1147 33.8498 34.36C33.4765 34.6053 33.0765 34.776 32.6498 34.872C32.2231 34.9573 31.8125 35 31.4178 35H27.4338C27.1565 35 26.9218 34.9093 26.7298 34.728C26.5485 34.536 26.4578 34.3013 26.4578 34.024V24.776C26.4578 24.4987 26.5485 24.2693 26.7298 24.088C26.9218 23.896 27.1565 23.8 27.4338 23.8H31.4658ZM31.1778 25.688H28.3298L28.5378 25.432V28.328L28.3458 28.184H31.2258C31.5351 28.184 31.8125 28.0827 32.0578 27.88C32.3031 27.6773 32.4258 27.384 32.4258 27C32.4258 26.5413 32.3085 26.2107 32.0738 26.008C31.8498 25.7947 31.5511 25.688 31.1778 25.688ZM31.3058 30.072H28.3938L28.5378 29.944V33.32L28.3778 33.16H31.4178C31.9085 33.16 32.2978 33.032 32.5858 32.776C32.8738 32.5093 33.0178 32.1147 33.0178 31.592C33.0178 31.112 32.9218 30.7653 32.7298 30.552C32.5378 30.3387 32.3085 30.2053 32.0418 30.152C31.7751 30.0987 31.5298 30.072 31.3058 30.072Z" fill="white"/>
<defs>
<filter id="filter0_d_2607_3059" x="9" y="8.5" width="42" height="42" filterUnits="userSpaceOnUse" color-interpolation-filters="sRGB">
<feFlood flood-opacity="0" result="BackgroundImageFix"/>
<feColorMatrix in="SourceAlpha" type="matrix" values="0 0 0 0 0 0 0 0 0 0 0 0 0 0 0 0 0 0 127 0" result="hardAlpha"/>
<feOffset/>
<feGaussianBlur stdDeviation="3"/>
<feComposite in2="hardAlpha" operator="out"/>
<feColorMatrix type="matrix" values="0 0 0 0 0.737255 0 0 0 0 0.396078 0 0 0 0 0.968627 0 0 0 0.38 0"/>
<feBlend mode="normal" in2="BackgroundImageFix" result="effect1_dropShadow_2607_3059"/>
<feBlend mode="normal" in="SourceGraphic" in2="effect1_dropShadow_2607_3059" result="shape"/>
</filter>
</defs>
</svg>
