<svg width="60" height="60" viewBox="0 0 60 60" fill="none" xmlns="http://www.w3.org/2000/svg">
<circle cx="30" cy="29.5" r="20.5" stroke="#6EE1F0"/>
<g filter="url(#filter0_d_2607_3066)">
<circle cx="30" cy="29.5" r="15" fill="#6EE1F0"/>
</g>
<path d="M34.5244 24.344C34.8017 24.4827 34.9617 24.7013 35.0044 25C35.0577 25.2987 34.983 25.5707 34.7804 25.816C34.6417 26.008 34.4604 26.1147 34.2364 26.136C34.023 26.1573 33.8044 26.1147 33.5804 26.008C33.3244 25.8907 33.0524 25.8 32.7644 25.736C32.487 25.672 32.1937 25.64 31.8844 25.64C31.3084 25.64 30.791 25.7307 30.3324 25.912C29.8844 26.0933 29.5004 26.3547 29.1804 26.696C28.8604 27.0267 28.615 27.4213 28.4444 27.88C28.2844 28.3387 28.2044 28.8453 28.2044 29.4C28.2044 30.0507 28.295 30.616 28.4764 31.096C28.6684 31.576 28.9297 31.976 29.2604 32.296C29.591 32.616 29.9804 32.856 30.4284 33.016C30.8764 33.1653 31.3617 33.24 31.8844 33.24C32.1724 33.24 32.4604 33.2133 32.7484 33.16C33.0364 33.1067 33.3137 33.0107 33.5804 32.872C33.8044 32.7653 34.023 32.728 34.2364 32.76C34.4604 32.792 34.647 32.904 34.7964 33.096C35.0097 33.3627 35.0844 33.64 35.0204 33.928C34.967 34.2053 34.807 34.408 34.5404 34.536C34.263 34.6747 33.975 34.792 33.6764 34.888C33.3884 34.9733 33.095 35.0373 32.7964 35.08C32.4977 35.1333 32.1937 35.16 31.8844 35.16C31.1164 35.16 30.3857 35.0373 29.6924 34.792C29.0097 34.5467 28.3964 34.184 27.8524 33.704C27.319 33.224 26.8977 32.6267 26.5884 31.912C26.279 31.1867 26.1244 30.3493 26.1244 29.4C26.1244 28.5787 26.263 27.8213 26.5404 27.128C26.8284 26.4347 27.2284 25.8373 27.7404 25.336C28.263 24.824 28.8764 24.4293 29.5804 24.152C30.2844 23.864 31.0524 23.72 31.8844 23.72C32.3537 23.72 32.8124 23.7733 33.2604 23.88C33.7084 23.9867 34.1297 24.1413 34.5244 24.344Z" fill="#272B40"/>
<defs>
<filter id="filter0_d_2607_3066" x="9" y="8.5" width="42" height="42" filterUnits="userSpaceOnUse" color-interpolation-filters="sRGB">
<feFlood flood-opacity="0" result="BackgroundImageFix"/>
<feColorMatrix in="SourceAlpha" type="matrix" values="0 0 0 0 0 0 0 0 0 0 0 0 0 0 0 0 0 0 127 0" result="hardAlpha"/>
<feOffset/>
<feGaussianBlur stdDeviation="3"/>
<feComposite in2="hardAlpha" operator="out"/>
<feColorMatrix type="matrix" values="0 0 0 0 0.431373 0 0 0 0 0.882353 0 0 0 0 0.941176 0 0 0 0.38 0"/>
<feBlend mode="normal" in2="BackgroundImageFix" result="effect1_dropShadow_2607_3066"/>
<feBlend mode="normal" in="SourceGraphic" in2="effect1_dropShadow_2607_3066" result="shape"/>
</filter>
</defs>
</svg>
