
<svg xmlns="http://www.w3.org/2000/svg" width="42" height="43" viewBox="0 0 42 43" fill="none">
  <g clip-path="url(#clip0_2378_1305)">
    <path fill-rule="evenodd" clip-rule="evenodd" d="M25.3933 39.9895C23.9832 40.3233 22.5122 40.5 21 40.5C19.4878 40.5 18.0168 40.3233 16.6067 39.9895L21 42.5L25.3933 39.9895ZM28 39.169C35.0292 36.3818 40 29.5214 40 21.5C40 11.0066 31.4934 2.5 21 2.5C10.5066 2.5 2 11.0066 2 21.5C2 29.5214 6.97076 36.3818 14 39.169V41.3051C5.84365 38.4222 0 30.6435 0 21.5C0 9.90202 9.40202 0.5 21 0.5C32.598 0.5 42 9.90202 42 21.5C42 30.6435 36.1563 38.4222 28 41.3051V39.169Z" fill="white" fill-opacity="0.4"/>
    <mask id="mask0_2378_1305" style="mask-type:alpha" maskUnits="userSpaceOnUse" x="0" y="0" width="42" height="43">
      <circle cx="21" cy="21.5" r="21" fill="#D9D9D9"/>
    </mask>
    <g mask="url(#mask0_2378_1305)">
      <path d="M21 8.5L22.2502 11.8787C23.171 14.3671 25.1329 16.329 27.6213 17.2498L31 18.5L28.8012 19.3136C25.6605 20.4758 23.4131 23.2705 22.9518 26.5873L21 40.6212L19.0482 26.5873C18.5869 23.2704 16.3395 20.4758 13.1988 19.3136L11 18.5L14.3787 17.2498C16.8671 16.329 18.829 14.3671 19.7498 11.8787L21 8.5Z" fill="white" fill-opacity="0.4"/>
    </g>
  </g>
  <defs>
    <clipPath id="clip0_2378_1305">
      <rect width="42" height="42" fill="white" transform="translate(0 0.5)"/>
    </clipPath>
  </defs>
</svg>