<svg xmlns="http://www.w3.org/2000/svg" width="42" height="43" viewBox="0 0 42 43" fill="none">
  <g clip-path="url(#clip0_2378_1275)">
    <path fill-rule="evenodd" clip-rule="evenodd" d="M2.03531 30.5303C0.730454 27.7948 0 24.7327 0 21.5C0 9.90202 9.40202 0.5 21 0.5C32.598 0.5 42 9.90202 42 21.5C42 24.8481 41.2165 28.0131 39.8228 30.8218L37.157 31.5025C38.9594 28.5973 40 25.1702 40 21.5C40 11.0066 31.4934 2.5 21 2.5C10.5066 2.5 2 11.0066 2 21.5C2 25.0437 2.97015 28.3608 4.65935 31.2003L2.03531 30.5303Z" fill="white" fill-opacity="0.4"/>
    <mask id="mask0_2378_1275" style="mask-type:alpha" maskUnits="userSpaceOnUse" x="0" y="0" width="42" height="43">
      <circle cx="21" cy="21.5" r="21" fill="#D9D9D9"/>
    </mask>
    <g mask="url(#mask0_2378_1275)">
      <path d="M21 43.3011C19.15 43.4065 14.1781 42.7951 9.9848 40.7712C4.74313 38.2414 1.96813 33.498 2.5848 32.8656C2.91321 32.5288 5.25297 33.3579 7.64803 34.2066C9.75021 34.9516 11.895 35.7116 12.7598 35.7116C13.8303 35.7116 13.0423 34.229 12.2481 32.7345C11.6698 31.6465 11.0882 30.5522 11.2181 30.0193C11.3969 29.2858 13.131 30.3601 14.7969 31.3923C16.0038 32.14 17.175 32.8656 17.6931 32.8656C18.3541 32.8656 19.3367 21.3811 20.0989 12.1195C20.2121 10.7433 21.7879 10.7433 21.9011 12.1195C22.6633 21.3811 23.6459 32.8656 24.3069 32.8656C24.825 32.8656 25.9962 32.14 27.2031 31.3923C28.869 30.3601 30.6031 29.2858 30.7819 30.0193C30.9118 30.5522 30.3302 31.6465 29.7519 32.7345C28.9577 34.229 28.1697 35.7116 29.2402 35.7116C30.105 35.7116 32.2498 34.9516 34.352 34.2066C36.747 33.3579 39.0868 32.5288 39.4152 32.8656C40.0319 33.498 37.2569 38.2414 32.0152 40.7712C27.8219 42.7951 22.85 43.4065 21 43.3011Z" fill="white" fill-opacity="0.4"/>
    </g>
  </g>
  <defs>
    <clipPath id="clip0_2378_1275">
      <rect width="42" height="42" fill="white" transform="translate(0 0.5)"/>
    </clipPath>
  </defs>
</svg>