<svg width="54" height="54" viewBox="0 0 54 54" fill="none" xmlns="http://www.w3.org/2000/svg">
<path d="M14.0765 4.61663L39.9231 4.61663L52.8465 27.0005L39.9231 49.3843L14.0765 49.3843L1.15316 27.0005L14.0765 4.61663Z" fill="#444763" stroke="url(#paint0_linear_2378_618)" stroke-width="0.878461"/>
<path d="M26.9992 0.645264L49.8223 13.8222V40.176L26.9992 53.3529L4.17613 40.176V13.8222L26.9992 0.645264Z" fill="url(#paint1_linear_2378_618)"/>
<g filter="url(#filter0_i_2378_618)">
<path d="M6.81151 15.3437L26.9992 3.68834L47.1869 15.3437V38.6545L26.9992 50.3098L6.81151 38.6545V15.3437Z" stroke="url(#paint2_linear_2378_618)" stroke-width="5.27077"/>
</g>
<path d="M9.61907 16.9655L26.9991 6.93111L44.3791 16.9655V37.0342L26.9991 47.0685L9.61907 37.0342V16.9655Z" stroke="url(#paint3_linear_2378_618)" stroke-width="1.75692"/>
<g filter="url(#filter1_di_2378_618)">
<path d="M27.4335 37.9786C25.8905 37.9786 24.449 37.6944 23.1091 37.1259C21.7691 36.5575 20.5916 35.7758 19.5765 34.781C18.5614 33.7659 17.7595 32.5985 17.1707 31.2789C16.6022 29.9592 16.318 28.5381 16.318 27.0154C16.318 25.4927 16.6022 24.0716 17.1707 22.7519C17.7595 21.4323 18.5614 20.2751 19.5765 19.2803C20.5916 18.2652 21.7691 17.4734 23.1091 16.9049C24.449 16.3364 25.8905 16.0522 27.4335 16.0522C28.3877 16.0522 29.3114 16.1537 30.2047 16.3567C31.098 16.5598 31.9203 16.8643 32.6714 17.2703C32.976 17.4328 33.1993 17.6561 33.3414 17.9403C33.5038 18.2043 33.585 18.4783 33.585 18.7626C33.585 19.2498 33.4226 19.6863 33.0978 20.0721C32.7729 20.4578 32.3568 20.6507 31.8492 20.6507C31.6868 20.6507 31.5142 20.6304 31.3315 20.5898C31.1691 20.5492 31.0067 20.4882 30.8442 20.407C30.3367 20.1837 29.7987 20.0111 29.2302 19.8893C28.6617 19.7675 28.0628 19.7066 27.4335 19.7066C26.1138 19.7066 24.9058 20.0416 23.8095 20.7116C22.7335 21.3612 21.8707 22.2444 21.221 23.361C20.5916 24.4573 20.2769 25.6755 20.2769 27.0154C20.2769 28.3351 20.5916 29.5532 21.221 30.6698C21.8707 31.7864 22.7335 32.6797 23.8095 33.3497C24.9058 33.9994 26.1138 34.3242 27.4335 34.3242C28.0425 34.3242 28.7125 34.2633 29.4434 34.1415C30.1743 34.0197 30.7732 33.8573 31.2401 33.6542L30.9661 34.5678V29.3603L31.4838 29.8171H28.1034C27.5756 29.8171 27.1289 29.6445 26.7635 29.2994C26.4184 28.9543 26.2458 28.5178 26.2458 27.9899C26.2458 27.4621 26.4184 27.0256 26.7635 26.6804C27.1289 26.3353 27.5756 26.1627 28.1034 26.1627H33.0978C33.6256 26.1627 34.0621 26.3454 34.4073 26.7109C34.7524 27.056 34.925 27.4925 34.925 28.0204V34.4765C34.925 34.8825 34.8235 35.2175 34.6204 35.4814C34.4377 35.7454 34.2246 35.9585 33.9809 36.121C33.047 36.6894 32.0218 37.1462 30.9051 37.4914C29.8088 37.8162 28.6516 37.9786 27.4335 37.9786Z" fill="#F4DCA5"/>
</g>
<defs>
<filter id="filter0_i_2378_618" x="4.17615" y="0.645264" width="45.6461" height="52.7078" filterUnits="userSpaceOnUse" color-interpolation-filters="sRGB">
<feFlood flood-opacity="0" result="BackgroundImageFix"/>
<feBlend mode="normal" in="SourceGraphic" in2="BackgroundImageFix" result="shape"/>
<feColorMatrix in="SourceAlpha" type="matrix" values="0 0 0 0 0 0 0 0 0 0 0 0 0 0 0 0 0 0 127 0" result="hardAlpha"/>
<feOffset dx="0.351384" dy="0.351384"/>
<feComposite in2="hardAlpha" operator="arithmetic" k2="-1" k3="1"/>
<feColorMatrix type="matrix" values="0 0 0 0 1 0 0 0 0 1 0 0 0 0 1 0 0 0 1 0"/>
<feBlend mode="normal" in2="shape" result="effect1_innerShadow_2378_618"/>
</filter>
<filter id="filter1_di_2378_618" x="13.6187" y="13.353" width="24.0055" height="27.3248" filterUnits="userSpaceOnUse" color-interpolation-filters="sRGB">
<feFlood flood-opacity="0" result="BackgroundImageFix"/>
<feColorMatrix in="SourceAlpha" type="matrix" values="0 0 0 0 0 0 0 0 0 0 0 0 0 0 0 0 0 0 127 0" result="hardAlpha"/>
<feOffset/>
<feGaussianBlur stdDeviation="1.34964"/>
<feComposite in2="hardAlpha" operator="out"/>
<feColorMatrix type="matrix" values="0 0 0 0 0.956863 0 0 0 0 0.862745 0 0 0 0 0.647059 0 0 0 0.46 0"/>
<feBlend mode="normal" in2="BackgroundImageFix" result="effect1_dropShadow_2378_618"/>
<feBlend mode="normal" in="SourceGraphic" in2="effect1_dropShadow_2378_618" result="shape"/>
<feColorMatrix in="SourceAlpha" type="matrix" values="0 0 0 0 0 0 0 0 0 0 0 0 0 0 0 0 0 0 127 0" result="hardAlpha"/>
<feOffset dy="0.415273"/>
<feComposite in2="hardAlpha" operator="arithmetic" k2="-1" k3="1"/>
<feColorMatrix type="matrix" values="0 0 0 0 1 0 0 0 0 1 0 0 0 0 1 0 0 0 1 0"/>
<feBlend mode="normal" in2="shape" result="effect2_innerShadow_2378_618"/>
</filter>
<linearGradient id="paint0_linear_2378_618" x1="21.5652" y1="-0.48182" x2="30.5914" y2="52.4043" gradientUnits="userSpaceOnUse">
<stop stop-color="#A1A4C0"/>
<stop offset="1" stop-color="#56596F"/>
</linearGradient>
<linearGradient id="paint1_linear_2378_618" x1="26.9992" y1="0.645264" x2="26.9992" y2="53.3529" gradientUnits="userSpaceOnUse">
<stop stop-color="#27293C"/>
<stop offset="1" stop-color="#14151F"/>
</linearGradient>
<linearGradient id="paint2_linear_2378_618" x1="8.55153" y1="5.91603" x2="42.8115" y2="47.2037" gradientUnits="userSpaceOnUse">
<stop stop-color="#F4DCA5"/>
<stop offset="1" stop-color="#CFAC5A"/>
</linearGradient>
<linearGradient id="paint3_linear_2378_618" x1="12.2409" y1="10.1334" x2="39.6489" y2="43.1635" gradientUnits="userSpaceOnUse">
<stop stop-color="#B77614"/>
<stop offset="1" stop-color="#FFFAF0"/>
</linearGradient>
</defs>
</svg>
