<svg width="60" height="60" viewBox="0 0 60 60" fill="none" xmlns="http://www.w3.org/2000/svg">
<circle cx="30" cy="30.5" r="25.75" stroke="#F4DCA5" stroke-opacity="0.1" stroke-width="0.5"/>
<path d="M30 47.5L25 50.4167C25.6944 50.8333 27.6667 51.25 30 51.25C32.3333 51.25 34.3056 50.8333 35 50.4167L30 47.5Z" fill="#E3405E"/>
<g filter="url(#filter0_d_2607_3045)">
<circle cx="30" cy="30.5" r="15" fill="#E3405E"/>
</g>
<path d="M30.0266 36.16C29.2799 36.16 28.6079 36.0693 28.0106 35.888C27.4132 35.696 26.8426 35.3653 26.2986 34.896C26.1599 34.7787 26.0532 34.6453 25.9786 34.496C25.9039 34.3467 25.8666 34.1973 25.8666 34.048C25.8666 33.8027 25.9519 33.5893 26.1226 33.408C26.3039 33.216 26.5279 33.12 26.7946 33.12C26.9972 33.12 27.1786 33.184 27.3386 33.312C27.7439 33.6427 28.1439 33.8933 28.5386 34.064C28.9439 34.2347 29.4399 34.32 30.0266 34.32C30.4212 34.32 30.7839 34.2613 31.1146 34.144C31.4452 34.016 31.7119 33.8507 31.9146 33.648C32.1172 33.4347 32.2186 33.1947 32.2186 32.928C32.2186 32.608 32.1226 32.336 31.9306 32.112C31.7386 31.888 31.4452 31.7013 31.0506 31.552C30.6559 31.392 30.1546 31.2693 29.5466 31.184C28.9706 31.0987 28.4639 30.9707 28.0266 30.8C27.5892 30.6187 27.2212 30.3947 26.9226 30.128C26.6346 29.8507 26.4159 29.5307 26.2666 29.168C26.1172 28.7947 26.0426 28.3787 26.0426 27.92C26.0426 27.2267 26.2186 26.6347 26.5706 26.144C26.9332 25.6533 27.4186 25.28 28.0266 25.024C28.6346 24.768 29.3066 24.64 30.0426 24.64C30.7359 24.64 31.3759 24.7467 31.9626 24.96C32.5599 25.1627 33.0452 25.424 33.4186 25.744C33.7279 25.9893 33.8826 26.272 33.8826 26.592C33.8826 26.8267 33.7919 27.04 33.6106 27.232C33.4292 27.424 33.2159 27.52 32.9706 27.52C32.8106 27.52 32.6666 27.472 32.5386 27.376C32.3679 27.2267 32.1386 27.088 31.8506 26.96C31.5626 26.8213 31.2586 26.7093 30.9386 26.624C30.6186 26.528 30.3199 26.48 30.0426 26.48C29.5839 26.48 29.1946 26.5387 28.8746 26.656C28.5652 26.7733 28.3306 26.9333 28.1706 27.136C28.0106 27.3387 27.9306 27.5733 27.9306 27.84C27.9306 28.16 28.0212 28.4267 28.2026 28.64C28.3946 28.8427 28.6666 29.008 29.0186 29.136C29.3706 29.2533 29.7919 29.36 30.2826 29.456C30.9226 29.5733 31.4826 29.712 31.9626 29.872C32.4532 30.032 32.8586 30.24 33.1786 30.496C33.4986 30.7413 33.7386 31.056 33.8986 31.44C34.0586 31.8133 34.1386 32.272 34.1386 32.816C34.1386 33.5093 33.9466 34.1067 33.5626 34.608C33.1786 35.1093 32.6719 35.4933 32.0426 35.76C31.4239 36.0267 30.7519 36.16 30.0266 36.16Z" fill="white"/>
<path fill-rule="evenodd" clip-rule="evenodd" d="M50.8819 32.7362C50.8964 32.6001 50.9095 32.4635 50.9213 32.3266L55.9352 30.9634C57.5325 30.5291 58.4847 28.8797 58.0621 27.2793L50.9606 29.2101C50.9373 28.8249 50.9036 28.4425 50.8597 28.0632L57.7712 26.1841C59.3685 25.7498 60.3207 24.1004 59.8981 22.5L50.3013 25.1093C47.9214 16.1233 39.734 9.5 29.9996 9.5C20.2651 9.5 12.0776 16.1234 9.69789 25.1095L0.100256 22.5C-0.322359 24.1004 0.629889 25.7498 2.22716 26.1841L9.13943 28.0635C9.10077 28.3981 9.06998 28.7351 9.04724 29.0743L1.93528 27.1406C1.51267 28.741 2.46491 30.3905 4.06218 30.8247L9.06624 32.1853C9.09466 32.5432 9.13206 32.8986 9.17821 33.2513L3.77128 31.7812C3.34866 33.3816 4.30091 35.0311 5.89818 35.4654L9.88389 36.549C12.4812 45.1983 20.5045 51.5 29.9996 51.5C39.6914 51.5 47.8498 44.9345 50.2697 36.0085L54.0992 34.9673C55.6965 34.533 56.6487 32.8836 56.2261 31.2832L50.8819 32.7362ZM30.2555 50.5C41.3012 50.5 50.2555 41.5457 50.2555 30.5C50.2555 19.4543 41.3012 10.5 30.2555 10.5C19.2098 10.5 10.2555 19.4543 10.2555 30.5C10.2555 41.5457 19.2098 50.5 30.2555 50.5Z" fill="#E3405E"/>
<defs>
<filter id="filter0_d_2607_3045" x="9" y="9.5" width="42" height="42" filterUnits="userSpaceOnUse" color-interpolation-filters="sRGB">
<feFlood flood-opacity="0" result="BackgroundImageFix"/>
<feColorMatrix in="SourceAlpha" type="matrix" values="0 0 0 0 0 0 0 0 0 0 0 0 0 0 0 0 0 0 127 0" result="hardAlpha"/>
<feOffset/>
<feGaussianBlur stdDeviation="3"/>
<feComposite in2="hardAlpha" operator="out"/>
<feColorMatrix type="matrix" values="0 0 0 0 0.890196 0 0 0 0 0.25098 0 0 0 0 0.368627 0 0 0 0.38 0"/>
<feBlend mode="normal" in2="BackgroundImageFix" result="effect1_dropShadow_2607_3045"/>
<feBlend mode="normal" in="SourceGraphic" in2="effect1_dropShadow_2607_3045" result="shape"/>
</filter>
</defs>
</svg>
