<svg width="27" height="18" viewBox="0 0 27 18" xmlns="http://www.w3.org/2000/svg">
<path id="Vector" d="M22.3726 1.4921C20.7408 0.80148 18.9908 0.292651 17.1611 0.00122172C17.1278 -0.0044007 17.0945 0.00965536 17.0774 0.0377675C16.8523 0.406973 16.603 0.888628 16.4285 1.2672C14.4605 0.995454 12.5027 0.995454 10.5751 1.2672C10.4005 0.880194 10.1422 0.406973 9.9161 0.0377675C9.89894 0.0105924 9.86564 -0.00346363 9.83234 0.00122172C8.00367 0.291714 6.25372 0.800543 4.62084 1.4921C4.60671 1.49772 4.5946 1.50709 4.58652 1.51928C1.26727 6.09312 0.357983 10.5545 0.804049 14.9606C0.806067 14.9822 0.819187 15.0028 0.837352 15.0159C3.02731 16.4993 5.14865 17.3998 7.23062 17.9967C7.26393 18.0061 7.29925 17.9948 7.32044 17.9695C7.81293 17.3492 8.25193 16.6951 8.62836 16.0073C8.65057 15.967 8.62937 15.9192 8.58396 15.9033C7.88761 15.6597 7.22457 15.3626 6.58676 15.0253C6.5363 14.9981 6.53226 14.9316 6.57868 14.8997C6.71291 14.8069 6.84713 14.7104 6.9753 14.613C6.99851 14.5952 7.0308 14.5914 7.05805 14.6027C11.2482 16.3672 15.7846 16.3672 19.9253 14.6027C19.9526 14.5905 19.9849 14.5942 20.0091 14.612C20.1373 14.7095 20.2715 14.8069 20.4067 14.8997C20.4531 14.9316 20.4501 14.9981 20.3997 15.0253C19.7618 15.3692 19.0988 15.6597 18.4014 15.9024C18.356 15.9183 18.3358 15.967 18.358 16.0073C18.7425 16.6942 19.1816 17.3483 19.665 17.9686C19.6851 17.9949 19.7215 18.0061 19.7548 17.9967C21.8468 17.3998 23.9682 16.4993 26.1581 15.0159C26.1773 15.0028 26.1894 14.9831 26.1914 14.9616C26.7253 9.86764 25.2973 5.44279 22.4059 1.52021C22.3989 1.50709 22.3868 1.49772 22.3726 1.4921ZM9.25407 12.2778C7.99257 12.2778 6.95309 11.2095 6.95309 9.89762C6.95309 8.58573 7.97238 7.51746 9.25407 7.51746C10.5458 7.51746 11.5752 8.5951 11.555 9.89762C11.555 11.2095 10.5357 12.2778 9.25407 12.2778ZM17.7616 12.2778C16.5001 12.2778 15.4606 11.2095 15.4606 9.89762C15.4606 8.58573 16.4799 7.51746 17.7616 7.51746C19.0534 7.51746 20.0828 8.5951 20.0626 9.89762C20.0626 11.2095 19.0534 12.2778 17.7616 12.2778Z"/>
</svg>
