<svg width="16" height="16" viewBox="0 0 16 16" fill="none" xmlns="http://www.w3.org/2000/svg">
<g id="Frame" clip-path="url(#clip0_237_42495)">
<path id="Vector" d="M14.9568 11.1126L12.8318 4.03755C12.7909 3.89446 12.7179 3.76261 12.6182 3.65211C12.5185 3.54161 12.3949 3.45539 12.2568 3.40005H12.2193L12.2568 3.38755C11.5595 3.10817 10.8376 2.89474 10.1005 2.75005C10.0361 2.73731 9.96977 2.7374 9.90537 2.7503C9.84097 2.76319 9.77975 2.78865 9.72519 2.82522C9.67063 2.86178 9.62381 2.90874 9.5874 2.9634C9.551 3.01806 9.52572 3.07936 9.51301 3.1438C9.49934 3.20786 9.49855 3.27399 9.51069 3.33836C9.52283 3.40272 9.54765 3.46403 9.58372 3.51871C9.61978 3.57338 9.66636 3.62034 9.72075 3.65684C9.77514 3.69333 9.83624 3.71865 9.90051 3.7313C10.1818 3.78755 10.4568 3.8563 10.7255 3.9313C10.8245 3.98268 10.9035 4.06568 10.9499 4.1671C10.9962 4.26853 11.0074 4.38255 10.9815 4.49103C10.9557 4.59952 10.8943 4.69625 10.8071 4.76583C10.72 4.83541 10.612 4.87386 10.5005 4.87505H10.4505C9.48736 4.62387 8.49587 4.49783 7.50051 4.50005C6.52854 4.49715 5.56022 4.61898 4.61926 4.86255C4.49952 4.89414 4.37232 4.88018 4.26229 4.82336C4.15226 4.76655 4.06723 4.67092 4.02366 4.555C3.9801 4.43908 3.9811 4.31112 4.02647 4.1959C4.07184 4.08068 4.15835 3.98639 4.26926 3.9313H4.27551C4.54426 3.8563 4.81926 3.78755 5.10051 3.7313C5.16494 3.71859 5.22625 3.69331 5.28091 3.6569C5.33557 3.6205 5.38253 3.57368 5.41909 3.51912C5.45566 3.46456 5.48112 3.40334 5.49401 3.33894C5.50691 3.27454 5.50699 3.20823 5.49426 3.1438C5.4671 3.01447 5.39044 2.90089 5.28067 2.82732C5.17089 2.75375 5.0367 2.72602 4.90676 2.75005C4.16702 2.89797 3.44296 3.11561 2.74426 3.40005C2.60612 3.45539 2.48248 3.54161 2.38282 3.65211C2.28315 3.76261 2.2101 3.89446 2.16926 4.03755L0.0442591 11.1126C-0.0108683 11.2975 -0.0112862 11.4945 0.0430559 11.6797C0.097398 11.8649 0.204178 12.0304 0.350509 12.1563C0.408004 12.2117 0.468513 12.2638 0.531759 12.3125H0.538009C1.55051 13.1376 2.88176 13.7688 4.38176 14.1313C4.42015 14.1436 4.4602 14.1499 4.50051 14.1501C4.62413 14.152 4.74409 14.1081 4.83723 14.0268C4.93038 13.9455 4.99009 13.8326 5.00486 13.7098C5.01962 13.5871 4.98838 13.4632 4.91716 13.3621C4.84595 13.2611 4.73982 13.19 4.61926 13.1626C3.94491 12.9997 3.28931 12.7672 2.66301 12.4688C2.57729 12.3885 2.52258 12.2805 2.50849 12.1639C2.4944 12.0473 2.52183 11.9294 2.58595 11.831C2.65008 11.7326 2.74681 11.6599 2.85919 11.6256C2.97156 11.5914 3.0924 11.5978 3.20051 11.6438C4.38801 12.1688 5.88176 12.5 7.50051 12.5C9.11926 12.5 10.613 12.1688 11.8005 11.6438C11.9086 11.5978 12.0295 11.5914 12.1418 11.6256C12.2542 11.6599 12.3509 11.7326 12.4151 11.831C12.4792 11.9294 12.5066 12.0473 12.4925 12.1639C12.4784 12.2805 12.4237 12.3885 12.338 12.4688C11.7117 12.7672 11.0561 12.9997 10.3818 13.1626C10.2612 13.19 10.1551 13.2611 10.0839 13.3621C10.0126 13.4632 9.9814 13.5871 9.99616 13.7098C10.0109 13.8326 10.0706 13.9455 10.1638 14.0268C10.2569 14.1081 10.3769 14.152 10.5005 14.1501C10.5408 14.1499 10.5809 14.1436 10.6193 14.1313C12.1193 13.7688 13.4505 13.1376 14.463 12.3125H14.4693C14.5325 12.2638 14.593 12.2117 14.6505 12.1563C14.7968 12.0304 14.9036 11.8649 14.958 11.6797C15.0123 11.4945 15.0119 11.2975 14.9568 11.1126ZM5.50051 10.25C5.35217 10.25 5.20717 10.2061 5.08383 10.1237C4.96049 10.0412 4.86436 9.92411 4.8076 9.78706C4.75083 9.65002 4.73598 9.49922 4.76492 9.35373C4.79386 9.20825 4.86529 9.07461 4.97018 8.96972C5.07507 8.86483 5.20871 8.7934 5.35419 8.76446C5.49968 8.73552 5.65048 8.75037 5.78752 8.80714C5.92457 8.86391 6.0417 8.96004 6.12411 9.08337C6.20652 9.20671 6.25051 9.35171 6.25051 9.50005C6.25051 9.69896 6.17149 9.88973 6.03084 10.0304C5.89019 10.171 5.69942 10.25 5.50051 10.25ZM9.50051 10.25C9.35217 10.25 9.20717 10.2061 9.08383 10.1237C8.96049 10.0412 8.86436 9.92411 8.8076 9.78706C8.75083 9.65002 8.73598 9.49922 8.76492 9.35373C8.79386 9.20825 8.86529 9.07461 8.97018 8.96972C9.07507 8.86483 9.2087 8.7934 9.35419 8.76446C9.49968 8.73552 9.65048 8.75037 9.78752 8.80714C9.92457 8.86391 10.0417 8.96004 10.1241 9.08337C10.2065 9.20671 10.2505 9.35171 10.2505 9.50005C10.2505 9.69896 10.1715 9.88973 10.0308 10.0304C9.89019 10.171 9.69942 10.25 9.50051 10.25Z" fill="#1D1D1F"/>
</g>
<defs>
<clipPath id="clip0_237_42495">
<rect width="16" height="16" fill="white"/>
</clipPath>
</defs>
</svg>
