<svg width="23" height="18" viewBox="0 0 23 18" xmlns="http://www.w3.org/2000/svg">
<path id="Vector" d="M0.700684 1.53535C0.281743 2.22267 0.726801 3.0389 1.42779 3.43455L10.6645 8.64789C11.2748 8.99232 12.0207 8.99226 12.6309 8.64773L21.6465 3.55722C22.3156 3.17941 22.759 2.4197 22.4084 1.73593C21.8807 0.706726 20.7922 0 19.5349 0H3.46514C2.28993 0 1.26146 0.615326 0.700684 1.53535ZM3.23283 6.76462C1.8996 6.01234 0.25 6.97564 0.25 8.50647V14.8565C0.25 16.5932 1.6889 18 3.46514 18H19.5349C21.3111 18 22.75 16.5932 22.75 14.8565V8.67354C22.75 7.14255 21.1001 6.17927 19.7669 6.93186L12.1553 11.2285C11.806 11.4244 11.3881 11.3975 11.0754 11.1942C11.0487 11.1769 11.0215 11.1599 10.994 11.1438V11.1438L3.23283 6.76462Z"/>
</svg>
