<svg xmlns="http://www.w3.org/2000/svg" width="24" height="24" viewBox="0 0 24 24" fill="none">
  <g clip-path="url(#clip0_8166_5286)">
    <path d="M0 12C0 18.6274 5.37258 24 12 24C18.6274 24 24 18.6274 24 12C24 5.37258 18.6274 0 12 0C5.37258 0 0 5.37258 0 12Z" fill="currentColor"/>
    <path d="M16.6783 7.93322C15.8179 7.55913 14.8952 7.28352 13.9304 7.12566C13.9129 7.12262 13.8953 7.13023 13.8863 7.14546C13.7676 7.34544 13.6362 7.60634 13.5441 7.8114C12.5065 7.6642 11.4742 7.6642 10.4578 7.8114C10.3657 7.60177 10.2295 7.34544 10.1103 7.14546C10.1013 7.13074 10.0837 7.12312 10.0662 7.12566C9.10195 7.28301 8.17925 7.55863 7.31828 7.93322C7.31083 7.93627 7.30444 7.94134 7.30019 7.94794C5.55003 10.4254 5.07059 12.842 5.30579 15.2287C5.30685 15.2403 5.31377 15.2515 5.32335 15.2586C6.47806 16.0621 7.59658 16.5499 8.69435 16.8732C8.71191 16.8783 8.73053 16.8722 8.74171 16.8585C9.00138 16.5225 9.23286 16.1682 9.43134 15.7956C9.44304 15.7738 9.43187 15.7479 9.40792 15.7393C9.04076 15.6073 8.69115 15.4464 8.35485 15.2637C8.32825 15.249 8.32612 15.2129 8.3506 15.1957C8.42137 15.1454 8.49214 15.0931 8.55972 15.0404C8.57196 15.0307 8.58899 15.0287 8.60335 15.0348C10.8127 15.9905 13.2046 15.9905 15.3879 15.0348C15.4023 15.0282 15.4193 15.0302 15.4321 15.0398C15.4997 15.0926 15.5704 15.1454 15.6417 15.1957C15.6662 15.2129 15.6646 15.249 15.638 15.2637C15.3017 15.45 14.9521 15.6073 14.5844 15.7388C14.5605 15.7474 14.5498 15.7738 14.5615 15.7956C14.7643 16.1677 14.9957 16.522 15.2506 16.858C15.2613 16.8722 15.2804 16.8783 15.298 16.8732C16.4011 16.5499 17.5196 16.0621 18.6743 15.2586C18.6844 15.2515 18.6908 15.2408 18.6919 15.2292C18.9734 12.47 18.2204 10.0732 16.6959 7.94845C16.6922 7.94134 16.6858 7.93627 16.6783 7.93322ZM9.76125 13.7755C9.0961 13.7755 8.54801 13.1968 8.54801 12.4862C8.54801 11.7756 9.08546 11.197 9.76125 11.197C10.4424 11.197 10.9851 11.7807 10.9745 12.4862C10.9745 13.1968 10.437 13.7755 9.76125 13.7755ZM14.247 13.7755C13.5819 13.7755 13.0338 13.1968 13.0338 12.4862C13.0338 11.7756 13.5713 11.197 14.247 11.197C14.9282 11.197 15.4709 11.7807 15.4603 12.4862C15.4603 13.1968 14.9282 13.7755 14.247 13.7755Z" fill="white"/>
  </g>
  <defs>
    <clipPath id="clip0_8166_5286">
      <rect width="24" height="24" fill="white"/>
    </clipPath>
  </defs>
</svg>