<svg xmlns="http://www.w3.org/2000/svg" width="55" height="43" viewBox="0 0 55 43" fill="none">
  <path fill-rule="evenodd" clip-rule="evenodd" d="M2.04647 11.2184C0.605575 11.5702 -0.277262 13.0235 0.0745974 14.4644L6.36656 40.2305C6.71842 41.6714 8.17173 42.5543 9.61262 42.2024L52.9511 31.6194C54.3919 31.2675 55.2748 29.8142 54.9229 28.3733L48.631 2.60721C48.2791 1.16632 46.8258 0.283477 45.3849 0.635337L2.04647 11.2184ZM23.6835 33.2076L22.9667 30.2725L23.4442 30.1559L24.1609 33.091L23.6835 33.2076ZM19.9001 34.1854C19.7096 34.2319 19.5238 34.2379 19.3426 34.2034C19.1613 34.1688 18.9935 34.1013 18.839 34.0008C18.6842 33.899 18.552 33.7709 18.4425 33.6166C18.3326 33.461 18.2538 33.2853 18.206 33.0896C18.1557 32.8835 18.146 32.6855 18.177 32.4954C18.2093 32.3051 18.2733 32.1312 18.3689 31.9738C18.4658 31.816 18.5868 31.6828 18.7316 31.5742C18.8778 31.4652 19.0396 31.3891 19.217 31.3458C19.414 31.2977 19.6164 31.2973 19.8243 31.3447C20.0331 31.3904 20.232 31.4918 20.421 31.6489L20.0504 31.982C19.9355 31.8967 19.8157 31.8416 19.6907 31.8168C19.5655 31.7908 19.4442 31.792 19.3268 31.8207C19.1728 31.8583 19.0394 31.9344 18.9264 32.0491C18.8147 32.1635 18.7353 32.3024 18.6882 32.466C18.642 32.6279 18.6412 32.8002 18.6858 32.9828C18.7282 33.1563 18.8059 33.3046 18.9188 33.4277C19.0328 33.5491 19.166 33.6362 19.3185 33.6888C19.4719 33.7398 19.6295 33.7455 19.7913 33.706C19.9544 33.6662 20.0942 33.5795 20.2109 33.446C20.3289 33.3121 20.4024 33.149 20.4315 32.9567L19.9325 33.0786L19.8307 32.6618L20.8913 32.4028C20.9449 32.5998 20.9593 32.7947 20.9345 32.9873C20.9093 33.1787 20.8512 33.3567 20.7601 33.5213C20.669 33.6859 20.5505 33.8261 20.4046 33.9419C20.2587 34.0577 20.0905 34.1389 19.9001 34.1854ZM9.63464 33.7355L10.3036 36.4749L12.0216 36.0554L11.905 35.5779L10.6644 35.8809L10.481 35.1295L11.4652 34.8891L11.3486 34.4117L10.3644 34.652L10.2287 34.0963L11.4692 33.7934L11.3527 33.316L9.63464 33.7355ZM12.6903 36.9288L13.1678 36.8122L12.8691 35.5892C12.9534 35.6626 13.0493 35.7159 13.157 35.7491C13.2643 35.7809 13.3805 35.7816 13.5058 35.751C13.6962 35.7045 13.8578 35.616 13.9904 35.4855C14.1243 35.3546 14.2178 35.1998 14.2709 35.0209C14.3253 34.8418 14.3292 34.657 14.2827 34.4665C14.2365 34.2774 14.1482 34.1165 14.0176 33.9839C13.8881 33.8496 13.7338 33.7553 13.5546 33.7009C13.3767 33.6462 13.1926 33.6421 13.0021 33.6886C12.8769 33.7192 12.7742 33.774 12.694 33.853C12.6134 33.9308 12.5527 34.0216 12.5117 34.1256L12.451 33.8771L11.9736 33.9937L12.6903 36.9288ZM12.8616 34.2931C12.9271 34.2218 13.0094 34.1741 13.1086 34.1499C13.2103 34.125 13.3086 34.1287 13.4036 34.1608C13.4995 34.1913 13.5827 34.2435 13.6533 34.3175C13.7239 34.3915 13.772 34.4807 13.7974 34.585C13.8232 34.6907 13.822 34.7933 13.7938 34.8928C13.7653 34.991 13.7155 35.0757 13.6444 35.147C13.5733 35.2182 13.4876 35.2661 13.3871 35.2906C13.288 35.3149 13.1931 35.3111 13.1024 35.2793C13.0114 35.2463 12.9332 35.1921 12.8678 35.1168C12.8024 35.0416 12.7568 34.9511 12.731 34.8454C12.7055 34.7411 12.7045 34.6404 12.7278 34.5435C12.7511 34.4466 12.7957 34.3631 12.8616 34.2931ZM14.3048 33.4244L14.7823 33.3078L15.2601 35.2645L14.7827 35.3811L14.3048 33.4244ZM14.4839 33.1132C14.4134 33.1304 14.3485 33.1221 14.2891 33.0882C14.2307 33.0527 14.1929 32.9998 14.1756 32.9293C14.1588 32.8602 14.1681 32.7964 14.2036 32.738C14.2404 32.6792 14.294 32.6412 14.3644 32.624C14.4336 32.6072 14.4973 32.6165 14.5558 32.652C14.6155 32.6871 14.6538 32.7393 14.6707 32.8084C14.6879 32.8789 14.6788 32.9433 14.6433 33.0017C14.6075 33.0589 14.5543 33.096 14.4839 33.1132ZM17.2413 34.4034L16.7539 34.2757C16.7217 34.3361 16.6786 34.3888 16.6246 34.4337C16.5703 34.4774 16.5092 34.5075 16.4414 34.5241C16.3475 34.547 16.2565 34.5423 16.1684 34.5099C16.0803 34.4775 16.0039 34.425 15.9391 34.3523C15.8741 34.2783 15.8296 34.1924 15.8057 34.0946C15.7815 33.9955 15.7814 33.8987 15.8054 33.8044C15.829 33.7088 15.8718 33.6265 15.9337 33.5574C15.9966 33.4868 16.0757 33.4398 16.1709 33.4166C16.3092 33.3828 16.44 33.4089 16.5633 33.4949L16.9374 33.1589C16.8168 33.0557 16.6796 32.9834 16.5258 32.9422C16.3719 32.901 16.2148 32.8999 16.0544 32.9391C15.8743 32.9831 15.7213 33.0695 15.5952 33.1985C15.4704 33.3271 15.3828 33.4805 15.3323 33.6587C15.2831 33.8366 15.2818 34.0207 15.3283 34.2112C15.3745 34.4003 15.4604 34.5625 15.586 34.6977C15.7126 34.8313 15.8609 34.9264 16.031 34.983C16.2023 35.0393 16.378 35.0455 16.558 35.0015C16.7184 34.9623 16.8574 34.889 16.9749 34.7815C17.0924 34.674 17.1812 34.548 17.2413 34.4034ZM21.9126 33.5467C22.0839 33.603 22.2596 33.6092 22.4396 33.5652C22.6196 33.5213 22.772 33.435 22.8968 33.3064C23.0229 33.1775 23.1107 33.0247 23.1602 32.8481C23.2107 32.6699 23.2128 32.4863 23.1666 32.2971C23.1201 32.1066 23.0334 31.944 22.9065 31.8091C22.7809 31.6739 22.6324 31.5782 22.4611 31.5219C22.291 31.4652 22.116 31.4589 21.936 31.5029C21.756 31.5468 21.6029 31.6333 21.4768 31.7622C21.352 31.8908 21.2644 32.0442 21.2139 32.2224C21.1647 32.4003 21.1634 32.5845 21.2099 32.7749C21.2561 32.9641 21.342 33.1262 21.4676 33.2614C21.5943 33.395 21.7426 33.4901 21.9126 33.5467ZM22.5588 32.9494C22.4968 33.0184 22.4183 33.0646 22.323 33.0878C22.233 33.1098 22.1436 33.106 22.0549 33.0766C21.9671 33.0455 21.8902 32.9938 21.8242 32.9214C21.7581 32.8491 21.7125 32.7614 21.6874 32.6583C21.6632 32.5592 21.6629 32.4618 21.6865 32.3662C21.7102 32.2706 21.7536 32.1881 21.8168 32.1187C21.8801 32.0494 21.9587 32.0032 22.0526 31.9803C22.1439 31.958 22.2336 31.9631 22.3217 31.9955C22.4107 32.0262 22.4878 32.0786 22.5529 32.1526C22.6189 32.2249 22.6644 32.3119 22.6892 32.4137C22.7134 32.5128 22.7135 32.6096 22.6896 32.7039C22.6656 32.7982 22.622 32.88 22.5588 32.9494ZM25.8407 29.5707L25.3632 29.6873L25.6619 30.9102C25.5776 30.8368 25.4813 30.785 25.373 30.7548C25.2644 30.7232 25.1475 30.7228 25.0223 30.7534C24.8801 30.7881 24.7536 30.8473 24.6427 30.9311C24.5318 31.0148 24.4403 31.1153 24.368 31.2324C24.297 31.3493 24.25 31.4769 24.2271 31.6152C24.2039 31.7521 24.2097 31.8917 24.2444 32.0339C24.2791 32.1761 24.3383 32.3026 24.4221 32.4135C24.5058 32.5244 24.6063 32.616 24.7235 32.6882C24.8416 32.7589 24.9692 32.8059 25.1062 32.8291C25.2432 32.8523 25.3828 32.8465 25.525 32.8118C25.6502 32.7812 25.7537 32.7269 25.8356 32.6489C25.9174 32.5709 25.979 32.4805 26.0203 32.3778L26.08 32.6224L26.5574 32.5058L25.8407 29.5707ZM25.6699 32.2083C25.6041 32.2783 25.5203 32.3257 25.4185 32.3506C25.3194 32.3748 25.2219 32.3716 25.126 32.3411C25.0314 32.3103 24.9488 32.2579 24.8782 32.184C24.8076 32.11 24.7594 32.0201 24.7336 31.9145C24.7078 31.8088 24.7085 31.707 24.7357 31.6092C24.7643 31.511 24.8134 31.4264 24.8832 31.3554C24.9526 31.2832 25.0382 31.2346 25.14 31.2098C25.2404 31.1853 25.3361 31.1895 25.4271 31.2226C25.5178 31.2544 25.5959 31.3079 25.6612 31.3831C25.7279 31.4581 25.7742 31.5484 25.8 31.6541C25.8258 31.7597 25.827 31.861 25.8037 31.9579C25.7804 32.0549 25.7358 32.1383 25.6699 32.2083ZM28.9663 31.9715C28.8149 32.0084 28.6637 32.0205 28.5127 32.0076C28.3613 31.9934 28.2226 31.9547 28.0966 31.8915C27.9716 31.8266 27.871 31.7372 27.7947 31.6231L28.2027 31.3493C28.2492 31.4209 28.3341 31.4714 28.4573 31.5007C28.5806 31.53 28.7114 31.5278 28.8497 31.494C28.9436 31.4711 29.0281 31.4353 29.1033 31.3865C29.1795 31.3361 29.2366 31.2786 29.2747 31.214C29.3139 31.1478 29.3248 31.0794 29.3076 31.009C29.2901 30.9372 29.249 30.8851 29.1844 30.8525C29.1194 30.8186 29.0419 30.7981 28.9517 30.7911C28.8615 30.7841 28.7703 30.7843 28.6781 30.7916C28.4764 30.809 28.291 30.8053 28.1218 30.7802C27.9525 30.7552 27.8094 30.6982 27.6923 30.6093C27.5765 30.5201 27.4971 30.3874 27.4541 30.2113C27.4137 30.0457 27.4259 29.8892 27.4909 29.7421C27.5555 29.5936 27.6572 29.4665 27.7959 29.3607C27.9342 29.2537 28.0934 29.1782 28.2734 29.1342C28.4234 29.0976 28.5741 29.0864 28.7255 29.1005C28.8765 29.1134 29.0152 29.1521 29.1416 29.2167C29.2689 29.2796 29.3708 29.3687 29.4474 29.4841L29.037 29.7564C28.9889 29.6838 28.904 29.6334 28.7823 29.605C28.6607 29.5767 28.5301 29.5795 28.3905 29.6136C28.2979 29.6362 28.2135 29.6727 28.1373 29.7231C28.0621 29.7719 28.005 29.8294 27.9659 29.8956C27.9264 29.9605 27.915 30.0269 27.9316 30.0948C27.9529 30.1822 27.9931 30.2421 28.0522 30.2747C28.1126 30.307 28.1865 30.3235 28.2737 30.3243C28.361 30.3251 28.4568 30.3211 28.5611 30.3122C28.7507 30.2963 28.9314 30.3033 29.1032 30.3332C29.275 30.3631 29.4217 30.4234 29.5434 30.5139C29.6647 30.6032 29.7452 30.7293 29.7851 30.8924C29.8258 31.0594 29.8144 31.2163 29.7507 31.3632C29.6871 31.51 29.5861 31.637 29.4477 31.744C29.3094 31.8511 29.1489 31.9269 28.9663 31.9715ZM32.2136 31.1246L31.9116 29.8879C31.8768 29.7458 31.8099 29.6246 31.7108 29.5244C31.613 29.4238 31.497 29.3533 31.3627 29.3129C31.2281 29.2711 31.0897 29.2676 30.9475 29.3023C30.8405 29.3284 30.7458 29.3737 30.6634 29.438C30.5807 29.5011 30.5146 29.5759 30.4653 29.6626L30.1819 28.5106L29.7045 28.6272L30.4231 31.5618L30.9006 31.4452L30.6292 30.3338C30.6012 30.219 30.6177 30.1113 30.6788 30.0107C30.7396 29.9087 30.8281 29.8436 30.9442 29.8152C31.059 29.7872 31.1675 29.8042 31.2698 29.8664C31.3717 29.9272 31.4367 30.015 31.4647 30.1298L31.7361 31.2412L32.2136 31.1246ZM33.4386 30.8794C33.2585 30.9233 33.0829 30.9171 32.9115 30.8608C32.7415 30.8042 32.5932 30.7091 32.4666 30.5756C32.341 30.4404 32.2551 30.2782 32.2089 30.089C32.1624 29.8986 32.1637 29.7144 32.2129 29.5365C32.2633 29.3583 32.351 29.2049 32.4758 29.0763C32.6019 28.9474 32.7549 28.8609 32.9349 28.817C33.115 28.773 33.29 28.7793 33.46 28.836C33.6313 28.8923 33.7798 28.988 33.9054 29.1232C34.0324 29.2581 34.1191 29.4208 34.1656 29.6112C34.2118 29.8004 34.2096 29.984 34.1592 30.1622C34.1097 30.3388 34.0219 30.4916 33.8958 30.6205C33.771 30.7491 33.6186 30.8354 33.4386 30.8794ZM33.322 30.4019C33.4172 30.3787 33.4958 30.3325 33.5577 30.2635C33.6209 30.1941 33.6646 30.1123 33.6885 30.018C33.7125 29.9237 33.7124 29.8269 33.6882 29.7278C33.6633 29.6261 33.6179 29.539 33.5518 29.4667C33.4868 29.3927 33.4097 29.3403 33.3206 29.3096C33.2325 29.2772 33.1428 29.2721 33.0515 29.2944C32.9576 29.3173 32.879 29.3635 32.8158 29.4328C32.7525 29.5022 32.7091 29.5847 32.6855 29.6803C32.6618 29.7759 32.6621 29.8733 32.6863 29.9724C32.7115 30.0755 32.7571 30.1632 32.8231 30.2355C32.8892 30.3079 32.9661 30.3596 33.0538 30.3907C33.1426 30.4202 33.232 30.4239 33.322 30.4019ZM35.2123 30.3923L35.8287 30.2418L36.0626 28.1092L35.5539 28.2334L35.3872 29.767L34.5305 28.4833L34.0217 28.6076L35.2123 30.3923ZM37.6272 29.8565C37.4472 29.9005 37.2715 29.8943 37.1002 29.838C36.9301 29.7814 36.7818 29.6863 36.6552 29.5527C36.5296 29.4175 36.4435 29.2547 36.397 29.0642C36.3508 28.8751 36.3523 28.6916 36.4015 28.5137C36.452 28.3355 36.5396 28.1821 36.6644 28.0535C36.7905 27.9245 36.9435 27.8381 37.1236 27.7941C37.2762 27.7569 37.4237 27.7554 37.5662 27.7897C37.7083 27.8227 37.8375 27.8845 37.9536 27.975C38.0706 28.0639 38.1663 28.1754 38.2404 28.3093C38.3159 28.4429 38.3625 28.5912 38.3802 28.7541L36.9498 29.1034C37.0027 29.2066 37.0786 29.2855 37.1776 29.3401C37.2767 29.3947 37.3877 29.4077 37.5106 29.3791C37.5928 29.359 37.6635 29.3203 37.7228 29.263C37.782 29.2057 37.8259 29.1362 37.8543 29.0546L38.3693 29.0491C38.3321 29.2421 38.2481 29.4132 38.1173 29.5627C37.9862 29.7108 37.8229 29.8087 37.6272 29.8565ZM36.8467 28.7492L37.8094 28.5141C37.7573 28.4024 37.6763 28.3171 37.5666 28.2582C37.4578 28.1977 37.344 28.1819 37.2253 28.2109C37.1066 28.2399 37.0128 28.3057 36.9438 28.4082C36.8762 28.5104 36.8438 28.6241 36.8467 28.7492ZM38.1543 26.5638L38.871 29.4989L39.3485 29.3823L38.6317 26.4472L38.1543 26.5638ZM45.6824 7.49008C45.7473 7.89825 45.7737 8.31152 45.7613 8.72445C45.7884 10.4172 44.6451 11.9649 42.9297 12.3838C40.9388 12.87 38.9309 11.6514 38.4451 9.66202C37.9593 7.67261 39.1795 5.66574 41.1705 5.17955C42.4624 4.86408 43.7613 5.26635 44.647 6.13122L45.8874 6.1755L45.0654 6.61758L43.8454 7.28606C43.2923 6.62392 42.3916 6.29505 41.4963 6.51368C40.2427 6.8198 39.4744 8.08338 39.7803 9.33597C40.0862 10.5886 41.3504 11.3558 42.604 11.0497C43.5719 10.8133 44.2505 10.0061 44.3687 9.07389L42.2861 9.17095L45.6578 7.33527L45.6824 7.49008ZM5.8376 16.1196C5.44502 16.2155 5.20448 16.6115 5.30035 17.0041C5.39621 17.3967 5.79218 17.6372 6.18477 17.5413L15.892 15.1709C16.2846 15.075 16.5251 14.679 16.4292 14.2865C16.3334 13.8939 15.9374 13.6533 15.5448 13.7492L5.8376 16.1196Z" fill="white" fill-opacity="0.2"/>
</svg>