<svg xmlns="http://www.w3.org/2000/svg" width="65" height="64" viewBox="0 0 65 64" fill="none">
  <path d="M36.6599 8.99982C36.7724 9.49357 37.2099 9.82482 37.6974 9.82482C37.7787 9.82482 37.8599 9.81232 37.9412 9.79982C38.5162 9.66857 38.8724 9.09357 38.7349 8.52482L37.8912 4.89357C37.7599 4.31857 37.1849 3.96232 36.6162 4.09982C36.0412 4.23107 35.6849 4.80607 35.8224 5.37482L36.6599 8.99982ZM44.8412 17.1623C44.7224 17.7373 45.0974 18.2998 45.6724 18.4186L49.3224 19.1561C49.3912 19.1686 49.4662 19.1748 49.5349 19.1748C50.0287 19.1748 50.4724 18.8248 50.5787 18.3186C50.6974 17.7436 50.3224 17.1811 49.7474 17.0623L46.0974 16.3248C45.5224 16.2123 44.9599 16.5873 44.8412 17.1623ZM43.7224 11.8623C43.9724 11.8623 44.2099 11.7748 44.3974 11.6186L47.5287 9.03107C47.9849 8.65607 48.0474 7.98732 47.6724 7.53107C47.2974 7.07482 46.6287 7.01232 46.1724 7.38732L43.0412 9.97482C42.5849 10.3498 42.5224 11.0186 42.8974 11.4748C43.1099 11.7248 43.4099 11.8623 43.7224 11.8623ZM54.0037 58.8748H28.8974L46.4912 52.4998C47.5787 52.1061 48.4537 51.3061 48.9412 50.2561C49.4349 49.2061 49.4849 48.0248 49.0912 46.9373L47.9537 43.7936C47.8162 43.4061 47.3849 43.2061 46.9974 43.3498C46.6099 43.4873 46.4099 43.9186 46.5537 44.3061L47.6912 47.4498C47.9537 48.1686 47.9162 48.9373 47.5912 49.6311C47.2662 50.3186 46.6974 50.8436 45.9787 51.1061L26.1849 58.2748C25.4662 58.5373 24.6974 58.4998 24.0037 58.1748C23.3162 57.8498 22.7912 57.2811 22.5287 56.5623L11.5849 26.3748C11.0474 24.8998 11.8162 23.2561 13.2912 22.7248L33.1037 15.5498C33.8224 15.2873 34.5912 15.3248 35.2849 15.6498C35.9724 15.9748 36.4974 16.5436 36.7537 17.2623L41.2224 29.6373C41.3599 30.0248 41.7912 30.2248 42.1787 30.0873C42.5662 29.9498 42.7662 29.5186 42.6287 29.1311L38.1599 16.7561C37.7662 15.6686 36.9662 14.7936 35.9162 14.3061C34.8662 13.8123 33.6849 13.7623 32.5974 14.1561L12.7912 21.3248C10.5412 22.1436 9.37244 24.6373 10.1912 26.8873L21.1349 57.0748C21.6662 58.5436 22.9162 59.5498 24.3412 59.8436C24.4287 59.8998 24.5287 59.9311 24.6287 59.9311H25.0037C25.0787 59.9373 25.1537 59.9373 25.2224 59.9373C25.2974 59.9373 25.3724 59.9373 25.4412 59.9311H54.0037C54.2974 59.9311 54.5287 59.6936 54.5287 59.4061C54.5287 59.1186 54.2912 58.8748 54.0037 58.8748Z" fill="currentColor"/>
  <path d="M25.2743 42.8936C25.293 42.7811 25.2493 42.6686 25.1618 42.5936C25.0743 42.5186 24.9555 42.4998 24.843 42.5436L22.968 43.2436C22.8868 43.2748 22.8243 43.3311 22.7868 43.4123C22.7493 43.4873 22.7493 43.5748 22.7805 43.6561C22.8243 43.7811 22.9493 43.8623 23.0805 43.8623C23.118 43.8623 23.1555 43.8561 23.193 43.8436L25.068 43.1436C25.1805 43.0998 25.2555 43.0061 25.2743 42.8936ZM25.218 51.9373C25.2555 51.9373 25.293 51.9311 25.3305 51.9186L27.5243 51.0998C27.6055 51.0686 27.668 51.0123 27.7055 50.9311C27.743 50.8561 27.743 50.7686 27.7118 50.6873C27.6805 50.6061 27.6243 50.5436 27.543 50.5061C27.468 50.4686 27.3805 50.4686 27.2993 50.4998L25.1055 51.3248C25.0243 51.3561 24.9618 51.4123 24.9243 51.4936C24.8868 51.5686 24.8868 51.6561 24.918 51.7373C24.968 51.8561 25.0868 51.9373 25.218 51.9373ZM29.8368 41.2623C29.8743 41.1873 29.8743 41.0998 29.843 41.0186C29.8118 40.9373 29.7555 40.8748 29.6743 40.8373C29.5993 40.7998 29.5118 40.7998 29.4305 40.8311L26.4368 41.9436C26.3555 41.9748 26.293 42.0311 26.2555 42.1123C26.218 42.1873 26.218 42.2748 26.2493 42.3561C26.293 42.4811 26.418 42.5623 26.5493 42.5623C26.5868 42.5623 26.6243 42.5561 26.6618 42.5436L29.6555 41.4311C29.7368 41.3998 29.8055 41.3373 29.8368 41.2623ZM35.7305 39.1436C35.768 39.1436 35.8055 39.1373 35.843 39.1248L38.8368 38.0123C38.9993 37.9498 39.0868 37.7686 39.0243 37.5998C38.9618 37.4373 38.7805 37.3498 38.6118 37.4123L35.618 38.5248C35.5368 38.5561 35.4743 38.6123 35.4368 38.6936C35.3993 38.7686 35.3993 38.8561 35.4305 38.9373C35.4805 39.0623 35.5993 39.1436 35.7305 39.1436ZM29.0118 50.5248C29.0493 50.5248 29.0868 50.5186 29.1243 50.5061L32.118 49.3936C32.1993 49.3623 32.2618 49.3061 32.2993 49.2248C32.3368 49.1498 32.3368 49.0623 32.3055 48.9811C32.2743 48.8998 32.218 48.8373 32.1368 48.7998C32.0618 48.7623 31.9743 48.7623 31.893 48.7936L28.8993 49.9061C28.7743 49.9061 28.6555 49.9811 28.6055 50.0998C28.5555 50.2186 28.5805 50.3561 28.668 50.4436C28.7555 50.5436 28.8868 50.5748 29.0118 50.5248ZM33.5993 48.8186C33.6368 48.8186 33.6743 48.8123 33.7118 48.7998L36.593 47.7248V47.7498C36.5993 47.9686 36.7805 48.0623 36.9618 47.9498L39.2243 46.5811C39.293 46.5373 39.3555 46.4748 39.3993 46.3936L49.0305 28.6436C49.3868 27.9873 49.2993 27.2561 48.8368 27.0061L47.6805 26.3811C47.218 26.1311 46.5555 26.4561 46.1993 27.1123L36.568 44.8623C36.5243 44.9436 36.5055 45.0311 36.5055 45.1061L36.568 47.0686C36.5368 47.0686 36.5055 47.0748 36.4805 47.0873L33.4868 48.1998C33.3618 48.1998 33.243 48.2748 33.193 48.3936C33.143 48.5123 33.168 48.6498 33.2555 48.7373C33.343 48.8311 33.4743 48.8623 33.5993 48.8186ZM34.4243 39.5498C34.4618 39.4748 34.4618 39.3873 34.4305 39.3061C34.3993 39.2248 34.343 39.1623 34.2618 39.1248C34.1868 39.0873 34.0993 39.0873 34.018 39.1186L31.0243 40.2311C30.8805 40.2873 30.793 40.4373 30.8243 40.5873C30.8493 40.7373 30.9868 40.8498 31.1368 40.8498C31.1743 40.8498 31.2118 40.8436 31.2493 40.8311L34.243 39.7186C34.3243 39.6873 34.393 39.6248 34.4243 39.5498Z" fill="currentColor"/>
</svg>