<svg xmlns="http://www.w3.org/2000/svg" width="24" height="25" viewBox="0 0 24 25" fill="none">
  <path d="M18.9571 19.3259C20.7481 17.5057 21.7518 15.0544 21.7518 12.5009C21.7518 9.94734 20.7481 7.4961 18.9571 5.67589C18.9403 5.64951 18.9179 5.62711 18.8915 5.61026C18.8747 5.58388 18.8523 5.56149 18.8259 5.54464C17.0057 3.75371 14.5544 2.75 12.0009 2.75C9.44734 2.75 6.9961 3.75371 5.17589 5.54464C5.14951 5.56149 5.12711 5.58388 5.11026 5.61026C5.08388 5.62711 5.06149 5.64951 5.04464 5.67589C3.25371 7.4961 2.25 9.94734 2.25 12.5009C2.25 15.0544 3.25371 17.5057 5.04464 19.3259L5.11026 19.3915C5.12711 19.4179 5.14951 19.4403 5.17589 19.4571C6.9961 21.2481 9.44734 22.2518 12.0009 22.2518C14.5544 22.2518 17.0057 21.2481 18.8259 19.4571C18.8523 19.4403 18.8747 19.4179 18.8915 19.3915C18.9179 19.3747 18.9403 19.3523 18.9571 19.3259ZM3.78839 13.2509H6.04776C6.18275 14.318 6.60388 15.3287 7.26651 16.1759L5.66339 17.779C4.59157 16.496 3.93736 14.9161 3.78839 13.2509ZM5.66339 7.22276L7.26651 8.82589C6.60388 9.67311 6.18275 10.6838 6.04776 11.7509H3.78839C3.93736 10.0857 4.59157 8.50581 5.66339 7.22276ZM20.2134 11.7509H17.954C17.819 10.6838 17.3979 9.67311 16.7353 8.82589L18.3384 7.22276C19.4102 8.50581 20.0644 10.0857 20.2134 11.7509ZM15.6759 7.76651C14.8287 7.10388 13.818 6.68275 12.7509 6.54776V4.28839C14.4161 4.43736 15.996 5.09157 17.279 6.16339L15.6759 7.76651ZM11.2509 6.54776C10.1838 6.68275 9.17311 7.10388 8.32589 7.76651L6.72276 6.16339C8.00581 5.09157 9.58571 4.43736 11.2509 4.28839V6.54776ZM8.32589 17.2353C9.17311 17.8979 10.1838 18.319 11.2509 18.454V20.7134C9.58571 20.5644 8.00581 19.9102 6.72276 18.8384L8.32589 17.2353ZM12.7509 18.454C13.818 18.319 14.8287 17.8979 15.6759 17.2353L17.279 18.8384C15.996 19.9102 14.4161 20.5644 12.7509 20.7134V18.454ZM16.7353 16.1759C17.3979 15.3287 17.819 14.318 17.954 13.2509H20.2134C20.0644 14.9161 19.4102 16.496 18.3384 17.779L16.7353 16.1759Z" fill="#1D1D1F"/>
</svg>