<svg xmlns="http://www.w3.org/2000/svg" width="15" height="14" viewBox="0 0 15 14" fill="none">
  <path d="M10.2905 8.777H10.2906C10.7178 8.777 11.1355 8.90369 11.4907 9.14105C11.8459 9.37841 12.1228 9.71578 12.2863 10.1105C12.4498 10.5052 12.4926 10.9395 12.4092 11.3586C12.3259 11.7776 12.1201 12.1625 11.818 12.4646C11.5159 12.7667 11.131 12.9725 10.712 13.0558C10.293 13.1392 9.85864 13.0964 9.46392 12.9329C9.0692 12.7694 8.73183 12.4925 8.49447 12.1373C8.25713 11.7821 8.13044 11.3644 8.13042 10.9372C8.13129 10.6695 8.18071 10.4041 8.27627 10.1539L8.28421 10.1332L8.26551 10.1212L5.74441 8.50242L5.72562 8.49036L5.71004 8.50636C5.41031 8.81429 5.02555 9.02583 4.60496 9.11393C4.18436 9.20203 3.74705 9.16267 3.34894 9.00091C2.95083 8.83915 2.61001 8.56232 2.37006 8.20582C2.13012 7.84933 2.00195 7.42938 2.00195 6.99965C2.00195 6.56993 2.13012 6.14997 2.37006 5.79348C2.61001 5.43699 2.95083 5.16016 3.34894 4.9984C3.74705 4.83663 4.18436 4.79728 4.60496 4.88538C5.02555 4.97347 5.41031 5.18501 5.71004 5.49294L5.72562 5.50895L5.74441 5.49688L8.26551 3.87813L8.28421 3.86612L8.27627 3.84536C8.18071 3.59523 8.13129 3.32983 8.13042 3.06206C8.12962 2.56113 8.30294 2.07548 8.62072 1.68824C8.93852 1.30099 9.38102 1.03623 9.87251 0.939282C10.364 0.84233 10.8739 0.919213 11.3149 1.15677C11.756 1.39433 12.1008 1.77779 12.2902 2.24153C12.4797 2.70527 12.5021 3.22044 12.3537 3.69889C12.2052 4.17733 11.895 4.58929 11.4763 4.86426C11.0575 5.13923 10.5562 5.26011 10.0582 5.20622C9.56013 5.15232 9.09629 4.927 8.74606 4.56882L8.73049 4.55289L8.71174 4.56493L6.19065 6.18368L6.17189 6.19572L6.17991 6.21652C6.37426 6.72052 6.37426 7.27878 6.17991 7.78278L6.17189 7.80359L6.19065 7.81563L8.71174 9.43438L8.73059 9.44649L8.74617 9.43038C8.94647 9.22328 9.18647 9.05868 9.45181 8.94642C9.71716 8.83416 10.0024 8.77654 10.2905 8.777Z" fill="currentColor" stroke="currentColor" stroke-width="0.0546875"/>
</svg>