<svg xmlns="http://www.w3.org/2000/svg" width="14" height="14" viewBox="0 0 14 14" fill="none">
  <g opacity="0.5">
    <path fill-rule="evenodd" clip-rule="evenodd" d="M11.8996 6.99961C11.8996 9.70581 9.70581 11.8996 6.99961 11.8996C4.29341 11.8996 2.09961 9.70581 2.09961 6.99961C2.09961 4.29341 4.29341 2.09961 6.99961 2.09961C9.70581 2.09961 11.8996 4.29341 11.8996 6.99961ZM7.61211 4.54961C7.61211 4.88788 7.33788 5.16211 6.99961 5.16211C6.66134 5.16211 6.38711 4.88788 6.38711 4.54961C6.38711 4.21134 6.66134 3.93711 6.99961 3.93711C7.33788 3.93711 7.61211 4.21134 7.61211 4.54961ZM6.38711 6.38711C6.04884 6.38711 5.77461 6.66134 5.77461 6.99961C5.77461 7.33788 6.04884 7.61211 6.38711 7.61211V9.44961C6.38711 9.78788 6.66134 10.0621 6.99961 10.0621H7.61211C7.95038 10.0621 8.22461 9.78788 8.22461 9.44961C8.22461 9.11134 7.95038 8.83711 7.61211 8.83711V6.99961C7.61211 6.66134 7.33788 6.38711 6.99961 6.38711H6.38711Z" fill="currentColor"/>
  </g>
</svg>