<svg width="80" height="81" viewBox="0 0 80 81" fill="none" xmlns="http://www.w3.org/2000/svg">
<rect x="0.5" y="1" width="79" height="79" rx="39.5" stroke="#1D1D1F" stroke-opacity="0.25" stroke-dasharray="2.67 2.67"/>
<path d="M40 48.5003C35.5817 48.5003 32 44.9179 32 40.4991C32 36.0802 35.5817 32.498 40 32.498C44.4183 32.498 48 36.0802 48 40.4991C48 44.9179 44.4183 48.5003 40 48.5003ZM40 33.4981C36.134 33.4981 33 36.6325 33 40.4991C33 44.3656 36.134 47.5 40 47.5C43.866 47.5 47 44.3656 47 40.4991C47 36.6326 43.866 33.4981 40 33.4981ZM43 40.9992H40.5V43.4995C40.5 43.7756 40.2762 43.9995 40 43.9995C39.7239 43.9995 39.5001 43.7756 39.5001 43.4995V40.9992H37C36.7239 40.9992 36.5 40.7753 36.5 40.4991C36.5 40.223 36.7239 39.9991 37 39.9991H39.5001V37.4986C39.5001 37.2226 39.7239 36.9988 40 36.9988C40.2762 36.9988 40.5 37.2226 40.5 37.4986V39.9991H43C43.2762 39.9991 43.5 40.223 43.5 40.4991C43.5 40.7753 43.2762 40.9992 43 40.9992Z" fill="#1D1D1F" fill-opacity="0.85"/>
</svg>
