<svg xmlns="http://www.w3.org/2000/svg" width="40" height="40" viewBox="0 0 40 40" fill="none">
  <path d="M36.8761 21.7647L21.7667 36.8741C21.5357 37.1075 21.2607 37.2927 20.9576 37.4192C20.6546 37.5456 20.3294 37.6107 20.0011 37.6107C19.6727 37.6107 19.3476 37.5456 19.0445 37.4192C18.7414 37.2927 18.4664 37.1075 18.2354 36.8741L3.12606 21.7647C2.66231 21.2941 2.40234 20.6599 2.40234 19.9991C2.40234 19.3384 2.66231 18.7041 3.12606 18.2335L18.2354 3.12411C18.7061 2.66035 19.3403 2.40039 20.0011 2.40039C20.6618 2.40039 21.296 2.66035 21.7667 3.12411L36.8761 18.2335C37.3398 18.7041 37.5998 19.3384 37.5998 19.9991C37.5998 20.6599 37.3398 21.2941 36.8761 21.7647Z" fill="#FF4D45"/>
  <path d="M18.9938 15.0059H21.0009L24.6367 25.0059H22.7867L22.1438 23.2344H17.8581L17.2152 25.0059H15.3652L18.9938 15.0059ZM18.4938 21.4916H21.5009L19.9938 17.3701L18.4938 21.4916Z" fill="white"/>
</svg>