<svg xmlns="http://www.w3.org/2000/svg" width="41" height="40" viewBox="0 0 41 40" fill="none">
  <path fill-rule="evenodd" clip-rule="evenodd" d="M23.0551 37.892C22.1675 38.0259 21.2589 38.0952 20.334 38.0952C19.4091 38.0952 18.5005 38.0259 17.6129 37.892L15.9802 39.5247C17.3818 39.8359 18.8387 40 20.334 40C21.8293 40 23.2862 39.8359 24.6878 39.5247L23.0551 37.892ZM14.5457 37.1497C7.39065 34.7356 2.23875 27.9694 2.23875 20C2.23875 10.0063 10.3403 1.90476 20.334 1.90476C30.3277 1.90476 38.4292 10.0063 38.4292 20C38.4292 27.9694 33.2773 34.7356 26.1223 37.1497L27.6085 38.6359C35.0573 35.7261 40.334 28.4792 40.334 20C40.334 8.9543 31.3797 0 20.334 0C9.28829 0 0.333984 8.9543 0.333984 20C0.333984 28.4792 5.61066 35.7261 13.0594 38.6359L14.5457 37.1497Z" fill="#1D1D1F"/>
  <path fill-rule="evenodd" clip-rule="evenodd" d="M20.4696 14.7336L27.3284 21.5922L27.3279 21.5928H31.8976L31.8982 21.5922L29.6133 19.3074L22.7544 12.4488L20.4696 10.1641L18.1847 12.4488L11.3259 19.3074L9.04102 21.5922L9.04157 21.5928H13.6113L13.6107 21.5922L20.4696 14.7336Z" fill="#1D1D1F"/>
  <path fill-rule="evenodd" clip-rule="evenodd" d="M20.3542 23.1494L25.2039 27.9994L25.2032 28H28.4344L28.435 27.9994L26.8194 26.3837L21.9698 21.5337L20.3542 19.918L18.7386 21.5337L13.889 26.3837L12.2734 27.9994L12.2741 28H15.5052L15.5046 27.9994L20.3542 23.1494Z" fill="#1D1D1F"/>
</svg>