<svg xmlns="http://www.w3.org/2000/svg" width="40" height="40" viewBox="0 0 40 40" fill="none">
  <path d="M36.25 23.1248C36.2502 24.59 35.8541 26.028 35.1038 27.2866C34.3534 28.5451 33.2767 29.5773 31.9877 30.2738C30.6986 30.9704 29.2452 31.3054 27.7813 31.2434C26.3173 31.1814 24.8974 30.7247 23.6719 29.9217L25.3438 35.2498C25.4039 35.4362 25.4183 35.6343 25.3857 35.8274C25.353 36.0205 25.2744 36.2029 25.1563 36.3592C25.0424 36.5182 24.8923 36.6479 24.7184 36.7376C24.5446 36.8272 24.3519 36.8743 24.1563 36.8748H15.8438C15.6481 36.8743 15.4555 36.8272 15.2816 36.7376C15.1077 36.6479 14.9577 36.5182 14.8438 36.3592C14.7257 36.2029 14.647 36.0205 14.6143 35.8274C14.5817 35.6343 14.5961 35.4362 14.6563 35.2498L16.3281 29.9217C14.9396 30.8363 13.3026 31.3001 11.6406 31.2498C7.31251 31.1248 3.76564 27.4998 3.75002 23.1561C3.74796 22.087 3.95649 21.028 4.3637 20.0396C4.77091 19.0511 5.36882 18.1526 6.1233 17.3952C6.87777 16.6378 7.77404 16.0365 8.76092 15.6255C9.7478 15.2145 10.806 15.0019 11.875 14.9998L12.5 15.0311C12.0248 13.8736 11.8165 12.6239 11.8906 11.3748C11.9623 10.1939 12.2911 9.04284 12.8539 8.00217C13.4167 6.96149 14.2 6.05628 15.149 5.3498C16.098 4.64332 17.1899 4.15262 18.3482 3.912C19.5066 3.67138 20.7036 3.68664 21.8555 3.95672C23.0073 4.2268 24.0863 4.74518 25.017 5.47562C25.9477 6.20607 26.7077 7.13096 27.2438 8.18565C27.7798 9.24034 28.0791 10.3994 28.1207 11.5818C28.1623 12.7641 27.9451 13.9413 27.4844 15.0311C28.6039 14.9306 29.7321 15.0658 30.7961 15.428C31.8602 15.7901 32.8366 16.3712 33.6624 17.1337C34.4883 17.8962 35.1452 18.8233 35.5908 19.8552C36.0365 20.887 36.2611 22.0009 36.25 23.1248Z" fill="#A945E3"/>
  <path d="M17.2051 25.3086V15.3086H20.8479C21.3765 15.3086 21.8527 15.4181 22.2765 15.6372C22.7051 15.8515 23.0432 16.161 23.2908 16.5657C23.5432 16.9657 23.6694 17.4395 23.6694 17.9872C23.6694 18.3538 23.5884 18.7181 23.4265 19.08C23.2646 19.4372 23.0098 19.6872 22.6622 19.83C23.0765 19.9348 23.3908 20.1443 23.6051 20.4586C23.8194 20.7681 23.9646 21.1157 24.0408 21.5015C24.1217 21.8824 24.1622 22.23 24.1622 22.5443C24.1622 23.0729 24.0313 23.5467 23.7694 23.9657C23.5075 24.38 23.1551 24.7086 22.7122 24.9515C22.2741 25.1895 21.7884 25.3086 21.2551 25.3086H17.2051ZM18.9479 19.18H20.6479C21.0003 19.18 21.3003 19.0705 21.5479 18.8515C21.8003 18.6324 21.9265 18.3395 21.9265 17.9729C21.9265 17.5919 21.8003 17.3038 21.5479 17.1086C21.3003 16.9086 21.0003 16.8086 20.6479 16.8086H18.9479V19.18ZM18.9479 23.8157H21.0765C21.5003 23.8157 21.8598 23.6634 22.1551 23.3586C22.4551 23.0538 22.6051 22.6705 22.6051 22.2086C22.6051 21.9419 22.536 21.6895 22.3979 21.4515C22.2646 21.2134 22.0813 21.0205 21.8479 20.8729C21.6146 20.7253 21.3575 20.6515 21.0765 20.6515H18.9479V23.8157Z" fill="white"/>
</svg>