<svg xmlns="http://www.w3.org/2000/svg" width="41" height="40" viewBox="0 0 41 40" fill="none">
  <path d="M23.03 37.9404C30.0645 37.0106 36.1895 31.963 38.1403 24.6822C40.7263 15.0314 34.999 5.1116 25.3482 2.52568C15.6974 -0.0602452 5.77762 5.66697 3.19169 15.3178C1.24089 22.5983 4.02117 30.0319 9.64794 34.3544L7.56219 35.1087C1.96947 30.2509 -0.693984 22.4617 1.35229 14.8249C4.21042 4.15823 15.1744 -2.17185 25.8411 0.686277C36.5078 3.5444 42.8379 14.5084 39.9797 25.1751C37.9334 32.8121 31.7318 38.2262 24.4592 39.6366L23.03 37.9404Z" fill="#1D1D1F"/>
  <path d="M23.5009 9.44307L30.7111 17.5887L20.3765 21.0849L13.1733 12.89L23.5009 9.44307Z" fill="#1D1D1F"/>
  <path d="M19.4521 21.6185L12.7851 14.3495L10.631 22.3881L17.298 29.657L19.4521 21.6185Z" fill="#1D1D1F"/>
  <path d="M20.9113 22.0108L30.3198 19.0489L28.1658 27.0874L18.7573 30.0493L20.9113 22.0108Z" fill="#1D1D1F"/>
  <mask id="mask0_237_39753" style="mask-type:alpha" maskUnits="userSpaceOnUse" x="0" y="0" width="41" height="40">
    <circle cx="20.6669" cy="19.9989" r="19.995" fill="#D9D9D9"/>
  </mask>
  <g mask="url(#mask0_237_39753)">
    <path d="M20.6094 35.9128L27.7505 40.8912L20.6094 45.8697L13.4683 40.8912L20.6094 35.9128Z" fill="#1D1D1F"/>
  </g>
</svg>