<svg xmlns="http://www.w3.org/2000/svg" width="40" height="40" viewBox="0 0 40 40" fill="none">
  <path d="M27.5 30.5458H27.4999C26.1022 30.5483 24.7252 30.2081 23.4896 29.5548L23.3178 29.464L23.379 29.6485L25.2383 35.2578L25.2387 35.2589C25.2996 35.4342 25.3167 35.6218 25.2887 35.8053C25.2607 35.9887 25.1883 36.1626 25.0778 36.3118L25.0771 36.3128C24.9704 36.4617 24.8298 36.5832 24.667 36.6672C24.5041 36.7512 24.3236 36.7952 24.1404 36.7958H15.8596C15.6764 36.7952 15.4959 36.7512 15.333 36.6672C15.1702 36.5832 15.0296 36.4617 14.9229 36.3128L14.9222 36.3118C14.8117 36.1626 14.7393 35.9887 14.7113 35.8053C14.6833 35.6218 14.7004 35.4342 14.7613 35.2589L14.7617 35.2578L16.621 29.6485L16.6822 29.464L16.5104 29.5548C15.2748 30.2081 13.8978 30.5483 12.5001 30.5458H12.5C10.2001 30.5458 7.99435 29.6321 6.36806 28.0058C4.74177 26.3795 3.82812 24.1738 3.82812 21.8739C3.82812 19.8029 4.77249 17.632 6.20976 15.5291C7.64625 13.4273 9.56974 11.4011 11.5156 9.62099C15.2804 6.17706 19.1204 3.66199 19.6564 3.31096C19.6736 3.2997 19.6874 3.29066 19.6977 3.2839C19.7892 3.22975 19.8936 3.20117 20 3.20117C20.1064 3.20117 20.2108 3.22974 20.3023 3.28389C20.3126 3.29065 20.3264 3.29969 20.3436 3.31095C20.8795 3.66195 24.7196 6.17703 28.4844 9.62099C30.4303 11.4011 32.3537 13.4273 33.7902 15.5291C35.2275 17.632 36.1719 19.8029 36.1719 21.8739C36.1719 24.1738 35.2582 26.3795 33.6319 28.0058C32.0056 29.6321 29.7999 30.5458 27.5 30.5458Z" fill="#0071E3" stroke="#0071E3" stroke-width="0.15625"/>
  <path d="M20.4766 24.998C19.8246 24.998 19.2117 24.8695 18.6377 24.6124C18.0638 24.3507 17.5588 23.9902 17.1226 23.5311C16.691 23.072 16.3512 22.5417 16.1033 21.9402C15.86 21.3341 15.7383 20.6868 15.7383 19.998C15.7383 19.3048 15.86 18.6574 16.1033 18.0559C16.3512 17.4498 16.691 16.9195 17.1226 16.465C17.5588 16.0059 18.0638 15.6477 18.6377 15.3906C19.2117 15.1289 19.8246 14.998 20.4766 14.998C21.2571 14.998 21.9757 15.1794 22.6322 15.5421C23.2888 15.9048 23.8329 16.3846 24.2645 16.9815L22.7631 17.7873C22.4876 17.4521 22.1501 17.1835 21.7507 16.9815C21.3512 16.7795 20.9265 16.6785 20.4766 16.6785C19.9118 16.6785 19.3976 16.83 18.9339 17.133C18.4701 17.4315 18.1005 17.8332 17.8251 18.3383C17.5542 18.8387 17.4187 19.392 17.4187 19.998C17.4187 20.6087 17.5565 21.1643 17.8319 21.6647C18.1074 22.1652 18.477 22.5669 18.9408 22.8699C19.4045 23.1684 19.9164 23.3176 20.4766 23.3176C20.9357 23.3176 21.3627 23.2166 21.7576 23.0146C22.157 22.808 22.4922 22.5371 22.7631 22.2019L24.2645 23.0146C23.8329 23.616 23.2888 24.0981 22.6322 24.4609C21.9757 24.819 21.2571 24.998 20.4766 24.998Z" fill="white"/>
</svg>