<svg xmlns="http://www.w3.org/2000/svg" width="41" height="40" viewBox="0 0 41 40" fill="none">
  <path fill-rule="evenodd" clip-rule="evenodd" d="M24.4343 37.609C23.0912 37.927 21.6903 38.0952 20.25 38.0952C18.8103 38.0952 17.4099 37.9271 16.0673 37.6094L20.2505 39.9998L24.4343 37.609ZM26.9171 36.8274C33.6114 34.1729 38.3452 27.6393 38.3452 20C38.3452 10.0063 30.2437 1.90476 20.25 1.90476C10.2563 1.90476 2.15476 10.0063 2.15476 20C2.15476 27.6396 6.88904 34.1735 13.5838 36.8278V38.8621C5.81561 36.1167 0.25 28.7083 0.25 20C0.25 8.9543 9.2043 0 20.25 0C31.2957 0 40.25 8.9543 40.25 20C40.25 28.708 34.6848 36.1161 26.9171 38.8618V36.8274Z" fill="#1D1D1F"/>
  <mask id="mask0_237_39679" style="mask-type:alpha" maskUnits="userSpaceOnUse" x="0" y="0" width="41" height="40">
    <circle cx="20.25" cy="20" r="20" fill="#D9D9D9"/>
  </mask>
  <g mask="url(#mask0_237_39679)">
    <path d="M20.2504 7.61914L21.4411 10.837C22.318 13.2068 24.1865 15.0753 26.5564 15.9522L29.7742 17.143L27.68 17.9179C24.689 19.0247 22.5485 21.6862 22.1092 24.8451L20.2504 38.2108L18.3915 24.8451C17.9522 21.6862 15.8118 19.0247 12.8207 17.9179L10.7266 17.143L13.9444 15.9522C16.3143 15.0753 18.1827 13.2068 19.0597 10.837L20.2504 7.61914Z" fill="#1D1D1F"/>
  </g>
</svg>