<svg xmlns="http://www.w3.org/2000/svg" width="41" height="40" viewBox="0 0 41 40" fill="none">
  <path fill-rule="evenodd" clip-rule="evenodd" d="M26.6375 37.1159C33.7409 34.6729 38.8452 27.9326 38.8452 20C38.8452 10.0063 30.7437 1.90476 20.75 1.90476C10.7563 1.90476 2.65476 10.0063 2.65476 20C2.65476 27.9034 7.72161 34.6234 14.7842 37.0887L12.9015 38.4013C5.75706 35.3501 0.75 28.2598 0.75 20C0.75 8.9543 9.7043 0 20.75 0C31.7957 0 40.75 8.9543 40.75 20C40.75 28.2878 35.7089 35.3982 28.5257 38.4322L26.6375 37.1159Z" fill="#1D1D1F"/>
  <mask id="mask0_237_39690" style="mask-type:alpha" maskUnits="userSpaceOnUse" x="0" y="0" width="41" height="40">
    <circle cx="20.75" cy="20" r="20" fill="#D9D9D9"/>
  </mask>
  <g mask="url(#mask0_237_39690)">
    <path fill-rule="evenodd" clip-rule="evenodd" d="M10.0742 19.3359L9.27344 19.8942L20.645 27.8216L32.0165 19.8942L31.3309 19.4163L20.7602 26.7855L10.0742 19.3359Z" fill="#1D1D1F"/>
    <path fill-rule="evenodd" clip-rule="evenodd" d="M10.0733 22.7813L9.27539 23.3375L20.6469 31.2649L32.0185 23.3375L31.3358 22.8616L20.7622 30.2328L10.0733 22.7813Z" fill="#1D1D1F"/>
    <path fill-rule="evenodd" clip-rule="evenodd" d="M32.1293 16.5643L20.758 8.63672L9.38672 16.5643L20.758 24.4919L32.1293 16.5643ZM20.759 11.9719L16.1641 15.4188H19.6103L20.759 21.1635L21.9077 15.4188H25.3539L20.759 11.9719Z" fill="#1D1D1F"/>
    <path d="M20.6914 35.9191L27.8343 40.8988L20.6914 45.8785L13.5485 40.8988L20.6914 35.9191Z" fill="#1D1D1F"/>
  </g>
</svg>