<svg width="16" height="18" viewBox="0 0 16 18" fill="none" xmlns="http://www.w3.org/2000/svg">
<path d="M7.33333 1.3849C7.74587 1.14672 8.25413 1.14672 8.66667 1.3849L14.2615 4.6151C14.6741 4.85328 14.9282 5.29345 14.9282 5.7698V12.2302C14.9282 12.7066 14.6741 13.1467 14.2615 13.3849L8.66667 16.6151C8.25413 16.8533 7.74587 16.8533 7.33333 16.6151L1.73846 13.3849C1.32593 13.1467 1.0718 12.7066 1.0718 12.2302V5.7698C1.0718 5.29345 1.32593 4.85328 1.73846 4.6151L7.33333 1.3849Z" fill="white" stroke="#1D1D1F" stroke-opacity="0.89" stroke-width="0.933333"/>
<path d="M7.33464 3.05287C7.74717 2.81469 8.25543 2.81469 8.66797 3.05287L12.8195 5.44974C13.232 5.68791 13.4861 6.12808 13.4861 6.60444V11.3982C13.4861 11.8745 13.232 12.3147 12.8195 12.5529L8.66797 14.9497C8.25543 15.1879 7.74717 15.1879 7.33464 14.9497L3.18314 12.5529C2.77061 12.3147 2.51647 11.8745 2.51647 11.3982V6.60444C2.51647 6.12808 2.77061 5.68791 3.18314 5.44974L7.33464 3.05287Z" fill="#1D1D1F" fill-opacity="0.89"/>
<path d="M11.195 8.68197C11.1676 9.01523 11.1091 9.34511 11.0201 9.66729C10.7164 11.003 9.52087 12 8.09223 12C6.43406 12 5.08984 10.6569 5.08984 9C5.08984 7.34315 6.43406 6 8.09223 6C9.16814 6 10.1119 6.56548 10.642 7.41523L11.6084 7.68809L10.8775 7.8778L9.79035 8.16906C9.48268 7.54247 8.83787 7.11111 8.09223 7.11111C7.04819 7.11111 6.20184 7.9568 6.20184 9C6.20184 10.0432 7.04819 10.8889 8.09223 10.8889C8.89838 10.8889 9.58667 10.3847 9.85847 9.67466L8.20298 9.35123L11.2054 8.55557L11.195 8.68197Z" fill="white"/>
</svg>
