<svg xmlns="http://www.w3.org/2000/svg" width="40" height="41" viewBox="0 0 40 41" fill="none">
  <path fill-rule="evenodd" clip-rule="evenodd" d="M20.0005 38.4437C20.0003 38.4437 20.0002 38.4437 20 38.4437C19.9999 38.4437 19.9998 38.4437 19.9997 38.4437V40.3485C19.9998 40.3485 19.9999 40.3485 20 40.3485C20.0002 40.3485 20.0003 40.3485 20.0005 40.3485V38.4437ZM25.1029 37.7067C32.6042 35.4841 38.0952 28.4859 38.0952 20.1742C38.0952 10.0687 29.9782 1.90476 20 1.90476C10.0218 1.90476 1.90476 10.0687 1.90476 20.1742C1.90476 28.486 7.39589 35.4842 14.8973 37.7068L16.2791 40C7.01146 38.2411 0 30.0336 0 20.1742C0 9.03231 8.9543 0 20 0C31.0457 0 40 9.03231 40 20.1742C40 30.0335 32.9886 38.2409 23.7211 39.9999L25.1029 37.7067Z" fill="#1D1D1F"/>
  <path fill-rule="evenodd" clip-rule="evenodd" d="M14.5945 11.5273H20.0016V13.5715L17.4675 20.3864L13.0742 18.8525L20.0016 30.2714V33.6849L9.52539 16.2997L14.5945 11.5273ZM20.0023 30.2714V33.6849L30.4785 16.2997L25.4094 11.5273H20.0023V13.5715L22.5364 20.3864L26.9297 18.8525L20.0023 30.2714Z" fill="#1D1D1F"/>
</svg>