<svg xmlns="http://www.w3.org/2000/svg" width="41" height="40" viewBox="0 0 41 40" fill="none">
  <path fill-rule="evenodd" clip-rule="evenodd" d="M2.18839 28.6003C0.94567 25.9951 0.25 23.0788 0.25 20C0.25 8.95431 9.20431 0 20.25 0C31.2957 0 40.25 8.95431 40.25 20C40.25 23.1886 39.5038 26.203 38.1765 28.8779L35.6377 29.5261C37.3542 26.7594 38.3452 23.4954 38.3452 20C38.3452 10.0063 30.2437 1.90476 20.25 1.90476C10.2563 1.90476 2.15476 10.0063 2.15476 20C2.15476 23.375 3.07871 26.5341 4.68747 29.2383L2.18839 28.6003Z" fill="#1D1D1F"/>
  <mask id="mask0_237_39657" style="mask-type:alpha" maskUnits="userSpaceOnUse" x="0" y="0" width="41" height="40">
    <circle cx="20.25" cy="20" r="20" fill="#D9D9D9"/>
  </mask>
  <g mask="url(#mask0_237_39657)">
    <path d="M20.2499 40.7629C18.488 40.8633 13.7529 40.2809 9.75924 38.3534C4.76718 35.9441 2.12432 31.4266 2.71162 30.8243C3.0244 30.5035 5.25274 31.2931 7.53375 32.1015C9.53583 32.8109 11.5785 33.5348 12.4021 33.5348C13.4217 33.5348 12.6712 32.1227 11.9147 30.6994C11.364 29.6632 10.8101 28.6211 10.9338 28.1135C11.1041 27.4149 12.7556 28.4381 14.3422 29.4211C15.4916 30.1332 16.607 30.8243 17.1005 30.8243C17.73 30.8243 18.6658 19.8867 19.3917 11.0661C19.4995 9.75542 21.0003 9.75542 21.1081 11.0661C21.834 19.8867 22.7698 30.8243 23.3993 30.8243C23.8928 30.8243 25.0082 30.1332 26.1576 29.4211C27.7442 28.4381 29.3957 27.4149 29.566 28.1135C29.6897 28.6211 29.1358 29.6632 28.5851 30.6994C27.8286 32.1227 27.0782 33.5348 28.0978 33.5348C28.9213 33.5348 30.964 32.8109 32.9661 32.1015C35.2471 31.2931 37.4754 30.5035 37.7882 30.8243C38.3755 31.4266 35.7326 35.9441 30.7406 38.3534C26.7469 40.2809 22.0118 40.8633 20.2499 40.7629Z" fill="#1D1D1F"/>
  </g>
</svg>