<svg stroke="currentColor" fill="currentColor" stroke-width="0" viewBox="0 0 24 24"
  xmlns="http://www.w3.org/2000/svg">
  <path
    d="M19.1545 19.547C17.9113 20.779 16.3594 21.6536 14.6617 22.0791C12.9639 22.5046 11.183 22.4652 9.50567 21.9651C7.82838 21.465 6.31664 20.5226 5.1291 19.2369C3.94156 17.9512 3.12202 16.3695 2.75648 14.6578C2.39095 12.9462 2.49291 11.1677 3.05166 9.509C3.6104 7.85033 4.60534 6.37265 5.93203 5.23104C7.25872 4.08944 8.86826 3.32601 10.5917 3.02088C12.3152 2.71575 14.089 2.88016 15.727 3.49688C15.9116 3.56975 16.0604 3.71205 16.1415 3.89329C16.2225 4.07453 16.2293 4.2803 16.1605 4.46652C16.1254 4.55874 16.0725 4.64313 16.0047 4.71486C15.937 4.78658 15.8557 4.84424 15.7656 4.88451C15.6756 4.92478 15.5784 4.94689 15.4798 4.94956C15.3812 4.95222 15.283 4.9354 15.1909 4.90006C13.4289 4.23823 11.4936 4.19876 9.70618 4.78819C7.91872 5.37762 6.38654 6.56052 5.36389 8.1406C4.34124 9.72067 3.88961 11.6029 4.08395 13.475C4.27828 15.3471 5.10689 17.0964 6.43228 18.4328C7.75767 19.7691 9.50015 20.6121 11.3706 20.8218C13.241 21.0315 15.1269 20.5954 16.7153 19.5858C18.3038 18.5762 19.4992 17.0538 20.1033 15.2712C20.7074 13.4887 20.6839 11.5531 20.0366 9.78581C20.002 9.6934 19.986 9.59507 19.9895 9.49647C19.9929 9.39786 20.0158 9.30091 20.0569 9.21117C20.0979 9.12143 20.1562 9.04066 20.2285 8.97349C20.3008 8.90633 20.3856 8.85409 20.4781 8.81976C20.6649 8.75247 20.8706 8.76099 21.0511 8.84352C21.2317 8.92604 21.3728 9.076 21.4441 9.26126C22.0833 11.0155 22.2074 12.916 21.8017 14.7385C21.396 16.561 20.4775 18.2295 19.1545 19.547Z"
    fill="url(#paint0_linear_4877_9762)" />
  <defs>
    <linearGradient id="paint0_linear_4877_9762" x1="21.1272" y1="13.8297" x2="5.3689" y2="19.4874"
      gradientUnits="userSpaceOnUse">
      <stop stop-color="currentColor" stop-opacity="0" />
      <stop offset="1" stop-color="currentColor" />
    </linearGradient>
  </defs>
</svg>