<svg xmlns="http://www.w3.org/2000/svg" width="41" height="41" viewBox="0 0 41 41" fill="none">
  <path d="M37.4504 11.664C37.0928 11.3655 36.6586 11.1736 36.1972 11.11C35.7358 11.0465 35.2659 11.1139 34.841 11.3046L26.9347 14.8202L22.341 6.53899C22.1214 6.15236 21.8033 5.83083 21.4191 5.60715C21.0348 5.38347 20.5981 5.26562 20.1535 5.26562C19.7089 5.26562 19.2722 5.38347 18.8879 5.60715C18.5037 5.83083 18.1856 6.15236 17.966 6.53899L13.3722 14.8202L5.46599 11.3046C5.04022 11.1142 4.56966 11.0467 4.10753 11.1097C3.64539 11.1727 3.2101 11.3638 2.85086 11.6612C2.49162 11.9587 2.22276 12.3507 2.07467 12.793C1.92658 13.2353 1.90517 13.7102 2.01286 14.164L5.98161 31.0859C6.0575 31.4135 6.19911 31.7223 6.39786 31.9935C6.59661 32.2648 6.84836 32.4929 7.13786 32.664C7.52981 32.8986 7.97794 33.0228 8.43474 33.0234C8.65679 33.0229 8.8777 32.9914 9.09099 32.9296C16.3251 30.9296 23.9663 30.9296 31.2004 32.9296C31.8609 33.1033 32.5633 33.0077 33.1535 32.664C33.4448 32.4951 33.6979 32.2676 33.8969 31.996C34.0959 31.7244 34.2365 31.4145 34.3097 31.0859L38.2941 14.164C38.4006 13.7101 38.378 13.2354 38.2289 12.7936C38.0798 12.3518 37.8101 11.9606 37.4504 11.664Z" fill="#F73558"/>
  <path d="M20.1529 26.7383C19.6195 26.7383 19.1069 26.6555 18.6149 26.49C18.123 26.3199 17.6931 26.0785 17.3253 25.7659C16.9621 25.4486 16.7 25.0693 16.5391 24.6279L18.1184 24.0486C18.2149 24.3245 18.4563 24.5613 18.8425 24.759C19.2287 24.9567 19.6655 25.0555 20.1529 25.0555C20.4839 25.0555 20.7942 25.0049 21.0839 24.9038C21.3781 24.7981 21.6149 24.6532 21.7942 24.4693C21.9781 24.2808 22.0701 24.0624 22.0701 23.8141C22.0701 23.5613 21.9758 23.3544 21.7873 23.1935C21.5988 23.0279 21.3575 22.8969 21.0632 22.8004C20.7689 22.7038 20.4655 22.6302 20.1529 22.5797C19.4678 22.4739 18.854 22.3107 18.3115 22.09C17.7689 21.8693 17.3391 21.5636 17.0218 21.1728C16.7092 20.782 16.5529 20.2762 16.5529 19.6555C16.5529 19.0716 16.7207 18.5613 17.0563 18.1245C17.3919 17.6831 17.8333 17.3429 18.3804 17.1038C18.9276 16.8601 19.5184 16.7383 20.1529 16.7383C20.6816 16.7383 21.1919 16.8233 21.6839 16.9935C22.1758 17.159 22.6057 17.4003 22.9735 17.7176C23.346 18.0302 23.6126 18.4095 23.7735 18.8555L22.1873 19.4279C22.0862 19.1475 21.8448 18.9107 21.4632 18.7176C21.0816 18.5245 20.6448 18.4279 20.1529 18.4279C19.8264 18.4279 19.5161 18.4808 19.2218 18.5866C18.9322 18.6877 18.6954 18.8325 18.5115 19.021C18.3276 19.2049 18.2356 19.4164 18.2356 19.6555C18.2356 19.9636 18.3207 20.1958 18.4908 20.3521C18.6655 20.5084 18.8977 20.6233 19.1873 20.6969C19.477 20.7705 19.7988 20.8348 20.1529 20.89C20.7965 20.9912 21.3919 21.1613 21.9391 21.4004C22.4862 21.6394 22.9253 21.959 23.2563 22.359C23.5873 22.7544 23.7529 23.2394 23.7529 23.8141C23.7529 24.4026 23.5873 24.9153 23.2563 25.3521C22.9253 25.7889 22.4862 26.1291 21.9391 26.3728C21.3919 26.6164 20.7965 26.7383 20.1529 26.7383Z" fill="white"/>
</svg>