<svg xmlns="http://www.w3.org/2000/svg" width="41" height="40" viewBox="0 0 41 40" fill="none">
  <path d="M11.5978 4.38652C6.24686 7.52988 2.65476 13.3455 2.65476 20C2.65476 29.9937 10.7563 38.0952 20.75 38.0952C30.7437 38.0952 38.8452 29.9937 38.8452 20C38.8452 13.3454 35.2531 7.52981 29.9021 4.38647L30.9884 2.81577C36.8347 6.30651 40.75 12.696 40.75 20C40.75 31.0457 31.7957 40 20.75 40C9.70431 40 0.75 31.0457 0.75 20C0.75 12.6961 4.66525 6.30658 10.5115 2.81583L11.5978 4.38652Z" fill="#1D1D1F"/>
  <path d="M11.5978 4.38652C6.24686 7.52988 2.65476 13.3455 2.65476 20C2.65476 29.9937 10.7563 38.0952 20.75 38.0952C30.7437 38.0952 38.8452 29.9937 38.8452 20C38.8452 13.3454 35.2531 7.52981 29.9021 4.38647L30.9884 2.81577C36.8347 6.30651 40.75 12.696 40.75 20C40.75 31.0457 31.7957 40 20.75 40C9.70431 40 0.75 31.0457 0.75 20C0.75 12.6961 4.66525 6.30658 10.5115 2.81583L11.5978 4.38652Z" stroke="#1D1D1F"/>
  <mask id="mask0_237_39668" style="mask-type:alpha" maskUnits="userSpaceOnUse" x="0" y="0" width="41" height="40">
    <circle cx="20" cy="20" r="19.0476" transform="matrix(1 0 0 -1 0.75 40)" fill="#D9D9D9" stroke="#1D1D1F" stroke-width="1.90476"/>
  </mask>
  <g mask="url(#mask0_237_39668)">
    <path d="M5.27762 -6.42848L20.7518 15.9449L36.2261 -6.42848L5.27762 -6.42848Z" stroke="#1D1D1F" stroke-width="1.90476"/>
    <path d="M14.7844 -1.23663L20.7507 7.38963L26.7169 -1.23663H14.7844Z" fill="#1D1D1F" stroke="#1D1D1F" stroke-width="0.734398"/>
  </g>
  <path d="M30.2742 13.3339L20.7504 25.7148L11.2266 13.3339" stroke="#1D1D1F" stroke-width="1.90476" stroke-linecap="round" stroke-linejoin="round"/>
</svg>