<svg xmlns="http://www.w3.org/2000/svg" width="20" height="20" viewBox="0 0 20 20" fill="none">
  <path d="M16.5004 6.20252C16.4258 6.23768 16.3589 6.28725 16.3036 6.34838C16.2482 6.40951 16.2055 6.48098 16.1779 6.55869C16.1503 6.63639 16.1384 6.71879 16.1428 6.80113C16.1472 6.88347 16.1678 6.96413 16.2035 7.03846C16.9342 8.56829 17.0739 10.3142 16.5957 11.9407C16.1175 13.5673 15.0551 14.9598 13.6127 15.8507C12.1703 16.7417 10.4496 17.0682 8.78106 16.7677C7.11253 16.4671 5.61389 15.5607 4.57302 14.2224C3.53216 12.8841 3.02248 11.2085 3.14189 9.51732C3.26131 7.82615 4.00139 6.23874 5.21998 5.06002C6.43857 3.88131 8.04972 3.19443 9.74393 3.13133C11.4381 3.06822 13.0959 3.63335 14.3988 4.71814L12.6176 6.49939C11.7314 5.84603 10.6315 5.55079 9.53729 5.67257C8.44307 5.79436 7.435 6.32422 6.7142 7.15645C5.9934 7.98867 5.61287 9.06206 5.64854 10.1625C5.68421 11.2629 6.13344 12.3093 6.90662 13.0931C7.53359 13.7199 8.33617 14.1414 9.20804 14.3018C10.0799 14.4622 10.98 14.354 11.7889 13.9914C12.5979 13.6289 13.2777 13.0291 13.7382 12.2716C14.1987 11.514 14.4181 10.6345 14.3676 9.7494C14.3636 9.66761 14.3434 9.58744 14.3081 9.51355C14.2728 9.43965 14.2232 9.37351 14.1622 9.31898C14.1011 9.26445 14.0298 9.22261 13.9524 9.19591C13.875 9.16921 13.793 9.15818 13.7113 9.16346C13.6292 9.16746 13.5487 9.18762 13.4744 9.22279C13.4001 9.25796 13.3334 9.30744 13.2783 9.3684C13.2231 9.42936 13.1805 9.5006 13.153 9.57804C13.1254 9.65548 13.1134 9.73761 13.1176 9.81971C13.1515 10.3989 13.0235 10.9761 12.7479 11.4867C12.4723 11.9973 12.0601 12.421 11.5573 12.7105C11.0545 13.0001 10.481 13.1439 9.90109 13.1259C9.32117 13.1079 8.75771 12.9289 8.27381 12.6088L10.1488 10.7338L13.0941 7.78846L17.9457 2.94471C18.0453 2.82327 18.0963 2.66911 18.0886 2.5122C18.0809 2.35529 18.0151 2.20686 17.904 2.09578C17.7929 1.98469 17.6445 1.9189 17.4876 1.91119C17.3307 1.90349 17.1765 1.95442 17.0551 2.05408L15.2894 3.82752C13.7346 2.4966 11.7347 1.8015 9.68963 1.88116C7.64451 1.96082 5.70479 2.80938 4.25819 4.25721C3.50276 5.01053 2.90341 5.9055 2.49446 6.89085C2.08551 7.87619 1.875 8.93255 1.875 9.9994C1.875 11.0662 2.08551 12.1226 2.49446 13.1079C2.90341 14.0933 3.50276 14.9883 4.25819 15.7416C5.0115 16.497 5.90648 17.0964 6.89182 17.5053C7.87717 17.9143 8.93353 18.1248 10.0004 18.1248C11.0672 18.1248 12.1236 17.9143 13.1089 17.5053C14.0943 17.0964 14.9892 16.497 15.7426 15.7416C16.9309 14.5547 17.7221 13.0287 18.0075 11.3737C18.293 9.71858 18.0585 8.01572 17.3363 6.49939C17.3011 6.42481 17.2516 6.35792 17.1904 6.30258C17.1293 6.24723 17.0578 6.20453 16.9801 6.17694C16.9024 6.14934 16.82 6.1374 16.7377 6.14179C16.6554 6.14618 16.5747 6.16682 16.5004 6.20252Z" fill="#1D1D1F" fill-opacity="0.89"/>
  <path d="M16.517 6.23785L16.5173 6.23773C16.587 6.20426 16.6626 6.18491 16.7398 6.18079C16.817 6.17668 16.8942 6.18788 16.9671 6.21375C17.0399 6.23962 17.1069 6.27965 17.1642 6.33153C17.2215 6.38342 17.268 6.44613 17.301 6.51605L17.301 6.51619C18.0197 8.02523 18.2531 9.7199 17.9691 11.367C17.685 13.0141 16.8975 14.5328 15.715 15.7139L15.7149 15.714C14.9652 16.4658 14.0745 17.0623 13.0939 17.4692C12.1133 17.8762 11.0621 18.0857 10.0004 18.0857C8.93867 18.0857 7.8874 17.8762 6.9068 17.4692C5.9262 17.0623 5.03553 16.4658 4.28585 15.714L4.28577 15.7139C3.53398 14.9642 2.93751 14.0736 2.53053 13.093C2.12355 12.1124 1.91406 11.0611 1.91406 9.9994C1.91406 8.93769 2.12355 7.88642 2.53053 6.90582C2.93751 5.92522 3.53398 5.03456 4.28577 4.28487L4.28582 4.28482C5.72546 2.84395 7.65586 1.99947 9.69115 1.9202C11.7264 1.84092 13.7167 2.53267 15.264 3.8572L15.2916 3.88075L15.3171 3.85508L17.0813 2.08306C17.195 1.99035 17.3391 1.94301 17.4857 1.95021C17.6329 1.95744 17.7721 2.01917 17.8764 2.1234C17.9806 2.22762 18.0423 2.36689 18.0496 2.51412C18.0568 2.6607 18.0094 2.80474 17.9167 2.91845L13.0665 7.76081L13.0665 7.76084L10.1212 10.7061L8.24619 12.5811L8.21237 12.615L8.25226 12.6413C8.74221 12.9654 9.31271 13.1468 9.89988 13.165C10.487 13.1832 11.0677 13.0375 11.5768 12.7444C12.0858 12.4513 12.5033 12.0222 12.7823 11.5052C13.0613 10.9883 13.1909 10.4039 13.1566 9.81753C13.1526 9.74062 13.1639 9.66369 13.1898 9.59115C13.2156 9.51854 13.2555 9.45175 13.3072 9.3946C13.359 9.33745 13.4214 9.29107 13.4911 9.2581C13.5608 9.22513 13.6362 9.20623 13.7132 9.20248L13.7138 9.20244C13.7904 9.19749 13.8671 9.20783 13.9396 9.23284C14.0121 9.25785 14.0789 9.29704 14.1361 9.34812C14.1934 9.3992 14.2398 9.46115 14.2729 9.53037C14.3059 9.59959 14.3248 9.67469 14.3285 9.75129L14.3286 9.75162C14.3787 10.6288 14.1612 11.5005 13.7048 12.2513C13.2484 13.002 12.5747 13.5964 11.773 13.9558C10.9712 14.3151 10.0792 14.4224 9.21511 14.2634C8.35107 14.1044 7.55571 13.6867 6.93436 13.0656C6.16813 12.2888 5.72293 11.2517 5.68758 10.1612C5.65223 9.07062 6.02936 8.00681 6.74373 7.18202C7.45809 6.35723 8.45716 5.8321 9.54161 5.7114C10.6261 5.5907 11.7161 5.8833 12.5944 6.53083L12.6214 6.55077L12.6452 6.52702L14.4264 4.74577L14.4567 4.71551L14.4238 4.68813C13.1135 3.59717 11.4463 3.02883 9.74247 3.09229C8.03864 3.15575 6.41834 3.84654 5.19282 5.03195C3.96731 6.21736 3.22302 7.81379 3.10293 9.51457C2.98284 11.2154 3.49541 12.9005 4.54219 14.2464C5.58897 15.5922 7.09612 16.5039 8.77413 16.8061C10.4521 17.1084 12.1827 16.7799 13.6333 15.8839C15.0839 14.9879 16.1522 13.5875 16.6332 11.9517C17.1141 10.3159 16.9736 8.56015 16.2387 7.02162L16.2387 7.02154C16.2052 6.95186 16.1859 6.87624 16.1818 6.79905C16.1777 6.72185 16.1889 6.64461 16.2147 6.57176C16.2406 6.49891 16.2806 6.43191 16.3325 6.3746C16.3844 6.31729 16.4471 6.27082 16.517 6.23785Z" stroke="#1D1D1F" stroke-opacity="0.89" stroke-width="0.078125"/>
</svg>