<svg xmlns="http://www.w3.org/2000/svg" width="21" height="20" viewBox="0 0 21 20" fill="none">
  <path d="M19.0751 7.75C18.7358 7.40179 18.3876 7.03571 18.2536 6.72321C18.1197 6.41071 18.1286 5.94643 18.1197 5.47321C18.1108 4.60714 18.0929 3.61607 17.4054 2.92857C16.7179 2.24107 15.7268 2.22321 14.8608 2.21429C14.3876 2.20536 13.9054 2.19643 13.6108 2.08036C13.3161 1.96429 12.9322 1.59821 12.584 1.25893C11.9679 0.669643 11.2626 0 10.334 0C9.40541 0 8.70006 0.669643 8.08398 1.25893C7.73577 1.59821 7.3697 1.94643 7.0572 2.08036C6.7447 2.21429 6.28041 2.20536 5.8072 2.21429C4.94113 2.22321 3.95006 2.24107 3.26256 2.92857C2.57506 3.61607 2.5572 4.60714 2.54827 5.47321C2.53934 5.94643 2.53041 6.42857 2.41434 6.72321C2.29827 7.01786 1.9322 7.40179 1.59291 7.75C1.00363 8.36607 0.333984 9.07143 0.333984 10C0.333984 10.9286 1.00363 11.6339 1.59291 12.25C1.9322 12.5982 2.28041 12.9643 2.41434 13.2768C2.54827 13.5893 2.53934 14.0536 2.54827 14.5268C2.5572 15.3929 2.57506 16.3839 3.26256 17.0714C3.95006 17.7589 4.94113 17.7768 5.8072 17.7857C6.28041 17.7946 6.76256 17.8036 7.0572 17.9196C7.35184 18.0357 7.73577 18.4018 8.08398 18.7411C8.70006 19.3304 9.40541 20 10.334 20C11.2626 20 11.9679 19.3304 12.584 18.7411C12.9322 18.4018 13.2983 18.0536 13.6108 17.9196C13.9233 17.7857 14.3876 17.7946 14.8608 17.7857C15.7268 17.7768 16.7179 17.7589 17.4054 17.0714C18.0929 16.3839 18.1108 15.3929 18.1197 14.5268C18.1286 14.0536 18.1376 13.5714 18.2536 13.2768C18.3697 12.9821 18.7358 12.5982 19.0751 12.25C19.6643 11.6339 20.334 10.9286 20.334 10C20.334 9.07143 19.6643 8.36607 19.0751 7.75ZM14.7536 8.375L9.52148 13.375C9.38622 13.5022 9.20719 13.5726 9.02148 13.5714C8.83851 13.5721 8.66243 13.5017 8.53041 13.375L5.91434 10.875C5.84178 10.8117 5.78277 10.7344 5.74086 10.6477C5.69894 10.561 5.67499 10.4667 5.67044 10.3705C5.66589 10.2743 5.68083 10.1782 5.71437 10.088C5.74792 9.99769 5.79936 9.91515 5.86562 9.84527C5.93188 9.7754 6.01159 9.71964 6.09994 9.68136C6.1883 9.64308 6.28348 9.62305 6.37978 9.62249C6.47607 9.62193 6.57148 9.64085 6.66028 9.67811C6.74907 9.71536 6.82942 9.77019 6.89648 9.83928L9.02148 11.8661L13.7715 7.33928C13.9104 7.21811 14.0907 7.15532 14.2748 7.16403C14.4589 7.17274 14.6325 7.25228 14.7594 7.38602C14.8862 7.51977 14.9564 7.69736 14.9553 7.88167C14.9543 8.06598 14.882 8.24274 14.7536 8.375Z" fill="white"/>
</svg>