<svg xmlns="http://www.w3.org/2000/svg" width="24" height="18" viewBox="0 0 24 18" fill="none">
  <path d="M23.1851 12.9188L19.9976 2.30632C19.9364 2.09168 19.8268 1.89391 19.6773 1.72816C19.5278 1.56241 19.3423 1.43308 19.1351 1.35007H19.0789L19.1351 1.33132C18.0892 0.912256 17.0064 0.592106 15.9008 0.375074C15.8041 0.355972 15.7047 0.356097 15.6081 0.375443C15.5115 0.394789 15.4196 0.432976 15.3378 0.487824C15.2559 0.542671 15.1857 0.613104 15.1311 0.6951C15.0765 0.777095 15.0386 0.869046 15.0195 0.965699C14.999 1.06178 14.9978 1.16099 15.016 1.25754C15.0342 1.35408 15.0715 1.44604 15.1256 1.52806C15.1797 1.61007 15.2495 1.68051 15.3311 1.73525C15.4127 1.79 15.5044 1.82797 15.6008 1.84695C16.0226 1.93132 16.4351 2.03445 16.8383 2.14695C16.9867 2.22402 17.1052 2.34852 17.1748 2.50066C17.2444 2.65279 17.2611 2.82382 17.2223 2.98655C17.1835 3.14928 17.0914 3.29437 16.9607 3.39874C16.8299 3.50312 16.668 3.56078 16.5008 3.56257H16.4258C14.981 3.1858 13.4938 2.99674 12.0008 3.00007C10.5428 2.99573 9.09033 3.17847 7.67889 3.54382C7.49928 3.59121 7.30848 3.57027 7.14344 3.48504C6.97839 3.39982 6.85084 3.25638 6.78549 3.0825C6.72014 2.90863 6.72164 2.71668 6.7897 2.54385C6.85776 2.37102 6.98753 2.22959 7.15389 2.14695H7.16326C7.56639 2.03445 7.97889 1.93132 8.40076 1.84695C8.49742 1.82788 8.58937 1.78996 8.67136 1.73535C8.75336 1.68075 8.82379 1.61052 8.87864 1.52868C8.93349 1.44684 8.97167 1.355 8.99102 1.25841C9.01037 1.16181 9.01049 1.06235 8.99139 0.965699C8.95064 0.77171 8.83566 0.601342 8.671 0.490984C8.50634 0.380627 8.30505 0.339028 8.11014 0.375074C7.00054 0.59696 5.91444 0.923418 4.86639 1.35007C4.65918 1.43308 4.47373 1.56241 4.32422 1.72816C4.17472 1.89391 4.06515 2.09168 4.00389 2.30632L0.816389 12.9188C0.733698 13.1963 0.733071 13.4918 0.814584 13.7696C0.896097 14.0474 1.05627 14.2957 1.27576 14.4844C1.36201 14.5675 1.45277 14.6458 1.54764 14.7188H1.55701C3.07576 15.9563 5.07264 16.9032 7.32264 17.447C7.38022 17.4654 7.4403 17.4749 7.50076 17.4751C7.68619 17.478 7.86614 17.4121 8.00585 17.2902C8.14557 17.1682 8.23514 16.9988 8.25728 16.8147C8.27942 16.6306 8.23256 16.4448 8.12574 16.2932C8.01893 16.1416 7.85973 16.0349 7.67889 15.9938C6.66737 15.7495 5.68397 15.4007 4.74451 14.9532C4.61593 14.8327 4.53388 14.6708 4.51274 14.4959C4.49161 14.3209 4.53274 14.1441 4.62893 13.9965C4.72512 13.8489 4.87022 13.7398 5.03878 13.6885C5.20734 13.6371 5.3886 13.6468 5.55076 13.7157C7.33201 14.5032 9.57264 15.0001 12.0008 15.0001C14.4289 15.0001 16.6695 14.5032 18.4508 13.7157C18.6129 13.6468 18.7942 13.6371 18.9627 13.6885C19.1313 13.7398 19.2764 13.8489 19.3726 13.9965C19.4688 14.1441 19.5099 14.3209 19.4888 14.4959C19.4676 14.6708 19.3856 14.8327 19.257 14.9532C18.3176 15.4007 17.3342 15.7495 16.3226 15.9938C16.1418 16.0349 15.9826 16.1416 15.8758 16.2932C15.769 16.4448 15.7221 16.6306 15.7442 16.8147C15.7664 16.9988 15.856 17.1682 15.9957 17.2902C16.1354 17.4121 16.3153 17.478 16.5008 17.4751C16.5612 17.4749 16.6213 17.4654 16.6789 17.447C18.9289 16.9032 20.9258 15.9563 22.4445 14.7188H22.4539C22.5488 14.6458 22.6395 14.5675 22.7258 14.4844C22.9453 14.2957 23.1054 14.0474 23.1869 13.7696C23.2685 13.4918 23.2678 13.1963 23.1851 12.9188ZM9.00076 11.6251C8.77826 11.6251 8.56075 11.5591 8.37575 11.4355C8.19074 11.3119 8.04655 11.1362 7.9614 10.9306C7.87625 10.725 7.85397 10.4988 7.89738 10.2806C7.94079 10.0624 8.04793 9.86191 8.20527 9.70458C8.3626 9.54725 8.56306 9.4401 8.78129 9.39669C8.99951 9.35328 9.22572 9.37556 9.43128 9.46071C9.63685 9.54586 9.81255 9.69005 9.93617 9.87506C10.0598 10.0601 10.1258 10.2776 10.1258 10.5001C10.1258 10.7984 10.0072 11.0846 9.79626 11.2956C9.58528 11.5065 9.29913 11.6251 9.00076 11.6251ZM15.0008 11.6251C14.7783 11.6251 14.5608 11.5591 14.3757 11.4355C14.1907 11.3119 14.0465 11.1362 13.9614 10.9306C13.8762 10.725 13.854 10.4988 13.8974 10.2806C13.9408 10.0624 14.0479 9.86191 14.2053 9.70458C14.3626 9.54725 14.5631 9.4401 14.7813 9.39669C14.9995 9.35328 15.2257 9.37556 15.4313 9.46071C15.6368 9.54586 15.8125 9.69005 15.9362 9.87506C16.0598 10.0601 16.1258 10.2776 16.1258 10.5001C16.1258 10.7984 16.0072 11.0846 15.7963 11.2956C15.5853 11.5065 15.2991 11.6251 15.0008 11.6251Z" fill="currentColor"/>
</svg>