<svg xmlns="http://www.w3.org/2000/svg" width="32" height="32" viewBox="0 0 32 32" fill="none">
  <path d="M29.9857 12.4C29.4429 11.8429 28.8857 11.2571 28.6714 10.7571C28.4571 10.2571 28.4714 9.51429 28.4571 8.75714C28.4429 7.37143 28.4143 5.78571 27.3143 4.68571C26.2143 3.58571 24.6286 3.55714 23.2429 3.54286C22.4857 3.52857 21.7143 3.51429 21.2429 3.32857C20.7714 3.14286 20.1571 2.55714 19.6 2.01429C18.6143 1.07143 17.4857 0 16 0C14.5143 0 13.3857 1.07143 12.4 2.01429C11.8429 2.55714 11.2571 3.11429 10.7571 3.32857C10.2571 3.54286 9.51429 3.52857 8.75714 3.54286C7.37143 3.55714 5.78571 3.58571 4.68571 4.68571C3.58571 5.78571 3.55714 7.37143 3.54286 8.75714C3.52857 9.51429 3.51429 10.2857 3.32857 10.7571C3.14286 11.2286 2.55714 11.8429 2.01429 12.4C1.07143 13.3857 0 14.5143 0 16C0 17.4857 1.07143 18.6143 2.01429 19.6C2.55714 20.1571 3.11429 20.7429 3.32857 21.2429C3.54286 21.7429 3.52857 22.4857 3.54286 23.2429C3.55714 24.6286 3.58571 26.2143 4.68571 27.3143C5.78571 28.4143 7.37143 28.4429 8.75714 28.4571C9.51429 28.4714 10.2857 28.4857 10.7571 28.6714C11.2286 28.8571 11.8429 29.4429 12.4 29.9857C13.3857 30.9286 14.5143 32 16 32C17.4857 32 18.6143 30.9286 19.6 29.9857C20.1571 29.4429 20.7429 28.8857 21.2429 28.6714C21.7429 28.4571 22.4857 28.4714 23.2429 28.4571C24.6286 28.4429 26.2143 28.4143 27.3143 27.3143C28.4143 26.2143 28.4429 24.6286 28.4571 23.2429C28.4714 22.4857 28.4857 21.7143 28.6714 21.2429C28.8571 20.7714 29.4429 20.1571 29.9857 19.6C30.9286 18.6143 32 17.4857 32 16C32 14.5143 30.9286 13.3857 29.9857 12.4ZM23.0714 13.4L14.7 21.4C14.4836 21.6036 14.1971 21.7161 13.9 21.7143C13.6072 21.7154 13.3255 21.6027 13.1143 21.4L8.92857 17.4C8.81248 17.2987 8.71806 17.175 8.65099 17.0363C8.58393 16.8976 8.54561 16.7467 8.53833 16.5928C8.53104 16.4389 8.55496 16.2852 8.60862 16.1407C8.66229 15.9963 8.74461 15.8642 8.85062 15.7524C8.95664 15.6406 9.08416 15.5514 9.22553 15.4902C9.3669 15.4289 9.5192 15.3969 9.67327 15.396C9.82734 15.3951 9.98 15.4254 10.1221 15.485C10.2641 15.5446 10.3927 15.6323 10.5 15.7429L13.9 18.9857L21.5 11.7429C21.7222 11.549 22.0108 11.4485 22.3053 11.4625C22.5999 11.4764 22.8777 11.6037 23.0806 11.8176C23.2835 12.0316 23.3959 12.3158 23.3942 12.6107C23.3925 12.9056 23.2768 13.1884 23.0714 13.4Z" fill="#0AC2C2"/>
</svg>