<svg xmlns="http://www.w3.org/2000/svg" width="24" height="24" viewBox="0 0 24 24" fill="none">
  <path d="M21.6828 2.97184C21.4747 2.79552 21.2227 2.67887 20.9537 2.6343C20.6846 2.58973 20.4085 2.6189 20.1547 2.71871L2.84842 9.51559C2.54487 9.63124 2.28775 9.84346 2.11666 10.1196C1.94556 10.3957 1.86998 10.7204 1.90154 11.0437C1.9297 11.3669 2.06187 11.6722 2.27822 11.9139C2.49458 12.1556 2.78346 12.3207 3.10154 12.3843L7.49842 13.2562V18.75C7.49826 19.0472 7.5864 19.3377 7.75164 19.5847C7.91688 19.8318 8.15179 20.0242 8.42654 20.1375C8.60838 20.2106 8.80241 20.2488 8.99842 20.25C9.19543 20.2507 9.3906 20.212 9.5725 20.1364C9.7544 20.0607 9.91939 19.9495 10.0578 19.8093L12.4953 17.3812L16.1797 20.625C16.4517 20.8649 16.8014 20.9981 17.164 21C17.3235 21.0032 17.4823 20.9778 17.6328 20.925C17.8802 20.8467 18.1029 20.7052 18.2788 20.5144C18.4547 20.3237 18.5778 20.0904 18.6359 19.8375L22.1609 4.44371C22.2225 4.17809 22.2106 3.90069 22.1263 3.64135C22.0421 3.38201 21.8887 3.15054 21.6828 2.97184ZM17.1734 19.5L9.44842 12.7031L20.5765 4.66871L17.1734 19.5Z" fill="currentColor"/>
</svg>